<svg id="Layer_1" data-name="Layer 1" xmlns="http://www.w3.org/2000/svg" viewBox="0 0 950 553"><defs><style>.cls-1{fill:#2f358f;}.cls-1,.cls-2,.cls-3,.cls-4,.cls-5,.cls-6,.cls-7,.cls-8{opacity:0.8;}.cls-2{fill:#beb1ee;}.cls-3{fill:#0d7138;}.cls-4{fill:#f69331;}.cls-5{fill:#eb1d5d;}.cls-6{fill:#add178;}.cls-7{fill:#fef372;}.cls-8{fill:#71d0f5;}</style></defs><title>lobby-defined-zones-01-01</title><ellipse id="restaurant_1" class="cls-1" cx="156.62" cy="270.12" rx="76.88" ry="132.51" transform="matrix(0.08, -1, 1, 0.08, -124.59, 405.8)"/><ellipse id="restaurant_2" class="cls-1" cx="333.95" cy="320.59" rx="43.13" ry="50.56" transform="translate(-82.04 523.69) rotate(-69.85)"/><ellipse id="market" class="cls-2" cx="332.8" cy="252.1" rx="48.2" ry="22.01"/><circle id="retail" class="cls-3" cx="407.5" cy="273" r="30.5"/><ellipse id="reception" class="cls-4" cx="438" cy="204.26" rx="41.81" ry="24.53" transform="translate(42.1 481.45) rotate(-60)"/><ellipse id="gatheringLounge" class="cls-5" cx="560.94" cy="288.24" rx="59.5" ry="111" transform="translate(97.13 715.59) rotate(-69.85)"/><ellipse id="techLab" class="cls-6" cx="672.62" cy="226.34" rx="46.72" ry="92.98" transform="translate(175.58 732.9) rotate(-64.14)"/><ellipse id="arrival" class="cls-7" cx="491.15" cy="377.47" rx="28.52" ry="45.2" transform="translate(-62.73 654.82) rotate(-64.14)"/><ellipse id="bar" class="cls-8" cx="654.51" cy="398.95" rx="111" ry="83.48" transform="translate(-107.51 316.1) rotate(-25.16)"/><ellipse id="gatheringLounge-2" data-name="gatheringLounge" class="cls-5" cx="814.25" cy="336.24" rx="59.5" ry="37.55" transform="translate(156.55 922.32) rotate(-64.14)"/></svg>