<svg xmlns="http://www.w3.org/2000/svg" viewBox="0 0 1640 790"><defs><style>.cls-1{fill:#06a7e0;stroke-width:1.33px;opacity:0.9;}.cls-1,.cls-2,.cls-3{stroke:#fff;stroke-miterlimit:10;}.cls-2{fill:none;stroke-width:4.67px;}.cls-3{fill:#fff;stroke-width:2px;}.cls-4{fill:#231f20;}</style></defs><title>01_1640x790</title><g id="_01_1640x790" data-name="01_1640x790"><g id="_21_plus" class="svg-showtip" data-name="21_plus"><circle class="cls-1" cx="973.49" cy="320.16" r="25"/><line class="cls-2" x1="958.87" y1="320.16" x2="988.1" y2="320.16"/><line class="cls-2" x1="973.49" y1="334.78" x2="973.49" y2="305.55"/></g><g id="_21_tooltip" class="svg-tooltip" data-name="21_tooltip"><path id="tooltip" class="cls-3" d="M1369.35,242.39H997.61l-23,20-24-20H911.08a3.27,3.27,0,0,1-3.26-3.26V82.65a3.27,3.27,0,0,1,3.26-3.26h458.27a3.27,3.27,0,0,1,3.26,3.26V239.13A3.27,3.27,0,0,1,1369.35,242.39Z"/><path class="cls-4" d="M944.38,122.48v10.21h-1.16V122.48h-3.9v-1h9v1Z"/><path class="cls-4" d="M951.56,125.91a5.86,5.86,0,0,1,3.73-1.39,2.78,2.78,0,0,1,3,3v5.13h-1.08v-4.85a2.16,2.16,0,0,0-2.27-2.43,5,5,0,0,0-3.35,1.3v6h-1.08V121.48h1.08Z"/><path class="cls-4" d="M968.8,128.68V129h-7.13a3.17,3.17,0,0,0,3.21,3,3.82,3.82,0,0,0,2.71-1.1l.59.53a4.84,4.84,0,0,1-3.38,1.38,4.18,4.18,0,0,1-4.18-4.17,4.13,4.13,0,0,1,4.09-4.16A3.94,3.94,0,0,1,968.8,128.68Zm-7.12-.21h6.11a3,3,0,0,0-3.06-3.16A3.11,3.11,0,0,0,961.68,128.47Z"/><path class="cls-4" d="M983,128.68V129h-7.12a3.16,3.16,0,0,0,3.2,3,3.82,3.82,0,0,0,2.71-1.1l.59.53a4.84,4.84,0,0,1-3.38,1.38,4.17,4.17,0,0,1-4.17-4.17,4.12,4.12,0,0,1,4.09-4.16A3.94,3.94,0,0,1,983,128.68Zm-7.12-.21H982a3,3,0,0,0-3.06-3.16A3.11,3.11,0,0,0,975.87,128.47Z"/><path class="cls-4" d="M992.29,132.69H991l-2.74-3.42-2.72,3.42h-1.23l3.32-4.16-3.08-3.85h1.24l2.51,3.14,2.49-3.14h1.24l-3.1,3.88Z"/><path class="cls-4" d="M998.25,124.68v.84h-2.6v4.39a1.91,1.91,0,0,0,2,2.05,2.42,2.42,0,0,0,1.15-.31l.18.76a3.84,3.84,0,0,1-1.7.44,2.59,2.59,0,0,1-2.67-2.78v-4.55H993.1v-.84h1.47v-2.37h1.08v2.37Z"/><path class="cls-4" d="M1008.4,128.68V129h-7.13a3.17,3.17,0,0,0,3.21,3,3.82,3.82,0,0,0,2.71-1.1l.59.53a4.84,4.84,0,0,1-3.38,1.38,4.17,4.17,0,0,1-4.17-4.17,4.12,4.12,0,0,1,4.08-4.16A3.94,3.94,0,0,1,1008.4,128.68Zm-7.12-.21h6.11a3,3,0,0,0-3.06-3.16A3.11,3.11,0,0,0,1001.28,128.47Z"/><path class="cls-4" d="M1015.68,125.41a5.22,5.22,0,0,0-3.77,1.68v5.6h-1.08v-8h1.08v1.54a5.29,5.29,0,0,1,3.77-1.7Z"/><path class="cls-4" d="M1018.9,122.45a.64.64,0,1,1-.64-.57A.6.6,0,0,1,1018.9,122.45Zm-1.17,10.24v-8h1.08v8Z"/><path class="cls-4" d="M1030.1,128.68a4.35,4.35,0,1,1-4.35-4.16A4.26,4.26,0,0,1,1030.1,128.68Zm-7.63,0a3.28,3.28,0,1,0,3.28-3.23A3.26,3.26,0,0,0,1022.47,128.68Z"/><path class="cls-4" d="M1037.47,125.41a5.22,5.22,0,0,0-3.77,1.68v5.6h-1.08v-8h1.08v1.54a5.29,5.29,0,0,1,3.77-1.7Z"/><path class="cls-4" d="M1050.25,127.51v5.18h-1.08v-1a5.56,5.56,0,0,1-3.58,1.19,2.58,2.58,0,0,1-2.81-2.59c0-1.55,1.21-2.36,3.15-2.36h3.24v-.29c0-1.55-1-2.24-2.49-2.24a4.94,4.94,0,0,0-2.92,1l-.35-.7a6.23,6.23,0,0,1,3.53-1.14C1048.84,124.52,1050.25,125.41,1050.25,127.51Zm-4,.87c-1.52,0-2.44.6-2.44,1.79a2,2,0,0,0,2.16,2,5,5,0,0,0,3.16-1v-2.79Z"/><path class="cls-4" d="M1057.87,125.41a5.22,5.22,0,0,0-3.77,1.68v5.6H1053v-8h1.08v1.54a5.29,5.29,0,0,1,3.77-1.7Z"/><path class="cls-4" d="M1064.56,125.41a5.22,5.22,0,0,0-3.77,1.68v5.6h-1.08v-8h1.08v1.54a5.29,5.29,0,0,1,3.77-1.7Z"/><path class="cls-4" d="M1067.78,122.45a.64.64,0,1,1-.64-.57A.6.6,0,0,1,1067.78,122.45Zm-1.17,10.24v-8h1.07v8Z"/><path class="cls-4" d="M1073.14,132.69l-3.52-8h1.16l3,6.91,3-6.91H1078l-3.51,8Z"/><path class="cls-4" d="M1086.44,127.51v5.18h-1.08v-1a5.56,5.56,0,0,1-3.58,1.19,2.58,2.58,0,0,1-2.81-2.59c0-1.55,1.22-2.36,3.15-2.36h3.24v-.29c0-1.55-1-2.24-2.49-2.24a5,5,0,0,0-2.92,1l-.35-.7a6.23,6.23,0,0,1,3.53-1.14C1085,124.52,1086.44,125.41,1086.44,127.51Zm-4,.87c-1.52,0-2.44.6-2.44,1.79a2,2,0,0,0,2.16,2,5,5,0,0,0,3.16-1v-2.79Z"/><path class="cls-4" d="M1089.31,132.68v-11.2h1.08v11.2Z"/><path class="cls-4" d="M1105.46,128.68a4.35,4.35,0,1,1-4.35-4.16A4.26,4.26,0,0,1,1105.46,128.68Zm-7.63,0a3.28,3.28,0,1,0,3.28-3.23A3.26,3.26,0,0,0,1097.83,128.68Z"/><path class="cls-4" d="M1112.42,121.55l-.17.7a2.62,2.62,0,0,0-.91-.17,1.9,1.9,0,0,0-1.94,2v.57h2.7v.84h-2.7v7.17h-1.07v-7.17H1107v-.84h1.38v-.59a2.58,2.58,0,0,1,2.72-2.77A4.47,4.47,0,0,1,1112.42,121.55Z"/><path class="cls-4" d="M1122.47,124.68v.84h-2.6v4.39a1.92,1.92,0,0,0,2,2.05,2.39,2.39,0,0,0,1.15-.31l.18.76a3.84,3.84,0,0,1-1.7.44,2.59,2.59,0,0,1-2.67-2.78v-4.55h-1.47v-.84h1.47v-2.37h1.08v2.37Z"/><path class="cls-4" d="M1126.7,125.91a5.9,5.9,0,0,1,3.74-1.39,2.78,2.78,0,0,1,3,3v5.13h-1.08v-4.85a2.16,2.16,0,0,0-2.27-2.43,5,5,0,0,0-3.36,1.3v6h-1.08V121.48h1.08Z"/><path class="cls-4" d="M1144,128.68V129h-7.13a3.17,3.17,0,0,0,3.21,3,3.82,3.82,0,0,0,2.71-1.1l.59.53a4.86,4.86,0,0,1-3.39,1.38,4.17,4.17,0,0,1-4.17-4.17,4.13,4.13,0,0,1,4.09-4.16A3.94,3.94,0,0,1,1144,128.68Zm-7.12-.21h6.11a3,3,0,0,0-3.06-3.16A3.11,3.11,0,0,0,1136.83,128.47Z"/><path class="cls-4" d="M1151.54,125.91a5.86,5.86,0,0,1,3.73-1.39,2.78,2.78,0,0,1,3,3v5.13h-1.08v-4.85a2.16,2.16,0,0,0-2.27-2.43,5,5,0,0,0-3.35,1.3v6h-1.08V121.48h1.08Z"/><path class="cls-4" d="M1169.3,128.68a4.35,4.35,0,1,1-4.35-4.16A4.26,4.26,0,0,1,1169.3,128.68Zm-7.64,0a3.29,3.29,0,1,0,3.28-3.23A3.26,3.26,0,0,0,1161.66,128.68Z"/><path class="cls-4" d="M1175.94,124.68v.84h-2.6v4.39a1.92,1.92,0,0,0,2,2.05,2.39,2.39,0,0,0,1.15-.31l.18.76a3.83,3.83,0,0,1-1.69.44,2.59,2.59,0,0,1-2.68-2.78v-4.55h-1.47v-.84h1.47v-2.37h1.08v2.37Z"/><path class="cls-4" d="M1186.09,128.68V129H1179a3.16,3.16,0,0,0,3.2,3,3.82,3.82,0,0,0,2.71-1.1l.59.53a4.84,4.84,0,0,1-3.38,1.38,4.17,4.17,0,0,1-4.17-4.17,4.12,4.12,0,0,1,4.09-4.16A3.94,3.94,0,0,1,1186.09,128.68Zm-7.12-.21h6.11a3,3,0,0,0-3.06-3.16A3.11,3.11,0,0,0,1179,128.47Z"/><path class="cls-4" d="M1188.62,132.68v-11.2h1.08v11.2Z"/><path class="cls-4" d="M1197.87,122.45a.6.6,0,0,1-.64.56.57.57,0,1,1,.64-.56Zm-1.17,10.24v-8h1.08v8Z"/><path class="cls-4" d="M1206.55,125.37l-.38.68a5.58,5.58,0,0,0-2.78-.78c-1.06,0-2,.43-2,1.43,0,.63.38.94,2,1.37,2.07.55,3.4.81,3.4,2.53,0,1.53-1.44,2.26-3.17,2.25a6.63,6.63,0,0,1-3.6-1l.4-.65a6,6,0,0,0,3.19.91c1.15,0,2.17-.42,2.17-1.41,0-1.19-.85-1.29-2.64-1.76-1.94-.52-2.75-1-2.75-2.15,0-1.58,1.36-2.26,3-2.26A6.18,6.18,0,0,1,1206.55,125.37Z"/><path class="cls-4" d="M1217.4,124.68v.84h-2.6v4.39a1.91,1.91,0,0,0,2,2.05,2.36,2.36,0,0,0,1.15-.31l.19.76a3.84,3.84,0,0,1-1.7.44,2.59,2.59,0,0,1-2.67-2.78v-4.55h-1.48v-.84h1.48v-2.37h1.08v2.37Z"/><path class="cls-4" d="M1221.63,125.91a5.9,5.9,0,0,1,3.74-1.39,2.77,2.77,0,0,1,3,3v5.13h-1.07v-4.85a2.16,2.16,0,0,0-2.27-2.43,5,5,0,0,0-3.36,1.3v6h-1.08V121.48h1.08Z"/><path class="cls-4" d="M1238.88,128.68V129h-7.13a3.16,3.16,0,0,0,3.2,3,3.84,3.84,0,0,0,2.72-1.1l.59.53a4.86,4.86,0,0,1-3.39,1.38,4.17,4.17,0,0,1-.08-8.33A3.94,3.94,0,0,1,1238.88,128.68Zm-7.13-.21h6.11a3,3,0,0,0-3-3.16A3.11,3.11,0,0,0,1231.75,128.47Z"/><path class="cls-4" d="M1249.75,121.55l-.17.7a2.66,2.66,0,0,0-.91-.17,1.89,1.89,0,0,0-1.94,2v.57H1253v8h-1.07v-7.17h-5.16v7.17h-1.08v-7.17h-1.38v-.84h1.38v-.59a2.59,2.59,0,0,1,2.73-2.77A4.47,4.47,0,0,1,1249.75,121.55Z"/><path class="cls-4" d="M1260.82,125.41a5.24,5.24,0,0,0-3.77,1.68v5.6H1256v-8h1.07v1.54a5.31,5.31,0,0,1,3.77-1.7Z"/><path class="cls-4" d="M1268.42,125.37l-.38.68a5.58,5.58,0,0,0-2.78-.78c-1.06,0-2,.43-2,1.43,0,.63.38.94,2,1.37,2.07.55,3.4.81,3.4,2.53,0,1.53-1.44,2.26-3.17,2.25a6.63,6.63,0,0,1-3.6-1l.4-.65a6,6,0,0,0,3.19.91c1.15,0,2.17-.42,2.17-1.41,0-1.19-.85-1.29-2.63-1.76-2-.52-2.76-1-2.76-2.15,0-1.58,1.36-2.26,3-2.26A6.18,6.18,0,0,1,1268.42,125.37Z"/><path class="cls-4" d="M1275.27,124.68v.84h-2.6v4.39a1.91,1.91,0,0,0,2,2.05,2.42,2.42,0,0,0,1.15-.31l.18.76a3.84,3.84,0,0,1-1.7.44,2.59,2.59,0,0,1-2.67-2.78v-4.55h-1.48v-.84h1.48v-2.37h1.08v2.37Z"/><path class="cls-4" d="M1290.63,128.68a4.35,4.35,0,1,1-4.35-4.16A4.27,4.27,0,0,1,1290.63,128.68Zm-7.64,0a3.28,3.28,0,1,0,3.28-3.23A3.26,3.26,0,0,0,1283,128.68Z"/><path class="cls-4" d="M1301.27,128.68a4,4,0,0,1-4,4.17,4,4,0,0,1-3-1.34v4.3h-1.08V124.68h1.08v1.18a4,4,0,0,1,7,2.82Zm-7-1.91v3.82a3.23,3.23,0,1,0,0-3.82Z"/><path class="cls-4" d="M1312,128.68a4,4,0,0,1-4,4.17,4,4,0,0,1-3-1.34v4.3h-1.08V124.68H1305v1.18a4,4,0,0,1,3-1.34A4,4,0,0,1,1312,128.68Zm-7-1.91v3.82a3.25,3.25,0,1,0,2.63-5.14A3.29,3.29,0,0,0,1305,126.77Z"/><path class="cls-4" d="M1322.8,128.68a4.35,4.35,0,1,1-4.35-4.16A4.26,4.26,0,0,1,1322.8,128.68Zm-7.63,0a3.28,3.28,0,1,0,3.28-3.23A3.26,3.26,0,0,0,1315.17,128.68Z"/><path class="cls-4" d="M1330.17,125.41a5.22,5.22,0,0,0-3.77,1.68v5.6h-1.08v-8h1.08v1.54a5.29,5.29,0,0,1,3.77-1.7Z"/><path class="cls-4" d="M1331.25,129v-.92h5.48V129Z"/><path class="cls-4" d="M944.25,147.68v.84h-2.6v4.39a1.91,1.91,0,0,0,2,2.05,2.42,2.42,0,0,0,1.15-.31l.18.76a3.84,3.84,0,0,1-1.7.44,2.59,2.59,0,0,1-2.67-2.78v-4.55H939.1v-.84h1.47v-2.37h1.08v2.37Z"/><path class="cls-4" d="M948.27,152.53a2.16,2.16,0,0,0,2.26,2.43,5,5,0,0,0,3.36-1.3v-6H955v8h-1.08v-1.23a5.86,5.86,0,0,1-3.74,1.39,2.77,2.77,0,0,1-3-3v-5.13h1.08Z"/><path class="cls-4" d="M965.54,150.56v5.13h-1.08v-4.85a2.16,2.16,0,0,0-2.27-2.43,5,5,0,0,0-3.35,1.3v6h-1.08v-8h1.08v1.23a5.86,5.86,0,0,1,3.73-1.39A2.78,2.78,0,0,1,965.54,150.56Z"/><path class="cls-4" d="M969.7,145.45a.64.64,0,1,1-.64-.57A.6.6,0,0,1,969.7,145.45Zm-1.17,10.24v-8h1.08v8Z"/><path class="cls-4" d="M976.75,147.68v.84h-2.6v4.39a1.91,1.91,0,0,0,2,2.05,2.36,2.36,0,0,0,1.15-.31l.18.76a3.83,3.83,0,0,1-1.69.44,2.59,2.59,0,0,1-2.67-2.78v-4.55h-1.48v-.84h1.48v-2.37h1.08v2.37Z"/><path class="cls-4" d="M983.2,156.5c-.81,1.92-1.79,2.45-3,2.47a4.58,4.58,0,0,1-1.57-.32l.31-.73a2.77,2.77,0,0,0,1.16.22c.81,0,1.45-.42,2.09-1.81l.18-.39-3.66-8.26h1.14l3,6.91,2.9-6.91h1.12Z"/><path class="cls-4" d="M996.91,147.68v.84H994.3v4.39a1.92,1.92,0,0,0,2,2.05,2.36,2.36,0,0,0,1.15-.31l.18.76a3.83,3.83,0,0,1-1.69.44,2.59,2.59,0,0,1-2.67-2.78v-4.55h-1.48v-.84h1.48v-2.37h1.08v2.37Z"/><path class="cls-4" d="M1007.57,151.68a4.35,4.35,0,1,1-4.34-4.16A4.26,4.26,0,0,1,1007.57,151.68Zm-7.63,0a3.28,3.28,0,1,0,3.28-3.23A3.26,3.26,0,0,0,999.94,151.68Z"/><path class="cls-4" d="M1021,150.51v5.18H1020v-1a5.56,5.56,0,0,1-3.58,1.19,2.57,2.57,0,0,1-2.8-2.59c0-1.55,1.21-2.36,3.14-2.36H1020v-.29c0-1.55-1-2.24-2.48-2.24a4.94,4.94,0,0,0-2.92,1l-.35-.7a6.2,6.2,0,0,1,3.52-1.14C1019.62,147.52,1021,148.41,1021,150.51Zm-3.95.87c-1.53,0-2.45.6-2.45,1.79a2,2,0,0,0,2.17,2,4.94,4.94,0,0,0,3.15-1v-2.79Z"/><path class="cls-4" d="M1027.93,147.68v.84h-2.6v4.39a1.91,1.91,0,0,0,2,2.05,2.42,2.42,0,0,0,1.15-.31l.18.76a3.84,3.84,0,0,1-1.7.44,2.59,2.59,0,0,1-2.67-2.78v-4.55h-1.48v-.84h1.48v-2.37h1.08v2.37Z"/><path class="cls-4" d="M1035.13,147.68v.84h-2.6v4.39a1.91,1.91,0,0,0,2,2.05,2.42,2.42,0,0,0,1.15-.31l.18.76a3.84,3.84,0,0,1-1.7.44,2.59,2.59,0,0,1-2.67-2.78v-4.55H1030v-.84h1.47v-2.37h1.08v2.37Z"/><path class="cls-4" d="M1043.05,148.41a5.24,5.24,0,0,0-3.77,1.68v5.6h-1.08v-8h1.08v1.54a5.29,5.29,0,0,1,3.77-1.7Z"/><path class="cls-4" d="M1051.59,150.51v5.18h-1.08v-1a5.56,5.56,0,0,1-3.58,1.19,2.57,2.57,0,0,1-2.8-2.59c0-1.55,1.21-2.36,3.14-2.36h3.24v-.29c0-1.55-1-2.24-2.48-2.24a4.94,4.94,0,0,0-2.92,1l-.35-.7a6.23,6.23,0,0,1,3.52-1.14C1050.18,147.52,1051.59,148.41,1051.59,150.51Zm-3.95.87c-1.53,0-2.45.6-2.45,1.79a2,2,0,0,0,2.17,2,4.94,4.94,0,0,0,3.15-1v-2.79Z"/><path class="cls-4" d="M1058.24,147.52a4.29,4.29,0,0,1,3.28,1.51l-.81.48a3.24,3.24,0,1,0,.09,4.24l.82.48a4.32,4.32,0,0,1-3.38,1.62,4.17,4.17,0,1,1,0-8.33Z"/><path class="cls-4" d="M1068.17,147.68v.84h-2.6v4.39a1.91,1.91,0,0,0,2,2.05,2.42,2.42,0,0,0,1.15-.31l.18.76a3.84,3.84,0,0,1-1.7.44,2.59,2.59,0,0,1-2.67-2.78v-4.55H1063v-.84h1.47v-2.37h1.08v2.37Z"/><path class="cls-4" d="M1082,148.8v-1.12h1.08v7.21c0,2.79-1.78,4.1-4.18,4.09a6.57,6.57,0,0,1-3.69-1.15l.35-.7a5.51,5.51,0,0,0,3.15,1,3,3,0,0,0,3.29-3.25v-.83a4,4,0,0,1-3.25,1.63,4.09,4.09,0,0,1,0-8.17A4.8,4.8,0,0,1,1082,148.8Zm-6.12,2.83a3.2,3.2,0,0,0,3.21,3.18,3.32,3.32,0,0,0,2.91-1.71v-3.41a4,4,0,0,0-2.91-1.25A3.2,3.2,0,0,0,1075.92,151.63Z"/><path class="cls-4" d="M1087,152.53a2.16,2.16,0,0,0,2.27,2.43,5,5,0,0,0,3.36-1.3v-6h1.07v8h-1.07v-1.23a5.9,5.9,0,0,1-3.74,1.39,2.78,2.78,0,0,1-3-3v-5.13H1087Z"/><path class="cls-4" d="M1104.26,151.68V152h-7.13a3.16,3.16,0,0,0,3.2,3,3.84,3.84,0,0,0,2.72-1.1l.59.53a4.86,4.86,0,0,1-3.39,1.38,4.17,4.17,0,0,1-.08-8.33A3.94,3.94,0,0,1,1104.26,151.68Zm-7.13-.21h6.11a3,3,0,0,0-3-3.16A3.11,3.11,0,0,0,1097.13,151.47Z"/><path class="cls-4" d="M1112.44,148.37l-.38.68a5.58,5.58,0,0,0-2.78-.78c-1.06,0-2,.43-2,1.43,0,.63.38.94,2,1.37,2.07.55,3.4.81,3.4,2.53,0,1.53-1.44,2.26-3.17,2.25a6.63,6.63,0,0,1-3.6-1l.41-.65a6,6,0,0,0,3.18.91c1.15,0,2.17-.42,2.17-1.41,0-1.19-.85-1.29-2.63-1.76-1.94-.52-2.76-1-2.76-2.15,0-1.58,1.36-2.26,3-2.26A6.16,6.16,0,0,1,1112.44,148.37Z"/><path class="cls-4" d="M1119.29,147.68v.84h-2.6v4.39a1.91,1.91,0,0,0,2,2.05,2.42,2.42,0,0,0,1.15-.31l.18.76a3.84,3.84,0,0,1-1.7.44,2.59,2.59,0,0,1-2.67-2.78v-4.55h-1.47v-.84h1.47v-2.37h1.08v2.37Z"/><path class="cls-4" d="M1128.12,148.37l-.38.68a5.58,5.58,0,0,0-2.78-.78c-1.06,0-2,.43-2,1.43,0,.63.37.94,2,1.37,2.07.55,3.4.81,3.4,2.53,0,1.53-1.44,2.26-3.17,2.25a6.63,6.63,0,0,1-3.6-1l.41-.65a6,6,0,0,0,3.18.91c1.15,0,2.17-.42,2.17-1.41,0-1.19-.85-1.29-2.63-1.76-1.94-.52-2.76-1-2.76-2.15,0-1.58,1.36-2.26,3-2.26A6.16,6.16,0,0,1,1128.12,148.37Z"/><path class="cls-4" d="M1142.13,155.69,1140,149.2l-2.18,6.49h-1.19l-2.82-8h1.08l2.38,6.85,2.26-6.85h.93l2.26,6.85,2.38-6.85h1.08l-2.82,8Z"/><path class="cls-4" d="M1149.37,145.45a.65.65,0,1,1-.65-.57A.61.61,0,0,1,1149.37,145.45Zm-1.18,10.24v-8h1.08v8Z"/><path class="cls-4" d="M1156.41,147.68v.84h-2.6v4.39a1.91,1.91,0,0,0,2,2.05,2.42,2.42,0,0,0,1.15-.31l.18.76a3.84,3.84,0,0,1-1.7.44,2.59,2.59,0,0,1-2.67-2.78v-4.55h-1.48v-.84h1.48v-2.37h1.08v2.37Z"/><path class="cls-4" d="M1160.64,148.91a5.9,5.9,0,0,1,3.74-1.39,2.78,2.78,0,0,1,3,3v5.13h-1.08v-4.85a2.16,2.16,0,0,0-2.27-2.43,5,5,0,0,0-3.36,1.3v6h-1.08V144.48h1.08Z"/><path class="cls-4" d="M1181.06,150.51v5.18H1180v-1a5.54,5.54,0,0,1-3.58,1.19,2.57,2.57,0,0,1-2.8-2.59c0-1.55,1.21-2.36,3.14-2.36H1180v-.29c0-1.55-1-2.24-2.48-2.24a4.94,4.94,0,0,0-2.92,1l-.35-.7a6.23,6.23,0,0,1,3.52-1.14C1179.65,147.52,1181.06,148.41,1181.06,150.51Zm-4,.87c-1.53,0-2.45.6-2.45,1.79a2,2,0,0,0,2.17,2,4.94,4.94,0,0,0,3.15-1v-2.79Z"/><path class="cls-4" d="M1191.62,150.56v5.13h-1.08v-4.85a2.16,2.16,0,0,0-2.27-2.43,5,5,0,0,0-3.36,1.3v6h-1.08v-8h1.08v1.23a5.9,5.9,0,0,1,3.74-1.39A2.78,2.78,0,0,1,1191.62,150.56Z"/><path class="cls-4" d="M1205.34,150.51v5.18h-1.08v-1a5.58,5.58,0,0,1-3.58,1.19,2.58,2.58,0,0,1-2.81-2.59c0-1.55,1.21-2.36,3.14-2.36h3.25v-.29c0-1.55-1-2.24-2.49-2.24a4.94,4.94,0,0,0-2.92,1l-.35-.7a6.23,6.23,0,0,1,3.52-1.14C1203.93,147.52,1205.34,148.41,1205.34,150.51Zm-4,.87c-1.53,0-2.44.6-2.44,1.79a2,2,0,0,0,2.16,2,5,5,0,0,0,3.16-1v-2.79Z"/><path class="cls-4" d="M1209.05,152.53a2.16,2.16,0,0,0,2.26,2.43,5,5,0,0,0,3.36-1.3v-6h1.08v8h-1.08v-1.23a5.86,5.86,0,0,1-3.74,1.39,2.77,2.77,0,0,1-3-3v-5.13h1.08Z"/><path class="cls-4" d="M1222.67,147.68v.84h-2.61v4.39a1.92,1.92,0,0,0,2,2.05,2.39,2.39,0,0,0,1.15-.31l.18.76a3.83,3.83,0,0,1-1.69.44,2.59,2.59,0,0,1-2.68-2.78v-4.55h-1.47v-.84H1219v-2.37h1.08v2.37Z"/><path class="cls-4" d="M1226.9,148.91a5.86,5.86,0,0,1,3.74-1.39,2.77,2.77,0,0,1,3,3v5.13h-1.08v-4.85a2.16,2.16,0,0,0-2.27-2.43,5,5,0,0,0-3.35,1.3v6h-1.08V144.48h1.08Z"/><path class="cls-4" d="M1244.14,151.68V152H1237a3.16,3.16,0,0,0,3.2,3,3.82,3.82,0,0,0,2.71-1.1l.59.53a4.84,4.84,0,0,1-3.38,1.38,4.17,4.17,0,0,1-4.17-4.17,4.12,4.12,0,0,1,4.09-4.16A3.94,3.94,0,0,1,1244.14,151.68Zm-7.12-.21h6.11a3,3,0,0,0-3.06-3.16A3.11,3.11,0,0,0,1237,151.47Z"/><path class="cls-4" d="M1254.35,150.56v5.13h-1.08v-4.85a2.16,2.16,0,0,0-2.26-2.43,5,5,0,0,0-3.36,1.3v6h-1.08v-8h1.08v1.23a5.86,5.86,0,0,1,3.74-1.39A2.77,2.77,0,0,1,1254.35,150.56Z"/><path class="cls-4" d="M1261.26,147.68v.84h-2.61v4.39a1.92,1.92,0,0,0,2,2.05,2.36,2.36,0,0,0,1.15-.31l.18.76a3.83,3.83,0,0,1-1.69.44,2.59,2.59,0,0,1-2.67-2.78v-4.55h-1.48v-.84h1.48v-2.37h1.08v2.37Z"/><path class="cls-4" d="M1265.72,145.45a.65.65,0,1,1-.65-.57A.61.61,0,0,1,1265.72,145.45Zm-1.18,10.24v-8h1.08v8Z"/><path class="cls-4" d="M1272.51,147.52a4.29,4.29,0,0,1,3.28,1.51l-.81.48a3.24,3.24,0,1,0,.09,4.24l.82.48a4.32,4.32,0,0,1-3.38,1.62,4.17,4.17,0,1,1,0-8.33Z"/><path class="cls-4" d="M1289.6,155.69l-2.17-6.49-2.18,6.49h-1.19l-2.82-8h1.08l2.38,6.85,2.26-6.85h.93l2.26,6.85,2.38-6.85h1.08l-2.82,8Z"/><path class="cls-4" d="M1302.12,150.51v5.18H1301v-1a5.56,5.56,0,0,1-3.58,1.19,2.58,2.58,0,0,1-2.81-2.59c0-1.55,1.22-2.36,3.15-2.36H1301v-.29c0-1.55-1-2.24-2.49-2.24a4.94,4.94,0,0,0-2.92,1l-.35-.7a6.23,6.23,0,0,1,3.53-1.14C1300.71,147.52,1302.12,148.41,1302.12,150.51Zm-4,.87c-1.52,0-2.44.6-2.44,1.79a2,2,0,0,0,2.16,2,5,5,0,0,0,3.16-1v-2.79Z"/><path class="cls-4" d="M1309.74,148.41a5.22,5.22,0,0,0-3.77,1.68v5.6h-1.08v-8H1306v1.54a5.29,5.29,0,0,1,3.77-1.7Z"/><path class="cls-4" d="M1318.56,148.94a5.52,5.52,0,0,1,3.69-1.42,2.74,2.74,0,0,1,2.9,3v5.13h-1.08v-4.85a2.13,2.13,0,0,0-2.2-2.43,4.73,4.73,0,0,0-3.14,1.2,4.75,4.75,0,0,1,.17,1.32v4.76h-1.07v-4.85a2.14,2.14,0,0,0-2.21-2.43,4.2,4.2,0,0,0-3,1.22v6.06h-1.08v-8h1.08v1.22a5,5,0,0,1,3.39-1.38A2.64,2.64,0,0,1,1318.56,148.94Z"/><path class="cls-4" d="M947.41,178.69l-2.17-6.49-2.18,6.49h-1.19l-2.82-8h1.08l2.38,6.85,2.26-6.85h.93l2.26,6.85,2.38-6.85h1.09l-2.83,8Z"/><path class="cls-4" d="M960.8,174.68V175h-7.13a3.17,3.17,0,0,0,3.21,3,3.82,3.82,0,0,0,2.71-1.1l.59.53a4.84,4.84,0,0,1-3.38,1.38,4.17,4.17,0,0,1-4.17-4.17,4.12,4.12,0,0,1,4.08-4.16A3.94,3.94,0,0,1,960.8,174.68Zm-7.12-.21h6.11a3,3,0,0,0-3.06-3.16A3.11,3.11,0,0,0,953.68,174.47Z"/><path class="cls-4" d="M963.33,178.68v-11.2h1.08v11.2Z"/><path class="cls-4" d="M971.07,170.52a4.31,4.31,0,0,1,3.29,1.51l-.82.48a3.24,3.24,0,1,0,.09,4.24l.82.48a4.32,4.32,0,0,1-3.38,1.62,4.17,4.17,0,1,1,0-8.33Z"/><path class="cls-4" d="M985.16,174.68a4.35,4.35,0,1,1-4.35-4.16A4.26,4.26,0,0,1,985.16,174.68Zm-7.64,0a3.29,3.29,0,1,0,3.29-3.23A3.26,3.26,0,0,0,977.52,174.68Z"/><path class="cls-4" d="M994.66,171.94a5.52,5.52,0,0,1,3.69-1.42,2.74,2.74,0,0,1,2.9,3v5.13h-1.08v-4.85a2.13,2.13,0,0,0-2.2-2.43,4.78,4.78,0,0,0-3.15,1.2,4.39,4.39,0,0,1,.18,1.32v4.76h-1.08v-4.85a2.13,2.13,0,0,0-2.2-2.43,4.2,4.2,0,0,0-3,1.22v6.06h-1.08v-8h1.08v1.22a5,5,0,0,1,3.39-1.38A2.64,2.64,0,0,1,994.66,171.94Z"/><path class="cls-4" d="M1011.79,174.68V175h-7.12a3.16,3.16,0,0,0,3.2,3,3.82,3.82,0,0,0,2.71-1.1l.59.53a4.84,4.84,0,0,1-3.38,1.38,4.17,4.17,0,0,1-4.17-4.17,4.12,4.12,0,0,1,4.09-4.16A3.94,3.94,0,0,1,1011.79,174.68Zm-7.12-.21h6.11a3,3,0,0,0-3.06-3.16A3.11,3.11,0,0,0,1004.67,174.47Z"/><path class="cls-4" d="M1017.47,175v-.92h7.2V175Z"/><path class="cls-4" d="M1030.93,178.68v-11.2H1032v11.2Z"/><path class="cls-4" d="M1041.74,173.51v5.18h-1.08v-1a5.56,5.56,0,0,1-3.58,1.19,2.58,2.58,0,0,1-2.81-2.59c0-1.55,1.21-2.36,3.14-2.36h3.25v-.29c0-1.55-1-2.24-2.49-2.24a4.94,4.94,0,0,0-2.92,1l-.35-.7a6.23,6.23,0,0,1,3.53-1.14C1040.33,170.52,1041.74,171.41,1041.74,173.51Zm-4,.87c-1.53,0-2.44.6-2.44,1.79a2,2,0,0,0,2.16,2,5,5,0,0,0,3.16-1v-2.79Z"/><path class="cls-4" d="M1052.29,173.56v5.13h-1.08v-4.85a2.16,2.16,0,0,0-2.27-2.43,5,5,0,0,0-3.35,1.3v6h-1.08v-8h1.08v1.23a5.86,5.86,0,0,1,3.73-1.39A2.78,2.78,0,0,1,1052.29,173.56Z"/><path class="cls-4" d="M1062.7,178.69h-1.08v-1.18a4,4,0,0,1-3,1.34,4.17,4.17,0,0,1,0-8.33,4,4,0,0,1,3,1.34v-4.38h1.08Zm-7-4a3.27,3.27,0,0,0,5.9,1.91v-3.82a3.27,3.27,0,0,0-5.9,1.91Z"/><path class="cls-4" d="M1071.38,171.37l-.38.68a5.55,5.55,0,0,0-2.78-.78c-1,0-2,.43-2,1.43,0,.63.37.94,2,1.37,2.07.55,3.4.81,3.4,2.53,0,1.53-1.44,2.26-3.17,2.25a6.68,6.68,0,0,1-3.6-1l.41-.65a6,6,0,0,0,3.18.91c1.16,0,2.18-.42,2.18-1.41,0-1.19-.86-1.29-2.64-1.76-1.94-.52-2.76-1-2.76-2.15,0-1.58,1.37-2.26,3-2.26A6.15,6.15,0,0,1,1071.38,171.37Z"/><path class="cls-4" d="M1078,170.52a4.31,4.31,0,0,1,3.29,1.51l-.82.48a3.24,3.24,0,1,0,.09,4.24l.82.48a4.32,4.32,0,0,1-3.38,1.62,4.17,4.17,0,1,1,0-8.33Z"/><path class="cls-4" d="M1090.73,173.51v5.18h-1.08v-1a5.56,5.56,0,0,1-3.58,1.19,2.58,2.58,0,0,1-2.81-2.59c0-1.55,1.21-2.36,3.14-2.36h3.25v-.29c0-1.55-1-2.24-2.49-2.24a4.94,4.94,0,0,0-2.92,1l-.35-.7a6.23,6.23,0,0,1,3.53-1.14C1089.32,170.52,1090.73,171.41,1090.73,173.51Zm-4,.87c-1.53,0-2.44.6-2.44,1.79a2,2,0,0,0,2.16,2,5,5,0,0,0,3.16-1v-2.79Z"/><path class="cls-4" d="M1101.62,174.68a4,4,0,0,1-4,4.17,4,4,0,0,1-3-1.34v4.3h-1.08V170.68h1.08v1.18a4,4,0,0,1,3-1.34A4,4,0,0,1,1101.62,174.68Zm-7-1.91v3.82a3.23,3.23,0,1,0,0-3.82Z"/><path class="cls-4" d="M1105.57,168.45a.64.64,0,1,1-.64-.57A.6.6,0,0,1,1105.57,168.45Zm-1.17,10.24v-8h1.08v8Z"/><path class="cls-4" d="M1116.27,173.56v5.13h-1.08v-4.85a2.16,2.16,0,0,0-2.26-2.43,5,5,0,0,0-3.36,1.3v6h-1.08v-8h1.08v1.23a5.86,5.86,0,0,1,3.74-1.39A2.77,2.77,0,0,1,1116.27,173.56Z"/><path class="cls-4" d="M1125.85,171.8v-1.12h1.07v7.21c0,2.79-1.78,4.1-4.18,4.09a6.56,6.56,0,0,1-3.68-1.15l.35-.7a5.5,5.5,0,0,0,3.14,1,3,3,0,0,0,3.3-3.25v-.83a4,4,0,0,1-3.26,1.63,4.09,4.09,0,0,1,0-8.17A4.84,4.84,0,0,1,1125.85,171.8Zm-6.12,2.83a3.2,3.2,0,0,0,3.21,3.18,3.33,3.33,0,0,0,2.91-1.71v-3.41a4,4,0,0,0-2.91-1.25A3.2,3.2,0,0,0,1119.73,174.63Z"/><path class="cls-4" d="M1130.63,178.27a.54.54,0,0,1-.09.31l-1.34,2.06-.36-.16.85-1.68a.57.57,0,0,1-.37-.53.66.66,0,0,1,1.31,0Z"/><path class="cls-4" d="M1136.9,178.68v-11.2H1138v11.2Z"/><path class="cls-4" d="M1142.15,168.45a.65.65,0,1,1-.64-.57A.61.61,0,0,1,1142.15,168.45ZM1141,178.69v-8h1.08v8Z"/><path class="cls-4" d="M1151.86,171.8v-1.12h1.08v7.21c0,2.79-1.78,4.1-4.18,4.09a6.57,6.57,0,0,1-3.69-1.15l.35-.7a5.51,5.51,0,0,0,3.15,1,3,3,0,0,0,3.29-3.25v-.83a4,4,0,0,1-3.25,1.63,4.09,4.09,0,0,1,0-8.17A4.8,4.8,0,0,1,1151.86,171.8Zm-6.12,2.83a3.2,3.2,0,0,0,3.22,3.18,3.32,3.32,0,0,0,2.9-1.71v-3.41a4,4,0,0,0-2.9-1.25A3.21,3.21,0,0,0,1145.74,174.63Z"/><path class="cls-4" d="M1157,171.91a5.9,5.9,0,0,1,3.74-1.39,2.77,2.77,0,0,1,3,3v5.13h-1.08v-4.85a2.15,2.15,0,0,0-2.26-2.43,5,5,0,0,0-3.36,1.3v6H1156V167.48H1157Z"/><path class="cls-4" d="M1170.65,170.68v.84h-2.6v4.39a1.91,1.91,0,0,0,2,2.05,2.36,2.36,0,0,0,1.15-.31l.19.76a3.91,3.91,0,0,1-1.7.44,2.59,2.59,0,0,1-2.67-2.78v-4.55h-1.48v-.84H1167v-2.37h1.08v2.37Z"/><path class="cls-4" d="M1175.11,168.45a.65.65,0,1,1-.64-.57A.61.61,0,0,1,1175.11,168.45Zm-1.18,10.24v-8H1175v8Z"/><path class="cls-4" d="M1185.81,173.56v5.13h-1.08v-4.85a2.16,2.16,0,0,0-2.27-2.43,5,5,0,0,0-3.36,1.3v6H1178v-8h1.08v1.23a5.9,5.9,0,0,1,3.74-1.39A2.78,2.78,0,0,1,1185.81,173.56Z"/><path class="cls-4" d="M1195.38,171.8v-1.12h1.08v7.21c0,2.79-1.78,4.1-4.18,4.09a6.57,6.57,0,0,1-3.69-1.15l.35-.7a5.51,5.51,0,0,0,3.15,1,3,3,0,0,0,3.29-3.25v-.83a4,4,0,0,1-3.25,1.63,4.09,4.09,0,0,1,0-8.17A4.8,4.8,0,0,1,1195.38,171.8Zm-6.12,2.83a3.2,3.2,0,0,0,3.22,3.18,3.32,3.32,0,0,0,2.9-1.71v-3.41a4,4,0,0,0-2.9-1.25A3.21,3.21,0,0,0,1189.26,174.63Z"/><path class="cls-4" d="M1200.17,178.27a.55.55,0,0,1-.1.31l-1.33,2.06-.36-.16.84-1.68a.57.57,0,0,1-.37-.53.67.67,0,0,1,1.32,0Z"/><path class="cls-4" d="M1214.09,174.68V175H1207a3.16,3.16,0,0,0,3.2,3,3.82,3.82,0,0,0,2.71-1.1l.59.53a4.84,4.84,0,0,1-3.38,1.38,4.17,4.17,0,0,1-4.17-4.17,4.12,4.12,0,0,1,4.09-4.16A3.94,3.94,0,0,1,1214.09,174.68Zm-7.12-.21h6.11a3,3,0,0,0-3.06-3.16A3.11,3.11,0,0,0,1207,174.47Z"/><path class="cls-4" d="M1223.39,178.69h-1.25l-2.74-3.42-2.72,3.42h-1.23l3.32-4.16-3.08-3.85h1.25l2.5,3.14,2.5-3.14h1.23l-3.1,3.88Z"/><path class="cls-4" d="M1229.35,170.68v.84h-2.6v4.39a1.91,1.91,0,0,0,2,2.05,2.42,2.42,0,0,0,1.15-.31l.18.76a3.84,3.84,0,0,1-1.7.44,2.59,2.59,0,0,1-2.67-2.78v-4.55h-1.47v-.84h1.47v-2.37h1.08v2.37Z"/><path class="cls-4" d="M1239.5,174.68V175h-7.13a3.17,3.17,0,0,0,3.21,3,3.82,3.82,0,0,0,2.71-1.1l.59.53a4.84,4.84,0,0,1-3.38,1.38,4.18,4.18,0,0,1-4.18-4.17,4.13,4.13,0,0,1,4.09-4.16A3.94,3.94,0,0,1,1239.5,174.68Zm-7.12-.21h6.11a3,3,0,0,0-3.06-3.16A3.11,3.11,0,0,0,1232.38,174.47Z"/><path class="cls-4" d="M1246.78,171.41a5.22,5.22,0,0,0-3.77,1.68v5.6h-1.08v-8H1243v1.54a5.29,5.29,0,0,1,3.77-1.7Z"/><path class="cls-4" d="M1250,168.45a.64.64,0,1,1-.64-.57A.6.6,0,0,1,1250,168.45Zm-1.17,10.24v-8h1.07v8Z"/><path class="cls-4" d="M1261.2,174.68a4.35,4.35,0,1,1-4.35-4.16A4.26,4.26,0,0,1,1261.2,174.68Zm-7.63,0a3.28,3.28,0,1,0,3.28-3.23A3.26,3.26,0,0,0,1253.57,174.68Z"/><path class="cls-4" d="M1268.57,171.41a5.22,5.22,0,0,0-3.77,1.68v5.6h-1.08v-8h1.08v1.54a5.29,5.29,0,0,1,3.77-1.7Z"/><path class="cls-4" d="M1282.17,174.68V175H1275a3.17,3.17,0,0,0,3.21,3,3.82,3.82,0,0,0,2.71-1.1l.59.53a4.84,4.84,0,0,1-3.38,1.38,4.18,4.18,0,0,1-4.18-4.17,4.13,4.13,0,0,1,4.09-4.16A3.94,3.94,0,0,1,1282.17,174.68Zm-7.12-.21h6.11a3,3,0,0,0-3.06-3.16A3.11,3.11,0,0,0,1275.05,174.47Z"/><path class="cls-4" d="M1292.38,173.56v5.13h-1.08v-4.85a2.16,2.16,0,0,0-2.27-2.43,5,5,0,0,0-3.35,1.3v6h-1.08v-8h1.08v1.23a5.86,5.86,0,0,1,3.73-1.39A2.78,2.78,0,0,1,1292.38,173.56Z"/><path class="cls-4" d="M1299.29,170.68v.84h-2.61v4.39a1.92,1.92,0,0,0,2,2.05,2.39,2.39,0,0,0,1.15-.31l.18.76a3.83,3.83,0,0,1-1.69.44,2.59,2.59,0,0,1-2.68-2.78v-4.55h-1.47v-.84h1.47v-2.37h1.08v2.37Z"/><path class="cls-4" d="M1307.21,171.41a5.22,5.22,0,0,0-3.77,1.68v5.6h-1.08v-8h1.08v1.54a5.29,5.29,0,0,1,3.77-1.7Z"/><path class="cls-4" d="M1312.49,179.5c-.81,1.92-1.79,2.45-3,2.47a4.58,4.58,0,0,1-1.57-.32l.31-.73a2.77,2.77,0,0,0,1.16.22c.81,0,1.45-.42,2.09-1.81l.18-.39-3.67-8.26h1.15l3,6.91,2.9-6.91h1.12Z"/><path class="cls-4" d="M1318.5,178.27a.54.54,0,0,1-.09.31l-1.34,2.06-.36-.16.84-1.68a.57.57,0,0,1-.37-.53.63.63,0,0,1,.66-.58A.62.62,0,0,1,1318.5,178.27Z"/><path class="cls-4" d="M947.07,196.51v5.18H946v-1a5.56,5.56,0,0,1-3.58,1.19,2.58,2.58,0,0,1-2.81-2.59c0-1.55,1.21-2.36,3.14-2.36H946v-.29c0-1.55-1-2.24-2.49-2.24a4.94,4.94,0,0,0-2.92,1l-.35-.7a6.23,6.23,0,0,1,3.53-1.14C945.66,193.52,947.07,194.41,947.07,196.51Zm-4,.87c-1.53,0-2.44.6-2.44,1.79a2,2,0,0,0,2.16,2,5,5,0,0,0,3.16-1v-2.79Z"/><path class="cls-4" d="M957.62,196.56v5.13h-1.08v-4.85a2.16,2.16,0,0,0-2.27-2.43,5,5,0,0,0-3.35,1.3v6h-1.08v-8h1.08v1.23a5.86,5.86,0,0,1,3.73-1.39A2.78,2.78,0,0,1,957.62,196.56Z"/><path class="cls-4" d="M968,201.69H967v-1.18a4,4,0,0,1-3,1.34,4.17,4.17,0,0,1,0-8.33,4,4,0,0,1,3,1.34v-4.38H968Zm-7-4a3.27,3.27,0,0,0,5.9,1.91v-3.82a3.27,3.27,0,0,0-5.9,1.91Z"/><path class="cls-4" d="M979.4,190.55l-.17.7a2.62,2.62,0,0,0-.91-.17,1.89,1.89,0,0,0-1.94,2v.57h2.7v.84h-2.7v7.17h-1.07v-7.17h-1.38v-.84h1.38v-.59a2.58,2.58,0,0,1,2.72-2.77A4.47,4.47,0,0,1,979.4,190.55Z"/><path class="cls-4" d="M989.1,197.68a4.35,4.35,0,1,1-4.35-4.16A4.27,4.27,0,0,1,989.1,197.68Zm-7.64,0a3.28,3.28,0,1,0,3.28-3.23A3.26,3.26,0,0,0,981.46,197.68Z"/><path class="cls-4" d="M994.59,202.5c-.81,1.92-1.78,2.45-3,2.47a4.58,4.58,0,0,1-1.57-.32l.31-.73a2.81,2.81,0,0,0,1.17.22c.8,0,1.44-.42,2.09-1.81l.18-.39-3.67-8.26h1.14l3,6.91,2.89-6.91h1.13Z"/><path class="cls-4" d="M1007.79,197.68V198h-7.12a3.16,3.16,0,0,0,3.2,3,3.82,3.82,0,0,0,2.71-1.1l.59.53a4.84,4.84,0,0,1-3.38,1.38,4.17,4.17,0,0,1-4.17-4.17,4.12,4.12,0,0,1,4.09-4.16A3.94,3.94,0,0,1,1007.79,197.68Zm-7.12-.21h6.11a3,3,0,0,0-3-3.16A3.11,3.11,0,0,0,1000.67,197.47Z"/><path class="cls-4" d="M1015.07,194.41a5.22,5.22,0,0,0-3.77,1.68v5.6h-1.08v-8h1.08v1.54a5.29,5.29,0,0,1,3.77-1.7Z"/><path class="cls-4" d="M1026.66,194.37l-.38.68a5.55,5.55,0,0,0-2.78-.78c-1,0-2,.43-2,1.43,0,.63.37.94,2,1.37,2.07.55,3.41.81,3.41,2.53,0,1.53-1.45,2.26-3.18,2.25a6.68,6.68,0,0,1-3.6-1l.41-.65a6,6,0,0,0,3.19.91c1.15,0,2.17-.42,2.17-1.41,0-1.19-.86-1.29-2.64-1.76-1.94-.52-2.76-1-2.76-2.15,0-1.58,1.37-2.26,3-2.26A6.15,6.15,0,0,1,1026.66,194.37Z"/><path class="cls-4" d="M1030.55,194.91a5.86,5.86,0,0,1,3.74-1.39,2.77,2.77,0,0,1,3,3v5.13h-1.08v-4.85a2.16,2.16,0,0,0-2.27-2.43,5,5,0,0,0-3.35,1.3v6h-1.08V190.48h1.08Z"/><path class="cls-4" d="M1048.31,197.68a4.35,4.35,0,1,1-4.35-4.16A4.26,4.26,0,0,1,1048.31,197.68Zm-7.63,0a3.28,3.28,0,1,0,3.28-3.23A3.25,3.25,0,0,0,1040.68,197.68Z"/><path class="cls-4" d="M1051.77,198.53A2.16,2.16,0,0,0,1054,201a5,5,0,0,0,3.35-1.3v-6h1.08v8h-1.08v-1.23a5.86,5.86,0,0,1-3.73,1.39,2.78,2.78,0,0,1-3-3v-5.13h1.08Z"/><path class="cls-4" d="M1061.36,201.68v-11.2h1.08v11.2Z"/><path class="cls-4" d="M1072.86,201.69h-1.08v-1.18a4,4,0,0,1-3,1.34,4.17,4.17,0,0,1,0-8.33,4,4,0,0,1,3,1.34v-4.38h1.08Zm-7-4a3.27,3.27,0,0,0,5.9,1.91v-3.82a3.27,3.27,0,0,0-5.9,1.91Z"/><path class="cls-4" d="M1083.66,193.52A4.31,4.31,0,0,1,1087,195l-.82.48a3.24,3.24,0,1,0,.09,4.24l.82.48a4.32,4.32,0,0,1-3.38,1.62,4.17,4.17,0,1,1,0-8.33Z"/><path class="cls-4" d="M1097.75,197.68a4.35,4.35,0,1,1-4.35-4.16A4.26,4.26,0,0,1,1097.75,197.68Zm-7.64,0a3.29,3.29,0,1,0,3.29-3.23A3.26,3.26,0,0,0,1090.11,197.68Z"/><path class="cls-4" d="M1108.05,196.56v5.13H1107v-4.85a2.16,2.16,0,0,0-2.27-2.43,5,5,0,0,0-3.36,1.3v6h-1.07v-8h1.07v1.23a5.9,5.9,0,0,1,3.74-1.39A2.78,2.78,0,0,1,1108.05,196.56Z"/><path class="cls-4" d="M1113.22,201.69l-3.52-8h1.16l3,6.91,3-6.91h1.15l-3.51,8Z"/><path class="cls-4" d="M1127.28,197.68V198h-7.13a3.16,3.16,0,0,0,3.2,3,3.84,3.84,0,0,0,2.72-1.1l.59.53a4.86,4.86,0,0,1-3.39,1.38,4.17,4.17,0,0,1-4.17-4.17,4.13,4.13,0,0,1,4.09-4.16A3.94,3.94,0,0,1,1127.28,197.68Zm-7.13-.21h6.11a3,3,0,0,0-3-3.16A3.11,3.11,0,0,0,1120.15,197.47Z"/><path class="cls-4" d="M1132.83,202.5c-.81,1.92-1.78,2.45-2.95,2.47a4.58,4.58,0,0,1-1.57-.32l.31-.73a2.8,2.8,0,0,0,1.16.22c.81,0,1.45-.42,2.1-1.81l.18-.39-3.67-8.26h1.14l3,6.91,2.89-6.91h1.12Z"/><path class="cls-4" d="M1146.54,193.68v.84h-2.6v4.39a1.91,1.91,0,0,0,2,2.05,2.36,2.36,0,0,0,1.15-.31l.18.76a3.83,3.83,0,0,1-1.69.44,2.59,2.59,0,0,1-2.67-2.78v-4.55h-1.48v-.84h1.48v-2.37h1.08v2.37Z"/><path class="cls-4" d="M1150.77,194.91a5.86,5.86,0,0,1,3.74-1.39,2.77,2.77,0,0,1,3,3v5.13h-1.08v-4.85a2.16,2.16,0,0,0-2.26-2.43,5,5,0,0,0-3.36,1.3v6h-1.08V190.48h1.08Z"/><path class="cls-4" d="M1168,197.68V198h-7.13a3.16,3.16,0,0,0,3.2,3,3.86,3.86,0,0,0,2.72-1.1l.58.53a4.84,4.84,0,0,1-3.38,1.38,4.17,4.17,0,0,1-4.17-4.17,4.12,4.12,0,0,1,4.09-4.16A3.94,3.94,0,0,1,1168,197.68Zm-7.13-.21H1167a3,3,0,0,0-3-3.16A3.11,3.11,0,0,0,1160.89,197.47Z"/><path class="cls-4" d="M1180.2,194.37l-.38.68a5.58,5.58,0,0,0-2.78-.78c-1.06,0-2,.43-2,1.43,0,.63.37.94,2,1.37,2.08.55,3.41.81,3.41,2.53,0,1.53-1.44,2.26-3.18,2.25a6.62,6.62,0,0,1-3.59-1l.4-.65a6,6,0,0,0,3.19.91c1.15,0,2.17-.42,2.17-1.41,0-1.19-.85-1.29-2.64-1.76s-2.75-1-2.75-2.15c0-1.58,1.36-2.26,3-2.26A6.18,6.18,0,0,1,1180.2,194.37Z"/><path class="cls-4" d="M1187.05,193.68v.84h-2.6v4.39a1.91,1.91,0,0,0,2,2.05,2.36,2.36,0,0,0,1.15-.31l.19.76a3.91,3.91,0,0,1-1.7.44,2.59,2.59,0,0,1-2.67-2.78v-4.55h-1.48v-.84h1.48v-2.37h1.08v2.37Z"/><path class="cls-4" d="M1193.5,202.5c-.81,1.92-1.78,2.45-3,2.47a4.58,4.58,0,0,1-1.57-.32l.31-.73a2.8,2.8,0,0,0,1.16.22c.81,0,1.45-.42,2.1-1.81l.18-.39-3.67-8.26h1.14l3,6.91,2.89-6.91h1.12Z"/><path class="cls-4" d="M1199.19,201.68v-11.2h1.07v11.2Z"/><path class="cls-4" d="M1210.81,197.68V198h-7.12a3.16,3.16,0,0,0,3.2,3,3.82,3.82,0,0,0,2.71-1.1l.59.53a4.84,4.84,0,0,1-3.38,1.38,4.17,4.17,0,0,1-4.17-4.17,4.12,4.12,0,0,1,4.09-4.16A3.94,3.94,0,0,1,1210.81,197.68Zm-7.12-.21h6.11a3,3,0,0,0-3-3.16A3.11,3.11,0,0,0,1203.69,197.47Z"/><path class="cls-4" d="M1225.52,197.68a4.35,4.35,0,1,1-4.34-4.16A4.26,4.26,0,0,1,1225.52,197.68Zm-7.63,0a3.28,3.28,0,1,0,3.28-3.23A3.26,3.26,0,0,0,1217.89,197.68Z"/><path class="cls-4" d="M1232.48,190.55l-.16.7a2.66,2.66,0,0,0-.91-.17,1.89,1.89,0,0,0-1.94,2v.57h2.7v.84h-2.7v7.17h-1.08v-7.17H1227v-.84h1.38v-.59a2.59,2.59,0,0,1,2.73-2.77A4.41,4.41,0,0,1,1232.48,190.55Z"/><path class="cls-4" d="M1242.54,193.68v.84h-2.6v4.39a1.91,1.91,0,0,0,2,2.05,2.36,2.36,0,0,0,1.15-.31l.18.76a3.83,3.83,0,0,1-1.69.44,2.59,2.59,0,0,1-2.67-2.78v-4.55h-1.48v-.84h1.48v-2.37h1.08v2.37Z"/><path class="cls-4" d="M1246.77,194.91a5.86,5.86,0,0,1,3.74-1.39,2.77,2.77,0,0,1,3,3v5.13h-1.08v-4.85a2.16,2.16,0,0,0-2.26-2.43,5,5,0,0,0-3.36,1.3v6h-1.08V190.48h1.08Z"/><path class="cls-4" d="M1264,197.68V198h-7.13a3.16,3.16,0,0,0,3.2,3,3.86,3.86,0,0,0,2.72-1.1l.58.53a4.84,4.84,0,0,1-3.38,1.38,4.17,4.17,0,0,1-4.17-4.17,4.12,4.12,0,0,1,4.09-4.16A3.94,3.94,0,0,1,1264,197.68Zm-7.13-.21H1263a3,3,0,0,0-3-3.16A3.11,3.11,0,0,0,1256.89,197.47Z"/><path class="cls-4" d="M1271.6,194.91a5.86,5.86,0,0,1,3.74-1.39,2.77,2.77,0,0,1,3,3v5.13h-1.08v-4.85a2.16,2.16,0,0,0-2.26-2.43,5,5,0,0,0-3.36,1.3v6h-1.08V190.48h1.08Z"/><path class="cls-4" d="M1289.36,197.68a4.35,4.35,0,1,1-4.34-4.16A4.26,4.26,0,0,1,1289.36,197.68Zm-7.63,0a3.28,3.28,0,1,0,3.28-3.23A3.26,3.26,0,0,0,1281.73,197.68Z"/><path class="cls-4" d="M1296,193.68v.84h-2.6v4.39a1.91,1.91,0,0,0,1.95,2.05,2.36,2.36,0,0,0,1.15-.31l.18.76a3.83,3.83,0,0,1-1.69.44,2.59,2.59,0,0,1-2.67-2.78v-4.55h-1.48v-.84h1.48v-2.37h1.08v2.37Z"/><path class="cls-4" d="M1306.16,197.68V198H1299a3.16,3.16,0,0,0,3.2,3,3.84,3.84,0,0,0,2.72-1.1l.59.53a4.86,4.86,0,0,1-3.39,1.38,4.17,4.17,0,0,1-.08-8.33A3.94,3.94,0,0,1,1306.16,197.68Zm-7.13-.21h6.11a3,3,0,0,0-3.05-3.16A3.11,3.11,0,0,0,1299,197.47Z"/><path class="cls-4" d="M1308.69,201.68v-11.2h1.08v11.2Z"/><path class="cls-4" d="M1313.11,201.27a.66.66,0,0,1-1.31,0,.66.66,0,0,1,1.31,0Z"/></g></g></svg>