<svg xmlns="http://www.w3.org/2000/svg" viewBox="0 0 1640 790"><defs><style>.cls-1,.cls-5{fill:#06a7e0;opacity:0.9;}.cls-1,.cls-2,.cls-3,.cls-5,.cls-6{stroke:#fff;stroke-miterlimit:10;}.cls-1{stroke-width:1.33px;}.cls-2,.cls-6{fill:none;}.cls-2{stroke-width:4.67px;}.cls-3{fill:#fff;stroke-width:2px;}.cls-4{fill:#231f20;}.cls-5{stroke-width:1.33px;}.cls-6{stroke-width:4.67px;}</style></defs><title>02_1640x790</title><g id="_10_1640x790" data-name="10_1640x790"><g id="_1_plus" class="svg-showtip" data-name="1_plus"><circle class="cls-1" cx="1146.45" cy="261.1" r="25"/><line class="cls-2" x1="1131.84" y1="261.1" x2="1161.07" y2="261.1"/><line class="cls-2" x1="1146.45" y1="275.72" x2="1146.45" y2="246.49"/></g><g id="_1_tooltip" class="svg-tooltip" data-name="1_tooltip"><path id="tooltip" class="cls-3" d="M1542,184.6H1170.24l-23,20-24-20h-39.53a3.27,3.27,0,0,1-3.26-3.26V51.88a3.27,3.27,0,0,1,3.26-3.26H1542a3.27,3.27,0,0,1,3.26,3.26V181.34A3.27,3.27,0,0,1,1542,184.6Z"/><path class="cls-4" d="M1123,90.74l-1,.58a4.6,4.6,0,0,0-3.55-1.63,4.68,4.68,0,0,0,0,9.36,4.58,4.58,0,0,0,3.55-1.64l1,.59a5.87,5.87,0,0,1-4.55,2.13,5.76,5.76,0,1,1,4.54-9.39Z"/><path class="cls-4" d="M1133.66,96a4.35,4.35,0,1,1-4.35-4.16A4.26,4.26,0,0,1,1133.66,96ZM1126,96a3.28,3.28,0,1,0,3.28-3.24A3.27,3.27,0,0,0,1126,96Z"/><path class="cls-4" d="M1144,94.84V100h-1.08V95.13a2.17,2.17,0,0,0-2.27-2.44,5,5,0,0,0-3.35,1.3v6h-1.08V92h1.08V93.2a5.81,5.81,0,0,1,3.74-1.39A2.77,2.77,0,0,1,1144,94.84Z"/><path class="cls-4" d="M1152.49,92.66l-.38.67a5.44,5.44,0,0,0-2.78-.77c-1,0-1.95.42-1.95,1.42,0,.63.37.94,2,1.37,2.07.55,3.4.82,3.4,2.54,0,1.52-1.44,2.25-3.17,2.24a6.68,6.68,0,0,1-3.6-1l.41-.65a5.94,5.94,0,0,0,3.19.91c1.15,0,2.17-.41,2.17-1.41,0-1.18-.86-1.28-2.64-1.76-1.94-.52-2.76-1-2.76-2.15,0-1.58,1.37-2.25,3-2.25A6.05,6.05,0,0,1,1152.49,92.66Z"/><path class="cls-4" d="M1156.6,89.73a.6.6,0,0,1-.64.57.57.57,0,1,1,0-1.13A.6.6,0,0,1,1156.6,89.73ZM1155.43,100V92h1.08v8Z"/><path class="cls-4" d="M1167.16,100h-1.08V98.79a4,4,0,0,1-3,1.34,4.16,4.16,0,1,1,3-7V88.77h1.08Zm-7-4a3.26,3.26,0,0,0,3.27,3.24,3.3,3.3,0,0,0,2.63-1.33V94.05a3.27,3.27,0,0,0-5.9,1.92Z"/><path class="cls-4" d="M1177.85,96v.36h-7.13a3.16,3.16,0,0,0,3.2,3,3.88,3.88,0,0,0,2.72-1.1l.58.53a4.83,4.83,0,0,1-3.38,1.37,4.17,4.17,0,0,1-4.17-4.16,4.12,4.12,0,0,1,4.09-4.16A3.94,3.94,0,0,1,1177.85,96Zm-7.13-.21h6.11a3,3,0,0,0-3-3.16A3.11,3.11,0,0,0,1170.72,95.76Z"/><path class="cls-4" d="M1185.12,92.69a5.23,5.23,0,0,0-3.77,1.69V100h-1.08V92h1.08v1.54a5.29,5.29,0,0,1,3.77-1.7Z"/><path class="cls-4" d="M1198.12,93.32l-.82.48a3.22,3.22,0,0,0-2.42-1.07,3.24,3.24,0,1,0,2.51,5.31l.82.48a4.3,4.3,0,0,1-3.38,1.61,4.16,4.16,0,1,1,0-8.32A4.28,4.28,0,0,1,1198.12,93.32Z"/><path class="cls-4" d="M1200.74,100V88.76h1.08V100Z"/><path class="cls-4" d="M1206,89.73a.6.6,0,0,1-.64.57.57.57,0,1,1,0-1.13A.6.6,0,0,1,1206,89.73ZM1204.82,100V92h1.08v8Z"/><path class="cls-4" d="M1215.89,93.23a5.51,5.51,0,0,1,3.69-1.42,2.74,2.74,0,0,1,2.9,3V100h-1.07V95.13a2.14,2.14,0,0,0-2.21-2.44,4.73,4.73,0,0,0-3.14,1.21,4.66,4.66,0,0,1,.18,1.31V100h-1.08V95.13a2.14,2.14,0,0,0-2.2-2.44,4.26,4.26,0,0,0-3,1.23v6h-1.08V92H1210v1.22a5,5,0,0,1,3.39-1.38A2.63,2.63,0,0,1,1215.89,93.23Z"/><path class="cls-4" d="M1232.2,94.8V100h-1.08V99a5.53,5.53,0,0,1-3.58,1.18,2.57,2.57,0,0,1-2.8-2.58c0-1.56,1.21-2.36,3.14-2.37h3.24v-.29c0-1.55-1-2.23-2.48-2.23a4.93,4.93,0,0,0-2.92,1l-.35-.7a6.14,6.14,0,0,1,3.52-1.13C1230.79,91.8,1232.2,92.7,1232.2,94.8Zm-4,.87c-1.53,0-2.45.6-2.45,1.78a2,2,0,0,0,2.17,2,4.94,4.94,0,0,0,3.15-1V95.67Z"/><path class="cls-4" d="M1239.1,92v.84h-2.6v4.38a1.91,1.91,0,0,0,2,2,2.41,2.41,0,0,0,1.15-.3l.18.75a3.59,3.59,0,0,1-1.7.44,2.58,2.58,0,0,1-2.67-2.77V92.81H1234V92h1.47V89.6h1.08V92Z"/><path class="cls-4" d="M1249.25,96v.36h-7.13a3.17,3.17,0,0,0,3.21,3,3.86,3.86,0,0,0,2.71-1.1l.59.53a4.83,4.83,0,0,1-3.38,1.37,4.17,4.17,0,0,1-4.17-4.16,4.11,4.11,0,0,1,4.08-4.16A3.93,3.93,0,0,1,1249.25,96Zm-7.12-.21h6.11a3,3,0,0,0-3.06-3.16A3.11,3.11,0,0,0,1242.13,95.76Z"/><path class="cls-4" d="M1252.45,99.56a.57.57,0,0,1-.1.31l-1.33,2.06-.37-.17.85-1.67a.57.57,0,0,1-.37-.53.66.66,0,0,1,1.32,0Z"/><path class="cls-4" d="M1262.73,92v.84h-2.6v4.38a1.91,1.91,0,0,0,2,2,2.38,2.38,0,0,0,1.15-.3l.18.75a3.59,3.59,0,0,1-1.7.44,2.58,2.58,0,0,1-2.67-2.77V92.81h-1.47V92h1.47V89.6h1.08V92Z"/><path class="cls-4" d="M1272.4,94.8V100h-1.08V99a5.55,5.55,0,0,1-3.58,1.18,2.58,2.58,0,0,1-2.81-2.58c0-1.56,1.21-2.36,3.14-2.37h3.25v-.29c0-1.55-1-2.23-2.49-2.23a4.93,4.93,0,0,0-2.92,1l-.35-.7a6.15,6.15,0,0,1,3.53-1.13C1271,91.8,1272.4,92.7,1272.4,94.8Zm-4,.87c-1.53,0-2.44.6-2.44,1.78a2,2,0,0,0,2.16,2,5,5,0,0,0,3.16-1V95.67Z"/><path class="cls-4" d="M1282,100h-1.25l-2.74-3.42-2.72,3.42h-1.24l3.33-4.16L1274.33,92h1.25l2.51,3.13,2.49-3.13h1.23l-3.09,3.88Z"/><path class="cls-4" d="M1285.26,89.73a.65.65,0,1,1-.64-.56A.61.61,0,0,1,1285.26,89.73ZM1284.08,100V92h1.08v8Z"/><path class="cls-4" d="M1299.12,94.8V100H1298V99a5.57,5.57,0,0,1-3.58,1.18,2.58,2.58,0,0,1-2.81-2.58c0-1.56,1.21-2.36,3.14-2.37H1298v-.29c0-1.55-1-2.23-2.49-2.23a4.93,4.93,0,0,0-2.92,1l-.35-.7a6.15,6.15,0,0,1,3.53-1.13C1297.71,91.8,1299.12,92.7,1299.12,94.8Zm-4,.87c-1.53,0-2.44.6-2.44,1.78a2,2,0,0,0,2.16,2,5,5,0,0,0,3.16-1V95.67Z"/><path class="cls-4" d="M1309.67,94.84V100h-1.08V95.13a2.17,2.17,0,0,0-2.27-2.44A5,5,0,0,0,1303,94v6h-1.08V92H1303V93.2a5.8,5.8,0,0,1,3.73-1.39A2.77,2.77,0,0,1,1309.67,94.84Z"/><path class="cls-4" d="M1320.08,100H1319V98.79a4,4,0,0,1-3,1.34,4.16,4.16,0,1,1,3-7V88.77h1.08Zm-7-4a3.27,3.27,0,0,0,5.9,1.91V94.05a3.27,3.27,0,0,0-5.9,1.92Z"/><path class="cls-4" d="M1334.17,93.32l-.82.48a3.24,3.24,0,1,0,.09,4.24l.82.48a4.32,4.32,0,0,1-3.38,1.61,4.16,4.16,0,1,1,0-8.32A4.28,4.28,0,0,1,1334.17,93.32Z"/><path class="cls-4" d="M1343.63,94.8V100h-1.08V99a5.55,5.55,0,0,1-3.58,1.18,2.58,2.58,0,0,1-2.81-2.58c0-1.56,1.21-2.36,3.14-2.37h3.25v-.29c0-1.55-1-2.23-2.49-2.23a4.93,4.93,0,0,0-2.92,1l-.35-.7a6.15,6.15,0,0,1,3.53-1.13C1342.22,91.8,1343.63,92.7,1343.63,94.8Zm-4,.87c-1.53,0-2.44.6-2.44,1.78a2,2,0,0,0,2.16,2,5,5,0,0,0,3.16-1V95.67Z"/><path class="cls-4" d="M1351.25,92.69a5.23,5.23,0,0,0-3.77,1.69V100h-1.08V92h1.08v1.54a5.29,5.29,0,0,1,3.77-1.7Z"/><path class="cls-4" d="M1365.21,96a4,4,0,0,1-4,4.16,4,4,0,0,1-3-1.34v4.3h-1.08V92h1.08v1.17a4,4,0,0,1,7,2.83Zm-7-1.92v3.83a3.3,3.3,0,0,0,2.63,1.33,3.24,3.24,0,1,0-2.63-5.16Z"/><path class="cls-4" d="M1374.65,94.8V100h-1.08V99a5.55,5.55,0,0,1-3.58,1.18,2.58,2.58,0,0,1-2.81-2.58c0-1.56,1.22-2.36,3.15-2.37h3.24v-.29c0-1.55-1-2.23-2.49-2.23a5,5,0,0,0-2.92,1l-.35-.7a6.15,6.15,0,0,1,3.53-1.13C1373.24,91.8,1374.65,92.7,1374.65,94.8Zm-4,.87c-1.52,0-2.44.6-2.44,1.78a2,2,0,0,0,2.16,2,5,5,0,0,0,3.16-1V95.67Z"/><path class="cls-4" d="M1382.27,92.69a5.23,5.23,0,0,0-3.77,1.69V100h-1.08V92h1.08v1.54a5.29,5.29,0,0,1,3.77-1.7Z"/><path class="cls-4" d="M1390.26,92h1.32l-3,3,3.3,5h-1.19l-2.86-4.23-2.53,2.35V100h-1.08V88.77h1.08v8Z"/><path class="cls-4" d="M1395.08,89.73a.61.61,0,0,1-.64.57.57.57,0,1,1,.64-.57ZM1393.9,100V92H1395v8Z"/><path class="cls-4" d="M1405.78,94.84V100h-1.08V95.13a2.17,2.17,0,0,0-2.27-2.44,5,5,0,0,0-3.36,1.3v6H1398V92h1.07V93.2a5.85,5.85,0,0,1,3.74-1.39A2.77,2.77,0,0,1,1405.78,94.84Z"/><path class="cls-4" d="M1415.35,93.09V92h1.08v7.2c0,2.8-1.78,4.1-4.18,4.1a6.64,6.64,0,0,1-3.69-1.15l.35-.71a5.59,5.59,0,0,0,3.15,1,3,3,0,0,0,3.29-3.26v-.82a4,4,0,0,1-3.25,1.62,3.92,3.92,0,0,1-3.93-4.06,4,4,0,0,1,3.93-4.1A4.75,4.75,0,0,1,1415.35,93.09Zm-6.12,2.82a3.2,3.2,0,0,0,3.22,3.18,3.32,3.32,0,0,0,2.9-1.71V94a4,4,0,0,0-2.9-1.24A3.2,3.2,0,0,0,1409.23,95.91Z"/><path class="cls-4" d="M1420.14,99.56a.66.66,0,0,1-.09.31l-1.34,2.06-.36-.17.84-1.67a.57.57,0,0,1-.37-.53.66.66,0,0,1,1.32,0Z"/><path class="cls-4" d="M1433.59,100l-2.18-6.49-2.17,6.49h-1.19l-2.83-8h1.09l2.38,6.85L1431,92h.93l2.26,6.85,2.38-6.85h1.08l-2.82,8Z"/><path class="cls-4" d="M1440.82,89.73a.65.65,0,1,1-.64-.56A.6.6,0,0,1,1440.82,89.73ZM1439.65,100V92h1.07v8Z"/><path class="cls-4" d="M1447.87,92v.84h-2.61v4.38a1.91,1.91,0,0,0,2,2,2.35,2.35,0,0,0,1.15-.3l.18.75a3.58,3.58,0,0,1-1.69.44,2.58,2.58,0,0,1-2.67-2.77V92.81h-1.48V92h1.48V89.6h1.07V92Z"/><path class="cls-4" d="M1452.1,93.2a5.81,5.81,0,0,1,3.74-1.39,2.77,2.77,0,0,1,3,3V100h-1.08V95.13a2.17,2.17,0,0,0-2.26-2.44,5,5,0,0,0-3.36,1.3v6H1451V88.77h1.08Z"/><path class="cls-4" d="M1119.7,117.8V123h-1.08v-1a5.57,5.57,0,0,1-3.58,1.18,2.58,2.58,0,0,1-2.81-2.58c0-1.56,1.21-2.36,3.14-2.37h3.25v-.29c0-1.55-1-2.23-2.49-2.23a4.93,4.93,0,0,0-2.92,1l-.35-.7a6.15,6.15,0,0,1,3.53-1.13C1118.29,114.8,1119.7,115.7,1119.7,117.8Zm-4,.87c-1.53,0-2.44.6-2.44,1.78a2,2,0,0,0,2.16,2,5,5,0,0,0,3.16-1v-2.79Z"/><path class="cls-4" d="M1129.45,116.23a5.47,5.47,0,0,1,3.69-1.42,2.74,2.74,0,0,1,2.9,3V123H1135v-4.84a2.14,2.14,0,0,0-2.2-2.44,4.74,4.74,0,0,0-3.15,1.21,4.32,4.32,0,0,1,.18,1.31V123h-1.08v-4.84a2.14,2.14,0,0,0-2.2-2.44,4.22,4.22,0,0,0-3,1.23v6h-1.08v-8h1.08v1.22a5,5,0,0,1,3.39-1.38A2.64,2.64,0,0,1,1129.45,116.23Z"/><path class="cls-4" d="M1146.94,119a4,4,0,0,1-4,4.16,4,4,0,0,1-3-1.34v4.3h-1.08V115H1140v1.17a4,4,0,0,1,7,2.83Zm-7-1.92v3.83a3.24,3.24,0,1,0,0-3.83Z"/><path class="cls-4" d="M1149.61,123V111.76h1.08V123Z"/><path class="cls-4" d="M1161.24,119v.36h-7.13a3.16,3.16,0,0,0,3.2,3,3.88,3.88,0,0,0,2.72-1.1l.59.53a4.85,4.85,0,0,1-3.39,1.37,4.17,4.17,0,0,1-4.17-4.16,4.12,4.12,0,0,1,4.09-4.16A3.93,3.93,0,0,1,1161.24,119Zm-7.12-.21h6.1a3,3,0,0,0-3-3.16A3.11,3.11,0,0,0,1154.12,118.76Z"/><path class="cls-4" d="M1173.42,115.66l-.38.67a5.44,5.44,0,0,0-2.78-.77c-1,0-2,.42-2,1.42,0,.63.37.94,2,1.37,2.07.55,3.4.82,3.4,2.54,0,1.52-1.44,2.25-3.17,2.24a6.68,6.68,0,0,1-3.6-1l.41-.65a5.93,5.93,0,0,0,3.18.91c1.16,0,2.18-.41,2.18-1.41,0-1.18-.86-1.28-2.64-1.76-1.94-.52-2.76-1-2.76-2.15,0-1.58,1.37-2.25,3-2.25A6.05,6.05,0,0,1,1173.42,115.66Z"/><path class="cls-4" d="M1184.27,119a4,4,0,0,1-4,4.16,4,4,0,0,1-3-1.34v4.3h-1.08V115h1.08v1.17a4,4,0,0,1,7,2.83Zm-7-1.92v3.83a3.24,3.24,0,1,0,0-3.83Z"/><path class="cls-4" d="M1193.71,117.8V123h-1.08v-1a5.55,5.55,0,0,1-3.58,1.18,2.58,2.58,0,0,1-2.81-2.58c0-1.56,1.22-2.36,3.15-2.37h3.24v-.29c0-1.55-1-2.23-2.49-2.23a4.92,4.92,0,0,0-2.91,1l-.35-.7a6.1,6.1,0,0,1,3.52-1.13C1192.3,114.8,1193.71,115.7,1193.71,117.8Zm-4,.87c-1.52,0-2.44.6-2.44,1.78a2,2,0,0,0,2.16,2,5,5,0,0,0,3.16-1v-2.79Z"/><path class="cls-4" d="M1203.64,116.32l-.81.48a3.24,3.24,0,1,0,.09,4.24l.82.48a4.32,4.32,0,0,1-3.39,1.61,4.16,4.16,0,1,1,3.29-6.81Z"/><path class="cls-4" d="M1213.93,119v.36h-7.13a3.16,3.16,0,0,0,3.2,3,3.88,3.88,0,0,0,2.72-1.1l.59.53a4.85,4.85,0,0,1-3.39,1.37,4.17,4.17,0,0,1-4.17-4.16,4.12,4.12,0,0,1,4.09-4.16A3.93,3.93,0,0,1,1213.93,119Zm-7.13-.21h6.11a3,3,0,0,0-3.05-3.16A3.11,3.11,0,0,0,1206.8,118.76Z"/><path class="cls-4" d="M1227.3,117.8V123h-1.08v-1a5.57,5.57,0,0,1-3.58,1.18,2.58,2.58,0,0,1-2.81-2.58c0-1.56,1.21-2.36,3.14-2.37h3.25v-.29c0-1.55-1-2.23-2.49-2.23a4.93,4.93,0,0,0-2.92,1l-.35-.7a6.14,6.14,0,0,1,3.52-1.13C1225.89,114.8,1227.3,115.7,1227.3,117.8Zm-4,.87c-1.53,0-2.45.6-2.45,1.78a2,2,0,0,0,2.17,2,5,5,0,0,0,3.16-1v-2.79Z"/><path class="cls-4" d="M1237.85,117.84V123h-1.08v-4.84a2.17,2.17,0,0,0-2.27-2.44,5,5,0,0,0-3.35,1.3v6h-1.08v-8h1.08v1.23a5.8,5.8,0,0,1,3.73-1.39A2.77,2.77,0,0,1,1237.85,117.84Z"/><path class="cls-4" d="M1248.26,123h-1.08v-1.18a4,4,0,0,1-3,1.34,4.16,4.16,0,1,1,3-7v-4.37h1.08Zm-7-4a3.27,3.27,0,0,0,5.9,1.91v-3.83a3.27,3.27,0,0,0-5.9,1.92Z"/><path class="cls-4" d="M1262.35,116.32l-.82.48a3.24,3.24,0,1,0,.09,4.24l.82.48a4.32,4.32,0,0,1-3.38,1.61,4.16,4.16,0,1,1,0-8.32A4.28,4.28,0,0,1,1262.35,116.32Z"/><path class="cls-4" d="M1273.15,119a4.35,4.35,0,1,1-4.35-4.16A4.26,4.26,0,0,1,1273.15,119Zm-7.64,0a3.29,3.29,0,1,0,3.29-3.24A3.27,3.27,0,0,0,1265.51,119Z"/><path class="cls-4" d="M1277.64,123l-3.51-8h1.15l3,6.91,3-6.91h1.16l-3.52,8Z"/><path class="cls-4" d="M1291.7,119v.36h-7.13a3.17,3.17,0,0,0,3.21,3,3.86,3.86,0,0,0,2.71-1.1l.59.53a4.83,4.83,0,0,1-3.38,1.37,4.17,4.17,0,0,1-4.17-4.16,4.11,4.11,0,0,1,4.08-4.16A3.93,3.93,0,0,1,1291.7,119Zm-7.12-.21h6.11a3,3,0,0,0-3.06-3.16A3.11,3.11,0,0,0,1284.58,118.76Z"/><path class="cls-4" d="M1299,115.69a5.23,5.23,0,0,0-3.77,1.69V123h-1.08v-8h1.08v1.54a5.29,5.29,0,0,1,3.77-1.7Z"/><path class="cls-4" d="M1307.52,117.8V123h-1.08v-1a5.55,5.55,0,0,1-3.58,1.18,2.58,2.58,0,0,1-2.81-2.58c0-1.56,1.21-2.36,3.15-2.37h3.24v-.29c0-1.55-1-2.23-2.49-2.23a4.93,4.93,0,0,0-2.92,1l-.35-.7a6.15,6.15,0,0,1,3.53-1.13C1306.11,114.8,1307.52,115.7,1307.52,117.8Zm-4,.87c-1.52,0-2.44.6-2.44,1.78a2,2,0,0,0,2.16,2,5,5,0,0,0,3.16-1v-2.79Z"/><path class="cls-4" d="M1317.09,116.09V115h1.07v7.2c0,2.8-1.78,4.1-4.18,4.1a6.64,6.64,0,0,1-3.68-1.15l.35-.71a5.59,5.59,0,0,0,3.14,1,3,3,0,0,0,3.29-3.26v-.82a4,4,0,0,1-3.25,1.62,3.92,3.92,0,0,1-3.93-4.06,4,4,0,0,1,3.93-4.1A4.79,4.79,0,0,1,1317.09,116.09Zm-6.12,2.82a3.19,3.19,0,0,0,3.21,3.18,3.3,3.3,0,0,0,2.9-1.71V117a4,4,0,0,0-2.9-1.24A3.19,3.19,0,0,0,1311,118.91Z"/><path class="cls-4" d="M1328.87,119v.36h-7.13a3.16,3.16,0,0,0,3.2,3,3.88,3.88,0,0,0,2.72-1.1l.59.53a4.85,4.85,0,0,1-3.39,1.37,4.17,4.17,0,0,1-4.17-4.16,4.12,4.12,0,0,1,4.09-4.16A3.93,3.93,0,0,1,1328.87,119Zm-7.12-.21h6.1a3,3,0,0,0-3-3.16A3.11,3.11,0,0,0,1321.75,118.76Z"/><path class="cls-4" d="M1342.58,123l-2.17-6.49-2.17,6.49H1337l-2.82-8h1.08l2.38,6.85L1340,115h.92l2.27,6.85,2.37-6.85h1.09l-2.82,8Z"/><path class="cls-4" d="M1349.59,116.2a5.81,5.81,0,0,1,3.74-1.39,2.77,2.77,0,0,1,3,3V123h-1.08v-4.84a2.16,2.16,0,0,0-2.26-2.44,5,5,0,0,0-3.36,1.3v6h-1.08v-11.2h1.08Z"/><path class="cls-4" d="M1366.84,119v.36h-7.13a3.16,3.16,0,0,0,3.2,3,3.88,3.88,0,0,0,2.72-1.1l.58.53a4.83,4.83,0,0,1-3.38,1.37,4.17,4.17,0,0,1-4.17-4.16,4.12,4.12,0,0,1,4.09-4.16A3.94,3.94,0,0,1,1366.84,119Zm-7.13-.21h6.11a3,3,0,0,0-3-3.16A3.11,3.11,0,0,0,1359.71,118.76Z"/><path class="cls-4" d="M1377,117.84V123H1376v-4.84a2.17,2.17,0,0,0-2.27-2.44,5,5,0,0,0-3.36,1.3v6h-1.08v-8h1.08v1.23a5.85,5.85,0,0,1,3.74-1.39A2.77,2.77,0,0,1,1377,117.84Z"/><path class="cls-4" d="M1391.46,123h-1.08v-1.18a4,4,0,0,1-3,1.34,4.16,4.16,0,1,1,3-7v-4.37h1.08Zm-7-4a3.26,3.26,0,0,0,3.27,3.24,3.3,3.3,0,0,0,2.63-1.33v-3.83a3.27,3.27,0,0,0-5.9,1.92Z"/><path class="cls-4" d="M1402.15,119v.36H1395a3.16,3.16,0,0,0,3.2,3,3.88,3.88,0,0,0,2.72-1.1l.58.53a4.81,4.81,0,0,1-3.38,1.37A4.17,4.17,0,0,1,1394,119a4.12,4.12,0,0,1,4.09-4.16A3.94,3.94,0,0,1,1402.15,119Zm-7.13-.21h6.11a3,3,0,0,0-3.05-3.16A3.11,3.11,0,0,0,1395,118.76Z"/><path class="cls-4" d="M1410.33,115.66l-.38.67a5.47,5.47,0,0,0-2.78-.77c-1.06,0-2,.42-2,1.42,0,.63.38.94,2,1.37,2.07.55,3.4.82,3.4,2.54,0,1.52-1.44,2.25-3.17,2.24a6.63,6.63,0,0,1-3.6-1l.4-.65a6,6,0,0,0,3.19.91c1.15,0,2.17-.41,2.17-1.41,0-1.18-.85-1.28-2.63-1.76-2-.52-2.76-1-2.76-2.15,0-1.58,1.36-2.25,3-2.25A6.09,6.09,0,0,1,1410.33,115.66Z"/><path class="cls-4" d="M1414.44,112.73a.65.65,0,1,1-.64-.56A.6.6,0,0,1,1414.44,112.73ZM1413.26,123v-8h1.08v8Z"/><path class="cls-4" d="M1424.15,116.09V115h1.08v7.2c0,2.8-1.78,4.1-4.18,4.1a6.64,6.64,0,0,1-3.69-1.15l.36-.71a5.56,5.56,0,0,0,3.14,1,3,3,0,0,0,3.29-3.26v-.82a4,4,0,0,1-3.25,1.62,3.92,3.92,0,0,1-3.93-4.06,4,4,0,0,1,3.93-4.1A4.75,4.75,0,0,1,1424.15,116.09Zm-6.12,2.82a3.2,3.2,0,0,0,3.22,3.18,3.3,3.3,0,0,0,2.9-1.71V117a4,4,0,0,0-2.9-1.24A3.2,3.2,0,0,0,1418,118.91Z"/><path class="cls-4" d="M1436,117.84V123h-1.07v-4.84a2.17,2.17,0,0,0-2.27-2.44,5,5,0,0,0-3.36,1.3v6h-1.08v-8h1.08v1.23a5.85,5.85,0,0,1,3.74-1.39A2.77,2.77,0,0,1,1436,117.84Z"/><path class="cls-4" d="M1440.12,112.73a.61.61,0,0,1-.64.57.57.57,0,1,1,.64-.57ZM1438.94,123v-8H1440v8Z"/><path class="cls-4" d="M1450.82,117.84V123h-1.08v-4.84a2.17,2.17,0,0,0-2.27-2.44,5,5,0,0,0-3.36,1.3v6H1443v-8h1.07v1.23a5.85,5.85,0,0,1,3.74-1.39A2.77,2.77,0,0,1,1450.82,117.84Z"/><path class="cls-4" d="M1460.39,116.09V115h1.08v7.2c0,2.8-1.78,4.1-4.18,4.1a6.64,6.64,0,0,1-3.69-1.15l.35-.71a5.59,5.59,0,0,0,3.15,1,3,3,0,0,0,3.29-3.26v-.82a4,4,0,0,1-3.25,1.62,3.92,3.92,0,0,1-3.93-4.06,4,4,0,0,1,3.93-4.1A4.75,4.75,0,0,1,1460.39,116.09Zm-6.12,2.82a3.2,3.2,0,0,0,3.22,3.18,3.32,3.32,0,0,0,2.9-1.71V117a4,4,0,0,0-2.9-1.24A3.2,3.2,0,0,0,1454.27,118.91Z"/><path class="cls-4" d="M1472.54,115v.84h-2.6v4.38a1.91,1.91,0,0,0,2,2,2.35,2.35,0,0,0,1.15-.3l.18.75a3.58,3.58,0,0,1-1.69.44,2.58,2.58,0,0,1-2.67-2.77v-4.55h-1.48V115h1.48V112.6h1.08V115Z"/><path class="cls-4" d="M1476.77,116.2a5.81,5.81,0,0,1,3.74-1.39,2.77,2.77,0,0,1,3,3V123h-1.08v-4.84a2.17,2.17,0,0,0-2.26-2.44,5,5,0,0,0-3.36,1.3v6h-1.08v-11.2h1.08Z"/><path class="cls-4" d="M1494,119v.36h-7.13a3.16,3.16,0,0,0,3.2,3,3.88,3.88,0,0,0,2.72-1.1l.58.53a4.83,4.83,0,0,1-3.38,1.37,4.17,4.17,0,0,1-4.17-4.16,4.12,4.12,0,0,1,4.09-4.16A3.94,3.94,0,0,1,1494,119Zm-7.13-.21H1493a3,3,0,0,0-3-3.16A3.11,3.11,0,0,0,1486.89,118.76Z"/><path class="cls-4" d="M1120.88,142a4,4,0,0,1-4,4.16,4,4,0,0,1-3-1.34v4.3h-1.08V138h1.08v1.17a4,4,0,0,1,7,2.83Zm-7-1.92v3.83a3.3,3.3,0,0,0,2.63,1.33,3.24,3.24,0,1,0-2.63-5.16Z"/><path class="cls-4" d="M1131.72,142a4.35,4.35,0,1,1-4.34-4.16A4.26,4.26,0,0,1,1131.72,142Zm-7.63,0a3.28,3.28,0,1,0,3.28-3.24A3.27,3.27,0,0,0,1124.09,142Z"/><path class="cls-4" d="M1139.09,138.69a5.23,5.23,0,0,0-3.77,1.69V146h-1.08v-8h1.08v1.54a5.29,5.29,0,0,1,3.77-1.7Z"/><path class="cls-4" d="M1145.06,138v.84h-2.6v4.38a1.91,1.91,0,0,0,2,2.05,2.35,2.35,0,0,0,1.15-.3l.18.75a3.58,3.58,0,0,1-1.69.44,2.58,2.58,0,0,1-2.67-2.77v-4.55h-1.48V138h1.48V135.6h1.08V138Z"/><path class="cls-4" d="M1155.21,142v.36h-7.13a3.16,3.16,0,0,0,3.2,3,3.88,3.88,0,0,0,2.72-1.1l.59.53a4.85,4.85,0,0,1-3.39,1.37A4.17,4.17,0,0,1,1147,142a4.12,4.12,0,0,1,4.09-4.16A3.94,3.94,0,0,1,1155.21,142Zm-7.13-.21h6.11a3,3,0,0,0-3-3.16A3.11,3.11,0,0,0,1148.08,141.76Z"/><path class="cls-4" d="M1168.8,139.32l-.82.48a3.24,3.24,0,1,0,.09,4.24l.82.48a4.32,4.32,0,0,1-3.38,1.61,4.16,4.16,0,1,1,0-8.32A4.28,4.28,0,0,1,1168.8,139.32Z"/><path class="cls-4" d="M1179.6,142a4.35,4.35,0,1,1-4.35-4.16A4.26,4.26,0,0,1,1179.6,142Zm-7.64,0a3.28,3.28,0,1,0,3.28-3.24A3.27,3.27,0,0,0,1172,142Z"/><path class="cls-4" d="M1189.27,139.32l-.81.48a3.24,3.24,0,1,0,.09,4.24l.82.48a4.32,4.32,0,0,1-3.38,1.61,4.16,4.16,0,1,1,3.28-6.81Z"/><path class="cls-4" d="M1193,139.2a5.85,5.85,0,0,1,3.74-1.39,2.78,2.78,0,0,1,3,3V146h-1.08v-4.84a2.17,2.17,0,0,0-2.27-2.44A5,5,0,0,0,1193,140v6h-1.08v-11.2H1193Z"/><path class="cls-4" d="M1210.2,142v.36h-7.13a3.16,3.16,0,0,0,3.2,3,3.88,3.88,0,0,0,2.72-1.1l.59.53a4.85,4.85,0,0,1-3.39,1.37A4.17,4.17,0,0,1,1202,142a4.12,4.12,0,0,1,4.09-4.16A3.93,3.93,0,0,1,1210.2,142Zm-7.12-.21h6.1a3,3,0,0,0-3-3.16A3.11,3.11,0,0,0,1203.08,141.76Z"/><path class="cls-4" d="M1217.47,138.69a5.25,5.25,0,0,0-3.77,1.69V146h-1.07v-8h1.07v1.54a5.31,5.31,0,0,1,3.77-1.7Z"/><path class="cls-4" d="M1226.74,142v.36h-7.13a3.17,3.17,0,0,0,3.21,3,3.86,3.86,0,0,0,2.71-1.1l.59.53a4.83,4.83,0,0,1-3.38,1.37,4.17,4.17,0,0,1-4.17-4.16,4.11,4.11,0,0,1,4.08-4.16A3.93,3.93,0,0,1,1226.74,142Zm-7.12-.21h6.11a3,3,0,0,0-3.06-3.16A3.11,3.11,0,0,0,1219.62,141.76Z"/><path class="cls-4" d="M1238.93,138.66l-.38.67a5.5,5.5,0,0,0-2.79-.77c-1,0-2,.42-2,1.42,0,.63.37.94,2,1.37,2.07.55,3.41.82,3.41,2.54,0,1.52-1.44,2.25-3.18,2.24a6.62,6.62,0,0,1-3.59-1l.4-.65a6,6,0,0,0,3.19.91c1.15,0,2.17-.41,2.17-1.41,0-1.18-.85-1.28-2.64-1.76-1.94-.52-2.76-1-2.76-2.15,0-1.58,1.37-2.25,3-2.25A6.11,6.11,0,0,1,1238.93,138.66Z"/><path class="cls-4" d="M1245.78,138v.84h-2.61v4.38a1.91,1.91,0,0,0,2,2.05,2.35,2.35,0,0,0,1.15-.3l.18.75a3.58,3.58,0,0,1-1.69.44,2.58,2.58,0,0,1-2.67-2.77v-4.55h-1.48V138h1.48V135.6h1.08V138Z"/><path class="cls-4" d="M1253.7,138.69a5.23,5.23,0,0,0-3.77,1.69V146h-1.08v-8h1.08v1.54a5.29,5.29,0,0,1,3.77-1.7Z"/><path class="cls-4" d="M1256.48,142.81a2.16,2.16,0,0,0,2.27,2.43,4.9,4.9,0,0,0,3.35-1.3v-6h1.08v8h-1.08v-1.23a5.8,5.8,0,0,1-3.73,1.39,2.78,2.78,0,0,1-3-3V138h1.08Z"/><path class="cls-4" d="M1273.13,139.32l-.82.48a3.24,3.24,0,1,0,.09,4.24l.82.48a4.3,4.3,0,0,1-3.38,1.61,4.16,4.16,0,1,1,0-8.32A4.28,4.28,0,0,1,1273.13,139.32Z"/><path class="cls-4" d="M1279.78,138v.84h-2.61v4.38a1.91,1.91,0,0,0,2,2.05,2.35,2.35,0,0,0,1.15-.3l.18.75a3.58,3.58,0,0,1-1.69.44,2.58,2.58,0,0,1-2.67-2.77v-4.55h-1.48V138h1.48V135.6h1.08V138Z"/><path class="cls-4" d="M1283.79,142.81a2.16,2.16,0,0,0,2.27,2.43,4.9,4.9,0,0,0,3.35-1.3v-6h1.08v8h-1.08v-1.23a5.8,5.8,0,0,1-3.73,1.39,2.78,2.78,0,0,1-3-3V138h1.08Z"/><path class="cls-4" d="M1298.13,138.69a5.23,5.23,0,0,0-3.77,1.69V146h-1.08v-8h1.08v1.54a5.29,5.29,0,0,1,3.77-1.7Z"/><path class="cls-4" d="M1307.4,142v.36h-7.13a3.16,3.16,0,0,0,3.2,3,3.88,3.88,0,0,0,2.72-1.1l.59.53a4.85,4.85,0,0,1-3.39,1.37,4.17,4.17,0,0,1-4.17-4.16,4.12,4.12,0,0,1,4.09-4.16A3.93,3.93,0,0,1,1307.4,142Zm-7.13-.21h6.11a3,3,0,0,0-3.05-3.16A3.11,3.11,0,0,0,1300.27,141.76Z"/><path class="cls-4" d="M1310.39,145.56a.66.66,0,1,1-.66-.59A.63.63,0,0,1,1310.39,145.56Z"/></g><g id="_2_tooltip" class="svg-tooltip" data-name="2_tooltip"><path id="tooltip-2" data-name="tooltip" class="cls-3" d="M935.66,592.35H1307.4l23,20,24-20h39.53a3.27,3.27,0,0,0,3.26-3.26V490.65a3.27,3.27,0,0,0-3.26-3.26H935.66a3.27,3.27,0,0,0-3.26,3.26v98.44A3.27,3.27,0,0,0,935.66,592.35Z"/><path class="cls-4" d="M969.6,522.54c3.19,0,4.58,1.2,4.58,3.74s-1.47,3.69-4.55,3.69h-3.36v3.77h-1.16v-11.2Zm-3.33,6.52h3.31c2.34,0,3.41-.84,3.41-2.74s-1-2.78-3.43-2.78h-3.29Z"/><path class="cls-4" d="M981.58,526.47a5.24,5.24,0,0,0-3.77,1.68v5.59h-1.08v-8h1.08v1.54a5.29,5.29,0,0,1,3.77-1.7Z"/><path class="cls-4" d="M991.37,529.74a4.35,4.35,0,1,1-4.35-4.16A4.25,4.25,0,0,1,991.37,529.74Zm-7.64,0A3.29,3.29,0,1,0,987,526.5,3.27,3.27,0,0,0,983.73,529.74Z"/><path class="cls-4" d="M995.86,533.74l-3.51-8h1.15l3,6.91,3-6.91h1.16l-3.52,8Z"/><path class="cls-4" d="M1003.94,523.5a.6.6,0,0,1-.64.57.57.57,0,1,1,0-1.13A.6.6,0,0,1,1003.94,523.5Zm-1.17,10.24v-8h1.08v8Z"/><path class="cls-4" d="M1014.5,533.74h-1.08v-1.17a4.16,4.16,0,1,1,0-5.66v-4.37h1.08Zm-7-4a3.28,3.28,0,0,0,5.91,1.91v-3.83a3.28,3.28,0,0,0-5.91,1.92Z"/><path class="cls-4" d="M1025.19,529.74v.36h-7.13a3.16,3.16,0,0,0,3.2,3A3.86,3.86,0,0,0,1024,532l.58.53a4.83,4.83,0,0,1-3.38,1.37,4.16,4.16,0,0,1-.08-8.32A3.94,3.94,0,0,1,1025.19,529.74Zm-7.13-.21h6.11a3,3,0,0,0-3.05-3.16A3.11,3.11,0,0,0,1018.06,529.53Z"/><path class="cls-4" d="M1038.55,528.57v5.17h-1.08v-1a5.55,5.55,0,0,1-3.58,1.18,2.57,2.57,0,0,1-2.8-2.58c0-1.56,1.21-2.36,3.14-2.36h3.24v-.3c0-1.55-1-2.23-2.48-2.23a4.93,4.93,0,0,0-2.92,1l-.35-.7a6.12,6.12,0,0,1,3.52-1.13C1037.14,525.58,1038.55,526.47,1038.55,528.57Zm-4,.87c-1.53,0-2.45.6-2.45,1.78a2,2,0,0,0,2.17,2,4.94,4.94,0,0,0,3.15-1v-2.79Z"/><path class="cls-4" d="M1053.45,529.74a4,4,0,0,1-7,2.83v4.29h-1.08V525.74h1.08v1.17a4,4,0,0,1,7,2.83Zm-7-1.92v3.83a3.3,3.3,0,0,0,2.63,1.33,3.24,3.24,0,1,0-2.63-5.16Z"/><path class="cls-4" d="M1056.12,533.74v-11.2h1.07v11.2Z"/><path class="cls-4" d="M1066.92,528.57v5.17h-1.08v-1a5.55,5.55,0,0,1-3.58,1.18,2.58,2.58,0,0,1-2.81-2.58c0-1.56,1.22-2.36,3.15-2.36h3.24v-.3c0-1.55-1-2.23-2.49-2.23a4.92,4.92,0,0,0-2.91,1l-.35-.7a6.1,6.1,0,0,1,3.52-1.13C1065.51,525.58,1066.92,526.47,1066.92,528.57Zm-4,.87c-1.52,0-2.44.6-2.44,1.78a2,2,0,0,0,2.16,2,5,5,0,0,0,3.16-1v-2.79Z"/><path class="cls-4" d="M1076.85,527.09l-.81.48a3.24,3.24,0,1,0,.09,4.24l.82.48a4.32,4.32,0,0,1-3.39,1.61,4.16,4.16,0,1,1,0-8.32A4.3,4.3,0,0,1,1076.85,527.09Z"/><path class="cls-4" d="M1087.14,529.74v.36H1080a3.16,3.16,0,0,0,3.2,3,3.84,3.84,0,0,0,2.72-1.1l.58.53a4.81,4.81,0,0,1-3.38,1.37,4.16,4.16,0,0,1-.08-8.32A3.94,3.94,0,0,1,1087.14,529.74Zm-7.13-.21h6.11a3,3,0,0,0-3-3.16A3.11,3.11,0,0,0,1080,529.53Z"/><path class="cls-4" d="M1098,522.61l-.17.7a2.44,2.44,0,0,0-.91-.17,1.89,1.89,0,0,0-1.94,2v.57h2.7v.84H1095v7.16h-1.08v-7.16h-1.38v-.84h1.38v-.6a2.59,2.59,0,0,1,2.73-2.76A4.52,4.52,0,0,1,1098,522.61Z"/><path class="cls-4" d="M1107.7,529.74a4.35,4.35,0,1,1-4.34-4.16A4.25,4.25,0,0,1,1107.7,529.74Zm-7.63,0a3.28,3.28,0,1,0,3.28-3.24A3.27,3.27,0,0,0,1100.07,529.74Z"/><path class="cls-4" d="M1115.07,526.47a5.22,5.22,0,0,0-3.77,1.68v5.59h-1.08v-8h1.08v1.54a5.29,5.29,0,0,1,3.77-1.7Z"/><path class="cls-4" d="M1127.7,526.86v-1.12h1.08v7.2c0,2.8-1.78,4.1-4.18,4.1a6.64,6.64,0,0,1-3.69-1.15l.36-.7a5.55,5.55,0,0,0,3.14,1,3,3,0,0,0,3.29-3.26v-.82a4,4,0,0,1-3.25,1.62,3.92,3.92,0,0,1-3.93-4.06,4,4,0,0,1,3.93-4.1A4.75,4.75,0,0,1,1127.7,526.86Zm-6.12,2.82a3.21,3.21,0,0,0,3.22,3.19,3.31,3.31,0,0,0,2.9-1.72v-3.41a4,4,0,0,0-2.9-1.24A3.2,3.2,0,0,0,1121.58,529.68Z"/><path class="cls-4" d="M1132.67,530.58a2.16,2.16,0,0,0,2.26,2.44,4.94,4.94,0,0,0,3.36-1.31v-6h1.08v8h-1.08v-1.23a5.85,5.85,0,0,1-3.74,1.39,2.77,2.77,0,0,1-3-3v-5.13h1.08Z"/><path class="cls-4" d="M1149.92,529.74v.36h-7.13a3.17,3.17,0,0,0,3.21,3,3.82,3.82,0,0,0,2.71-1.1l.59.53a4.85,4.85,0,0,1-3.39,1.37,4.16,4.16,0,0,1-.08-8.32A3.94,3.94,0,0,1,1149.92,529.74Zm-7.12-.21h6.11a3,3,0,0,0-3.06-3.16A3.11,3.11,0,0,0,1142.8,529.53Z"/><path class="cls-4" d="M1158.1,526.43l-.38.67a5.54,5.54,0,0,0-2.78-.77c-1,0-2,.43-2,1.43,0,.63.37.93,2,1.36,2.07.55,3.4.82,3.4,2.54,0,1.52-1.44,2.25-3.17,2.24a6.6,6.6,0,0,1-3.6-1l.41-.64a6,6,0,0,0,3.18.9c1.16,0,2.18-.41,2.18-1.41,0-1.18-.86-1.28-2.64-1.76-1.94-.52-2.76-1-2.76-2.14,0-1.58,1.37-2.26,3-2.26A6.05,6.05,0,0,1,1158.1,526.43Z"/><path class="cls-4" d="M1165,525.74v.84h-2.61V531a1.92,1.92,0,0,0,2,2.06,2.39,2.39,0,0,0,1.15-.31l.18.75a3.58,3.58,0,0,1-1.69.44,2.59,2.59,0,0,1-2.68-2.77v-4.55h-1.47v-.84h1.47v-2.37h1.08v2.37Z"/><path class="cls-4" d="M1173.78,526.43l-.38.67a5.54,5.54,0,0,0-2.78-.77c-1,0-1.95.43-1.95,1.43,0,.63.37.93,2,1.36,2.07.55,3.4.82,3.4,2.54,0,1.52-1.44,2.25-3.17,2.24a6.6,6.6,0,0,1-3.6-1l.41-.64a6,6,0,0,0,3.19.9c1.15,0,2.17-.41,2.17-1.41,0-1.18-.86-1.28-2.64-1.76-1.94-.52-2.76-1-2.76-2.14,0-1.58,1.37-2.26,3-2.26A6.05,6.05,0,0,1,1173.78,526.43Z"/><path class="cls-4" d="M1184.64,525.74v.84H1182V531a1.92,1.92,0,0,0,2,2.06,2.39,2.39,0,0,0,1.15-.31l.18.75a3.58,3.58,0,0,1-1.69.44,2.59,2.59,0,0,1-2.68-2.77v-4.55h-1.47v-.84H1181v-2.37H1182v2.37Z"/><path class="cls-4" d="M1195.3,529.74a4.35,4.35,0,1,1-4.35-4.16A4.25,4.25,0,0,1,1195.3,529.74Zm-7.63,0a3.28,3.28,0,1,0,3.28-3.24A3.27,3.27,0,0,0,1187.67,529.74Z"/><path class="cls-4" d="M1207.57,526.43l-.38.67a5.54,5.54,0,0,0-2.78-.77c-1.05,0-2,.43-2,1.43,0,.63.37.93,2,1.36,2.07.55,3.41.82,3.41,2.54,0,1.52-1.45,2.25-3.18,2.24a6.6,6.6,0,0,1-3.6-1l.41-.64a6,6,0,0,0,3.19.9c1.15,0,2.17-.41,2.17-1.41,0-1.18-.86-1.28-2.64-1.76-1.94-.52-2.76-1-2.76-2.14,0-1.58,1.37-2.26,3-2.26A6.05,6.05,0,0,1,1207.57,526.43Z"/><path class="cls-4" d="M1211.68,523.5a.6.6,0,0,1-.64.57.57.57,0,1,1,0-1.13A.6.6,0,0,1,1211.68,523.5Zm-1.17,10.24v-8h1.08v8Z"/><path class="cls-4" d="M1218.73,525.74v.84h-2.6V531a1.92,1.92,0,0,0,1.95,2.06,2.36,2.36,0,0,0,1.15-.31l.19.75a3.59,3.59,0,0,1-1.7.44,2.58,2.58,0,0,1-2.67-2.77v-4.55h-1.48v-.84h1.48v-2.37h1.08v2.37Z"/><path class="cls-4" d="M1232.74,528.57v5.17h-1.08v-1a5.53,5.53,0,0,1-3.58,1.18,2.57,2.57,0,0,1-2.8-2.58c0-1.56,1.21-2.36,3.14-2.36h3.24v-.3c0-1.55-1-2.23-2.48-2.23a4.93,4.93,0,0,0-2.92,1l-.35-.7a6.14,6.14,0,0,1,3.52-1.13C1231.33,525.58,1232.74,526.47,1232.74,528.57Zm-4,.87c-1.53,0-2.45.6-2.45,1.78a2,2,0,0,0,2.17,2,4.94,4.94,0,0,0,3.15-1v-2.79Z"/><path class="cls-4" d="M1243.3,528.62v5.12h-1.08V528.9a2.16,2.16,0,0,0-2.27-2.43,4.93,4.93,0,0,0-3.36,1.3v6h-1.08v-8h1.08V527a5.85,5.85,0,0,1,3.74-1.39A2.78,2.78,0,0,1,1243.3,528.62Z"/><path class="cls-4" d="M1253.71,533.74h-1.08v-1.17a4.16,4.16,0,1,1,0-5.66v-4.37h1.08Zm-7-4a3.27,3.27,0,0,0,5.9,1.91v-3.83a3.27,3.27,0,0,0-5.9,1.92Z"/><path class="cls-4" d="M1267.92,533.74l-2.17-6.48-2.18,6.48h-1.19l-2.82-8h1.08l2.38,6.85,2.26-6.85h.93l2.26,6.85,2.38-6.85h1.08l-2.82,8Z"/><path class="cls-4" d="M1280.44,528.57v5.17h-1.08v-1a5.55,5.55,0,0,1-3.58,1.18,2.58,2.58,0,0,1-2.81-2.58c0-1.56,1.22-2.36,3.15-2.36h3.24v-.3c0-1.55-1-2.23-2.49-2.23a5,5,0,0,0-2.92,1l-.35-.7a6.15,6.15,0,0,1,3.53-1.13C1279,525.58,1280.44,526.47,1280.44,528.57Zm-4,.87c-1.52,0-2.44.6-2.44,1.78a2,2,0,0,0,2.16,2,5,5,0,0,0,3.16-1v-2.79Z"/><path class="cls-4" d="M1284.6,523.5a.65.65,0,1,1-.65-.56A.61.61,0,0,1,1284.6,523.5Zm-1.18,10.24v-8h1.08v8Z"/><path class="cls-4" d="M1291.64,525.74v.84H1289V531a1.92,1.92,0,0,0,2,2.06,2.42,2.42,0,0,0,1.15-.31l.18.75a3.59,3.59,0,0,1-1.7.44,2.58,2.58,0,0,1-2.67-2.77v-4.55h-1.48v-.84H1288v-2.37H1289v2.37Z"/><path class="cls-4" d="M1303.16,522.61l-.17.7a2.44,2.44,0,0,0-.91-.17,1.89,1.89,0,0,0-1.94,2v.57h2.7v.84h-2.7v7.16h-1.08v-7.16h-1.38v-.84h1.38v-.6a2.59,2.59,0,0,1,2.73-2.76A4.47,4.47,0,0,1,1303.16,522.61Z"/><path class="cls-4" d="M1312.85,529.74a4.35,4.35,0,1,1-4.34-4.16A4.25,4.25,0,0,1,1312.85,529.74Zm-7.63,0a3.28,3.28,0,1,0,3.28-3.24A3.27,3.27,0,0,0,1305.22,529.74Z"/><path class="cls-4" d="M1320.22,526.47a5.22,5.22,0,0,0-3.77,1.68v5.59h-1.08v-8h1.08v1.54a5.29,5.29,0,0,1,3.77-1.7Z"/><path class="cls-4" d="M968.83,548.74v.84h-2.6V554a1.92,1.92,0,0,0,1.95,2.06,2.36,2.36,0,0,0,1.15-.31l.18.75a3.58,3.58,0,0,1-1.69.44,2.58,2.58,0,0,1-2.67-2.77v-4.55h-1.48v-.84h1.48v-2.37h1.08v2.37Z"/><path class="cls-4" d="M976.75,549.47a5.22,5.22,0,0,0-3.77,1.68v5.59H971.9v-8H973v1.54a5.29,5.29,0,0,1,3.77-1.7Z"/><path class="cls-4" d="M985.29,551.57v5.17h-1.08v-1a5.55,5.55,0,0,1-3.58,1.18,2.58,2.58,0,0,1-2.81-2.58c0-1.56,1.22-2.36,3.15-2.36h3.24v-.3c0-1.55-1-2.23-2.49-2.23a4.92,4.92,0,0,0-2.91,1l-.35-.7a6.1,6.1,0,0,1,3.52-1.13C983.88,548.58,985.29,549.47,985.29,551.57Zm-4,.87c-1.52,0-2.44.6-2.44,1.78a2,2,0,0,0,2.16,2,5,5,0,0,0,3.16-1v-2.79Z"/><path class="cls-4" d="M995.84,551.62v5.12h-1.08V551.9a2.16,2.16,0,0,0-2.26-2.43,4.93,4.93,0,0,0-3.36,1.3v6h-1.08v-8h1.08V550a5.81,5.81,0,0,1,3.74-1.39A2.77,2.77,0,0,1,995.84,551.62Z"/><path class="cls-4" d="M1004.38,549.43l-.38.67a5.57,5.57,0,0,0-2.78-.77c-1.06,0-2,.43-2,1.43,0,.63.37.93,2,1.36,2.08.55,3.41.82,3.41,2.54,0,1.52-1.44,2.25-3.18,2.24a6.54,6.54,0,0,1-3.59-1l.4-.64a6,6,0,0,0,3.19.9c1.15,0,2.17-.41,2.17-1.41,0-1.18-.85-1.28-2.64-1.76-1.94-.52-2.75-1-2.75-2.14,0-1.58,1.36-2.26,3-2.26A6.11,6.11,0,0,1,1004.38,549.43Z"/><path class="cls-4" d="M1015.23,552.74a4,4,0,0,1-7,2.83v4.29h-1.08V548.74h1.08v1.17a4,4,0,0,1,7,2.83Zm-7-1.92v3.83a3.24,3.24,0,1,0,0-3.83Z"/><path class="cls-4" d="M1026.07,552.74a4.35,4.35,0,1,1-4.35-4.16A4.25,4.25,0,0,1,1026.07,552.74Zm-7.63,0a3.28,3.28,0,1,0,3.28-3.24A3.27,3.27,0,0,0,1018.44,552.74Z"/><path class="cls-4" d="M1033.44,549.47a5.22,5.22,0,0,0-3.77,1.68v5.59h-1.08v-8h1.08v1.54a5.29,5.29,0,0,1,3.77-1.7Z"/><path class="cls-4" d="M1039.41,548.74v.84h-2.61V554a1.92,1.92,0,0,0,2,2.06,2.39,2.39,0,0,0,1.15-.31l.18.75a3.58,3.58,0,0,1-1.69.44,2.59,2.59,0,0,1-2.68-2.77v-4.55h-1.47v-.84h1.47v-2.37h1.08v2.37Z"/><path class="cls-4" d="M1049.07,551.57v5.17H1048v-1a5.55,5.55,0,0,1-3.58,1.18,2.57,2.57,0,0,1-2.81-2.58c0-1.56,1.21-2.36,3.14-2.36H1048v-.3c0-1.55-1-2.23-2.49-2.23a4.93,4.93,0,0,0-2.92,1l-.35-.7a6.15,6.15,0,0,1,3.53-1.13C1047.66,548.58,1049.07,549.47,1049.07,551.57Zm-4,.87c-1.53,0-2.44.6-2.44,1.78a2,2,0,0,0,2.16,2,5,5,0,0,0,3.16-1v-2.79Z"/><path class="cls-4" d="M1056,548.74v.84h-2.61V554a1.92,1.92,0,0,0,2,2.06,2.39,2.39,0,0,0,1.15-.31l.18.75a3.58,3.58,0,0,1-1.69.44,2.59,2.59,0,0,1-2.68-2.77v-4.55h-1.47v-.84h1.47v-2.37h1.08v2.37Z"/><path class="cls-4" d="M1060.42,546.5a.6.6,0,0,1-.64.57.57.57,0,1,1,0-1.13A.6.6,0,0,1,1060.42,546.5Zm-1.17,10.24v-8h1.08v8Z"/><path class="cls-4" d="M1071.62,552.74a4.35,4.35,0,1,1-4.34-4.16A4.25,4.25,0,0,1,1071.62,552.74Zm-7.63,0a3.28,3.28,0,1,0,3.28-3.24A3.27,3.27,0,0,0,1064,552.74Z"/><path class="cls-4" d="M1081.92,551.62v5.12h-1.08V551.9a2.16,2.16,0,0,0-2.26-2.43,4.93,4.93,0,0,0-3.36,1.3v6h-1.08v-8h1.08V550a5.81,5.81,0,0,1,3.74-1.39A2.77,2.77,0,0,1,1081.92,551.62Z"/><path class="cls-4" d="M1085.26,556.33a.66.66,0,1,1-.66-.59A.62.62,0,0,1,1085.26,556.33Z"/></g><g id="_2_plus" class="svg-showtip" data-name="2_plus"><circle class="cls-5" cx="1328.66" cy="668.85" r="25"/><line class="cls-6" x1="1314.05" y1="668.85" x2="1343.28" y2="668.85"/><line class="cls-6" x1="1328.66" y1="683.47" x2="1328.66" y2="654.24"/></g></g></svg>