<svg xmlns="http://www.w3.org/2000/svg" viewBox="0 0 1640 790"><defs><style>.cls-1{fill:#06a7e0;stroke-width:1.33px;opacity:0.9;}.cls-1,.cls-2,.cls-3{stroke:#fff;stroke-miterlimit:10;}.cls-2{fill:none;stroke-width:4.67px;}.cls-3{fill:#fff;stroke-width:2px;}.cls-4{fill:#231f20;}</style></defs><title>03_1640x790</title><g id="_09_1640x790" data-name="09_1640x790"><g id="_4_plus" class="svg-showtip" data-name="4_plus"><circle class="cls-1" cx="763.32" cy="575.01" r="25"/><line class="cls-2" x1="748.7" y1="575.01" x2="777.93" y2="575.01"/><line class="cls-2" x1="763.32" y1="589.62" x2="763.32" y2="560.39"/></g><g id="_4_tooltip" class="svg-tooltip" data-name="4_tooltip"><path id="tooltip" class="cls-3" d="M1157.26,649H785.52l-23-20-24,20H699a3.27,3.27,0,0,0-3.26,3.26V731.7A3.27,3.27,0,0,0,699,735h458.27a3.27,3.27,0,0,0,3.26-3.26V652.27A3.27,3.27,0,0,0,1157.26,649Z"/><path class="cls-4" d="M728.44,699.36v-11.2h1.15v11.2Z"/><path class="cls-4" d="M740.7,694.24v5.12h-1.07v-4.84a2.16,2.16,0,0,0-2.27-2.43,4.93,4.93,0,0,0-3.36,1.3v6h-1.08v-8H734v1.23a5.85,5.85,0,0,1,3.74-1.39A2.77,2.77,0,0,1,740.7,694.24Z"/><path class="cls-4" d="M747.61,691.36v.84H745v4.39a1.91,1.91,0,0,0,2,2,2.36,2.36,0,0,0,1.15-.31l.19.76a3.7,3.7,0,0,1-1.7.43,2.58,2.58,0,0,1-2.67-2.77V692.2h-1.48v-.84h1.48V689H745v2.37Z"/><path class="cls-4" d="M757.76,695.36v.36h-7.13a3.17,3.17,0,0,0,3.21,3,3.82,3.82,0,0,0,2.71-1.1l.59.53a4.85,4.85,0,0,1-3.39,1.37,4.16,4.16,0,0,1-.08-8.32A3.94,3.94,0,0,1,757.76,695.36Zm-7.12-.21h6.11a3,3,0,0,0-3.06-3.16A3.11,3.11,0,0,0,750.64,695.15Z"/><path class="cls-4" d="M767,692.48v-1.12h1.08v7.2c0,2.8-1.78,4.1-4.18,4.1a6.64,6.64,0,0,1-3.69-1.15l.36-.7a5.53,5.53,0,0,0,3.14,1,3,3,0,0,0,3.29-3.26v-.82a4,4,0,0,1-3.25,1.62,3.92,3.92,0,0,1-3.93-4.06,4,4,0,0,1,3.93-4.1A4.75,4.75,0,0,1,767,692.48Zm-6.12,2.82a3.21,3.21,0,0,0,3.22,3.19,3.31,3.31,0,0,0,2.9-1.72v-3.41a4,4,0,0,0-2.9-1.24A3.2,3.2,0,0,0,760.86,695.3Z"/><path class="cls-4" d="M775.85,692.09a5.22,5.22,0,0,0-3.77,1.68v5.59H771v-8h1.08v1.54a5.29,5.29,0,0,1,3.77-1.7Z"/><path class="cls-4" d="M784.39,694.19v5.17h-1.08v-1a5.55,5.55,0,0,1-3.58,1.18,2.58,2.58,0,0,1-2.81-2.58c0-1.55,1.22-2.36,3.15-2.36h3.24v-.3c0-1.55-1-2.23-2.49-2.23a4.92,4.92,0,0,0-2.91,1l-.35-.69a6,6,0,0,1,3.52-1.14C783,691.2,784.39,692.09,784.39,694.19Zm-4,.87c-1.52,0-2.44.6-2.44,1.78a2,2,0,0,0,2.16,2,5,5,0,0,0,3.16-1v-2.79Z"/><path class="cls-4" d="M791.29,691.36v.84h-2.6v4.39a1.91,1.91,0,0,0,1.95,2,2.36,2.36,0,0,0,1.15-.31l.19.76a3.76,3.76,0,0,1-1.7.43,2.58,2.58,0,0,1-2.67-2.77V692.2h-1.48v-.84h1.48V689h1.08v2.37Z"/><path class="cls-4" d="M801.44,695.36v.36h-7.13a3.16,3.16,0,0,0,3.2,3,3.84,3.84,0,0,0,2.72-1.1l.59.53a4.85,4.85,0,0,1-3.39,1.37,4.16,4.16,0,0,1-.08-8.32A3.94,3.94,0,0,1,801.44,695.36Zm-7.13-.21h6.11a3,3,0,0,0-3-3.16A3.11,3.11,0,0,0,794.31,695.15Z"/><path class="cls-4" d="M815.15,699.36,813,692.88l-2.17,6.48h-1.2l-2.82-8h1.08l2.38,6.85,2.26-6.85h.93l2.26,6.85,2.38-6.85h1.09l-2.82,8Z"/><path class="cls-4" d="M827.67,694.19v5.17h-1.08v-1a5.55,5.55,0,0,1-3.58,1.18,2.58,2.58,0,0,1-2.81-2.58c0-1.55,1.22-2.36,3.15-2.36h3.24v-.3c0-1.55-1-2.23-2.49-2.23a4.92,4.92,0,0,0-2.91,1l-.35-.69a6,6,0,0,1,3.52-1.14C826.26,691.2,827.67,692.09,827.67,694.19Zm-4,.87c-1.52,0-2.44.6-2.44,1.78a2,2,0,0,0,2.16,2,5,5,0,0,0,3.16-1v-2.79Z"/><path class="cls-4" d="M833.79,700.18c-.81,1.92-1.79,2.45-2.95,2.46a4.15,4.15,0,0,1-1.57-.32l.31-.72a2.94,2.94,0,0,0,1.16.22c.81,0,1.45-.42,2.09-1.81l.18-.4-3.67-8.25h1.14l3,6.91,2.9-6.91h1.12Z"/><path class="cls-4" d="M843.81,688.23l-.17.7a2.62,2.62,0,0,0-.91-.17,1.89,1.89,0,0,0-1.93,2v.57H847v8H846V692.2H840.8v7.16h-1.08V692.2h-1.38v-.84h1.38v-.6a2.58,2.58,0,0,1,2.72-2.76A4.47,4.47,0,0,1,843.81,688.23Z"/><path class="cls-4" d="M857.82,694.24v5.12h-1.08v-4.84a2.16,2.16,0,0,0-2.26-2.43,4.91,4.91,0,0,0-3.36,1.3v6H850v-8h1.08v1.23a5.81,5.81,0,0,1,3.74-1.39A2.77,2.77,0,0,1,857.82,694.24Z"/><path class="cls-4" d="M868.23,699.36h-1.07v-1.17a4.16,4.16,0,1,1,0-5.66v-4.37h1.07Zm-7-4a3.26,3.26,0,0,0,3.27,3.24,3.3,3.3,0,0,0,2.64-1.33v-3.83a3.28,3.28,0,0,0-5.91,1.92Z"/><path class="cls-4" d="M872.55,689.12a.65.65,0,1,1-.65-.56A.61.61,0,0,1,872.55,689.12Zm-1.18,10.24v-8h1.08v8Z"/><path class="cls-4" d="M883.25,694.24v5.12h-1.08v-4.84a2.16,2.16,0,0,0-2.27-2.43,4.93,4.93,0,0,0-3.36,1.3v6h-1.08v-8h1.08v1.23a5.85,5.85,0,0,1,3.74-1.39A2.78,2.78,0,0,1,883.25,694.24Z"/><path class="cls-4" d="M892.82,692.48v-1.12h1.08v7.2c0,2.8-1.78,4.1-4.18,4.1a6.64,6.64,0,0,1-3.69-1.15l.35-.7a5.58,5.58,0,0,0,3.14,1,3,3,0,0,0,3.3-3.26v-.82a4,4,0,0,1-3.25,1.62,3.93,3.93,0,0,1-3.94-4.06,4,4,0,0,1,3.94-4.1A4.75,4.75,0,0,1,892.82,692.48Zm-6.12,2.82a3.21,3.21,0,0,0,3.21,3.19,3.33,3.33,0,0,0,2.91-1.72v-3.41a4,4,0,0,0-2.91-1.24A3.2,3.2,0,0,0,886.7,695.3Z"/><path class="cls-4" d="M904.71,691.2a4.31,4.31,0,0,1,3.29,1.51l-.82.48a3.24,3.24,0,1,0,.09,4.24l.82.48a4.3,4.3,0,0,1-3.38,1.61,4.16,4.16,0,1,1,0-8.32Z"/><path class="cls-4" d="M911.46,696.2a2.17,2.17,0,0,0,2.27,2.44,5,5,0,0,0,3.35-1.3v-6h1.08v8h-1.08v-1.23a5.8,5.8,0,0,1-3.73,1.39,2.77,2.77,0,0,1-3-3v-5.13h1.08Z"/><path class="cls-4" d="M928.72,695.36v.36h-7.13a3.16,3.16,0,0,0,3.2,3,3.86,3.86,0,0,0,2.72-1.1l.58.53a4.83,4.83,0,0,1-3.38,1.37,4.16,4.16,0,0,1-.08-8.32A3.94,3.94,0,0,1,928.72,695.36Zm-7.13-.21h6.11a3,3,0,0,0-3.05-3.16A3.11,3.11,0,0,0,921.59,695.15Z"/><path class="cls-4" d="M936.9,692.05l-.38.67a5.57,5.57,0,0,0-2.78-.77c-1.06,0-2,.43-2,1.43,0,.63.37.93,2,1.36,2.08.55,3.41.82,3.41,2.54,0,1.52-1.44,2.25-3.18,2.24a6.62,6.62,0,0,1-3.59-1l.4-.65a6.14,6.14,0,0,0,3.19.91c1.15,0,2.17-.42,2.17-1.42,0-1.18-.85-1.28-2.64-1.76s-2.75-1-2.75-2.14c0-1.58,1.36-2.26,3-2.26A6.09,6.09,0,0,1,936.9,692.05Z"/><path class="cls-4" d="M945,689.12a.65.65,0,1,1-.64-.56A.61.61,0,0,1,945,689.12Zm-1.18,10.24v-8h1.08v8Z"/><path class="cls-4" d="M955.71,694.24v5.12h-1.08v-4.84a2.16,2.16,0,0,0-2.27-2.43,4.9,4.9,0,0,0-3.35,1.3v6h-1.08v-8H949v1.23a5.8,5.8,0,0,1,3.73-1.39A2.78,2.78,0,0,1,955.71,694.24Z"/><path class="cls-4" d="M966.61,691.36v.84H964v4.39a1.92,1.92,0,0,0,2,2,2.42,2.42,0,0,0,1.15-.31l.18.76a3.7,3.7,0,0,1-1.7.43,2.58,2.58,0,0,1-2.67-2.77V692.2h-1.47v-.84h1.47V689H964v2.37Z"/><path class="cls-4" d="M970.85,692.59a5.8,5.8,0,0,1,3.73-1.39,2.78,2.78,0,0,1,3,3v5.12h-1.08v-4.84a2.16,2.16,0,0,0-2.27-2.43,4.9,4.9,0,0,0-3.35,1.3v6h-1.08v-11.2h1.08Z"/><path class="cls-4" d="M988.09,695.36v.36H981a3.17,3.17,0,0,0,3.21,3,3.82,3.82,0,0,0,2.71-1.1l.59.53a4.85,4.85,0,0,1-3.39,1.37,4.16,4.16,0,0,1-.08-8.32A3.94,3.94,0,0,1,988.09,695.36Zm-7.12-.21h6.11A3,3,0,0,0,984,692,3.11,3.11,0,0,0,981,695.15Z"/><path class="cls-4" d="M998.66,688.15h3.41v11.21H1001V688.93h-2.2a2.62,2.62,0,0,0-.91-.17,1.9,1.9,0,0,0-1.94,2v.57h2.7v.84h-2.7v7.16h-1.07V692.2h-1.38v-.84h1.38v-.6a2.58,2.58,0,0,1,2.72-2.76A3.84,3.84,0,0,1,998.66,688.15Z"/><path class="cls-4" d="M1013.14,695.36a4.35,4.35,0,1,1-4.35-4.16A4.26,4.26,0,0,1,1013.14,695.36Zm-7.64,0a3.28,3.28,0,1,0,3.28-3.24A3.27,3.27,0,0,0,1005.5,695.36Z"/><path class="cls-4" d="M1023.94,695.36a4.35,4.35,0,1,1-4.35-4.16A4.26,4.26,0,0,1,1023.94,695.36Zm-7.64,0a3.28,3.28,0,1,0,3.28-3.24A3.27,3.27,0,0,0,1016.3,695.36Z"/><path class="cls-4" d="M1031.3,692.09a5.22,5.22,0,0,0-3.77,1.68v5.59h-1.08v-8h1.08v1.54a5.29,5.29,0,0,1,3.77-1.7Z"/><path class="cls-4" d="M1038.9,692.05l-.38.67a5.57,5.57,0,0,0-2.78-.77c-1.06,0-2,.43-2,1.43,0,.63.37.93,2,1.36,2.07.55,3.41.82,3.41,2.54,0,1.52-1.44,2.25-3.18,2.24a6.62,6.62,0,0,1-3.59-1l.4-.65a6.14,6.14,0,0,0,3.19.91c1.15,0,2.17-.42,2.17-1.42,0-1.18-.85-1.28-2.64-1.76-1.94-.52-2.76-1-2.76-2.14,0-1.58,1.37-2.26,3-2.26A6.11,6.11,0,0,1,1038.9,692.05Z"/><path class="cls-4" d="M1042.18,699a.66.66,0,1,1-.66-.59A.62.62,0,0,1,1042.18,699Z"/></g><g id="_3_plus" class="svg-showtip" data-name="3_plus"><circle class="cls-1" cx="995.71" cy="117.54" r="25"/><line class="cls-2" x1="981.1" y1="117.54" x2="1010.33" y2="117.54"/><line class="cls-2" x1="995.71" y1="132.15" x2="995.71" y2="102.92"/></g><g id="_3_tooltip" class="svg-tooltip" data-name="3_tooltip"><path id="tooltip-2" data-name="tooltip" class="cls-3" d="M1389.65,191.54H1017.91l-23-20-24,20H931.38a3.27,3.27,0,0,0-3.26,3.26v99.44a3.27,3.27,0,0,0,3.26,3.26h458.27a3.27,3.27,0,0,0,3.26-3.26V194.8A3.27,3.27,0,0,0,1389.65,191.54Z"/><path class="cls-4" d="M970.58,236.93c0,3.37-2,5.12-4.87,5.12s-4.88-1.75-4.88-5.12v-6.24H962v6.24c0,2.67,1.52,4.06,3.72,4.06s3.72-1.39,3.72-4.06v-6.24h1.15Z"/><path class="cls-4" d="M979.3,234.58l-.38.67a5.57,5.57,0,0,0-2.78-.77c-1.06,0-2,.42-2,1.43,0,.63.38.93,2,1.36,2.07.55,3.4.82,3.4,2.54,0,1.52-1.44,2.25-3.18,2.24a6.54,6.54,0,0,1-3.59-1l.4-.64a6.14,6.14,0,0,0,3.19.91c1.15,0,2.17-.42,2.17-1.42,0-1.18-.85-1.28-2.64-1.76s-2.75-1-2.75-2.15c0-1.57,1.36-2.25,3-2.25A6.09,6.09,0,0,1,979.3,234.58Z"/><path class="cls-4" d="M989.79,237.89v.36h-7.13a3.16,3.16,0,0,0,3.2,3,3.84,3.84,0,0,0,2.72-1.1l.59.53a4.85,4.85,0,0,1-3.39,1.37,4.16,4.16,0,0,1-.08-8.32A3.94,3.94,0,0,1,989.79,237.89Zm-7.13-.21h6.11a3,3,0,0,0-3-3.16A3.11,3.11,0,0,0,982.66,237.68Z"/><path class="cls-4" d="M1004.5,237.89a4.35,4.35,0,1,1-4.35-4.16A4.26,4.26,0,0,1,1004.5,237.89Zm-7.64,0a3.28,3.28,0,1,0,3.28-3.24A3.27,3.27,0,0,0,996.86,237.89Z"/><path class="cls-4" d="M1011.46,230.76l-.17.7a2.44,2.44,0,0,0-.91-.17,1.89,1.89,0,0,0-1.94,2v.57h2.7v.84h-2.7v7.16h-1.08v-7.16H1006v-.84h1.38v-.6a2.59,2.59,0,0,1,2.73-2.76A4.47,4.47,0,0,1,1011.46,230.76Z"/><path class="cls-4" d="M1023.14,234.58l-.38.67a5.57,5.57,0,0,0-2.78-.77c-1.06,0-2,.42-2,1.43,0,.63.37.93,2,1.36,2.07.55,3.4.82,3.4,2.54,0,1.52-1.44,2.25-3.18,2.24a6.54,6.54,0,0,1-3.59-1l.4-.64a6.14,6.14,0,0,0,3.19.91c1.15,0,2.17-.42,2.17-1.42,0-1.18-.85-1.28-2.64-1.76s-2.75-1-2.75-2.15c0-1.57,1.36-2.25,3-2.25A6.09,6.09,0,0,1,1023.14,234.58Z"/><path class="cls-4" d="M1029.73,233.73a4.26,4.26,0,0,1,3.29,1.51l-.81.48a3.24,3.24,0,1,0,.09,4.24l.82.48a4.32,4.32,0,0,1-3.39,1.61,4.16,4.16,0,1,1,0-8.32Z"/><path class="cls-4" d="M1040.39,234.61a5.23,5.23,0,0,0-3.77,1.69v5.59h-1.08v-8h1.08v1.54a5.29,5.29,0,0,1,3.77-1.7Z"/><path class="cls-4" d="M1049.66,237.89v.36h-7.13a3.16,3.16,0,0,0,3.2,3,3.84,3.84,0,0,0,2.72-1.1l.59.53a4.85,4.85,0,0,1-3.39,1.37,4.16,4.16,0,0,1-.08-8.32A3.94,3.94,0,0,1,1049.66,237.89Zm-7.13-.21h6.11a3,3,0,0,0-3.05-3.16A3.11,3.11,0,0,0,1042.53,237.68Z"/><path class="cls-4" d="M1059.85,237.89v.36h-7.13a3.17,3.17,0,0,0,3.21,3,3.83,3.83,0,0,0,2.71-1.1l.59.53a4.85,4.85,0,0,1-3.39,1.37,4.17,4.17,0,0,1-4.17-4.16,4.13,4.13,0,0,1,4.09-4.16A3.94,3.94,0,0,1,1059.85,237.89Zm-7.12-.21h6.11a3,3,0,0,0-3.06-3.16A3.11,3.11,0,0,0,1052.73,237.68Z"/><path class="cls-4" d="M1070.06,236.77v5.12H1069v-4.84a2.17,2.17,0,0,0-2.27-2.44,5,5,0,0,0-3.36,1.31v6h-1.07v-8h1.07v1.23a5.85,5.85,0,0,1,3.74-1.39A2.78,2.78,0,0,1,1070.06,236.77Z"/><path class="cls-4" d="M1078.59,234.58l-.38.67a5.54,5.54,0,0,0-2.78-.77c-1,0-2,.42-2,1.43,0,.63.37.93,2,1.36,2.07.55,3.4.82,3.4,2.54,0,1.52-1.44,2.25-3.17,2.24a6.6,6.6,0,0,1-3.6-1l.41-.64a6.11,6.11,0,0,0,3.18.91c1.16,0,2.17-.42,2.17-1.42,0-1.18-.85-1.28-2.63-1.76-1.94-.52-2.76-1-2.76-2.15,0-1.57,1.37-2.25,3-2.25A6.05,6.05,0,0,1,1078.59,234.58Z"/><path class="cls-4" d="M1093.44,237.89a4,4,0,0,1-7,2.83V245h-1.08V233.89h1.08v1.17a4,4,0,0,1,7,2.83Zm-7-1.92v3.83a3.24,3.24,0,1,0,0-3.83Z"/><path class="cls-4" d="M1100.85,234.61a5.23,5.23,0,0,0-3.77,1.69v5.59H1096v-8h1.08v1.54a5.29,5.29,0,0,1,3.77-1.7Z"/><path class="cls-4" d="M1110.64,237.89a4.35,4.35,0,1,1-4.35-4.16A4.26,4.26,0,0,1,1110.64,237.89Zm-7.64,0a3.28,3.28,0,1,0,3.28-3.24A3.27,3.27,0,0,0,1103,237.89Z"/><path class="cls-4" d="M1115.13,241.89l-3.51-8h1.15l3,6.91,3-6.91H1120l-3.51,8Z"/><path class="cls-4" d="M1123.21,231.65a.65.65,0,1,1-.64-.56A.6.6,0,0,1,1123.21,231.65ZM1122,241.89v-8h1.08v8Z"/><path class="cls-4" d="M1133.76,241.89h-1.08v-1.17a4,4,0,0,1-3,1.33,4.16,4.16,0,1,1,3-7v-4.37h1.08Zm-7-4a3.27,3.27,0,0,0,5.9,1.91V236a3.27,3.27,0,0,0-5.9,1.92Z"/><path class="cls-4" d="M1144.45,237.89v.36h-7.12a3.16,3.16,0,0,0,3.2,3,3.82,3.82,0,0,0,2.71-1.1l.59.53a4.83,4.83,0,0,1-3.38,1.37,4.17,4.17,0,0,1-4.17-4.16,4.12,4.12,0,0,1,4.09-4.16A3.94,3.94,0,0,1,1144.45,237.89Zm-7.12-.21h6.11a3,3,0,0,0-3-3.16A3.11,3.11,0,0,0,1137.33,237.68Z"/><path class="cls-4" d="M1156.64,234.58l-.38.67a5.57,5.57,0,0,0-2.78-.77c-1.06,0-2,.42-2,1.43,0,.63.37.93,2,1.36,2.08.55,3.41.82,3.41,2.54,0,1.52-1.44,2.25-3.18,2.24a6.54,6.54,0,0,1-3.59-1l.4-.64a6.14,6.14,0,0,0,3.19.91c1.15,0,2.17-.42,2.17-1.42,0-1.18-.85-1.28-2.64-1.76-1.94-.52-2.75-1-2.75-2.15,0-1.57,1.36-2.25,3-2.25A6.11,6.11,0,0,1,1156.64,234.58Z"/><path class="cls-4" d="M1167.13,237.89v.36H1160a3.16,3.16,0,0,0,3.2,3,3.84,3.84,0,0,0,2.72-1.1l.58.53a4.83,4.83,0,0,1-3.38,1.37,4.16,4.16,0,0,1-.08-8.32A3.94,3.94,0,0,1,1167.13,237.89Zm-7.13-.21h6.11a3,3,0,0,0-3-3.16A3.11,3.11,0,0,0,1160,237.68Z"/><path class="cls-4" d="M1177.68,237.89a4,4,0,0,1-7,2.83V245h-1.08V233.89h1.08v1.17a4,4,0,0,1,7,2.83Zm-7-1.92v3.83a3.24,3.24,0,1,0,0-3.83Z"/><path class="cls-4" d="M1187.12,236.72v5.17H1186v-1a5.55,5.55,0,0,1-3.58,1.18,2.58,2.58,0,0,1-2.81-2.58c0-1.56,1.21-2.36,3.15-2.36H1186v-.3c0-1.55-1-2.23-2.49-2.23a4.93,4.93,0,0,0-2.92,1l-.35-.7a6.15,6.15,0,0,1,3.53-1.13C1185.71,233.73,1187.12,234.62,1187.12,236.72Zm-4,.87c-1.52,0-2.44.6-2.44,1.78a2,2,0,0,0,2.16,2,5,5,0,0,0,3.16-1v-2.79Z"/><path class="cls-4" d="M1194.74,234.61a5.23,5.23,0,0,0-3.77,1.69v5.59h-1.08v-8H1191v1.54a5.29,5.29,0,0,1,3.77-1.7Z"/><path class="cls-4" d="M1203.28,236.72v5.17h-1.08v-1a5.55,5.55,0,0,1-3.58,1.18,2.58,2.58,0,0,1-2.81-2.58c0-1.56,1.21-2.36,3.15-2.36h3.24v-.3c0-1.55-1-2.23-2.49-2.23a4.93,4.93,0,0,0-2.92,1l-.35-.7a6.15,6.15,0,0,1,3.53-1.13C1201.87,233.73,1203.28,234.62,1203.28,236.72Zm-4,.87c-1.52,0-2.44.6-2.44,1.78a2,2,0,0,0,2.16,2,5,5,0,0,0,3.16-1v-2.79Z"/><path class="cls-4" d="M1210.18,233.89v.84h-2.61v4.38a1.92,1.92,0,0,0,2,2.06,2.39,2.39,0,0,0,1.15-.31l.18.75a3.58,3.58,0,0,1-1.69.44,2.58,2.58,0,0,1-2.67-2.77v-4.55H1205v-.84h1.48v-2.37h1.07v2.37Z"/><path class="cls-4" d="M1214.64,231.65a.65.65,0,1,1-.65-.56A.61.61,0,0,1,1214.64,231.65Zm-1.18,10.24v-8h1.08v8Z"/><path class="cls-4" d="M1225.84,237.89a4.35,4.35,0,1,1-4.35-4.16A4.26,4.26,0,0,1,1225.84,237.89Zm-7.64,0a3.28,3.28,0,1,0,3.28-3.24A3.27,3.27,0,0,0,1218.2,237.89Z"/><path class="cls-4" d="M1236.13,236.77v5.12h-1.07v-4.84a2.17,2.17,0,0,0-2.27-2.44,4.94,4.94,0,0,0-3.36,1.31v6h-1.08v-8h1.08v1.23a5.85,5.85,0,0,1,3.74-1.39A2.77,2.77,0,0,1,1236.13,236.77Z"/><path class="cls-4" d="M1251.19,237.89a4.35,4.35,0,1,1-4.34-4.16A4.26,4.26,0,0,1,1251.19,237.89Zm-7.63,0a3.28,3.28,0,1,0,3.28-3.24A3.27,3.27,0,0,0,1243.56,237.89Z"/><path class="cls-4" d="M1258.15,230.76l-.16.7a2.48,2.48,0,0,0-.91-.17,1.89,1.89,0,0,0-1.94,2v.57h2.7v.84h-2.7v7.16h-1.08v-7.16h-1.38v-.84h1.38v-.6a2.59,2.59,0,0,1,2.73-2.76A4.41,4.41,0,0,1,1258.15,230.76Z"/><path class="cls-4" d="M1269.84,234.58l-.38.67a5.57,5.57,0,0,0-2.78-.77c-1.06,0-2,.42-2,1.43,0,.63.37.93,2,1.36,2.07.55,3.41.82,3.41,2.54,0,1.52-1.44,2.25-3.18,2.24a6.54,6.54,0,0,1-3.59-1l.4-.64a6.14,6.14,0,0,0,3.19.91c1.15,0,2.17-.42,2.17-1.42,0-1.18-.85-1.28-2.64-1.76-1.94-.52-2.75-1-2.75-2.15,0-1.57,1.36-2.25,3-2.25A6.11,6.11,0,0,1,1269.84,234.58Z"/><path class="cls-4" d="M1280.68,237.89a4,4,0,0,1-7,2.83V245h-1.08V233.89h1.08v1.17a4,4,0,0,1,7,2.83Zm-7-1.92v3.83a3.24,3.24,0,1,0,0-3.83Z"/><path class="cls-4" d="M1290.12,236.72v5.17H1289v-1a5.53,5.53,0,0,1-3.58,1.18,2.57,2.57,0,0,1-2.8-2.58c0-1.56,1.21-2.36,3.14-2.36H1289v-.3c0-1.55-1-2.23-2.48-2.23a4.93,4.93,0,0,0-2.92,1l-.35-.7a6.14,6.14,0,0,1,3.52-1.13C1288.71,233.73,1290.12,234.62,1290.12,236.72Zm-3.95.87c-1.53,0-2.45.6-2.45,1.78a2,2,0,0,0,2.17,2,4.94,4.94,0,0,0,3.15-1v-2.79Z"/><path class="cls-4" d="M1296.77,233.73a4.28,4.28,0,0,1,3.29,1.51l-.82.48a3.24,3.24,0,1,0,.09,4.24l.82.48a4.32,4.32,0,0,1-3.38,1.61,4.16,4.16,0,1,1,0-8.32Z"/><path class="cls-4" d="M1310.34,237.89v.36h-7.13a3.17,3.17,0,0,0,3.21,3,3.82,3.82,0,0,0,2.71-1.1l.59.53a4.85,4.85,0,0,1-3.39,1.37,4.17,4.17,0,0,1-4.17-4.16,4.13,4.13,0,0,1,4.09-4.16A3.94,3.94,0,0,1,1310.34,237.89Zm-7.12-.21h6.11a3,3,0,0,0-3.06-3.16A3.11,3.11,0,0,0,1303.22,237.68Z"/><path class="cls-4" d="M1318.52,234.58l-.38.67a5.54,5.54,0,0,0-2.78-.77c-1,0-1.95.42-1.95,1.43,0,.63.37.93,2,1.36,2.07.55,3.4.82,3.4,2.54,0,1.52-1.44,2.25-3.17,2.24a6.6,6.6,0,0,1-3.6-1l.41-.64a6.11,6.11,0,0,0,3.18.91c1.16,0,2.18-.42,2.18-1.42,0-1.18-.86-1.28-2.64-1.76-1.94-.52-2.76-1-2.76-2.15,0-1.57,1.37-2.25,3-2.25A6.05,6.05,0,0,1,1318.52,234.58Z"/><path class="cls-4" d="M1326.33,235.06a4.16,4.16,0,1,1,0,5.66v1.17h-1.08v-11.2h1.08Zm0,.91v3.83a3.24,3.24,0,1,0,0-3.83Z"/><path class="cls-4" d="M1336.75,238.73a2.17,2.17,0,0,0,2.27,2.44,4.91,4.91,0,0,0,3.35-1.31v-6h1.08v8h-1.08v-1.23a5.8,5.8,0,0,1-3.73,1.39,2.77,2.77,0,0,1-3-3v-5.13h1.08Z"/><path class="cls-4" d="M1350.37,233.89v.84h-2.61v4.38a1.92,1.92,0,0,0,2,2.06,2.36,2.36,0,0,0,1.15-.31l.18.75a3.58,3.58,0,0,1-1.69.44,2.58,2.58,0,0,1-2.67-2.77v-4.55h-1.48v-.84h1.48v-2.37h1.07v2.37Z"/><path class="cls-4" d="M965.27,257.61a5.23,5.23,0,0,0-3.77,1.69v5.59h-1.08v-8h1.08v1.54a5.29,5.29,0,0,1,3.77-1.7Z"/><path class="cls-4" d="M974.54,260.89v.36h-7.13a3.16,3.16,0,0,0,3.2,3,3.84,3.84,0,0,0,2.72-1.1l.59.53a4.85,4.85,0,0,1-3.39,1.37,4.17,4.17,0,0,1-4.17-4.16,4.13,4.13,0,0,1,4.09-4.16A3.94,3.94,0,0,1,974.54,260.89Zm-7.12-.21h6.1a3,3,0,0,0-3-3.16A3.11,3.11,0,0,0,967.42,260.68Z"/><path class="cls-4" d="M984,258.15a5.47,5.47,0,0,1,3.69-1.42,2.75,2.75,0,0,1,2.9,3v5.12h-1.08v-4.84a2.13,2.13,0,0,0-2.2-2.43,4.78,4.78,0,0,0-3.15,1.2,4.37,4.37,0,0,1,.18,1.31v4.76h-1.08v-4.84a2.14,2.14,0,0,0-2.2-2.44,4.26,4.26,0,0,0-3,1.23v6.05H977v-8H978v1.22a5,5,0,0,1,3.4-1.38A2.64,2.64,0,0,1,984,258.15Z"/><path class="cls-4" d="M1000.26,259.72v5.17h-1.08v-1a5.55,5.55,0,0,1-3.58,1.18,2.58,2.58,0,0,1-2.81-2.58c0-1.56,1.22-2.36,3.15-2.36h3.24v-.3c0-1.55-1-2.23-2.49-2.23a4.93,4.93,0,0,0-2.92,1l-.35-.7a6.15,6.15,0,0,1,3.53-1.13C998.85,256.73,1000.26,257.62,1000.26,259.72Zm-4,.87c-1.52,0-2.44.6-2.44,1.78a2,2,0,0,0,2.16,2,5,5,0,0,0,3.16-1v-2.79Z"/><path class="cls-4" d="M1004.42,254.65a.65.65,0,1,1-.65-.56A.61.61,0,0,1,1004.42,254.65Zm-1.18,10.24v-8h1.08v8Z"/><path class="cls-4" d="M1015.11,259.77v5.12H1014v-4.84a2.17,2.17,0,0,0-2.27-2.44,4.94,4.94,0,0,0-3.36,1.31v6h-1.08v-8h1.08v1.23a5.85,5.85,0,0,1,3.74-1.39A2.77,2.77,0,0,1,1015.11,259.77Z"/><path class="cls-4" d="M1024.33,264.89l-3.51-8H1022l3,6.91,3-6.91h1.16l-3.52,8Z"/><path class="cls-4" d="M1032.41,254.65a.6.6,0,0,1-.64.57.57.57,0,1,1,0-1.13A.6.6,0,0,1,1032.41,254.65Zm-1.17,10.24v-8h1.08v8Z"/><path class="cls-4" d="M1041.09,257.58l-.38.67a5.57,5.57,0,0,0-2.78-.77c-1.06,0-2,.42-2,1.43,0,.63.38.93,2,1.36,2.07.55,3.4.82,3.4,2.54,0,1.52-1.44,2.25-3.18,2.24a6.54,6.54,0,0,1-3.59-1l.4-.64a6.14,6.14,0,0,0,3.19.91c1.15,0,2.17-.42,2.17-1.42,0-1.18-.85-1.28-2.64-1.76-1.94-.52-2.75-1-2.75-2.15,0-1.57,1.36-2.25,3-2.25A6.09,6.09,0,0,1,1041.09,257.58Z"/><path class="cls-4" d="M1044.75,261.73a2.17,2.17,0,0,0,2.27,2.44,4.94,4.94,0,0,0,3.36-1.31v-6h1.08v8h-1.08v-1.23a5.85,5.85,0,0,1-3.74,1.39,2.78,2.78,0,0,1-3-3v-5.13h1.08Z"/><path class="cls-4" d="M1061.18,259.72v5.17h-1.08v-1a5.53,5.53,0,0,1-3.58,1.18,2.57,2.57,0,0,1-2.8-2.58c0-1.56,1.21-2.36,3.14-2.36h3.24v-.3c0-1.55-1-2.23-2.48-2.23a4.93,4.93,0,0,0-2.92,1l-.35-.7a6.14,6.14,0,0,1,3.52-1.13C1059.77,256.73,1061.18,257.62,1061.18,259.72Zm-4,.87c-1.53,0-2.45.6-2.45,1.78a2,2,0,0,0,2.17,2,4.94,4.94,0,0,0,3.15-1v-2.79Z"/><path class="cls-4" d="M1064.06,264.89v-11.2h1.08v11.2Z"/><path class="cls-4" d="M1068,264.89v-11.2h1.07v11.2Z"/><path class="cls-4" d="M1075.33,265.71c-.81,1.92-1.78,2.45-2.95,2.46a4.06,4.06,0,0,1-1.56-.32l.31-.73a2.76,2.76,0,0,0,1.16.23c.81,0,1.44-.42,2.09-1.81l.18-.4-3.67-8.25H1072l3,6.91,2.89-6.91h1.13Z"/><path class="cls-4" d="M1088.79,256.73a4.24,4.24,0,0,1,3.28,1.51l-.81.48a3.24,3.24,0,1,0,.09,4.24l.82.48a4.32,4.32,0,0,1-3.38,1.61,4.16,4.16,0,1,1,0-8.32Z"/><path class="cls-4" d="M1102.88,260.89a4.35,4.35,0,1,1-4.35-4.16A4.26,4.26,0,0,1,1102.88,260.89Zm-7.64,0a3.28,3.28,0,1,0,3.28-3.24A3.27,3.27,0,0,0,1095.24,260.89Z"/><path class="cls-4" d="M1113.18,259.77v5.12h-1.08v-4.84a2.17,2.17,0,0,0-2.27-2.44,4.94,4.94,0,0,0-3.36,1.31v6h-1.08v-8h1.08v1.23a5.85,5.85,0,0,1,3.74-1.39A2.78,2.78,0,0,1,1113.18,259.77Z"/><path class="cls-4" d="M1123.74,259.77v5.12h-1.08v-4.84a2.17,2.17,0,0,0-2.27-2.44,4.94,4.94,0,0,0-3.36,1.31v6H1116v-8H1117v1.23a5.85,5.85,0,0,1,3.74-1.39A2.78,2.78,0,0,1,1123.74,259.77Z"/><path class="cls-4" d="M1134.28,260.89v.36h-7.13a3.16,3.16,0,0,0,3.2,3,3.84,3.84,0,0,0,2.72-1.1l.59.53a4.85,4.85,0,0,1-3.39,1.37,4.16,4.16,0,0,1-.08-8.32A3.94,3.94,0,0,1,1134.28,260.89Zm-7.13-.21h6.11a3,3,0,0,0-3-3.16A3.11,3.11,0,0,0,1127.15,260.68Z"/><path class="cls-4" d="M1140.58,256.73a4.28,4.28,0,0,1,3.29,1.51l-.82.48a3.24,3.24,0,1,0,.09,4.24l.82.48a4.32,4.32,0,0,1-3.38,1.61,4.16,4.16,0,1,1,0-8.32Z"/><path class="cls-4" d="M1150.51,256.89v.84h-2.6v4.38a1.92,1.92,0,0,0,2,2.06,2.42,2.42,0,0,0,1.15-.31l.18.75a3.59,3.59,0,0,1-1.7.44,2.58,2.58,0,0,1-2.67-2.77v-4.55h-1.47v-.84h1.47v-2.37h1.08v2.37Z"/><path class="cls-4" d="M1160.66,260.89v.36h-7.13a3.17,3.17,0,0,0,3.21,3,3.82,3.82,0,0,0,2.71-1.1l.59.53a4.83,4.83,0,0,1-3.38,1.37,4.17,4.17,0,0,1-4.17-4.16,4.12,4.12,0,0,1,4.08-4.16A3.94,3.94,0,0,1,1160.66,260.89Zm-7.12-.21h6.11a3,3,0,0,0-3.06-3.16A3.11,3.11,0,0,0,1153.54,260.68Z"/><path class="cls-4" d="M1170.72,264.89h-1.07v-1.17a4.16,4.16,0,1,1,0-5.66v-4.37h1.07Zm-7-4a3.26,3.26,0,0,0,3.27,3.24,3.3,3.3,0,0,0,2.64-1.33V259a3.28,3.28,0,0,0-5.91,1.92Z"/><path class="cls-4" d="M1174.21,264.48a.66.66,0,1,1-.66-.59A.62.62,0,0,1,1174.21,264.48Z"/></g></g></svg>