<svg xmlns="http://www.w3.org/2000/svg" viewBox="0 0 1640 790"><defs><style>.cls-1{fill:#06a7e0;stroke-width:1.33px;opacity:0.9;}.cls-1,.cls-2,.cls-3{stroke:#fff;stroke-miterlimit:10;}.cls-2{fill:none;stroke-width:4.67px;}.cls-3{fill:#fff;stroke-width:2px;}.cls-4{fill:#231f20;}</style></defs><title>05_1640x790</title><g id="_07_1640x790" data-name="07_1640x790"><g id="_7_plus" class="svg-showtip" data-name="7_plus"><circle class="cls-1" cx="287.37" cy="367.24" r="25"/><line class="cls-2" x1="272.76" y1="367.24" x2="301.99" y2="367.24"/><line class="cls-2" x1="287.37" y1="381.86" x2="287.37" y2="352.63"/></g><g id="_7_tooltip" class="svg-tooltip" data-name="7_tooltip"><path id="tooltip" class="cls-3" d="M684.38,294H312.64l-23,20-24-20H226.11a3.27,3.27,0,0,1-3.26-3.26V211.36a3.27,3.27,0,0,1,3.26-3.26H684.38a3.27,3.27,0,0,1,3.26,3.26v79.42A3.27,3.27,0,0,1,684.38,294Z"/><path class="cls-4" d="M263.09,257.4v1.05h-7.53V247.24h1.16V257.4Z"/><path class="cls-4" d="M272.14,253.27v5.18h-1.08v-1a5.56,5.56,0,0,1-3.58,1.19,2.58,2.58,0,0,1-2.81-2.59c0-1.55,1.22-2.36,3.15-2.36h3.24v-.3c0-1.54-1-2.23-2.48-2.23a4.94,4.94,0,0,0-2.92,1l-.35-.7a6.18,6.18,0,0,1,3.52-1.14C270.73,250.28,272.14,251.17,272.14,253.27Zm-4,.87c-1.52,0-2.44.6-2.44,1.79a2,2,0,0,0,2.17,2,4.94,4.94,0,0,0,3.15-1v-2.79Z"/><path class="cls-4" d="M281.9,251.7a5.52,5.52,0,0,1,3.69-1.42,2.75,2.75,0,0,1,2.9,3v5.13h-1.08V253.6a2.14,2.14,0,0,0-2.21-2.43,4.77,4.77,0,0,0-3.14,1.2,4.39,4.39,0,0,1,.18,1.32v4.76h-1.08V253.6a2.13,2.13,0,0,0-2.2-2.43,4.24,4.24,0,0,0-3,1.22v6.06h-1.08v-8H276v1.22a5,5,0,0,1,3.39-1.38A2.65,2.65,0,0,1,281.9,251.7Z"/><path class="cls-4" d="M299.39,254.44a4,4,0,0,1-4,4.17,4,4,0,0,1-3-1.34v4.3h-1.08V250.44h1.08v1.17a4,4,0,0,1,7,2.83Zm-7-1.91v3.82a3.24,3.24,0,1,0,0-3.82Z"/><path class="cls-4" d="M307.71,251.13l-.38.68a5.58,5.58,0,0,0-2.78-.78c-1.06,0-2,.43-2,1.43,0,.63.38.94,2,1.36,2.07.56,3.4.82,3.4,2.54,0,1.53-1.44,2.26-3.17,2.25a6.63,6.63,0,0,1-3.6-1l.4-.65a6,6,0,0,0,3.19.91c1.15,0,2.17-.42,2.17-1.41,0-1.19-.85-1.29-2.64-1.76s-2.75-1-2.75-2.15c0-1.58,1.36-2.26,3-2.26A6.18,6.18,0,0,1,307.71,251.13Z"/><path class="cls-4" d="M321.72,258.45,319.55,252l-2.18,6.49h-1.19l-2.82-8h1.08l2.38,6.85,2.26-6.85H320l2.26,6.85,2.38-6.85h1.08l-2.82,8Z"/><path class="cls-4" d="M329,248.21a.6.6,0,0,1-.64.56.57.57,0,1,1,.64-.56Zm-1.17,10.24v-8h1.08v8Z"/><path class="cls-4" d="M336,250.44v.84h-2.6v4.39a1.91,1.91,0,0,0,2,2.05,2.36,2.36,0,0,0,1.15-.31l.19.76a3.91,3.91,0,0,1-1.7.44,2.59,2.59,0,0,1-2.67-2.78v-4.55h-1.48v-.84h1.48v-2.37h1.08v2.37Z"/><path class="cls-4" d="M340.23,251.67a5.85,5.85,0,0,1,3.74-1.39,2.77,2.77,0,0,1,3,3v5.13h-1.08V253.6a2.15,2.15,0,0,0-2.26-2.43,5,5,0,0,0-3.36,1.3v6h-1.08V247.24h1.08Z"/><path class="cls-4" d="M359.47,251.13l-.38.68a5.58,5.58,0,0,0-2.78-.78c-1.06,0-2,.43-2,1.43,0,.63.37.94,2,1.36,2.07.56,3.4.82,3.4,2.54,0,1.53-1.44,2.26-3.18,2.25a6.62,6.62,0,0,1-3.59-1l.4-.65a6,6,0,0,0,3.19.91c1.15,0,2.17-.42,2.17-1.41,0-1.19-.85-1.29-2.64-1.76s-2.75-1-2.75-2.15c0-1.58,1.36-2.26,3-2.26A6.18,6.18,0,0,1,359.47,251.13Z"/><path class="cls-4" d="M363.35,251.67a5.83,5.83,0,0,1,3.74-1.39,2.77,2.77,0,0,1,3,3v5.13H369V253.6a2.15,2.15,0,0,0-2.26-2.43,5,5,0,0,0-3.36,1.3v6h-1.08V247.24h1.08Z"/><path class="cls-4" d="M379.77,253.27v5.18h-1.08v-1a5.56,5.56,0,0,1-3.58,1.19,2.57,2.57,0,0,1-2.8-2.59c0-1.55,1.21-2.36,3.14-2.36h3.24v-.3c0-1.54-1-2.23-2.48-2.23a4.94,4.94,0,0,0-2.92,1l-.35-.7a6.2,6.2,0,0,1,3.52-1.14C378.36,250.28,379.77,251.17,379.77,253.27Zm-3.95.87c-1.53,0-2.45.6-2.45,1.79a2,2,0,0,0,2.17,2,4.94,4.94,0,0,0,3.15-1v-2.79Z"/><path class="cls-4" d="M390.18,258.45H389.1v-1.18a4,4,0,0,1-3,1.34,4.17,4.17,0,1,1,3-7v-4.37h1.08Zm-7-4a3.27,3.27,0,0,0,5.9,1.91v-3.82a3.3,3.3,0,0,0-2.63-1.33A3.26,3.26,0,0,0,383.2,254.44Z"/><path class="cls-4" d="M400.87,254.44v.36h-7.13a3.16,3.16,0,0,0,3.2,3,3.84,3.84,0,0,0,2.72-1.1l.59.53a4.86,4.86,0,0,1-3.39,1.38,4.17,4.17,0,0,1-.08-8.33A3.94,3.94,0,0,1,400.87,254.44Zm-7.13-.21h6.11a3,3,0,0,0-3.05-3.16A3.11,3.11,0,0,0,393.74,254.23Z"/><path class="cls-4" d="M409.05,251.13l-.38.68a5.55,5.55,0,0,0-2.78-.78c-1.05,0-1.95.43-1.95,1.43,0,.63.37.94,2,1.36,2.07.56,3.4.82,3.4,2.54,0,1.53-1.44,2.26-3.17,2.25a6.68,6.68,0,0,1-3.6-1L403,257a6,6,0,0,0,3.18.91c1.16,0,2.17-.42,2.17-1.41,0-1.19-.85-1.29-2.63-1.76-1.94-.52-2.76-1-2.76-2.15,0-1.58,1.37-2.26,3-2.26A6.15,6.15,0,0,1,409.05,251.13Z"/><path class="cls-4" d="M422.57,251.56v-1.12h1.08v7.21c0,2.79-1.78,4.09-4.18,4.09a6.57,6.57,0,0,1-3.69-1.15l.36-.7a5.45,5.45,0,0,0,3.14,1,3,3,0,0,0,3.29-3.25v-.83a4,4,0,0,1-3.25,1.63,4.09,4.09,0,0,1,0-8.17A4.8,4.8,0,0,1,422.57,251.56Zm-6.12,2.83a3.2,3.2,0,0,0,3.22,3.18,3.3,3.3,0,0,0,2.9-1.71v-3.41a4,4,0,0,0-2.9-1.25A3.21,3.21,0,0,0,416.45,254.39Z"/><path class="cls-4" d="M428,248.21a.61.61,0,0,1-.64.56.57.57,0,1,1,0-1.13A.61.61,0,0,1,428,248.21Zm-1.18,10.24v-8h1.08v8Z"/><path class="cls-4" d="M433.34,258.45l-3.52-8H431l3,6.91,3-6.91h1.15l-3.52,8Z"/><path class="cls-4" d="M447.4,254.44v.36h-7.13a3.16,3.16,0,0,0,3.2,3,3.84,3.84,0,0,0,2.72-1.1l.58.53a4.82,4.82,0,0,1-3.38,1.38,4.17,4.17,0,0,1-.08-8.33A3.94,3.94,0,0,1,447.4,254.44Zm-7.13-.21h6.11a3,3,0,0,0-3.05-3.16A3.11,3.11,0,0,0,440.27,254.23Z"/><path class="cls-4" d="M460.76,253.27v5.18h-1.08v-1a5.54,5.54,0,0,1-3.58,1.19,2.57,2.57,0,0,1-2.8-2.59c0-1.55,1.21-2.36,3.14-2.36h3.24v-.3c0-1.54-1-2.23-2.48-2.23a4.94,4.94,0,0,0-2.92,1l-.35-.7a6.23,6.23,0,0,1,3.52-1.14C459.35,250.28,460.76,251.17,460.76,253.27Zm-3.95.87c-1.53,0-2.45.6-2.45,1.79a2,2,0,0,0,2.17,2,4.94,4.94,0,0,0,3.15-1v-2.79Z"/><path class="cls-4" d="M472.39,251.17a5.24,5.24,0,0,0-3.78,1.68v5.6h-1.07v-8h1.07V252a5.31,5.31,0,0,1,3.78-1.7Z"/><path class="cls-4" d="M481.65,254.44v.36h-7.13a3.17,3.17,0,0,0,3.21,3,3.82,3.82,0,0,0,2.71-1.1l.59.53a4.84,4.84,0,0,1-3.38,1.38,4.17,4.17,0,0,1-4.17-4.17,4.12,4.12,0,0,1,4.08-4.16A3.94,3.94,0,0,1,481.65,254.44Zm-7.12-.21h6.11a3,3,0,0,0-3.06-3.16A3.11,3.11,0,0,0,474.53,254.23Z"/><path class="cls-4" d="M489.84,251.13l-.38.68a5.61,5.61,0,0,0-2.78-.78c-1.06,0-2,.43-2,1.43,0,.63.37.94,2,1.36,2.07.56,3.41.82,3.41,2.54,0,1.53-1.44,2.26-3.18,2.25a6.62,6.62,0,0,1-3.59-1l.4-.65a6,6,0,0,0,3.19.91c1.15,0,2.17-.42,2.17-1.41,0-1.19-.85-1.29-2.64-1.76s-2.76-1-2.76-2.15c0-1.58,1.37-2.26,3-2.26A6.21,6.21,0,0,1,489.84,251.13Z"/><path class="cls-4" d="M494,248.21a.65.65,0,1,1-.65-.57A.61.61,0,0,1,494,248.21Zm-1.18,10.24v-8h1.08v8Z"/><path class="cls-4" d="M504.5,258.45h-1.08v-1.18a4,4,0,0,1-3,1.34,4.17,4.17,0,1,1,3-7v-4.37h1.08Zm-7-4a3.27,3.27,0,0,0,5.9,1.91v-3.82a3.3,3.3,0,0,0-2.63-1.33A3.26,3.26,0,0,0,497.52,254.44Z"/><path class="cls-4" d="M515.19,254.44v.36h-7.13a3.16,3.16,0,0,0,3.2,3,3.84,3.84,0,0,0,2.72-1.1l.59.53a4.86,4.86,0,0,1-3.39,1.38,4.17,4.17,0,0,1-.08-8.33A3.94,3.94,0,0,1,515.19,254.44Zm-7.13-.21h6.11a3,3,0,0,0-3-3.16A3.11,3.11,0,0,0,508.06,254.23Z"/><path class="cls-4" d="M525.4,253.32v5.13h-1.08V253.6a2.16,2.16,0,0,0-2.27-2.43,5,5,0,0,0-3.36,1.3v6h-1.08v-8h1.08v1.23a5.85,5.85,0,0,1,3.74-1.39A2.78,2.78,0,0,1,525.4,253.32Z"/><path class="cls-4" d="M532.3,250.44v.84h-2.6v4.39a1.91,1.91,0,0,0,2,2.05,2.42,2.42,0,0,0,1.15-.31l.18.76a3.84,3.84,0,0,1-1.7.44,2.59,2.59,0,0,1-2.67-2.78v-4.55h-1.47v-.84h1.47v-2.37h1.08v2.37Z"/><path class="cls-4" d="M536.76,248.21a.64.64,0,1,1-.64-.57A.6.6,0,0,1,536.76,248.21Zm-1.17,10.24v-8h1.07v8Z"/><path class="cls-4" d="M546.62,253.27v5.18h-1.08v-1a5.56,5.56,0,0,1-3.58,1.19,2.58,2.58,0,0,1-2.81-2.59c0-1.55,1.22-2.36,3.15-2.36h3.24v-.3c0-1.54-1-2.23-2.49-2.23a4.94,4.94,0,0,0-2.91,1l-.35-.7a6.18,6.18,0,0,1,3.52-1.14C545.21,250.28,546.62,251.17,546.62,253.27Zm-4,.87c-1.52,0-2.44.6-2.44,1.79a2,2,0,0,0,2.16,2,5,5,0,0,0,3.16-1v-2.79Z"/><path class="cls-4" d="M549.49,258.44v-11.2h1.08v11.2Z"/><path class="cls-4" d="M561.8,247.31l-.16.7a2.72,2.72,0,0,0-.92-.17,1.89,1.89,0,0,0-1.93,2v.57h2.7v.84h-2.7v7.17h-1.08v-7.17h-1.38v-.84h1.38v-.59a2.58,2.58,0,0,1,2.72-2.77A4.47,4.47,0,0,1,561.8,247.31Z"/><path class="cls-4" d="M571,254.44v.36h-7.13a3.16,3.16,0,0,0,3.2,3,3.84,3.84,0,0,0,2.72-1.1l.59.53a4.86,4.86,0,0,1-3.39,1.38,4.17,4.17,0,0,1-4.17-4.17,4.13,4.13,0,0,1,4.09-4.16A3.94,3.94,0,0,1,571,254.44Zm-7.13-.21H570a3,3,0,0,0-3.05-3.16A3.11,3.11,0,0,0,563.85,254.23Z"/><path class="cls-4" d="M581.17,254.44v.36H574a3.17,3.17,0,0,0,3.21,3,3.82,3.82,0,0,0,2.71-1.1l.59.53a4.86,4.86,0,0,1-3.39,1.38,4.17,4.17,0,0,1-4.17-4.17,4.13,4.13,0,0,1,4.09-4.16A3.94,3.94,0,0,1,581.17,254.44Zm-7.12-.21h6.11a3,3,0,0,0-3.06-3.16A3.11,3.11,0,0,0,574.05,254.23Z"/><path class="cls-4" d="M583.7,258.44v-11.2h1.08v11.2Z"/><path class="cls-4" d="M588.13,258a.67.67,0,1,1-.66-.58A.62.62,0,0,1,588.13,258Z"/></g><g id="_8_plus" class="svg-showtip" data-name="8_plus"><circle class="cls-1" cx="920.71" cy="243.77" r="25"/><line class="cls-2" x1="906.1" y1="243.77" x2="935.33" y2="243.77"/><line class="cls-2" x1="920.71" y1="258.39" x2="920.71" y2="229.16"/></g><g id="_8_tooltip" class="svg-tooltip" data-name="8_tooltip"><path id="tooltip-2" data-name="tooltip" class="cls-3" d="M1321.65,165.49H949.91l-23,20-24-20H863.38a3.27,3.27,0,0,1-3.26-3.26V92.81a3.27,3.27,0,0,1,3.26-3.26h458.27a3.27,3.27,0,0,1,3.26,3.26v69.42A3.27,3.27,0,0,1,1321.65,165.49Z"/><path class="cls-4" d="M896.68,125.69V135.9h-1.16V125.69h-3.9v-1h9v1Z"/><path class="cls-4" d="M906.75,135.9l-4.86-11.2h1.37l4.25,9.87,4.26-9.87h1.37l-4.88,11.2Z"/><path class="cls-4" d="M920.58,128.59l-.38.67a5.47,5.47,0,0,0-2.78-.77c-1.06,0-2,.42-2,1.42,0,.63.38.94,2,1.37,2.07.55,3.4.82,3.4,2.54,0,1.52-1.44,2.25-3.17,2.24a6.63,6.63,0,0,1-3.6-1l.4-.65a6,6,0,0,0,3.19.91c1.15,0,2.17-.41,2.17-1.41,0-1.19-.85-1.28-2.64-1.76-1.94-.52-2.75-1-2.75-2.15,0-1.58,1.36-2.25,3-2.25A6.09,6.09,0,0,1,920.58,128.59Z"/><path class="cls-4" d="M934.24,130.73v5.17h-1.08v-1a5.55,5.55,0,0,1-3.58,1.18,2.57,2.57,0,0,1-2.8-2.58c0-1.56,1.21-2.36,3.14-2.37h3.24v-.29c0-1.55-1-2.23-2.48-2.23a4.93,4.93,0,0,0-2.92,1l-.35-.7a6.12,6.12,0,0,1,3.52-1.13C932.83,127.73,934.24,128.63,934.24,130.73Zm-4,.87c-1.53,0-2.45.6-2.45,1.78a2,2,0,0,0,2.17,2,5,5,0,0,0,3.15-1V131.6Z"/><path class="cls-4" d="M941.14,127.9v.84h-2.6v4.38a1.91,1.91,0,0,0,2,2,2.41,2.41,0,0,0,1.15-.3l.18.75a3.71,3.71,0,0,1-1.7.44,2.59,2.59,0,0,1-2.67-2.77v-4.55H936v-.84h1.48v-2.37h1.08v2.37Z"/><path class="cls-4" d="M952.34,127.9v.84h-2.6v4.38a1.91,1.91,0,0,0,2,2,2.41,2.41,0,0,0,1.15-.3l.18.75a3.71,3.71,0,0,1-1.7.44,2.59,2.59,0,0,1-2.67-2.77v-4.55h-1.48v-.84h1.48v-2.37h1.08v2.37Z"/><path class="cls-4" d="M956.57,129.13a5.85,5.85,0,0,1,3.74-1.39,2.78,2.78,0,0,1,3,3v5.13H962.2v-4.84a2.17,2.17,0,0,0-2.27-2.44,5,5,0,0,0-3.36,1.3v6h-1.08V124.7h1.08Z"/><path class="cls-4" d="M973.82,131.9v.36h-7.13a3.17,3.17,0,0,0,3.2,3,3.88,3.88,0,0,0,2.72-1.1l.59.53a4.85,4.85,0,0,1-3.39,1.37,4.17,4.17,0,0,1-4.17-4.16,4.12,4.12,0,0,1,4.09-4.16A3.93,3.93,0,0,1,973.82,131.9Zm-7.13-.21h6.11a3,3,0,0,0-3-3.16A3.11,3.11,0,0,0,966.69,131.69Z"/><path class="cls-4" d="M981.32,129.07a4.09,4.09,0,1,1,3,7,4,4,0,0,1-3-1.34v1.18h-1.08V124.7h1.08Zm0,.91v3.83a3.3,3.3,0,0,0,2.63,1.33,3.24,3.24,0,1,0-2.63-5.16Z"/><path class="cls-4" d="M997.75,130.73v5.17h-1.08v-1a5.57,5.57,0,0,1-3.58,1.18,2.58,2.58,0,0,1-2.81-2.58c0-1.56,1.21-2.36,3.14-2.37h3.25v-.29c0-1.55-1-2.23-2.49-2.23a4.93,4.93,0,0,0-2.92,1l-.35-.7a6.14,6.14,0,0,1,3.52-1.13C996.34,127.73,997.75,128.63,997.75,130.73Zm-4,.87c-1.53,0-2.44.6-2.44,1.78a2,2,0,0,0,2.16,2,5,5,0,0,0,3.16-1V131.6Z"/><path class="cls-4" d="M1005.37,128.62a5.22,5.22,0,0,0-3.77,1.69v5.59h-1.08v-8h1.08v1.54a5.27,5.27,0,0,1,3.77-1.7Z"/></g></g></svg>