<svg xmlns="http://www.w3.org/2000/svg" viewBox="0 0 1640 790"><defs><style>.cls-1{fill:#06a7e0;stroke-width:1.33px;opacity:0.9;}.cls-1,.cls-2,.cls-3{stroke:#fff;stroke-miterlimit:10;}.cls-2{fill:none;stroke-width:4.67px;}.cls-3{fill:#fff;stroke-width:2px;}.cls-4{fill:#231f20;}</style></defs><title>06_1640x790</title><g id="_05_1640x790" data-name="05_1640x790"><g id="_10_plus" class="svg-showtip" data-name="10_plus"><circle class="cls-1" cx="293.37" cy="526.39" r="25"/><line class="cls-2" x1="278.76" y1="526.39" x2="307.99" y2="526.39"/><line class="cls-2" x1="293.37" y1="541" x2="293.37" y2="511.77"/></g><g id="_10_tooltip" class="svg-tooltip" data-name="10_tooltip"><path id="tooltip" class="cls-3" d="M690.38,453.19H318.64l-23,20-24-20H232.11a3.27,3.27,0,0,1-3.26-3.26V334.47a3.27,3.27,0,0,1,3.26-3.26H690.38a3.27,3.27,0,0,1,3.26,3.26V449.93A3.27,3.27,0,0,1,690.38,453.19Z"/><path class="cls-4" d="M271.31,368.17c0,3.36-2,5.12-4.87,5.12s-4.88-1.76-4.88-5.12v-6.24h1.16v6.24c0,2.66,1.52,4.06,3.72,4.06s3.72-1.4,3.72-4.06v-6.24h1.15Z"/><path class="cls-4" d="M280,365.81l-.38.68a5.58,5.58,0,0,0-2.78-.78c-1.06,0-2,.43-2,1.43,0,.63.38.94,2,1.37,2.07.55,3.4.82,3.4,2.54,0,1.52-1.44,2.25-3.17,2.24a6.63,6.63,0,0,1-3.6-1l.4-.65a6,6,0,0,0,3.19.91c1.15,0,2.17-.41,2.17-1.41,0-1.18-.85-1.28-2.64-1.76s-2.75-1-2.75-2.15c0-1.58,1.36-2.25,3-2.25A6.08,6.08,0,0,1,280,365.81Z"/><path class="cls-4" d="M290.52,369.13v.35h-7.13a3.17,3.17,0,0,0,3.2,3,3.88,3.88,0,0,0,2.72-1.1l.59.52a4.82,4.82,0,0,1-3.39,1.38,4.17,4.17,0,0,1-4.17-4.16,4.12,4.12,0,0,1,4.09-4.16A3.93,3.93,0,0,1,290.52,369.13Zm-7.13-.21h6.11a3,3,0,0,0-3.05-3.16A3.11,3.11,0,0,0,283.39,368.92Z"/><path class="cls-4" d="M304.58,373.13H303.5V372a4,4,0,0,1-3,1.34,4.16,4.16,0,1,1,3-7v-4.37h1.08Zm-7-4a3.27,3.27,0,0,0,5.9,1.91v-3.83a3.27,3.27,0,0,0-5.9,1.92Z"/><path class="cls-4" d="M308.89,362.89a.64.64,0,0,1-1.28,0,.65.65,0,0,1,1.28,0Zm-1.17,10.24v-8h1.07v8Z"/><path class="cls-4" d="M316.25,362l-.17.7a2.42,2.42,0,0,0-.91-.18,1.89,1.89,0,0,0-1.93,2v.57h5.29v-.6a2.58,2.58,0,0,1,2.72-2.76,4.19,4.19,0,0,1,1.37.23l-.16.7a2.51,2.51,0,0,0-.92-.18,1.89,1.89,0,0,0-1.93,2v.57h2.7V366h-2.7v7.16h-1.08V366h-5.29v7.16h-1.08V366h-1.38v-.84h1.38v-.6a2.58,2.58,0,0,1,2.72-2.76A4.19,4.19,0,0,1,316.25,362Z"/><path class="cls-4" d="M331.8,369.13v.35h-7.13a3.17,3.17,0,0,0,3.2,3,3.88,3.88,0,0,0,2.72-1.1l.59.52a4.82,4.82,0,0,1-3.39,1.38,4.17,4.17,0,0,1-4.17-4.16,4.12,4.12,0,0,1,4.09-4.16A3.94,3.94,0,0,1,331.8,369.13Zm-7.13-.21h6.11a3,3,0,0,0-3-3.16A3.11,3.11,0,0,0,324.67,368.92Z"/><path class="cls-4" d="M339.07,365.85a5.21,5.21,0,0,0-3.77,1.69v5.59h-1.08v-8h1.08v1.53a5.32,5.32,0,0,1,3.77-1.69Z"/><path class="cls-4" d="M348.34,369.13v.35h-7.13a3.17,3.17,0,0,0,3.21,3,3.86,3.86,0,0,0,2.71-1.1l.59.52a4.82,4.82,0,0,1-3.39,1.38,4.17,4.17,0,0,1-4.17-4.16,4.12,4.12,0,0,1,4.09-4.16A3.93,3.93,0,0,1,348.34,369.13Zm-7.12-.21h6.11a3,3,0,0,0-3.06-3.16A3.11,3.11,0,0,0,341.22,368.92Z"/><path class="cls-4" d="M358.55,368v5.13h-1.08v-4.84a2.17,2.17,0,0,0-2.27-2.44,5,5,0,0,0-3.35,1.3v6h-1.08v-8h1.08v1.23a5.8,5.8,0,0,1,3.73-1.39A2.77,2.77,0,0,1,358.55,368Z"/><path class="cls-4" d="M365.45,365.13V366h-2.6v4.38a1.92,1.92,0,0,0,2,2,2.38,2.38,0,0,0,1.15-.3l.18.75a3.84,3.84,0,0,1-1.7.44,2.59,2.59,0,0,1-2.67-2.77V366H360.3v-.84h1.47v-2.37h1.08v2.37Z"/><path class="cls-4" d="M376.65,365.13V366h-2.6v4.38a1.92,1.92,0,0,0,2,2,2.38,2.38,0,0,0,1.15-.3l.18.75a3.84,3.84,0,0,1-1.7.44,2.59,2.59,0,0,1-2.67-2.77V366H371.5v-.84H373v-2.37h1.08v2.37Z"/><path class="cls-4" d="M383.11,374c-.82,1.91-1.79,2.45-3,2.46a4.3,4.3,0,0,1-1.56-.32l.31-.73a2.79,2.79,0,0,0,1.16.23c.81,0,1.45-.42,2.09-1.81l.18-.4-3.67-8.25h1.14l3,6.9,2.9-6.9h1.12Z"/><path class="cls-4" d="M396.81,369.13a4,4,0,0,1-4,4.16,4,4,0,0,1-3-1.34v4.3h-1.08V365.13h1.08v1.17a4,4,0,0,1,7,2.83Zm-7-1.92V371a3.24,3.24,0,1,0,0-3.83Z"/><path class="cls-4" d="M407.14,369.13v.35H400a3.17,3.17,0,0,0,3.2,3,3.88,3.88,0,0,0,2.72-1.1l.59.52a4.82,4.82,0,0,1-3.39,1.38,4.17,4.17,0,0,1-4.17-4.16,4.12,4.12,0,0,1,4.09-4.16A3.93,3.93,0,0,1,407.14,369.13Zm-7.13-.21h6.11a3,3,0,0,0-3.05-3.16A3.11,3.11,0,0,0,400,368.92Z"/><path class="cls-4" d="M415.32,365.81l-.38.68a5.58,5.58,0,0,0-2.78-.78c-1.05,0-2,.43-2,1.43,0,.63.37.94,2,1.37,2.07.55,3.4.82,3.4,2.54,0,1.52-1.44,2.25-3.17,2.24a6.66,6.66,0,0,1-3.6-1l.41-.65a5.9,5.9,0,0,0,3.18.91c1.15,0,2.17-.41,2.17-1.41,0-1.18-.85-1.28-2.63-1.76-1.94-.52-2.76-1-2.76-2.15,0-1.58,1.37-2.25,3-2.25A6,6,0,0,1,415.32,365.81Z"/><path class="cls-4" d="M430.33,369.13A4.35,4.35,0,1,1,426,365,4.26,4.26,0,0,1,430.33,369.13Zm-7.64,0a3.29,3.29,0,1,0,3.28-3.24A3.27,3.27,0,0,0,422.69,369.13Z"/><path class="cls-4" d="M437.29,362l-.17.7a2.42,2.42,0,0,0-.91-.18,1.9,1.9,0,0,0-1.94,2v.57H437V366h-2.7v7.16H433.2V366h-1.38v-.84h1.38v-.6a2.58,2.58,0,0,1,2.72-2.76A4.19,4.19,0,0,1,437.29,362Z"/><path class="cls-4" d="M450.37,366.47l-.81.49a3.24,3.24,0,1,0,.09,4.24l.82.47a4.29,4.29,0,0,1-3.38,1.62,4.16,4.16,0,1,1,0-8.32A4.28,4.28,0,0,1,450.37,366.47Z"/><path class="cls-4" d="M461.18,369.13a4.35,4.35,0,1,1-4.35-4.16A4.26,4.26,0,0,1,461.18,369.13Zm-7.64,0a3.28,3.28,0,1,0,3.28-3.24A3.27,3.27,0,0,0,453.54,369.13Z"/><path class="cls-4" d="M470.68,366.39a5.47,5.47,0,0,1,3.69-1.42,2.74,2.74,0,0,1,2.9,3v5.13h-1.08v-4.84a2.14,2.14,0,0,0-2.2-2.44,4.74,4.74,0,0,0-3.15,1.21,4.32,4.32,0,0,1,.18,1.31v4.76h-1.08v-4.84a2.14,2.14,0,0,0-2.2-2.44,4.26,4.26,0,0,0-3,1.23v6.05h-1.08v-8h1.08v1.22a4.93,4.93,0,0,1,3.4-1.38A2.64,2.64,0,0,1,470.68,366.39Z"/><path class="cls-4" d="M484.49,362l-.17.7a2.42,2.42,0,0,0-.91-.18,1.9,1.9,0,0,0-1.94,2v.57h2.7V366h-2.7v7.16H480.4V366H479v-.84h1.38v-.6a2.58,2.58,0,0,1,2.72-2.76A4.19,4.19,0,0,1,484.49,362Z"/><path class="cls-4" d="M494.18,369.13a4.35,4.35,0,1,1-4.34-4.16A4.26,4.26,0,0,1,494.18,369.13Zm-7.63,0a3.28,3.28,0,1,0,3.28-3.24A3.27,3.27,0,0,0,486.55,369.13Z"/><path class="cls-4" d="M501.55,365.85a5.19,5.19,0,0,0-3.77,1.69v5.59H496.7v-8h1.08v1.53a5.32,5.32,0,0,1,3.77-1.69Z"/><path class="cls-4" d="M507.52,365.13V366h-2.61v4.38a1.92,1.92,0,0,0,2,2,2.35,2.35,0,0,0,1.15-.3l.18.75a3.83,3.83,0,0,1-1.69.44,2.59,2.59,0,0,1-2.67-2.77V366h-1.48v-.84h1.48v-2.37h1.08v2.37Z"/><path class="cls-4" d="M517.18,368v5.17H516.1v-1a5.55,5.55,0,0,1-3.58,1.18,2.58,2.58,0,0,1-2.81-2.58c0-1.56,1.22-2.36,3.15-2.37h3.24v-.29c0-1.55-1-2.23-2.49-2.23a4.89,4.89,0,0,0-2.92,1l-.34-.7a6.1,6.1,0,0,1,3.52-1.13C515.77,365,517.18,365.86,517.18,368Zm-4,.87c-1.52,0-2.44.6-2.44,1.78a2,2,0,0,0,2.16,2,5,5,0,0,0,3.16-1v-2.79Z"/><path class="cls-4" d="M521,366.3a4.09,4.09,0,1,1,3,7,4,4,0,0,1-3-1.34v1.18H520v-11.2H521Zm0,.91V371a3.24,3.24,0,1,0,0-3.83Z"/><path class="cls-4" d="M530.61,373.13V361.92h1.08v11.21Z"/><path class="cls-4" d="M542.24,369.13v.35h-7.13a3.17,3.17,0,0,0,3.21,3,3.86,3.86,0,0,0,2.71-1.1l.59.52a4.8,4.8,0,0,1-3.38,1.38,4.17,4.17,0,0,1-4.17-4.16,4.11,4.11,0,0,1,4.08-4.16A3.93,3.93,0,0,1,542.24,369.13Zm-7.12-.21h6.11a3,3,0,0,0-3.06-3.16A3.11,3.11,0,0,0,535.12,368.92Z"/><path class="cls-4" d="M554.43,365.81l-.38.68a5.61,5.61,0,0,0-2.79-.78c-1,0-2,.43-2,1.43,0,.63.37.94,2,1.37,2.07.55,3.41.82,3.41,2.54,0,1.52-1.44,2.25-3.18,2.24a6.62,6.62,0,0,1-3.59-1l.4-.65a6,6,0,0,0,3.19.91c1.15,0,2.17-.41,2.17-1.41,0-1.18-.85-1.28-2.64-1.76s-2.76-1-2.76-2.15c0-1.58,1.37-2.25,3-2.25A6.11,6.11,0,0,1,554.43,365.81Z"/><path class="cls-4" d="M564.91,369.13v.35h-7.12a3.16,3.16,0,0,0,3.2,3,3.86,3.86,0,0,0,2.71-1.1l.59.52a4.8,4.8,0,0,1-3.38,1.38,4.17,4.17,0,0,1-4.17-4.16,4.12,4.12,0,0,1,4.09-4.16A3.93,3.93,0,0,1,564.91,369.13Zm-7.12-.21h6.11a3,3,0,0,0-3-3.16A3.11,3.11,0,0,0,557.79,368.92Z"/><path class="cls-4" d="M574.28,368v5.17H573.2v-1a5.55,5.55,0,0,1-3.58,1.18,2.58,2.58,0,0,1-2.81-2.58c0-1.56,1.22-2.36,3.15-2.37h3.24v-.29c0-1.55-1-2.23-2.48-2.23a4.86,4.86,0,0,0-2.92,1l-.35-.7A6.1,6.1,0,0,1,571,365C572.87,365,574.28,365.86,574.28,368Zm-4,.87c-1.52,0-2.44.6-2.44,1.78a2,2,0,0,0,2.17,2,5,5,0,0,0,3.15-1v-2.79Z"/><path class="cls-4" d="M581.18,365.13V366h-2.6v4.38a1.91,1.91,0,0,0,1.95,2,2.35,2.35,0,0,0,1.15-.3l.19.75a3.84,3.84,0,0,1-1.7.44,2.59,2.59,0,0,1-2.67-2.77V366H576v-.84h1.48v-2.37h1.08v2.37Z"/><path class="cls-4" d="M585.64,362.89a.61.61,0,0,1-.64.57.6.6,0,0,1-.64-.57.59.59,0,0,1,.64-.56A.6.6,0,0,1,585.64,362.89Zm-1.18,10.24v-8h1.08v8Z"/><path class="cls-4" d="M596.34,368v5.13h-1.08v-4.84a2.17,2.17,0,0,0-2.27-2.44,5,5,0,0,0-3.35,1.3v6h-1.08v-8h1.08v1.23a5.8,5.8,0,0,1,3.73-1.39A2.77,2.77,0,0,1,596.34,368Z"/><path class="cls-4" d="M605.91,366.25v-1.12H607v7.2c0,2.8-1.78,4.1-4.18,4.09a6.56,6.56,0,0,1-3.69-1.14l.35-.71a5.59,5.59,0,0,0,3.15,1,3,3,0,0,0,3.29-3.26v-.83a4,4,0,0,1-3.25,1.63,3.92,3.92,0,0,1-3.93-4.06,4,4,0,0,1,3.93-4.11A4.76,4.76,0,0,1,605.91,366.25Zm-6.12,2.82a3.2,3.2,0,0,0,3.22,3.18,3.3,3.3,0,0,0,2.9-1.71v-3.41a4,4,0,0,0-2.9-1.24A3.2,3.2,0,0,0,599.79,369.07Z"/><path class="cls-4" d="M268,389.25v-1.12H269v7.2c0,2.8-1.78,4.1-4.18,4.09a6.56,6.56,0,0,1-3.69-1.14l.35-.71a5.59,5.59,0,0,0,3.14,1,3,3,0,0,0,3.3-3.26v-.83a4,4,0,0,1-3.25,1.63,3.93,3.93,0,0,1-3.94-4.06A4,4,0,0,1,264.7,388,4.76,4.76,0,0,1,268,389.25Zm-6.12,2.82a3.2,3.2,0,0,0,3.21,3.18,3.32,3.32,0,0,0,2.91-1.71v-3.41a4,4,0,0,0-2.91-1.24A3.2,3.2,0,0,0,261.83,392.07Z"/><path class="cls-4" d="M276.82,388.85a5.19,5.19,0,0,0-3.77,1.69v5.59H272v-8h1.08v1.53a5.32,5.32,0,0,1,3.77-1.69Z"/><path class="cls-4" d="M286.6,392.13a4.35,4.35,0,1,1-4.34-4.16A4.26,4.26,0,0,1,286.6,392.13Zm-7.63,0a3.28,3.28,0,1,0,3.28-3.24A3.27,3.27,0,0,0,279,392.13Z"/><path class="cls-4" d="M290.06,393a2.16,2.16,0,0,0,2.27,2.43,4.93,4.93,0,0,0,3.36-1.3v-6h1.07v8h-1.07V394.9a5.85,5.85,0,0,1-3.74,1.39,2.78,2.78,0,0,1-3-3v-5.12h1.08Z"/><path class="cls-4" d="M307.68,392.13a4,4,0,0,1-4,4.16,4,4,0,0,1-3-1.34v4.3h-1.08V388.13h1.08v1.17a4,4,0,0,1,7,2.83Zm-7-1.92V394a3.24,3.24,0,1,0,0-3.83Z"/><path class="cls-4" d="M316,388.81l-.38.68a5.58,5.58,0,0,0-2.78-.78c-1.06,0-2,.43-2,1.43,0,.63.37.94,2,1.37,2.08.55,3.41.82,3.41,2.54,0,1.52-1.44,2.25-3.18,2.24a6.62,6.62,0,0,1-3.59-1l.4-.65a6,6,0,0,0,3.19.91c1.15,0,2.17-.41,2.17-1.41,0-1.18-.85-1.28-2.64-1.76s-2.75-1-2.75-2.15c0-1.58,1.36-2.25,3-2.25A6.11,6.11,0,0,1,316,388.81Z"/><path class="cls-4" d="M326.85,388.13V389h-2.6v4.38a1.91,1.91,0,0,0,1.95,2,2.35,2.35,0,0,0,1.15-.3l.19.75a3.91,3.91,0,0,1-1.7.44,2.59,2.59,0,0,1-2.67-2.77V389h-1.48v-.84h1.48v-2.37h1.08v2.37Z"/><path class="cls-4" d="M337.52,392.13a4.35,4.35,0,1,1-4.35-4.16A4.26,4.26,0,0,1,337.52,392.13Zm-7.64,0a3.28,3.28,0,1,0,3.28-3.24A3.27,3.27,0,0,0,329.88,392.13Z"/><path class="cls-4" d="M351,391v5.17h-1.08v-1a5.52,5.52,0,0,1-3.57,1.18,2.58,2.58,0,0,1-2.81-2.58c0-1.56,1.21-2.36,3.14-2.37h3.24v-.29c0-1.55-1-2.23-2.48-2.23a4.86,4.86,0,0,0-2.92,1l-.35-.7a6.14,6.14,0,0,1,3.52-1.13C349.56,388,351,388.86,351,391Zm-4,.87c-1.53,0-2.45.6-2.45,1.78a2,2,0,0,0,2.17,2,5,5,0,0,0,3.15-1v-2.79Z"/><path class="cls-4" d="M360.9,389.47l-.81.49a3.24,3.24,0,1,0,.09,4.24l.82.47a4.29,4.29,0,0,1-3.38,1.62,4.16,4.16,0,1,1,3.28-6.82Z"/><path class="cls-4" d="M370.58,389.47l-.81.49a3.24,3.24,0,1,0,.09,4.24l.82.47a4.29,4.29,0,0,1-3.38,1.62,4.16,4.16,0,1,1,3.28-6.82Z"/><path class="cls-4" d="M381.39,392.13A4.35,4.35,0,1,1,377,388,4.26,4.26,0,0,1,381.39,392.13Zm-7.64,0a3.28,3.28,0,1,0,3.28-3.24A3.27,3.27,0,0,0,373.75,392.13Z"/><path class="cls-4" d="M390.89,389.39a5.47,5.47,0,0,1,3.69-1.42,2.74,2.74,0,0,1,2.9,3v5.13H396.4v-4.84a2.14,2.14,0,0,0-2.2-2.44,4.74,4.74,0,0,0-3.15,1.21,4.32,4.32,0,0,1,.18,1.31v4.76h-1.08v-4.84a2.14,2.14,0,0,0-2.2-2.44,4.26,4.26,0,0,0-3,1.23v6.05H383.9v-8H385v1.22a4.93,4.93,0,0,1,3.4-1.38A2.64,2.64,0,0,1,390.89,389.39Z"/><path class="cls-4" d="M407.24,389.39a5.47,5.47,0,0,1,3.69-1.42,2.74,2.74,0,0,1,2.9,3v5.13h-1.08v-4.84a2.14,2.14,0,0,0-2.2-2.44,4.74,4.74,0,0,0-3.15,1.21,4.32,4.32,0,0,1,.18,1.31v4.76H406.5v-4.84a2.14,2.14,0,0,0-2.2-2.44,4.22,4.22,0,0,0-3,1.23v6.05h-1.08v-8h1.08v1.22a4.91,4.91,0,0,1,3.39-1.38A2.64,2.64,0,0,1,407.24,389.39Z"/><path class="cls-4" d="M424.89,392.13a4.35,4.35,0,1,1-4.35-4.16A4.26,4.26,0,0,1,424.89,392.13Zm-7.63,0a3.28,3.28,0,1,0,3.28-3.24A3.27,3.27,0,0,0,417.26,392.13Z"/><path class="cls-4" d="M435,396.13H434V395a4,4,0,0,1-3,1.34,4.16,4.16,0,1,1,3-7v-4.37H435Zm-7-4A3.27,3.27,0,0,0,434,394v-3.83a3.27,3.27,0,0,0-5.9,1.92Z"/><path class="cls-4" d="M444.91,391v5.17h-1.08v-1a5.55,5.55,0,0,1-3.58,1.18,2.58,2.58,0,0,1-2.81-2.58c0-1.56,1.22-2.36,3.15-2.37h3.24v-.29c0-1.55-1-2.23-2.49-2.23a4.86,4.86,0,0,0-2.92,1l-.35-.7A6.15,6.15,0,0,1,441.6,388C443.5,388,444.91,388.86,444.91,391Zm-4,.87c-1.52,0-2.44.6-2.44,1.78a2,2,0,0,0,2.16,2,5,5,0,0,0,3.16-1v-2.79Z"/><path class="cls-4" d="M451.81,388.13V389H449.2v4.38a1.92,1.92,0,0,0,2,2,2.38,2.38,0,0,0,1.15-.3l.18.75a3.83,3.83,0,0,1-1.69.44,2.58,2.58,0,0,1-2.67-2.77V389h-1.48v-.84h1.48v-2.37h1.07v2.37Z"/><path class="cls-4" d="M462,392.13v.35h-7.13a3.17,3.17,0,0,0,3.2,3,3.88,3.88,0,0,0,2.72-1.1l.58.52a4.8,4.8,0,0,1-3.38,1.38,4.17,4.17,0,0,1-4.17-4.16,4.12,4.12,0,0,1,4.09-4.16A3.94,3.94,0,0,1,462,392.13Zm-7.13-.21h6.11a3,3,0,0,0-3.05-3.16A3.11,3.11,0,0,0,454.83,391.92Z"/><path class="cls-4" d="M475.67,396.13l-2.17-6.49-2.18,6.49h-1.19l-2.82-8h1.08l2.38,6.85,2.26-6.85H474l2.26,6.85,2.38-6.85h1.08l-2.82,8Z"/><path class="cls-4" d="M488.19,391v5.17h-1.08v-1a5.55,5.55,0,0,1-3.58,1.18,2.58,2.58,0,0,1-2.81-2.58c0-1.56,1.21-2.36,3.15-2.37h3.24v-.29c0-1.55-1-2.23-2.49-2.23a4.86,4.86,0,0,0-2.92,1l-.35-.7a6.15,6.15,0,0,1,3.53-1.13C486.78,388,488.19,388.86,488.19,391Zm-4,.87c-1.52,0-2.44.6-2.44,1.78a2,2,0,0,0,2.16,2,5,5,0,0,0,3.16-1v-2.79Z"/><path class="cls-4" d="M492.34,385.89a.6.6,0,0,1-.64.57.61.61,0,0,1-.64-.57.6.6,0,0,1,.64-.56A.59.59,0,0,1,492.34,385.89Zm-1.17,10.24v-8h1.08v8Z"/><path class="cls-4" d="M499.39,388.13V389h-2.6v4.38a1.91,1.91,0,0,0,1.95,2,2.35,2.35,0,0,0,1.15-.3l.19.75a3.84,3.84,0,0,1-1.7.44,2.59,2.59,0,0,1-2.67-2.77V389h-1.48v-.84h1.48v-2.37h1.08v2.37Z"/><path class="cls-4" d="M503.85,385.89a.65.65,0,1,1-.64-.56A.6.6,0,0,1,503.85,385.89Zm-1.18,10.24v-8h1.08v8Z"/><path class="cls-4" d="M514.55,391v5.13h-1.08v-4.84a2.17,2.17,0,0,0-2.27-2.44,5,5,0,0,0-3.35,1.3v6h-1.08v-8h1.08v1.23a5.8,5.8,0,0,1,3.73-1.39A2.77,2.77,0,0,1,514.55,391Z"/><path class="cls-4" d="M524.12,389.25v-1.12h1.08v7.2c0,2.8-1.78,4.1-4.18,4.09a6.56,6.56,0,0,1-3.69-1.14l.35-.71a5.59,5.59,0,0,0,3.15,1,3,3,0,0,0,3.29-3.26v-.83a4,4,0,0,1-3.25,1.63,3.92,3.92,0,0,1-3.93-4.06,4,4,0,0,1,3.93-4.11A4.76,4.76,0,0,1,524.12,389.25ZM518,392.07a3.2,3.2,0,0,0,3.22,3.18,3.32,3.32,0,0,0,2.9-1.71v-3.41a4,4,0,0,0-2.9-1.24A3.2,3.2,0,0,0,518,392.07Z"/><path class="cls-4" d="M528.91,395.72a.57.57,0,0,1-.1.31l-1.33,2.05-.36-.16.84-1.67a.57.57,0,0,1-.37-.53.66.66,0,0,1,1.32,0Z"/><path class="cls-4" d="M541.87,389.25v-1.12h1.07v7.2c0,2.8-1.78,4.1-4.18,4.09a6.55,6.55,0,0,1-3.68-1.14l.35-.71a5.59,5.59,0,0,0,3.14,1,3,3,0,0,0,3.29-3.26v-.83a4,4,0,0,1-3.25,1.63,3.93,3.93,0,0,1-3.93-4.06,4,4,0,0,1,3.93-4.11A4.8,4.8,0,0,1,541.87,389.25Zm-6.12,2.82a3.19,3.19,0,0,0,3.21,3.18,3.3,3.3,0,0,0,2.9-1.71v-3.41a4,4,0,0,0-2.9-1.24A3.19,3.19,0,0,0,535.75,392.07Z"/><path class="cls-4" d="M552.83,391v5.17h-1.08v-1a5.55,5.55,0,0,1-3.58,1.18,2.58,2.58,0,0,1-2.81-2.58c0-1.56,1.21-2.36,3.14-2.37h3.25v-.29c0-1.55-1-2.23-2.49-2.23a4.86,4.86,0,0,0-2.92,1l-.35-.7a6.15,6.15,0,0,1,3.53-1.13C551.42,388,552.83,388.86,552.83,391Zm-4,.87c-1.53,0-2.44.6-2.44,1.78a2,2,0,0,0,2.16,2,5,5,0,0,0,3.16-1v-2.79Z"/><path class="cls-4" d="M559.73,388.13V389h-2.61v4.38a1.92,1.92,0,0,0,2,2,2.38,2.38,0,0,0,1.15-.3l.18.75a3.83,3.83,0,0,1-1.69.44,2.58,2.58,0,0,1-2.67-2.77V389h-1.48v-.84h1.48v-2.37h1.07v2.37Z"/><path class="cls-4" d="M564,389.36a5.8,5.8,0,0,1,3.73-1.39,2.77,2.77,0,0,1,3,3v5.13h-1.08v-4.84a2.17,2.17,0,0,0-2.27-2.44,5,5,0,0,0-3.35,1.3v6h-1.08v-11.2H564Z"/><path class="cls-4" d="M581.2,392.13v.35h-7.12a3.16,3.16,0,0,0,3.2,3,3.86,3.86,0,0,0,2.71-1.1l.59.52a4.8,4.8,0,0,1-3.38,1.38,4.17,4.17,0,0,1-4.17-4.16,4.12,4.12,0,0,1,4.09-4.16A3.93,3.93,0,0,1,581.2,392.13Zm-7.12-.21h6.11a3,3,0,0,0-3.06-3.16A3.11,3.11,0,0,0,574.08,391.92Z"/><path class="cls-4" d="M588.48,388.85a5.19,5.19,0,0,0-3.77,1.69v5.59h-1.08v-8h1.08v1.53a5.32,5.32,0,0,1,3.77-1.69Z"/><path class="cls-4" d="M591.7,385.89a.6.6,0,0,1-.64.57.61.61,0,0,1-.64-.57.6.6,0,0,1,.64-.56A.59.59,0,0,1,591.7,385.89Zm-1.17,10.24v-8h1.08v8Z"/><path class="cls-4" d="M602.4,391v5.13h-1.08v-4.84a2.16,2.16,0,0,0-2.26-2.44,5,5,0,0,0-3.36,1.3v6h-1.08v-8h1.08v1.23a5.85,5.85,0,0,1,3.74-1.39A2.77,2.77,0,0,1,602.4,391Z"/><path class="cls-4" d="M612,389.25v-1.12h1.08v7.2c0,2.8-1.79,4.1-4.18,4.09a6.56,6.56,0,0,1-3.69-1.14l.35-.71a5.59,5.59,0,0,0,3.14,1,3,3,0,0,0,3.3-3.26v-.83a4,4,0,0,1-3.26,1.63,3.93,3.93,0,0,1-3.93-4.06,4,4,0,0,1,3.93-4.11A4.78,4.78,0,0,1,612,389.25Zm-6.12,2.82a3.2,3.2,0,0,0,3.21,3.18,3.33,3.33,0,0,0,2.91-1.71v-3.41a4,4,0,0,0-2.91-1.24A3.2,3.2,0,0,0,605.86,392.07Z"/><path class="cls-4" d="M616.76,395.72a.56.56,0,0,1-.09.31l-1.33,2.05-.37-.16.85-1.67a.57.57,0,0,1-.37-.53.66.66,0,0,1,1.31,0Z"/><path class="cls-4" d="M629.87,391v5.17h-1.08v-1a5.57,5.57,0,0,1-3.58,1.18,2.58,2.58,0,0,1-2.81-2.58c0-1.56,1.21-2.36,3.14-2.37h3.25v-.29c0-1.55-1-2.23-2.49-2.23a4.86,4.86,0,0,0-2.92,1l-.35-.7a6.15,6.15,0,0,1,3.53-1.13C628.46,388,629.87,388.86,629.87,391Zm-4,.87c-1.53,0-2.44.6-2.44,1.78a2,2,0,0,0,2.16,2,5,5,0,0,0,3.16-1v-2.79Z"/><path class="cls-4" d="M640.42,391v5.13h-1.08v-4.84a2.17,2.17,0,0,0-2.27-2.44,5,5,0,0,0-3.35,1.3v6h-1.08v-8h1.08v1.23a5.8,5.8,0,0,1,3.73-1.39A2.77,2.77,0,0,1,640.42,391Z"/><path class="cls-4" d="M650.83,396.13h-1.08V395a4,4,0,0,1-3,1.34,4.16,4.16,0,1,1,3-7v-4.37h1.08Zm-7-4a3.27,3.27,0,0,0,5.9,1.91v-3.83a3.27,3.27,0,0,0-5.9,1.92Z"/><path class="cls-4" d="M268.31,412.47l-.81.49a3.26,3.26,0,1,0-2.43,5.41,3.29,3.29,0,0,0,2.52-1.17l.82.47a4.3,4.3,0,0,1-3.39,1.62,4.16,4.16,0,1,1,0-8.32A4.29,4.29,0,0,1,268.31,412.47Z"/><path class="cls-4" d="M277.77,414v5.17h-1.08v-1a5.53,5.53,0,0,1-3.58,1.18,2.57,2.57,0,0,1-2.8-2.58c0-1.56,1.21-2.36,3.14-2.37h3.24v-.29c0-1.55-1-2.23-2.48-2.23a4.86,4.86,0,0,0-2.92,1l-.35-.7a6.14,6.14,0,0,1,3.52-1.13C276.36,411,277.77,411.86,277.77,414Zm-3.95.87c-1.53,0-2.45.6-2.45,1.78a2,2,0,0,0,2.17,2,5,5,0,0,0,3.15-1v-2.79Z"/><path class="cls-4" d="M286.3,411.81l-.38.68a5.58,5.58,0,0,0-2.78-.78c-1.05,0-1.95.43-1.95,1.43,0,.63.37.94,2,1.37,2.07.55,3.4.82,3.4,2.54,0,1.52-1.44,2.25-3.17,2.24a6.66,6.66,0,0,1-3.6-1l.41-.65a5.9,5.9,0,0,0,3.18.91c1.15,0,2.17-.41,2.17-1.41,0-1.18-.85-1.28-2.63-1.76-1.94-.52-2.76-1-2.76-2.15,0-1.58,1.37-2.25,3-2.25A6.06,6.06,0,0,1,286.3,411.81Z"/><path class="cls-4" d="M290,416a2.16,2.16,0,0,0,2.26,2.43,4.93,4.93,0,0,0,3.36-1.3v-6h1.08v8h-1.08V417.9a5.81,5.81,0,0,1-3.74,1.39,2.77,2.77,0,0,1-3-3v-5.12H290Z"/><path class="cls-4" d="M306.4,414v5.17h-1.08v-1a5.55,5.55,0,0,1-3.58,1.18,2.58,2.58,0,0,1-2.81-2.58c0-1.56,1.21-2.36,3.14-2.37h3.25v-.29c0-1.55-1-2.23-2.49-2.23a4.86,4.86,0,0,0-2.92,1l-.35-.7a6.15,6.15,0,0,1,3.53-1.13C305,411,306.4,411.86,306.4,414Zm-4,.87c-1.53,0-2.44.6-2.44,1.78a2,2,0,0,0,2.16,2,5,5,0,0,0,3.16-1v-2.79Z"/><path class="cls-4" d="M309.27,419.13V407.92h1.08v11.21Z"/><path class="cls-4" d="M324.12,412.39a5.47,5.47,0,0,1,3.69-1.42,2.74,2.74,0,0,1,2.9,3v5.13h-1.08v-4.84a2.14,2.14,0,0,0-2.2-2.44,4.74,4.74,0,0,0-3.15,1.21,4.32,4.32,0,0,1,.18,1.31v4.76h-1.08v-4.84a2.14,2.14,0,0,0-2.2-2.44,4.26,4.26,0,0,0-3,1.23v6.05h-1.07v-8h1.07v1.22a4.93,4.93,0,0,1,3.4-1.38A2.64,2.64,0,0,1,324.12,412.39Z"/><path class="cls-4" d="M341.25,415.13v.35h-7.13a3.17,3.17,0,0,0,3.21,3,3.86,3.86,0,0,0,2.71-1.1l.59.52a4.8,4.8,0,0,1-3.38,1.38,4.17,4.17,0,0,1-4.17-4.16,4.11,4.11,0,0,1,4.08-4.16A3.93,3.93,0,0,1,341.25,415.13Zm-7.12-.21h6.11a3,3,0,0,0-3.06-3.16A3.11,3.11,0,0,0,334.13,414.92Z"/><path class="cls-4" d="M351.44,415.13v.35h-7.12a3.16,3.16,0,0,0,3.2,3,3.86,3.86,0,0,0,2.71-1.1l.59.52a4.8,4.8,0,0,1-3.38,1.38,4.17,4.17,0,0,1-4.17-4.16,4.12,4.12,0,0,1,4.09-4.16A3.93,3.93,0,0,1,351.44,415.13Zm-7.12-.21h6.11a3,3,0,0,0-3.06-3.16A3.11,3.11,0,0,0,344.32,414.92Z"/><path class="cls-4" d="M358,411.13V412h-2.61v4.38a1.92,1.92,0,0,0,2,2,2.35,2.35,0,0,0,1.15-.3l.18.75a3.83,3.83,0,0,1-1.69.44,2.59,2.59,0,0,1-2.67-2.77V412h-1.48v-.84h1.48v-2.37h1.08v2.37Z"/><path class="cls-4" d="M362.46,408.89a.65.65,0,0,1-1.29,0,.65.65,0,0,1,1.29,0Zm-1.18,10.24v-8h1.08v8Z"/><path class="cls-4" d="M373.16,414v5.13h-1.08v-4.84a2.17,2.17,0,0,0-2.27-2.44,5,5,0,0,0-3.36,1.3v6h-1.08v-8h1.08v1.23a5.85,5.85,0,0,1,3.74-1.39A2.77,2.77,0,0,1,373.16,414Z"/><path class="cls-4" d="M382.73,412.25v-1.12h1.08v7.2c0,2.8-1.78,4.1-4.18,4.09a6.56,6.56,0,0,1-3.69-1.14l.35-.71a5.59,5.59,0,0,0,3.14,1,3,3,0,0,0,3.3-3.26v-.83a4,4,0,0,1-3.25,1.63,3.93,3.93,0,0,1-3.94-4.06,4,4,0,0,1,3.94-4.11A4.76,4.76,0,0,1,382.73,412.25Zm-6.12,2.82a3.2,3.2,0,0,0,3.21,3.18,3.32,3.32,0,0,0,2.91-1.71v-3.41a4,4,0,0,0-2.91-1.24A3.2,3.2,0,0,0,376.61,415.07Z"/><path class="cls-4" d="M392.51,411.81l-.38.68a5.61,5.61,0,0,0-2.78-.78c-1.06,0-2,.43-2,1.43,0,.63.37.94,2,1.37,2.07.55,3.41.82,3.41,2.54,0,1.52-1.44,2.25-3.18,2.24a6.62,6.62,0,0,1-3.59-1l.4-.65a6,6,0,0,0,3.19.91c1.15,0,2.17-.41,2.17-1.41,0-1.18-.85-1.28-2.64-1.76s-2.76-1-2.76-2.15c0-1.58,1.37-2.25,3-2.25A6.11,6.11,0,0,1,392.51,411.81Z"/><path class="cls-4" d="M395.79,418.72a.66.66,0,1,1-.66-.59A.62.62,0,0,1,395.79,418.72Z"/></g><g id="_9_plus" class="svg-showtip" data-name="9_plus"><circle class="cls-1" cx="920.71" cy="173.72" r="25"/><line class="cls-2" x1="906.1" y1="173.72" x2="935.33" y2="173.72"/><line class="cls-2" x1="920.71" y1="188.33" x2="920.71" y2="159.1"/></g><g id="_9_tooltip" class="svg-tooltip" data-name="9_tooltip"><path id="tooltip-2" data-name="tooltip" class="cls-3" d="M1321.65,95.43H949.91l-23,20-24-20H863.38a3.27,3.27,0,0,1-3.26-3.26V22.75a3.27,3.27,0,0,1,3.26-3.26h458.27a3.27,3.27,0,0,1,3.26,3.26V92.17A3.27,3.27,0,0,1,1321.65,95.43Z"/><path class="cls-4" d="M902.58,60.88c0,3.37-2,5.13-4.87,5.13s-4.88-1.76-4.88-5.13V54.64H894v6.24c0,2.67,1.52,4.07,3.72,4.07s3.72-1.4,3.72-4.07V54.64h1.15Z"/><path class="cls-4" d="M911.3,58.53l-.38.68a5.58,5.58,0,0,0-2.78-.78c-1.06,0-2,.43-2,1.43,0,.63.38.93,2,1.36,2.07.56,3.4.82,3.4,2.54,0,1.53-1.44,2.26-3.18,2.25a6.62,6.62,0,0,1-3.59-1l.4-.65a6,6,0,0,0,3.19.91c1.15,0,2.17-.42,2.17-1.41,0-1.19-.85-1.29-2.64-1.76s-2.75-1-2.75-2.15c0-1.58,1.36-2.26,3-2.26A6.18,6.18,0,0,1,911.3,58.53Z"/><path class="cls-4" d="M921.79,61.84v.36h-7.13a3.16,3.16,0,0,0,3.2,3,3.84,3.84,0,0,0,2.72-1.1l.59.53A4.86,4.86,0,0,1,917.78,66a4.17,4.17,0,0,1-.08-8.33A3.94,3.94,0,0,1,921.79,61.84Zm-7.13-.21h6.11a3,3,0,0,0-3-3.16A3.11,3.11,0,0,0,914.66,61.63Z"/><path class="cls-4" d="M935.15,60.67v5.18h-1.08v-1A5.53,5.53,0,0,1,930.5,66a2.58,2.58,0,0,1-2.81-2.59c0-1.55,1.21-2.36,3.14-2.36h3.24v-.3c0-1.54-1-2.23-2.48-2.23a4.94,4.94,0,0,0-2.92,1l-.35-.7a6.23,6.23,0,0,1,3.52-1.14C933.74,57.68,935.15,58.57,935.15,60.67Zm-3.95.87c-1.53,0-2.45.6-2.45,1.79a2,2,0,0,0,2.17,2,4.94,4.94,0,0,0,3.15-1V61.54Z"/><path class="cls-4" d="M942.77,58.57A5.24,5.24,0,0,0,939,60.25v5.6h-1.07v-8H939v1.54a5.31,5.31,0,0,1,3.77-1.7Z"/><path class="cls-4" d="M948.74,57.84v.84h-2.6v4.39a1.91,1.91,0,0,0,2,2.05,2.42,2.42,0,0,0,1.15-.31l.18.76a3.84,3.84,0,0,1-1.7.44,2.59,2.59,0,0,1-2.67-2.78V58.68h-1.47v-.84h1.47V55.47h1.08v2.37Z"/><path class="cls-4" d="M959.1,65.85l-2.17-6.49-2.18,6.49h-1.19l-2.82-8h1.08l2.38,6.85,2.26-6.85h.93l2.26,6.85L962,57.84h1.08l-2.82,8Z"/><path class="cls-4" d="M973,61.84a4.35,4.35,0,1,1-4.35-4.16A4.27,4.27,0,0,1,973,61.84Zm-7.64,0a3.28,3.28,0,1,0,3.28-3.23A3.27,3.27,0,0,0,965.31,61.84Z"/><path class="cls-4" d="M980.31,58.57a5.22,5.22,0,0,0-3.77,1.68v5.6h-1.08v-8h1.08v1.54a5.29,5.29,0,0,1,3.77-1.7Z"/><path class="cls-4" d="M988.3,57.84h1.32l-3,3,3.3,5h-1.18l-2.87-4.23L983.31,64v1.89h-1.08V54.64h1.08v8Z"/><path class="cls-4" d="M999.86,57.84v.84h-2.6v4.39a1.92,1.92,0,0,0,2,2.05,2.42,2.42,0,0,0,1.15-.31l.18.76a3.84,3.84,0,0,1-1.7.44,2.59,2.59,0,0,1-2.67-2.78V58.68h-1.47v-.84h1.47V55.47h1.08v2.37Z"/><path class="cls-4" d="M1004.09,59.07a5.9,5.9,0,0,1,3.74-1.39,2.78,2.78,0,0,1,3,3v5.13h-1.08V61a2.16,2.16,0,0,0-2.27-2.43,5,5,0,0,0-3.36,1.3v6H1003V54.64h1.08Z"/><path class="cls-4" d="M1020.52,60.67v5.18h-1.08v-1a5.56,5.56,0,0,1-3.58,1.19,2.58,2.58,0,0,1-2.81-2.59c0-1.55,1.21-2.36,3.14-2.36h3.25v-.3c0-1.54-1-2.23-2.49-2.23a4.94,4.94,0,0,0-2.92,1l-.35-.7a6.23,6.23,0,0,1,3.53-1.14C1019.11,57.68,1020.52,58.57,1020.52,60.67Zm-4,.87c-1.53,0-2.44.6-2.44,1.79a2,2,0,0,0,2.16,2,5,5,0,0,0,3.16-1V61.54Z"/><path class="cls-4" d="M1027.41,57.84v.84h-2.6v4.39a1.92,1.92,0,0,0,2,2.05,2.39,2.39,0,0,0,1.15-.31l.18.76a3.84,3.84,0,0,1-1.7.44,2.59,2.59,0,0,1-2.67-2.78V58.68h-1.47v-.84h1.47V55.47h1.08v2.37Z"/><path class="cls-4" d="M1041.65,59.19l-.82.48a3.24,3.24,0,1,0,.09,4.24l.82.48a4.32,4.32,0,0,1-3.38,1.62,4.17,4.17,0,1,1,0-8.33A4.31,4.31,0,0,1,1041.65,59.19Z"/><path class="cls-4" d="M1049,58.57a5.22,5.22,0,0,0-3.77,1.68v5.6h-1.08v-8h1.08v1.54a5.29,5.29,0,0,1,3.77-1.7Z"/><path class="cls-4" d="M1058.28,61.84v.36h-7.12a3.16,3.16,0,0,0,3.2,3,3.82,3.82,0,0,0,2.71-1.1l.59.53a4.84,4.84,0,0,1-3.38,1.38,4.17,4.17,0,0,1-4.17-4.17,4.12,4.12,0,0,1,4.09-4.16A3.94,3.94,0,0,1,1058.28,61.84Zm-7.12-.21h6.11a3,3,0,0,0-3.06-3.16A3.11,3.11,0,0,0,1051.16,61.63Z"/><path class="cls-4" d="M1067.65,60.67v5.18h-1.08v-1A5.56,5.56,0,0,1,1063,66a2.58,2.58,0,0,1-2.81-2.59c0-1.55,1.22-2.36,3.15-2.36h3.24v-.3c0-1.54-1-2.23-2.49-2.23a4.94,4.94,0,0,0-2.91,1l-.35-.7a6.18,6.18,0,0,1,3.52-1.14C1066.24,57.68,1067.65,58.57,1067.65,60.67Zm-4,.87c-1.52,0-2.44.6-2.44,1.79a2,2,0,0,0,2.16,2,5,5,0,0,0,3.16-1V61.54Z"/><path class="cls-4" d="M1074.55,57.84v.84H1072v4.39a1.91,1.91,0,0,0,2,2.05,2.36,2.36,0,0,0,1.15-.31l.18.76a3.83,3.83,0,0,1-1.69.44,2.59,2.59,0,0,1-2.67-2.78V58.68h-1.48v-.84h1.48V55.47H1072v2.37Z"/><path class="cls-4" d="M1084.7,61.84v.36h-7.13a3.16,3.16,0,0,0,3.2,3,3.84,3.84,0,0,0,2.72-1.1l.59.53a4.86,4.86,0,0,1-3.39,1.38,4.17,4.17,0,0,1-.08-8.33A3.94,3.94,0,0,1,1084.7,61.84Zm-7.13-.21h6.11a3,3,0,0,0-3-3.16A3.11,3.11,0,0,0,1077.57,61.63Z"/><path class="cls-4" d="M1092.88,58.53l-.38.68a5.58,5.58,0,0,0-2.78-.78c-1,0-2,.43-2,1.43,0,.63.37.93,2,1.36,2.07.56,3.4.82,3.4,2.54,0,1.53-1.44,2.26-3.17,2.25a6.66,6.66,0,0,1-3.6-1l.41-.65a6,6,0,0,0,3.18.91c1.15,0,2.17-.42,2.17-1.41,0-1.19-.85-1.29-2.63-1.76-1.94-.52-2.76-1-2.76-2.15,0-1.58,1.37-2.26,3-2.26A6.16,6.16,0,0,1,1092.88,58.53Z"/><path class="cls-4" d="M1106.55,60.67v5.18h-1.08v-1a5.56,5.56,0,0,1-3.58,1.19,2.58,2.58,0,0,1-2.81-2.59c0-1.55,1.21-2.36,3.14-2.36h3.25v-.3c0-1.54-1-2.23-2.49-2.23a4.94,4.94,0,0,0-2.92,1l-.35-.7a6.23,6.23,0,0,1,3.53-1.14C1105.14,57.68,1106.55,58.57,1106.55,60.67Zm-4,.87c-1.53,0-2.44.6-2.44,1.79a2,2,0,0,0,2.16,2,5,5,0,0,0,3.16-1V61.54Z"/><path class="cls-4" d="M1119.07,58.53l-.38.68a5.55,5.55,0,0,0-2.78-.78c-1.05,0-2,.43-2,1.43,0,.63.37.93,2,1.36,2.07.56,3.4.82,3.4,2.54,0,1.53-1.44,2.26-3.17,2.25a6.68,6.68,0,0,1-3.6-1l.41-.65a6,6,0,0,0,3.19.91c1.15,0,2.17-.42,2.17-1.41,0-1.19-.86-1.29-2.64-1.76-1.94-.52-2.76-1-2.76-2.15,0-1.58,1.37-2.26,3-2.26A6.15,6.15,0,0,1,1119.07,58.53Z"/><path class="cls-4" d="M1125.93,57.84v.84h-2.61v4.39a1.92,1.92,0,0,0,2,2.05,2.39,2.39,0,0,0,1.15-.31l.18.76a3.83,3.83,0,0,1-1.69.44,2.59,2.59,0,0,1-2.68-2.78V58.68h-1.47v-.84h1.47V55.47h1.08v2.37Z"/><path class="cls-4" d="M1135.59,60.67v5.18h-1.08v-1a5.56,5.56,0,0,1-3.58,1.19,2.58,2.58,0,0,1-2.81-2.59c0-1.55,1.21-2.36,3.14-2.36h3.25v-.3c0-1.54-1-2.23-2.49-2.23a4.94,4.94,0,0,0-2.92,1l-.35-.7a6.23,6.23,0,0,1,3.53-1.14C1134.18,57.68,1135.59,58.57,1135.59,60.67Zm-4,.87c-1.53,0-2.44.6-2.44,1.79a2,2,0,0,0,2.16,2,5,5,0,0,0,3.16-1V61.54Z"/><path class="cls-4" d="M1142.49,57.84v.84h-2.61v4.39a1.92,1.92,0,0,0,2,2.05,2.39,2.39,0,0,0,1.15-.31l.18.76a3.83,3.83,0,0,1-1.69.44,2.59,2.59,0,0,1-2.68-2.78V58.68h-1.47v-.84h1.47V55.47h1.08v2.37Z"/><path class="cls-4" d="M1152.63,61.84v.36h-7.12a3.16,3.16,0,0,0,3.2,3,3.82,3.82,0,0,0,2.71-1.1l.59.53a4.84,4.84,0,0,1-3.38,1.38,4.17,4.17,0,0,1-4.17-4.17,4.12,4.12,0,0,1,4.09-4.16A3.94,3.94,0,0,1,1152.63,61.84Zm-7.12-.21h6.11a3,3,0,0,0-3.06-3.16A3.11,3.11,0,0,0,1145.51,61.63Z"/><path class="cls-4" d="M1162,59.1a5.51,5.51,0,0,1,3.69-1.42,2.75,2.75,0,0,1,2.91,3v5.13h-1.08V61a2.14,2.14,0,0,0-2.21-2.43,4.77,4.77,0,0,0-3.14,1.2,4.73,4.73,0,0,1,.18,1.32v4.76h-1.08V61a2.13,2.13,0,0,0-2.2-2.43,4.24,4.24,0,0,0-3,1.22v6.06h-1.08v-8h1.08v1.22a5,5,0,0,1,3.39-1.38A2.63,2.63,0,0,1,1162,59.1Z"/><path class="cls-4" d="M1179.18,61.84v.36h-7.13a3.16,3.16,0,0,0,3.2,3,3.84,3.84,0,0,0,2.72-1.1l.59.53a4.86,4.86,0,0,1-3.39,1.38,4.17,4.17,0,0,1-.08-8.33A3.94,3.94,0,0,1,1179.18,61.84Zm-7.13-.21h6.11a3,3,0,0,0-3.05-3.16A3.11,3.11,0,0,0,1172.05,61.63Z"/><path class="cls-4" d="M1189.39,60.72v5.13h-1.08V61a2.16,2.16,0,0,0-2.27-2.43,5,5,0,0,0-3.36,1.3v6h-1.08v-8h1.08v1.23a5.9,5.9,0,0,1,3.74-1.39A2.78,2.78,0,0,1,1189.39,60.72Z"/><path class="cls-4" d="M1196.29,57.84v.84h-2.6v4.39a1.91,1.91,0,0,0,2,2.05,2.42,2.42,0,0,0,1.15-.31l.18.76a3.84,3.84,0,0,1-1.7.44,2.59,2.59,0,0,1-2.67-2.78V58.68h-1.47v-.84h1.47V55.47h1.08v2.37Z"/><path class="cls-4" d="M1199.93,65.43a.67.67,0,1,1-.66-.58A.62.62,0,0,1,1199.93,65.43Z"/></g></g></svg>