<svg xmlns="http://www.w3.org/2000/svg" viewBox="0 0 1640 790"><defs><style>.cls-1{fill:#06a7e0;stroke-width:1.33px;opacity:0.9;}.cls-1,.cls-2,.cls-3{stroke:#fff;stroke-miterlimit:10;}.cls-2{fill:none;stroke-width:4.67px;}.cls-3{fill:#fff;stroke-width:2px;}.cls-4{fill:#231f20;}</style></defs><title>07_1640x790</title><g id="_11_1640x790" data-name="11_1640x790"><g id="_11_plus" class="svg-showtip" data-name="11_plus"><circle class="cls-1" cx="419.73" cy="510.81" r="25"/><line class="cls-2" x1="405.12" y1="510.81" x2="434.35" y2="510.81"/><line class="cls-2" x1="419.73" y1="525.43" x2="419.73" y2="496.2"/></g><g id="_11_tooltip" class="svg-tooltip" data-name="11_tooltip"><path id="tooltip" class="cls-3" d="M816.74,437.61H445l-23,20-24-20H358.47a3.27,3.27,0,0,1-3.26-3.26V337.91a3.27,3.27,0,0,1,3.26-3.26H816.74a3.27,3.27,0,0,1,3.26,3.26v96.44A3.27,3.27,0,0,1,816.74,437.61Z"/><path class="cls-4" d="M391.77,367.73v10.21h-1.16V367.73h-3.9v-1h9v1Z"/><path class="cls-4" d="M398.94,371.17a5.85,5.85,0,0,1,3.74-1.39,2.78,2.78,0,0,1,3,3v5.12h-1.08V373.1a2.16,2.16,0,0,0-2.27-2.43,5,5,0,0,0-3.36,1.3v6h-1.08v-11.2h1.08Z"/><path class="cls-4" d="M416.19,373.94v.36h-7.13a3.16,3.16,0,0,0,3.2,3,3.84,3.84,0,0,0,2.72-1.1l.59.53a4.85,4.85,0,0,1-3.39,1.37,4.16,4.16,0,0,1-.08-8.32A3.94,3.94,0,0,1,416.19,373.94Zm-7.13-.21h6.11a3,3,0,0,0-3.05-3.16A3.11,3.11,0,0,0,409.06,373.73Z"/><path class="cls-4" d="M431.62,377.94v-5.13h-7.44v5.13H423v-11.2h1.15v5h7.44v-5h1.16v11.2Z"/><path class="cls-4" d="M437.49,367.7a.65.65,0,1,1-.64-.56A.6.6,0,0,1,437.49,367.7Zm-1.17,10.24v-8h1.07v8Z"/><path class="cls-4" d="M440.51,377.94v-11.2h1.08v11.2Z"/><path class="cls-4" d="M448.5,369.94v.84h-2.6v4.39a1.92,1.92,0,0,0,2,2.05,2.39,2.39,0,0,0,1.15-.31l.18.76a3.7,3.7,0,0,1-1.7.43,2.58,2.58,0,0,1-2.67-2.77v-4.55h-1.47v-.84h1.47v-2.37h1.08v2.37Z"/><path class="cls-4" d="M459.17,373.94a4.35,4.35,0,1,1-4.35-4.16A4.25,4.25,0,0,1,459.17,373.94Zm-7.63,0a3.28,3.28,0,1,0,3.28-3.24A3.26,3.26,0,0,0,451.54,373.94Z"/><path class="cls-4" d="M469.47,372.82v5.12h-1.08V373.1a2.16,2.16,0,0,0-2.27-2.43,5,5,0,0,0-3.35,1.3v6h-1.08v-8h1.08v1.23a5.81,5.81,0,0,1,3.74-1.39A2.77,2.77,0,0,1,469.47,372.82Z"/><path class="cls-4" d="M485.25,377.94v-5.13h-7.44v5.13h-1.15v-11.2h1.15v5h7.44v-5h1.16v11.2Z"/><path class="cls-4" d="M498,373.94a4.35,4.35,0,1,1-4.35-4.16A4.25,4.25,0,0,1,498,373.94Zm-7.64,0a3.28,3.28,0,1,0,3.28-3.24A3.27,3.27,0,0,0,490.38,373.94Z"/><path class="cls-4" d="M506.29,370.63l-.38.68a5.48,5.48,0,0,0-2.78-.78c-1.06,0-1.95.43-1.95,1.43,0,.63.37.93,2,1.36,2.07.56,3.4.82,3.4,2.54,0,1.53-1.44,2.25-3.17,2.24a6.63,6.63,0,0,1-3.6-1l.41-.65a6.08,6.08,0,0,0,3.18.91c1.15,0,2.17-.42,2.17-1.41,0-1.19-.85-1.29-2.63-1.77-1.94-.52-2.76-1-2.76-2.14,0-1.58,1.36-2.26,3-2.26A6.06,6.06,0,0,1,506.29,370.63Z"/><path class="cls-4" d="M513.14,369.94v.84h-2.6v4.39a1.91,1.91,0,0,0,2,2.05,2.42,2.42,0,0,0,1.15-.31l.18.76a3.7,3.7,0,0,1-1.7.43,2.58,2.58,0,0,1-2.67-2.77v-4.55H508v-.84h1.47v-2.37h1.08v2.37Z"/><path class="cls-4" d="M527.37,371.29l-.81.48a3.24,3.24,0,1,0,.09,4.24l.82.48a4.32,4.32,0,0,1-3.38,1.61,4.16,4.16,0,1,1,0-8.32A4.29,4.29,0,0,1,527.37,371.29Z"/><path class="cls-4" d="M538.18,373.94a4.35,4.35,0,1,1-4.35-4.16A4.26,4.26,0,0,1,538.18,373.94Zm-7.64,0a3.28,3.28,0,1,0,3.28-3.24A3.27,3.27,0,0,0,530.54,373.94Z"/><path class="cls-4" d="M541.64,374.78a2.17,2.17,0,0,0,2.26,2.44,5,5,0,0,0,3.36-1.3v-6h1.08v8h-1.08v-1.23a5.81,5.81,0,0,1-3.74,1.39,2.77,2.77,0,0,1-3-3v-5.13h1.08Z"/><path class="cls-4" d="M558.91,372.82v5.12h-1.08V373.1a2.16,2.16,0,0,0-2.27-2.43,5,5,0,0,0-3.36,1.3v6h-1.07v-8h1.07v1.23a5.85,5.85,0,0,1,3.74-1.39A2.78,2.78,0,0,1,558.91,372.82Z"/><path class="cls-4" d="M565.81,369.94v.84h-2.6v4.39a1.91,1.91,0,0,0,2,2.05,2.42,2.42,0,0,0,1.15-.31l.18.76a3.7,3.7,0,0,1-1.7.43,2.58,2.58,0,0,1-2.67-2.77v-4.55h-1.47v-.84h1.47v-2.37h1.08v2.37Z"/><path class="cls-4" d="M576,373.94v.36h-7.13a3.17,3.17,0,0,0,3.21,3,3.82,3.82,0,0,0,2.71-1.1l.59.53A4.83,4.83,0,0,1,572,378.1a4.16,4.16,0,0,1-.09-8.32A3.94,3.94,0,0,1,576,373.94Zm-7.12-.21H575a3,3,0,0,0-3.06-3.16A3.11,3.11,0,0,0,568.84,373.73Z"/><path class="cls-4" d="M583.24,370.67a5.22,5.22,0,0,0-3.77,1.68v5.59h-1.08v-8h1.08v1.54a5.29,5.29,0,0,1,3.77-1.7Z"/><path class="cls-4" d="M595.87,371.06v-1.12H597v7.21c0,2.79-1.78,4.09-4.18,4.09a6.64,6.64,0,0,1-3.69-1.15l.35-.7a5.58,5.58,0,0,0,3.15,1,3,3,0,0,0,3.29-3.26v-.82a4,4,0,0,1-3.25,1.62,3.92,3.92,0,0,1-3.93-4.06,4,4,0,0,1,3.93-4.1A4.75,4.75,0,0,1,595.87,371.06Zm-6.12,2.82a3.21,3.21,0,0,0,3.22,3.19,3.29,3.29,0,0,0,2.9-1.72v-3.41a4,4,0,0,0-2.9-1.24A3.2,3.2,0,0,0,589.75,373.88Z"/><path class="cls-4" d="M604.74,370.67a5.22,5.22,0,0,0-3.77,1.68v5.59h-1.08v-8H601v1.54a5.29,5.29,0,0,1,3.77-1.7Z"/><path class="cls-4" d="M614,373.94v.36h-7.13a3.16,3.16,0,0,0,3.2,3,3.84,3.84,0,0,0,2.72-1.1l.59.53A4.85,4.85,0,0,1,610,378.1a4.16,4.16,0,0,1-.08-8.32A3.94,3.94,0,0,1,614,373.94Zm-7.12-.21H613a3,3,0,0,0-3-3.16A3.11,3.11,0,0,0,606.89,373.73Z"/><path class="cls-4" d="M624.2,373.94v.36h-7.13a3.17,3.17,0,0,0,3.21,3,3.82,3.82,0,0,0,2.71-1.1l.59.53a4.85,4.85,0,0,1-3.39,1.37,4.16,4.16,0,0,1-.08-8.32A3.94,3.94,0,0,1,624.2,373.94Zm-7.12-.21h6.11a3,3,0,0,0-3.06-3.16A3.11,3.11,0,0,0,617.08,373.73Z"/><path class="cls-4" d="M630.76,369.94v.84h-2.61v4.39a1.92,1.92,0,0,0,2,2.05,2.39,2.39,0,0,0,1.15-.31l.18.76a3.69,3.69,0,0,1-1.69.43,2.59,2.59,0,0,1-2.68-2.77v-4.55H625.6v-.84h1.47v-2.37h1.08v2.37Z"/><path class="cls-4" d="M639.58,370.63l-.38.68a5.45,5.45,0,0,0-2.78-.78c-1,0-1.95.43-1.95,1.43,0,.63.37.93,2,1.36,2.07.56,3.4.82,3.4,2.54,0,1.53-1.44,2.25-3.17,2.24a6.68,6.68,0,0,1-3.6-1l.41-.65a6.11,6.11,0,0,0,3.19.91c1.15,0,2.17-.42,2.17-1.41,0-1.19-.86-1.29-2.64-1.77-1.94-.52-2.76-1-2.76-2.14,0-1.58,1.37-2.26,3-2.26A6.05,6.05,0,0,1,639.58,370.63Z"/><path class="cls-4" d="M653.1,371.06v-1.12h1.08v7.21c0,2.79-1.78,4.09-4.18,4.09a6.64,6.64,0,0,1-3.69-1.15l.36-.7a5.53,5.53,0,0,0,3.14,1,3,3,0,0,0,3.29-3.26v-.82a4,4,0,0,1-3.25,1.62,3.92,3.92,0,0,1-3.93-4.06,4,4,0,0,1,3.93-4.1A4.75,4.75,0,0,1,653.1,371.06ZM647,373.88a3.21,3.21,0,0,0,3.22,3.19,3.29,3.29,0,0,0,2.9-1.72v-3.41a4,4,0,0,0-2.9-1.24A3.2,3.2,0,0,0,647,373.88Z"/><path class="cls-4" d="M658.06,374.78a2.17,2.17,0,0,0,2.27,2.44,5,5,0,0,0,3.36-1.3v-6h1.08v8h-1.08v-1.23A5.85,5.85,0,0,1,660,378.1a2.77,2.77,0,0,1-3-3v-5.13h1.07Z"/><path class="cls-4" d="M675.32,373.94v.36h-7.13a3.16,3.16,0,0,0,3.2,3,3.84,3.84,0,0,0,2.72-1.1l.59.53a4.85,4.85,0,0,1-3.39,1.37,4.16,4.16,0,0,1-.08-8.32A3.94,3.94,0,0,1,675.32,373.94Zm-7.12-.21h6.11a3,3,0,0,0-3.06-3.16A3.11,3.11,0,0,0,668.2,373.73Z"/><path class="cls-4" d="M683.5,370.63l-.38.68a5.45,5.45,0,0,0-2.78-.78c-1.05,0-2,.43-2,1.43,0,.63.37.93,2,1.36,2.07.56,3.4.82,3.4,2.54,0,1.53-1.44,2.25-3.17,2.24a6.68,6.68,0,0,1-3.6-1l.41-.65a6.11,6.11,0,0,0,3.18.91c1.16,0,2.17-.42,2.17-1.41,0-1.19-.85-1.29-2.63-1.77-1.94-.52-2.76-1-2.76-2.14,0-1.58,1.37-2.26,3-2.26A6.05,6.05,0,0,1,683.5,370.63Z"/><path class="cls-4" d="M690.35,369.94v.84h-2.6v4.39a1.92,1.92,0,0,0,2,2.05,2.39,2.39,0,0,0,1.15-.31l.18.76a3.69,3.69,0,0,1-1.69.43,2.59,2.59,0,0,1-2.68-2.77v-4.55H685.2v-.84h1.47v-2.37h1.08v2.37Z"/><path class="cls-4" d="M699.18,370.63l-.38.68a5.45,5.45,0,0,0-2.78-.78c-1,0-1.95.43-1.95,1.43,0,.63.37.93,2,1.36,2.07.56,3.4.82,3.4,2.54,0,1.53-1.44,2.25-3.17,2.24a6.68,6.68,0,0,1-3.6-1l.41-.65a6.11,6.11,0,0,0,3.18.91c1.16,0,2.18-.42,2.18-1.41,0-1.19-.86-1.29-2.64-1.77-1.94-.52-2.76-1-2.76-2.14,0-1.58,1.37-2.26,3-2.26A6.05,6.05,0,0,1,699.18,370.63Z"/><path class="cls-4" d="M712.85,372.77v5.17h-1.08v-1a5.55,5.55,0,0,1-3.58,1.18,2.57,2.57,0,0,1-2.81-2.58c0-1.55,1.21-2.36,3.14-2.36h3.25v-.3c0-1.55-1-2.23-2.49-2.23a5,5,0,0,0-2.92,1l-.35-.69a6.16,6.16,0,0,1,3.53-1.14C711.44,369.78,712.85,370.67,712.85,372.77Zm-4,.87c-1.53,0-2.44.6-2.44,1.78a2,2,0,0,0,2.16,2,5,5,0,0,0,3.16-1v-2.79Z"/><path class="cls-4" d="M723.4,372.82v5.12h-1.08V373.1a2.16,2.16,0,0,0-2.27-2.43,5,5,0,0,0-3.35,1.3v6h-1.08v-8h1.08v1.23a5.8,5.8,0,0,1,3.73-1.39A2.78,2.78,0,0,1,723.4,372.82Z"/><path class="cls-4" d="M733.81,377.94h-1.08v-1.17a4,4,0,0,1-7-2.83,4,4,0,0,1,7-2.83v-4.37h1.08Zm-7-4a3.27,3.27,0,0,0,5.9,1.91V372a3.27,3.27,0,0,0-5.9,1.91Z"/><path class="cls-4" d="M394.31,394.06v-1.12h1.08v7.21c0,2.79-1.78,4.09-4.18,4.09a6.64,6.64,0,0,1-3.69-1.15l.35-.7a5.58,5.58,0,0,0,3.14,1,3,3,0,0,0,3.3-3.26v-.82a4,4,0,0,1-3.25,1.62,3.93,3.93,0,0,1-3.94-4.06,4,4,0,0,1,3.94-4.1A4.75,4.75,0,0,1,394.31,394.06Zm-6.12,2.82a3.2,3.2,0,0,0,3.21,3.19,3.31,3.31,0,0,0,2.91-1.72v-3.41a4,4,0,0,0-2.91-1.24A3.2,3.2,0,0,0,388.19,396.88Z"/><path class="cls-4" d="M399.27,397.78a2.17,2.17,0,0,0,2.27,2.44,5,5,0,0,0,3.35-1.3v-6H406v8h-1.08v-1.23a5.8,5.8,0,0,1-3.73,1.39,2.77,2.77,0,0,1-3-3v-5.13h1.08Z"/><path class="cls-4" d="M410.15,390.7a.65.65,0,1,1-.64-.56A.61.61,0,0,1,410.15,390.7ZM409,400.94v-8h1.08v8Z"/><path class="cls-4" d="M420.7,400.94h-1.08v-1.17a4.16,4.16,0,1,1,0-5.66v-4.37h1.08Zm-7-4a3.27,3.27,0,0,0,5.9,1.91V395A3.3,3.3,0,0,0,417,393.7,3.26,3.26,0,0,0,413.72,396.94Z"/><path class="cls-4" d="M431.39,396.94v.36h-7.13a3.16,3.16,0,0,0,3.2,3,3.84,3.84,0,0,0,2.72-1.1l.59.53a4.85,4.85,0,0,1-3.39,1.37,4.16,4.16,0,0,1-.08-8.32A3.94,3.94,0,0,1,431.39,396.94Zm-7.13-.21h6.11a3,3,0,0,0-3.05-3.16A3.11,3.11,0,0,0,424.26,396.73Z"/><path class="cls-4" d="M439.57,393.63l-.38.68a5.48,5.48,0,0,0-2.78-.78c-1.05,0-2,.43-2,1.43,0,.63.37.93,2,1.36,2.07.56,3.4.82,3.4,2.54,0,1.53-1.44,2.25-3.17,2.24a6.65,6.65,0,0,1-3.6-1l.41-.65a6.08,6.08,0,0,0,3.18.91c1.15,0,2.17-.42,2.17-1.41,0-1.19-.85-1.29-2.63-1.77-1.94-.52-2.76-1-2.76-2.14,0-1.58,1.37-2.26,3-2.26A6.05,6.05,0,0,1,439.57,393.63Z"/><path class="cls-4" d="M450.42,392.94v.84h-2.6v4.39a1.92,1.92,0,0,0,2,2.05,2.39,2.39,0,0,0,1.15-.31l.18.76a3.7,3.7,0,0,1-1.7.43,2.58,2.58,0,0,1-2.67-2.77v-4.55h-1.47v-.84h1.47v-2.37h1.08v2.37Z"/><path class="cls-4" d="M454.65,394.17a5.85,5.85,0,0,1,3.74-1.39,2.78,2.78,0,0,1,3,3v5.12h-1.08V396.1a2.16,2.16,0,0,0-2.27-2.43,5,5,0,0,0-3.36,1.3v6h-1.07v-11.2h1.07Z"/><path class="cls-4" d="M471.9,396.94v.36h-7.13a3.17,3.17,0,0,0,3.21,3,3.82,3.82,0,0,0,2.71-1.1l.59.53a4.85,4.85,0,0,1-3.39,1.37,4.16,4.16,0,0,1-.08-8.32A3.94,3.94,0,0,1,471.9,396.94Zm-7.12-.21h6.11a3,3,0,0,0-3.06-3.16A3.11,3.11,0,0,0,464.78,396.73Z"/><path class="cls-4" d="M481.31,394.2a5.47,5.47,0,0,1,3.69-1.42,2.74,2.74,0,0,1,2.9,3v5.12h-1.08V396.1a2.13,2.13,0,0,0-2.2-2.43,4.78,4.78,0,0,0-3.15,1.2,4.37,4.37,0,0,1,.18,1.31v4.76h-1.08V396.1a2.13,2.13,0,0,0-2.2-2.43,4.2,4.2,0,0,0-3,1.22v6.05h-1.08v-8h1.08v1.22a5,5,0,0,1,3.39-1.38A2.64,2.64,0,0,1,481.31,394.2Z"/><path class="cls-4" d="M498.81,392.94v.84H496.2v4.39a1.92,1.92,0,0,0,2,2.05,2.39,2.39,0,0,0,1.15-.31l.18.76a3.69,3.69,0,0,1-1.69.43,2.58,2.58,0,0,1-2.67-2.77v-4.55h-1.48v-.84h1.48v-2.37h1.07v2.37Z"/><path class="cls-4" d="M509.47,396.94a4.35,4.35,0,1,1-4.34-4.16A4.25,4.25,0,0,1,509.47,396.94Zm-7.63,0a3.28,3.28,0,1,0,3.28-3.24A3.27,3.27,0,0,0,501.84,396.94Z"/><path class="cls-4" d="M520.12,392.94v.84h-2.6v4.39a1.91,1.91,0,0,0,2,2.05,2.36,2.36,0,0,0,1.15-.31l.19.76a3.76,3.76,0,0,1-1.7.43,2.58,2.58,0,0,1-2.67-2.77v-4.55H515v-.84h1.48v-2.37h1.08v2.37Z"/><path class="cls-4" d="M524.35,394.17a5.81,5.81,0,0,1,3.74-1.39,2.77,2.77,0,0,1,3,3v5.12H530V396.1a2.16,2.16,0,0,0-2.26-2.43,5,5,0,0,0-3.36,1.3v6h-1.08v-11.2h1.08Z"/><path class="cls-4" d="M541.6,396.94v.36h-7.13a3.16,3.16,0,0,0,3.2,3,3.84,3.84,0,0,0,2.72-1.1l.58.53a4.83,4.83,0,0,1-3.38,1.37,4.16,4.16,0,0,1-.08-8.32A3.94,3.94,0,0,1,541.6,396.94Zm-7.13-.21h6.11a3,3,0,0,0-3.05-3.16A3.11,3.11,0,0,0,534.47,396.73Z"/><path class="cls-4" d="M545.41,390.7a.61.61,0,0,1-.64.57.57.57,0,1,1,.64-.57Zm-1.18,10.24v-8h1.08v8Z"/><path class="cls-4" d="M553.17,393.67a5.24,5.24,0,0,0-3.77,1.68v5.59h-1.07v-8h1.07v1.54a5.31,5.31,0,0,1,3.77-1.7Z"/><path class="cls-4" d="M566.65,400.94h-1.08v-1.17a4.16,4.16,0,1,1,0-5.66v-4.37h1.08Zm-7-4a3.27,3.27,0,0,0,5.9,1.91V395a3.3,3.3,0,0,0-2.63-1.33A3.26,3.26,0,0,0,559.67,396.94Z"/><path class="cls-4" d="M571,390.7a.65.65,0,1,1-.64-.56A.6.6,0,0,1,571,390.7Zm-1.18,10.24v-8h1.08v8Z"/><path class="cls-4" d="M581.66,395.82v5.12h-1.08V396.1a2.16,2.16,0,0,0-2.27-2.43A5,5,0,0,0,575,395v6h-1.08v-8H575v1.23a5.8,5.8,0,0,1,3.73-1.39A2.78,2.78,0,0,1,581.66,395.82Z"/><path class="cls-4" d="M585.82,390.7a.65.65,0,1,1-.64-.56A.6.6,0,0,1,585.82,390.7Zm-1.17,10.24v-8h1.08v8Z"/><path class="cls-4" d="M596.52,395.82v5.12h-1.08V396.1a2.16,2.16,0,0,0-2.26-2.43,5,5,0,0,0-3.36,1.3v6h-1.08v-8h1.08v1.23a5.81,5.81,0,0,1,3.74-1.39A2.77,2.77,0,0,1,596.52,395.82Z"/><path class="cls-4" d="M606.1,394.06v-1.12h1.07v7.21c0,2.79-1.78,4.09-4.18,4.09a6.64,6.64,0,0,1-3.68-1.15l.35-.7a5.58,5.58,0,0,0,3.14,1,3,3,0,0,0,3.3-3.26v-.82a4,4,0,0,1-3.26,1.62,3.92,3.92,0,0,1-3.93-4.06,4,4,0,0,1,3.93-4.1A4.79,4.79,0,0,1,606.1,394.06ZM600,396.88a3.2,3.2,0,0,0,3.21,3.19,3.32,3.32,0,0,0,2.91-1.72v-3.41a4,4,0,0,0-2.91-1.24A3.2,3.2,0,0,0,600,396.88Z"/><path class="cls-4" d="M618.24,392.94v.84h-2.6v4.39a1.92,1.92,0,0,0,2,2.05,2.39,2.39,0,0,0,1.15-.31l.18.76a3.7,3.7,0,0,1-1.7.43,2.58,2.58,0,0,1-2.67-2.77v-4.55h-1.47v-.84h1.47v-2.37h1.08v2.37Z"/><path class="cls-4" d="M627.9,395.77v5.17h-1.08v-1a5.52,5.52,0,0,1-3.57,1.18,2.57,2.57,0,0,1-2.81-2.58c0-1.55,1.21-2.36,3.14-2.36h3.24v-.3c0-1.55-1-2.23-2.48-2.23a5,5,0,0,0-2.92,1l-.35-.69a6.15,6.15,0,0,1,3.52-1.14C626.49,392.78,627.9,393.67,627.9,395.77Zm-3.95.87c-1.53,0-2.45.6-2.45,1.78a2,2,0,0,0,2.17,2,4.94,4.94,0,0,0,3.15-1v-2.79Z"/><path class="cls-4" d="M631.75,394.11a4.16,4.16,0,1,1,0,5.66v1.17h-1.07v-11.2h1.07Zm0,.92v3.82a3.24,3.24,0,1,0,0-3.82Z"/><path class="cls-4" d="M641.34,400.94v-11.2h1.08v11.2Z"/><path class="cls-4" d="M653,396.94v.36h-7.13a3.16,3.16,0,0,0,3.2,3,3.84,3.84,0,0,0,2.72-1.1l.59.53A4.85,4.85,0,0,1,649,401.1a4.16,4.16,0,0,1-.08-8.32A3.94,3.94,0,0,1,653,396.94Zm-7.13-.21H652a3,3,0,0,0-3.05-3.16A3.11,3.11,0,0,0,645.84,396.73Z"/><path class="cls-4" d="M667.68,396.94a4.35,4.35,0,1,1-4.35-4.16A4.26,4.26,0,0,1,667.68,396.94Zm-7.64,0a3.28,3.28,0,1,0,3.28-3.24A3.27,3.27,0,0,0,660,396.94Z"/><path class="cls-4" d="M675,393.67a5.24,5.24,0,0,0-3.77,1.68v5.59h-1.08v-8h1.08v1.54a5.29,5.29,0,0,1,3.77-1.7Z"/><path class="cls-4" d="M682,394.11a4.16,4.16,0,1,1,0,5.66v1.17h-1.08v-11.2H682Zm0,.92v3.82a3.25,3.25,0,1,0,2.63-5.15A3.3,3.3,0,0,0,682,395Z"/><path class="cls-4" d="M698.38,395.77v5.17H697.3v-1a5.55,5.55,0,0,1-3.58,1.18,2.57,2.57,0,0,1-2.8-2.58c0-1.55,1.21-2.36,3.14-2.36h3.24v-.3c0-1.55-1-2.23-2.48-2.23a5,5,0,0,0-2.92,1l-.35-.69a6.15,6.15,0,0,1,3.52-1.14C697,392.78,698.38,393.67,698.38,395.77Zm-4,.87c-1.53,0-2.45.6-2.45,1.78a2,2,0,0,0,2.17,2,4.94,4.94,0,0,0,3.15-1v-2.79Z"/><path class="cls-4" d="M706,393.67a5.24,5.24,0,0,0-3.77,1.68v5.59h-1.08v-8h1.08v1.54a5.29,5.29,0,0,1,3.77-1.7Z"/><path class="cls-4" d="M708.4,400.53a.66.66,0,0,1-1.31,0,.66.66,0,0,1,1.31,0Z"/></g></g></svg>