<svg xmlns="http://www.w3.org/2000/svg" viewBox="0 0 1640 790"><defs><style>.cls-1{fill:#06a7e0;stroke-width:1.33px;opacity:0.9;}.cls-1,.cls-2,.cls-3{stroke:#fff;stroke-miterlimit:10;}.cls-2{fill:none;stroke-width:4.67px;}.cls-3{fill:#fff;stroke-width:2px;}.cls-4{fill:#231f20;}</style></defs><title>08_1640x790</title><g id="_12_1640x790" data-name="12_1640x790"><g id="_12_plus" class="svg-showtip" data-name="12_plus"><circle class="cls-1" cx="1073.74" cy="261.26" r="25"/><line class="cls-2" x1="1059.13" y1="261.26" x2="1088.36" y2="261.26"/><line class="cls-2" x1="1073.74" y1="275.87" x2="1073.74" y2="246.64"/></g><g id="_12_tooltip" class="svg-tooltip" data-name="12_tooltip"><path id="tooltip" class="cls-3" d="M1470.75,188.05H1099l-23,20-24-20h-39.53a3.27,3.27,0,0,1-3.26-3.26V88.36a3.27,3.27,0,0,1,3.26-3.26h458.27a3.27,3.27,0,0,1,3.26,3.26v96.43A3.27,3.27,0,0,1,1470.75,188.05Z"/><path class="cls-4" d="M1045.78,118.18v10.21h-1.16V118.18h-3.9v-1h9v1Z"/><path class="cls-4" d="M1053,121.61a5.89,5.89,0,0,1,3.74-1.38,2.77,2.77,0,0,1,3,3v5.13h-1.07v-4.85a2.16,2.16,0,0,0-2.27-2.43,5,5,0,0,0-3.36,1.3v6h-1.08V117.18H1053Z"/><path class="cls-4" d="M1070.2,124.39v.35h-7.13a3.18,3.18,0,0,0,3.2,3,3.85,3.85,0,0,0,2.72-1.11l.59.53a4.86,4.86,0,0,1-3.39,1.38,4.17,4.17,0,0,1-.08-8.33A3.94,3.94,0,0,1,1070.2,124.39Zm-7.13-.21h6.11a3,3,0,0,0-3-3.17A3.12,3.12,0,0,0,1063.07,124.18Z"/><path class="cls-4" d="M1077.57,125.23a2.16,2.16,0,0,0,2.26,2.43,5,5,0,0,0,3.36-1.3v-6h1.08v8h-1.08v-1.23a5.81,5.81,0,0,1-3.74,1.39,2.77,2.77,0,0,1-3-3v-5.13h1.08Z"/><path class="cls-4" d="M1092.81,121.07l-.38.68a5.55,5.55,0,0,0-2.78-.78c-1.05,0-2,.43-2,1.43,0,.63.37.94,2,1.37,2.07.55,3.4.82,3.4,2.54,0,1.52-1.44,2.25-3.17,2.24a6.68,6.68,0,0,1-3.6-1l.41-.65a6,6,0,0,0,3.18.91c1.16,0,2.18-.41,2.18-1.41,0-1.19-.86-1.29-2.64-1.76-1.94-.52-2.76-1-2.76-2.15,0-1.58,1.37-2.25,3-2.26A6.15,6.15,0,0,1,1092.81,121.07Z"/><path class="cls-4" d="M1103.3,124.39v.35h-7.13a3.19,3.19,0,0,0,3.21,3,3.83,3.83,0,0,0,2.71-1.11l.59.53a4.84,4.84,0,0,1-3.38,1.38,4.17,4.17,0,0,1-4.17-4.16,4.12,4.12,0,0,1,4.08-4.17A3.94,3.94,0,0,1,1103.3,124.39Zm-7.12-.21h6.11a3,3,0,0,0-3.06-3.17A3.12,3.12,0,0,0,1096.18,124.18Z"/><path class="cls-4" d="M1118,124.39a4.35,4.35,0,1,1-4.35-4.17A4.26,4.26,0,0,1,1118,124.39Zm-7.63,0a3.28,3.28,0,1,0,3.28-3.24A3.26,3.26,0,0,0,1110.38,124.39Z"/><path class="cls-4" d="M1125,117.26l-.16.69a2.72,2.72,0,0,0-.92-.17,1.89,1.89,0,0,0-1.93,2v.56h2.7v.84H1122v7.17h-1.08v-7.17h-1.38v-.84h1.38v-.59a2.58,2.58,0,0,1,2.72-2.77A4.2,4.2,0,0,1,1125,117.26Z"/><path class="cls-4" d="M1136.65,121.07l-.38.68a5.55,5.55,0,0,0-2.78-.78c-1,0-2,.43-2,1.43,0,.63.37.94,2,1.37,2.07.55,3.4.82,3.4,2.54,0,1.52-1.44,2.25-3.17,2.24a6.68,6.68,0,0,1-3.6-1l.41-.65a6,6,0,0,0,3.18.91c1.16,0,2.18-.41,2.18-1.41,0-1.19-.86-1.29-2.64-1.76-1.94-.52-2.76-1-2.76-2.15,0-1.58,1.37-2.25,3-2.26A6.15,6.15,0,0,1,1136.65,121.07Z"/><path class="cls-4" d="M1143.25,120.22a4.31,4.31,0,0,1,3.29,1.51l-.82.49a3.23,3.23,0,1,0,.09,4.23l.82.48a4.29,4.29,0,0,1-3.38,1.62,4.17,4.17,0,1,1,0-8.33Z"/><path class="cls-4" d="M1153.91,121.11a5.21,5.21,0,0,0-3.77,1.68v5.6h-1.08v-8h1.08v1.54a5.3,5.3,0,0,1,3.77-1.69Z"/><path class="cls-4" d="M1163.17,124.39v.35h-7.12a3.17,3.17,0,0,0,3.2,3,3.83,3.83,0,0,0,2.71-1.11l.59.53a4.84,4.84,0,0,1-3.38,1.38,4.17,4.17,0,0,1-.08-8.33A3.94,3.94,0,0,1,1163.17,124.39Zm-7.12-.21h6.11a3,3,0,0,0-3.06-3.17A3.12,3.12,0,0,0,1156.05,124.18Z"/><path class="cls-4" d="M1173.36,124.39v.35h-7.12a3.17,3.17,0,0,0,3.2,3,3.83,3.83,0,0,0,2.71-1.11l.59.53a4.84,4.84,0,0,1-3.38,1.38,4.17,4.17,0,0,1-.08-8.33A3.94,3.94,0,0,1,1173.36,124.39Zm-7.12-.21h6.11a3,3,0,0,0-3-3.17A3.12,3.12,0,0,0,1166.24,124.18Z"/><path class="cls-4" d="M1183.57,123.26v5.13h-1.08v-4.85a2.16,2.16,0,0,0-2.26-2.43,5,5,0,0,0-3.36,1.3v6h-1.08v-8h1.08v1.23a5.85,5.85,0,0,1,3.74-1.38A2.77,2.77,0,0,1,1183.57,123.26Z"/><path class="cls-4" d="M1192.11,121.07l-.38.68A5.58,5.58,0,0,0,1189,121c-1.06,0-2,.43-2,1.43,0,.63.37.94,2,1.37,2.08.55,3.41.82,3.41,2.54,0,1.52-1.44,2.25-3.18,2.24a6.62,6.62,0,0,1-3.59-1l.4-.65a6,6,0,0,0,3.19.91c1.15,0,2.17-.41,2.17-1.41,0-1.19-.85-1.29-2.64-1.76-1.94-.52-2.75-1-2.75-2.15,0-1.58,1.36-2.25,3-2.26A6.21,6.21,0,0,1,1192.11,121.07Z"/><path class="cls-4" d="M1207,124.39a4,4,0,0,1-4,4.16,4,4,0,0,1-3-1.34v4.3h-1.08V120.38H1200v1.18a4,4,0,0,1,7,2.83Zm-7-1.92v3.82a3.25,3.25,0,1,0,2.63-5.14A3.28,3.28,0,0,0,1200,122.47Z"/><path class="cls-4" d="M1214.37,121.11a5.22,5.22,0,0,0-3.77,1.68v5.6h-1.08v-8h1.08v1.54a5.32,5.32,0,0,1,3.77-1.69Z"/><path class="cls-4" d="M1224.15,124.39a4.35,4.35,0,1,1-4.34-4.17A4.26,4.26,0,0,1,1224.15,124.39Zm-7.63,0a3.28,3.28,0,1,0,3.28-3.24A3.26,3.26,0,0,0,1216.52,124.39Z"/><path class="cls-4" d="M1228.65,128.39l-3.52-8h1.15l3,6.91,3-6.91h1.15l-3.52,8Z"/><path class="cls-4" d="M1236.73,118.15a.65.65,0,1,1-.64-.57A.61.61,0,0,1,1236.73,118.15Zm-1.18,10.24v-8h1.08v8Z"/><path class="cls-4" d="M1247.28,128.39h-1.08v-1.18a4,4,0,0,1-3,1.34,4.17,4.17,0,1,1,3-7v-4.38h1.08Zm-7-4a3.27,3.27,0,0,0,5.9,1.9v-3.82a3.27,3.27,0,0,0-5.9,1.92Z"/><path class="cls-4" d="M1258,124.39v.35h-7.13a3.18,3.18,0,0,0,3.2,3,3.85,3.85,0,0,0,2.72-1.11l.59.53a4.86,4.86,0,0,1-3.39,1.38,4.17,4.17,0,0,1-.08-8.33A3.94,3.94,0,0,1,1258,124.39Zm-7.12-.21h6.1a3,3,0,0,0-3-3.17A3.11,3.11,0,0,0,1250.85,124.18Z"/><path class="cls-4" d="M1266.15,121.07l-.38.68A5.58,5.58,0,0,0,1263,121c-1,0-2,.43-2,1.43,0,.63.37.94,2,1.37,2.07.55,3.4.82,3.4,2.54,0,1.52-1.44,2.25-3.17,2.24a6.66,6.66,0,0,1-3.6-1l.41-.65a6,6,0,0,0,3.18.91c1.15,0,2.17-.41,2.17-1.41,0-1.19-.85-1.29-2.63-1.76-1.94-.52-2.76-1-2.76-2.15,0-1.58,1.37-2.25,3-2.26A6.15,6.15,0,0,1,1266.15,121.07Z"/><path class="cls-4" d="M1278.63,121.07l-.38.68a5.55,5.55,0,0,0-2.78-.78c-1,0-2,.43-2,1.43,0,.63.37.94,2,1.37,2.07.55,3.4.82,3.4,2.54,0,1.52-1.44,2.25-3.17,2.24a6.68,6.68,0,0,1-3.6-1l.41-.65a6,6,0,0,0,3.18.91c1.16,0,2.17-.41,2.17-1.41,0-1.19-.85-1.29-2.63-1.76-1.94-.52-2.76-1-2.76-2.15,0-1.58,1.37-2.25,3-2.26A6.15,6.15,0,0,1,1278.63,121.07Z"/><path class="cls-4" d="M1289.48,124.39a4,4,0,0,1-7,2.82v4.3h-1.07V120.38h1.07v1.18a4,4,0,0,1,7,2.83Zm-7-1.92v3.82a3.23,3.23,0,1,0,0-3.82Z"/><path class="cls-4" d="M1298.92,123.22v5.17h-1.08v-1a5.5,5.5,0,0,1-3.58,1.19,2.58,2.58,0,0,1-2.81-2.59c0-1.55,1.22-2.36,3.15-2.36h3.24v-.29c0-1.55-1-2.23-2.49-2.23a4.86,4.86,0,0,0-2.91,1l-.35-.7a6.1,6.1,0,0,1,3.52-1.13C1297.51,120.22,1298.92,121.12,1298.92,123.22Zm-4,.87c-1.52,0-2.44.59-2.44,1.78a2,2,0,0,0,2.16,2,5,5,0,0,0,3.16-1v-2.79Z"/><path class="cls-4" d="M1305.56,120.22a4.3,4.3,0,0,1,3.29,1.51l-.82.49a3.22,3.22,0,0,0-2.42-1.07,3.24,3.24,0,1,0,0,6.47,3.22,3.22,0,0,0,2.51-1.17l.83.48a4.3,4.3,0,0,1-3.39,1.62,4.17,4.17,0,1,1,0-8.33Z"/><path class="cls-4" d="M1319.14,124.39v.35H1312a3.18,3.18,0,0,0,3.2,3,3.85,3.85,0,0,0,2.72-1.11l.58.53a4.84,4.84,0,0,1-3.38,1.38,4.17,4.17,0,0,1-.08-8.33A4,4,0,0,1,1319.14,124.39Zm-7.13-.21h6.11a3,3,0,0,0-3-3.17A3.12,3.12,0,0,0,1312,124.18Z"/><path class="cls-4" d="M1333.2,128.39h-1.08v-1.18a4,4,0,0,1-3,1.34,4.17,4.17,0,1,1,3-7v-4.38h1.08Zm-7-4a3.27,3.27,0,0,0,5.9,1.9v-3.82a3.27,3.27,0,0,0-5.9,1.92Z"/><path class="cls-4" d="M1337.51,118.15a.61.61,0,0,1-.64.56.57.57,0,1,1,0-1.13A.61.61,0,0,1,1337.51,118.15Zm-1.18,10.24v-8h1.08v8Z"/><path class="cls-4" d="M1342.87,128.39l-3.52-8h1.16l3,6.91,3-6.91h1.15l-3.51,8Z"/><path class="cls-4" d="M1351,118.15a.61.61,0,0,1-.64.56.57.57,0,1,1,0-1.13A.61.61,0,0,1,1351,118.15Zm-1.18,10.24v-8h1.08v8Z"/><path class="cls-4" d="M1359.62,121.07l-.38.68a5.55,5.55,0,0,0-2.78-.78c-1,0-2,.43-2,1.43,0,.63.37.94,2,1.37,2.07.55,3.4.82,3.4,2.54,0,1.52-1.44,2.25-3.17,2.24a6.68,6.68,0,0,1-3.6-1l.41-.65a6,6,0,0,0,3.19.91c1.15,0,2.17-.41,2.17-1.41,0-1.19-.86-1.29-2.64-1.76-1.94-.52-2.76-1-2.76-2.15,0-1.58,1.37-2.25,3-2.26A6.15,6.15,0,0,1,1359.62,121.07Z"/><path class="cls-4" d="M1363.73,118.15a.6.6,0,0,1-.64.56.57.57,0,1,1,.64-.56Zm-1.17,10.24v-8h1.08v8Z"/><path class="cls-4" d="M1374.93,124.39a4.35,4.35,0,1,1-4.34-4.17A4.26,4.26,0,0,1,1374.93,124.39Zm-7.63,0a3.28,3.28,0,1,0,3.28-3.24A3.26,3.26,0,0,0,1367.3,124.39Z"/><path class="cls-4" d="M1385.23,123.26v5.13h-1.08v-4.85a2.16,2.16,0,0,0-2.26-2.43,5,5,0,0,0-3.36,1.3v6h-1.08v-8h1.08v1.23a5.85,5.85,0,0,1,3.74-1.38A2.77,2.77,0,0,1,1385.23,123.26Z"/><path class="cls-4" d="M1393.77,121.07l-.38.68a5.58,5.58,0,0,0-2.78-.78c-1.06,0-2,.43-2,1.43,0,.63.37.94,2,1.37,2.07.55,3.41.82,3.41,2.54,0,1.52-1.44,2.25-3.18,2.24a6.62,6.62,0,0,1-3.59-1l.4-.65a6,6,0,0,0,3.19.91c1.15,0,2.17-.41,2.17-1.41,0-1.19-.85-1.29-2.64-1.76-1.94-.52-2.75-1-2.75-2.15,0-1.58,1.36-2.25,3-2.26A6.21,6.21,0,0,1,1393.77,121.07Z"/><path class="cls-4" d="M1397.26,128a.51.51,0,0,1-.1.3l-1.33,2.06-.37-.16.85-1.67a.58.58,0,0,1-.37-.53.66.66,0,0,1,1.32,0Z"/><path class="cls-4" d="M1411.54,124.39a4,4,0,0,1-4,4.16,4,4,0,0,1-3-1.34v4.3h-1.08V120.38h1.08v1.18a4,4,0,0,1,7,2.83Zm-7-1.92v3.82a3.23,3.23,0,1,0,0-3.82Z"/><path class="cls-4" d="M1419,121.11a5.24,5.24,0,0,0-3.77,1.68v5.6h-1.07v-8h1.07v1.54a5.34,5.34,0,0,1,3.77-1.69Z"/><path class="cls-4" d="M1422.18,118.15a.61.61,0,0,1-.64.56.57.57,0,1,1,0-1.13A.61.61,0,0,1,1422.18,118.15ZM1421,128.39v-8h1.08v8Z"/><path class="cls-4" d="M1424.34,124.69v-.92h5.48v.92Z"/><path class="cls-4" d="M1044,151.39l-3.51-8h1.15l3,6.91,3-6.91h1.16l-3.52,8Z"/><path class="cls-4" d="M1057.26,146.22v5.17h-1.08v-1a5.5,5.5,0,0,1-3.58,1.19,2.57,2.57,0,0,1-2.8-2.59c0-1.55,1.21-2.36,3.14-2.36h3.24v-.29c0-1.55-1-2.23-2.48-2.23a4.86,4.86,0,0,0-2.92,1l-.35-.7a6.1,6.1,0,0,1,3.52-1.13C1055.85,143.22,1057.26,144.12,1057.26,146.22Zm-4,.87c-1.53,0-2.45.59-2.45,1.78a2,2,0,0,0,2.17,2,5,5,0,0,0,3.15-1v-2.79Z"/><path class="cls-4" d="M1063.9,143.22a4.3,4.3,0,0,1,3.29,1.51l-.81.49a3.23,3.23,0,1,0,.09,4.23l.82.48a4.3,4.3,0,0,1-3.39,1.62,4.17,4.17,0,1,1,0-8.33Z"/><path class="cls-4" d="M1073.16,152.21c-.82,1.91-1.79,2.45-3,2.46a4.52,4.52,0,0,1-1.56-.32l.31-.73a2.92,2.92,0,0,0,1.16.23c.81,0,1.45-.42,2.09-1.82l.18-.39-3.67-8.26h1.14l3,6.91,2.9-6.91h1.12Z"/><path class="cls-4" d="M1079.17,151a.51.51,0,0,1-.1.3l-1.33,2.06-.37-.16.85-1.67a.58.58,0,0,1-.37-.53.66.66,0,0,1,1.32,0Z"/><path class="cls-4" d="M1092.27,146.22v5.17h-1.08v-1a5.5,5.5,0,0,1-3.58,1.19,2.58,2.58,0,0,1-2.81-2.59c0-1.55,1.22-2.36,3.15-2.36h3.24v-.29c0-1.55-1-2.23-2.49-2.23a4.89,4.89,0,0,0-2.92,1l-.35-.7a6.15,6.15,0,0,1,3.53-1.13C1090.86,143.22,1092.27,144.12,1092.27,146.22Zm-4,.87c-1.52,0-2.44.59-2.44,1.78a2,2,0,0,0,2.16,2,5,5,0,0,0,3.16-1v-2.79Z"/><path class="cls-4" d="M1102.82,146.26v5.13h-1.08v-4.85a2.16,2.16,0,0,0-2.26-2.43,5,5,0,0,0-3.36,1.3v6H1095v-8h1.08v1.23a5.85,5.85,0,0,1,3.74-1.38A2.77,2.77,0,0,1,1102.82,146.26Z"/><path class="cls-4" d="M1113.23,151.39h-1.08v-1.18a4,4,0,0,1-3,1.34,4.17,4.17,0,1,1,3-7v-4.38h1.08Zm-7-4a3.27,3.27,0,0,0,5.9,1.9v-3.82a3.27,3.27,0,0,0-5.9,1.92Z"/><path class="cls-4" d="M1122.6,151.39l-3.52-8h1.16l3,6.91,3-6.91h1.15l-3.51,8Z"/><path class="cls-4" d="M1130.68,141.15a.64.64,0,1,1-.64-.57A.6.6,0,0,1,1130.68,141.15Zm-1.17,10.24v-8h1.07v8Z"/><path class="cls-4" d="M1139.35,144.07l-.38.68a5.55,5.55,0,0,0-2.78-.78c-1,0-2,.43-2,1.43,0,.63.37.94,2,1.37,2.07.55,3.41.82,3.41,2.54,0,1.52-1.45,2.25-3.18,2.24a6.68,6.68,0,0,1-3.6-1l.41-.65a6,6,0,0,0,3.19.91c1.15,0,2.17-.41,2.17-1.41,0-1.19-.86-1.29-2.64-1.76-1.94-.52-2.76-1-2.76-2.15,0-1.58,1.37-2.25,3-2.26A6.15,6.15,0,0,1,1139.35,144.07Z"/><path class="cls-4" d="M1143.46,141.15a.6.6,0,0,1-.64.56.57.57,0,1,1,.64-.56Zm-1.17,10.24v-8h1.08v8Z"/><path class="cls-4" d="M1147.46,144.56a4.09,4.09,0,1,1,3,7,4,4,0,0,1-3-1.34v1.18h-1.08V140.18h1.08Zm0,.91v3.82a3.25,3.25,0,1,0,2.63-5.14A3.29,3.29,0,0,0,1147.46,145.47Z"/><path class="cls-4" d="M1157,151.39V140.18h1.08v11.21Z"/><path class="cls-4" d="M1168.67,147.39v.35h-7.12a3.17,3.17,0,0,0,3.2,3,3.83,3.83,0,0,0,2.71-1.11l.59.53a4.84,4.84,0,0,1-3.38,1.38,4.17,4.17,0,0,1-.08-8.33A3.94,3.94,0,0,1,1168.67,147.39Zm-7.12-.21h6.11a3,3,0,0,0-3.06-3.17A3.12,3.12,0,0,0,1161.55,147.18Z"/><path class="cls-4" d="M1179,143.22a4.3,4.3,0,0,1,3.29,1.51l-.82.49a3.22,3.22,0,0,0-2.42-1.07,3.24,3.24,0,1,0,0,6.47,3.22,3.22,0,0,0,2.51-1.17l.83.48a4.3,4.3,0,0,1-3.39,1.62,4.17,4.17,0,1,1,0-8.33Z"/><path class="cls-4" d="M1193.06,147.39a4.35,4.35,0,1,1-4.34-4.17A4.26,4.26,0,0,1,1193.06,147.39Zm-7.63,0a3.28,3.28,0,1,0,3.28-3.24A3.26,3.26,0,0,0,1185.43,147.39Z"/><path class="cls-4" d="M1203.36,146.26v5.13h-1.08v-4.85a2.16,2.16,0,0,0-2.26-2.43,5,5,0,0,0-3.36,1.3v6h-1.08v-8h1.08v1.23a5.85,5.85,0,0,1,3.74-1.38A2.77,2.77,0,0,1,1203.36,146.26Z"/><path class="cls-4" d="M1213.92,146.26v5.13h-1.08v-4.85a2.16,2.16,0,0,0-2.26-2.43,5,5,0,0,0-3.36,1.3v6h-1.08v-8h1.08v1.23a5.85,5.85,0,0,1,3.74-1.38A2.77,2.77,0,0,1,1213.92,146.26Z"/><path class="cls-4" d="M1224.47,147.39v.35h-7.13a3.18,3.18,0,0,0,3.2,3,3.87,3.87,0,0,0,2.72-1.11l.58.53a4.84,4.84,0,0,1-3.38,1.38,4.17,4.17,0,0,1-.08-8.33A4,4,0,0,1,1224.47,147.39Zm-7.13-.21h6.11a3,3,0,0,0-3-3.17A3.12,3.12,0,0,0,1217.34,147.18Z"/><path class="cls-4" d="M1230.76,143.22a4.3,4.3,0,0,1,3.29,1.51l-.81.49a3.23,3.23,0,1,0,.09,4.23l.82.48a4.3,4.3,0,0,1-3.39,1.62,4.17,4.17,0,1,1,0-8.33Z"/><path class="cls-4" d="M1240.7,143.38v.84h-2.6v4.39a1.91,1.91,0,0,0,2,2,2.35,2.35,0,0,0,1.15-.3l.19.75a3.87,3.87,0,0,1-1.7.44,2.59,2.59,0,0,1-2.67-2.78v-4.55h-1.48v-.84H1237V141h1.08v2.37Z"/><path class="cls-4" d="M1245.16,141.15a.61.61,0,0,1-.64.56.57.57,0,1,1,0-1.13A.61.61,0,0,1,1245.16,141.15ZM1244,151.39v-8h1.08v8Z"/><path class="cls-4" d="M1250.52,151.39l-3.52-8h1.16l3,6.91,3-6.91h1.15l-3.52,8Z"/><path class="cls-4" d="M1258.6,141.15a.65.65,0,1,1-.64-.57A.61.61,0,0,1,1258.6,141.15Zm-1.18,10.24v-8h1.08v8Z"/><path class="cls-4" d="M1265.64,143.38v.84H1263v4.39a1.92,1.92,0,0,0,2,2,2.41,2.41,0,0,0,1.15-.3l.18.75a3.84,3.84,0,0,1-1.7.44,2.59,2.59,0,0,1-2.67-2.78v-4.55h-1.47v-.84H1262V141H1263v2.37Z"/><path class="cls-4" d="M1272.1,152.21c-.82,1.91-1.79,2.45-3,2.46a4.52,4.52,0,0,1-1.56-.32l.31-.73a2.92,2.92,0,0,0,1.16.23c.81,0,1.44-.42,2.09-1.82l.18-.39-3.67-8.26h1.14l3,6.91,2.9-6.91h1.12Z"/><path class="cls-4" d="M1277.9,151a.66.66,0,1,1-.66-.59A.62.62,0,0,1,1277.9,151Z"/></g></g></svg>