<svg xmlns="http://www.w3.org/2000/svg" viewBox="0 0 1640 790"><defs><style>.cls-1{fill:#06a7e0;stroke-width:1.33px;opacity:0.9;}.cls-1,.cls-2,.cls-3{stroke:#fff;stroke-miterlimit:10;}.cls-2{fill:none;stroke-width:4.67px;}.cls-3{fill:#fff;stroke-width:2px;}.cls-4{fill:#231f20;}</style></defs><title>09_1640x790</title><g id="_13_1640x790" data-name="13_1640x790"><g id="_13_plus" class="svg-showtip" data-name="13_plus"><circle class="cls-1" cx="1073.74" cy="201.21" r="25"/><line class="cls-2" x1="1059.13" y1="201.21" x2="1088.36" y2="201.21"/><line class="cls-2" x1="1073.74" y1="215.82" x2="1073.74" y2="186.59"/></g><g id="_13_tooltip" class="svg-tooltip" data-name="13_tooltip"><path id="tooltip" class="cls-3" d="M1470.75,128H1099l-23,20-24-20h-39.53a3.27,3.27,0,0,1-3.26-3.26V28.31a3.27,3.27,0,0,1,3.26-3.26h458.27a3.27,3.27,0,0,1,3.26,3.26v96.44A3.27,3.27,0,0,1,1470.75,128Z"/><path class="cls-4" d="M1050,58.15l-.5.9a8,8,0,0,0-4-1.08c-1.49,0-2.76.59-2.76,2,0,.9.53,1.33,2.89,2,2.87.77,4.68,1.12,4.68,3.45,0,2.09-2,3.12-4.35,3.12a9.13,9.13,0,0,1-4.94-1.39l.53-.86a8.78,8.78,0,0,0,4.53,1.25c1.6,0,3-.62,3-2,0-1.66-1.18-1.81-3.79-2.49s-3.81-1.32-3.81-2.91c0-2.19,1.89-3.13,4.11-3.13A8.58,8.58,0,0,1,1050,58.15Z"/><path class="cls-4" d="M1056.91,60.34v.84h-2.6v4.38a1.91,1.91,0,0,0,2,2,2.41,2.41,0,0,0,1.15-.3l.18.75a3.59,3.59,0,0,1-1.7.44,2.58,2.58,0,0,1-2.67-2.77V61.18h-1.47v-.84h1.47V58h1.08v2.37Z"/><path class="cls-4" d="M1066.57,63.17v5.17h-1.08v-1a5.52,5.52,0,0,1-3.57,1.18,2.57,2.57,0,0,1-2.81-2.58c0-1.56,1.21-2.36,3.14-2.37h3.24v-.29c0-1.55-1-2.23-2.48-2.23a4.93,4.93,0,0,0-2.92,1l-.35-.7a6.14,6.14,0,0,1,3.52-1.13C1065.16,60.17,1066.57,61.07,1066.57,63.17Zm-4,.87c-1.53,0-2.45.6-2.45,1.78a2,2,0,0,0,2.17,2,4.94,4.94,0,0,0,3.15-1V64Z"/><path class="cls-4" d="M1072.69,69.16c-.81,1.92-1.78,2.45-3,2.46a4.06,4.06,0,0,1-1.56-.32l.31-.73a2.76,2.76,0,0,0,1.16.23c.81,0,1.44-.42,2.09-1.81l.18-.4-3.67-8.25h1.14l3,6.91,2.89-6.91h1.13Z"/><path class="cls-4" d="M1086.14,60.18a4.29,4.29,0,0,1,3.29,1.5l-.81.49a3.24,3.24,0,1,0,.09,4.24l.82.48a4.32,4.32,0,0,1-3.39,1.61,4.16,4.16,0,1,1,0-8.32Z"/><path class="cls-4" d="M1096.8,61.06a5.23,5.23,0,0,0-3.77,1.69v5.59H1092v-8H1093v1.54a5.29,5.29,0,0,1,3.77-1.7Z"/><path class="cls-4" d="M1106.07,64.34v.36h-7.13a3.16,3.16,0,0,0,3.2,3,3.84,3.84,0,0,0,2.72-1.1l.59.53a4.85,4.85,0,0,1-3.39,1.37,4.17,4.17,0,0,1-4.17-4.16,4.12,4.12,0,0,1,4.09-4.16A3.93,3.93,0,0,1,1106.07,64.34Zm-7.12-.21h6.11A3,3,0,0,0,1102,61,3.11,3.11,0,0,0,1099,64.13Z"/><path class="cls-4" d="M1115.44,63.17v5.17h-1.08v-1a5.55,5.55,0,0,1-3.58,1.18,2.57,2.57,0,0,1-2.81-2.58c0-1.56,1.21-2.36,3.14-2.37h3.25v-.29c0-1.55-1-2.23-2.49-2.23a4.93,4.93,0,0,0-2.92,1l-.35-.7a6.15,6.15,0,0,1,3.53-1.13C1114,60.17,1115.44,61.07,1115.44,63.17Zm-4,.87c-1.53,0-2.44.6-2.44,1.78a2,2,0,0,0,2.16,2,5,5,0,0,0,3.16-1V64Z"/><path class="cls-4" d="M1122.34,60.34v.84h-2.61v4.38a1.92,1.92,0,0,0,2,2,2.38,2.38,0,0,0,1.15-.3l.18.75a3.58,3.58,0,0,1-1.69.44,2.59,2.59,0,0,1-2.68-2.77V61.18h-1.47v-.84h1.47V58h1.08v2.37Z"/><path class="cls-4" d="M1126.79,58.1a.6.6,0,0,1-.64.57.57.57,0,1,1,0-1.13A.6.6,0,0,1,1126.79,58.1Zm-1.17,10.24v-8h1.08v8Z"/><path class="cls-4" d="M1132.15,68.34l-3.51-8h1.15l3,6.91,3-6.91H1137l-3.52,8Z"/><path class="cls-4" d="M1146.21,64.34v.36h-7.13a3.17,3.17,0,0,0,3.21,3,3.82,3.82,0,0,0,2.71-1.1l.59.53a4.83,4.83,0,0,1-3.38,1.37,4.17,4.17,0,0,1-4.17-4.16,4.11,4.11,0,0,1,4.08-4.16A3.93,3.93,0,0,1,1146.21,64.34Zm-7.12-.21h6.11a3,3,0,0,0-3.06-3.16A3.11,3.11,0,0,0,1139.09,64.13Z"/><path class="cls-4" d="M1159.58,63.17v5.17h-1.08v-1a5.55,5.55,0,0,1-3.58,1.18,2.58,2.58,0,0,1-2.81-2.58c0-1.56,1.22-2.36,3.15-2.37h3.24v-.29c0-1.55-1-2.23-2.49-2.23a4.92,4.92,0,0,0-2.91,1l-.35-.7a6.1,6.1,0,0,1,3.52-1.13C1158.17,60.17,1159.58,61.07,1159.58,63.17Zm-4,.87c-1.52,0-2.44.6-2.44,1.78a2,2,0,0,0,2.16,2,5,5,0,0,0,3.16-1V64Z"/><path class="cls-4" d="M1170.13,63.21v5.13h-1.08V63.5a2.17,2.17,0,0,0-2.26-2.44,4.92,4.92,0,0,0-3.36,1.31v6h-1.08v-8h1.08v1.23a5.81,5.81,0,0,1,3.74-1.39A2.77,2.77,0,0,1,1170.13,63.21Z"/><path class="cls-4" d="M1180.54,68.34h-1.07V67.17a4.16,4.16,0,1,1,0-5.66V57.14h1.07Zm-7-4a3.26,3.26,0,0,0,3.27,3.24,3.3,3.3,0,0,0,2.64-1.33V62.42a3.28,3.28,0,0,0-5.91,1.92Z"/><path class="cls-4" d="M1193.23,61l-.38.67a5.47,5.47,0,0,0-2.78-.77c-1.06,0-2,.42-2,1.42,0,.63.37.94,2,1.37,2.07.55,3.41.82,3.41,2.54,0,1.52-1.44,2.25-3.18,2.24a6.62,6.62,0,0,1-3.59-1l.4-.65a6,6,0,0,0,3.19.91c1.15,0,2.17-.41,2.17-1.41,0-1.18-.85-1.28-2.64-1.76s-2.75-1-2.75-2.15c0-1.58,1.36-2.25,3-2.25A6.11,6.11,0,0,1,1193.23,61Z"/><path class="cls-4" d="M1204.23,64.34a4.35,4.35,0,1,1-4.34-4.16A4.26,4.26,0,0,1,1204.23,64.34Zm-7.63,0a3.28,3.28,0,1,0,3.28-3.24A3.27,3.27,0,0,0,1196.6,64.34Z"/><path class="cls-4" d="M1214.87,64.34a4,4,0,0,1-7,2.83v4.29h-1.08V60.34h1.08v1.17a4,4,0,0,1,7,2.83Zm-7-1.92v3.83a3.24,3.24,0,1,0,0-3.83Z"/><path class="cls-4" d="M1218.6,61.57a5.8,5.8,0,0,1,3.73-1.39,2.77,2.77,0,0,1,3,3v5.13h-1.08V63.5a2.17,2.17,0,0,0-2.27-2.44,4.91,4.91,0,0,0-3.35,1.31v6h-1.08V57.14h1.08Z"/><path class="cls-4" d="M1229.46,58.1a.6.6,0,0,1-.64.57.57.57,0,1,1,0-1.13A.6.6,0,0,1,1229.46,58.1Zm-1.17,10.24v-8h1.08v8Z"/><path class="cls-4" d="M1238.14,61l-.38.67a5.47,5.47,0,0,0-2.78-.77c-1.06,0-2,.42-2,1.42,0,.63.37.94,2,1.37,2.08.55,3.41.82,3.41,2.54,0,1.52-1.44,2.25-3.18,2.24a6.62,6.62,0,0,1-3.59-1l.4-.65a6,6,0,0,0,3.19.91c1.15,0,2.17-.41,2.17-1.41,0-1.18-.85-1.28-2.64-1.76-1.94-.52-2.75-1-2.75-2.15,0-1.58,1.36-2.25,3-2.25A6.11,6.11,0,0,1,1238.14,61Z"/><path class="cls-4" d="M1245,60.34v.84h-2.6v4.38a1.91,1.91,0,0,0,1.95,2,2.35,2.35,0,0,0,1.15-.3l.19.75a3.65,3.65,0,0,1-1.7.44,2.58,2.58,0,0,1-2.67-2.77V61.18h-1.48v-.84h1.48V58h1.08v2.37Z"/><path class="cls-4" d="M1249.45,58.1a.65.65,0,1,1-.64-.56A.61.61,0,0,1,1249.45,58.1Zm-1.18,10.24v-8h1.08v8Z"/><path class="cls-4" d="M1256.24,60.18a4.27,4.27,0,0,1,3.28,1.5l-.81.49a3.24,3.24,0,1,0,.09,4.24l.82.48a4.32,4.32,0,0,1-3.38,1.61,4.16,4.16,0,1,1,0-8.32Z"/><path class="cls-4" d="M1269,63.17v5.17h-1.08v-1a5.57,5.57,0,0,1-3.58,1.18,2.57,2.57,0,0,1-2.81-2.58c0-1.56,1.21-2.36,3.14-2.37h3.25v-.29c0-1.55-1-2.23-2.49-2.23a4.93,4.93,0,0,0-2.92,1l-.35-.7a6.15,6.15,0,0,1,3.53-1.13C1267.58,60.17,1269,61.07,1269,63.17Zm-4,.87c-1.53,0-2.44.6-2.44,1.78a2,2,0,0,0,2.16,2,5,5,0,0,0,3.16-1V64Z"/><path class="cls-4" d="M1275.89,60.34v.84h-2.61v4.38a1.92,1.92,0,0,0,2,2,2.38,2.38,0,0,0,1.15-.3l.18.75a3.58,3.58,0,0,1-1.69.44,2.59,2.59,0,0,1-2.68-2.77V61.18h-1.47v-.84h1.47V58h1.08v2.37Z"/><path class="cls-4" d="M1286,64.34v.36h-7.12a3.16,3.16,0,0,0,3.2,3,3.82,3.82,0,0,0,2.71-1.1l.59.53A4.83,4.83,0,0,1,1282,68.5a4.17,4.17,0,0,1-4.17-4.16,4.12,4.12,0,0,1,4.09-4.16A3.93,3.93,0,0,1,1286,64.34Zm-7.12-.21H1285a3,3,0,0,0-3-3.16A3.11,3.11,0,0,0,1278.91,64.13Z"/><path class="cls-4" d="M1296.1,68.34H1295V67.17a4.16,4.16,0,1,1,0-5.66V57.14h1.08Zm-7-4a3.28,3.28,0,0,0,5.91,1.91V62.42a3.28,3.28,0,0,0-5.91,1.92Z"/><path class="cls-4" d="M1310.31,68.34l-2.18-6.49L1306,68.34h-1.2l-2.82-8H1303l2.38,6.85,2.26-6.85h.93l2.26,6.85,2.38-6.85h1.08l-2.82,8Z"/><path class="cls-4" d="M1317.31,61.57a5.85,5.85,0,0,1,3.74-1.39,2.77,2.77,0,0,1,3,3v5.13h-1.08V63.5a2.17,2.17,0,0,0-2.27-2.44,5,5,0,0,0-3.36,1.31v6h-1.07V57.14h1.07Z"/><path class="cls-4" d="M1334.56,64.34v.36h-7.13a3.17,3.17,0,0,0,3.21,3,3.83,3.83,0,0,0,2.71-1.1l.59.53a4.85,4.85,0,0,1-3.39,1.37,4.17,4.17,0,0,1-4.17-4.16,4.12,4.12,0,0,1,4.09-4.16A3.93,3.93,0,0,1,1334.56,64.34Zm-7.12-.21h6.11a3,3,0,0,0-3.06-3.16A3.11,3.11,0,0,0,1327.44,64.13Z"/><path class="cls-4" d="M1344.77,63.21v5.13h-1.08V63.5a2.17,2.17,0,0,0-2.27-2.44,4.91,4.91,0,0,0-3.35,1.31v6H1337v-8h1.08v1.23a5.81,5.81,0,0,1,3.74-1.39A2.77,2.77,0,0,1,1344.77,63.21Z"/><path class="cls-4" d="M1357.3,61l-.38.67a5.44,5.44,0,0,0-2.78-.77c-1.05,0-2,.42-2,1.42,0,.63.37.94,2,1.37,2.07.55,3.4.82,3.4,2.54,0,1.52-1.44,2.25-3.17,2.24a6.68,6.68,0,0,1-3.6-1l.41-.65a5.93,5.93,0,0,0,3.18.91c1.16,0,2.18-.41,2.18-1.41,0-1.18-.86-1.28-2.64-1.76-1.94-.52-2.76-1-2.76-2.15,0-1.58,1.37-2.25,3-2.25A6.05,6.05,0,0,1,1357.3,61Z"/><path class="cls-4" d="M1367.79,64.34v.36h-7.13a3.17,3.17,0,0,0,3.21,3,3.82,3.82,0,0,0,2.71-1.1l.59.53a4.83,4.83,0,0,1-3.38,1.37,4.17,4.17,0,0,1-4.17-4.16,4.11,4.11,0,0,1,4.08-4.16A3.93,3.93,0,0,1,1367.79,64.34Zm-7.12-.21h6.11a3,3,0,0,0-3.06-3.16A3.11,3.11,0,0,0,1360.67,64.13Z"/><path class="cls-4" d="M1370.32,68.34V57.13h1.08V68.34Z"/><path class="cls-4" d="M1382,64.34v.36h-7.13a3.17,3.17,0,0,0,3.21,3,3.82,3.82,0,0,0,2.71-1.1l.59.53a4.85,4.85,0,0,1-3.39,1.37,4.17,4.17,0,0,1-4.17-4.16,4.12,4.12,0,0,1,4.09-4.16A3.93,3.93,0,0,1,1382,64.34Zm-7.12-.21h6.11a3,3,0,0,0-3.06-3.16A3.11,3.11,0,0,0,1374.83,64.13Z"/><path class="cls-4" d="M1388.25,60.18a4.3,4.3,0,0,1,3.29,1.5l-.82.49a3.24,3.24,0,1,0,.09,4.24l.82.48a4.3,4.3,0,0,1-3.38,1.61,4.16,4.16,0,1,1,0-8.32Z"/><path class="cls-4" d="M1398.19,60.34v.84h-2.61v4.38a1.92,1.92,0,0,0,2,2,2.38,2.38,0,0,0,1.15-.3l.18.75a3.58,3.58,0,0,1-1.69.44,2.58,2.58,0,0,1-2.67-2.77V61.18H1393v-.84h1.48V58h1.07v2.37Z"/><path class="cls-4" d="M1402.64,58.1a.6.6,0,0,1-.64.57.57.57,0,1,1,0-1.13A.6.6,0,0,1,1402.64,58.1Zm-1.17,10.24v-8h1.08v8Z"/><path class="cls-4" d="M1413.34,63.21v5.13h-1.08V63.5a2.16,2.16,0,0,0-2.26-2.44,4.94,4.94,0,0,0-3.36,1.31v6h-1.08v-8h1.08v1.23a5.85,5.85,0,0,1,3.74-1.39A2.77,2.77,0,0,1,1413.34,63.21Z"/><path class="cls-4" d="M1422.92,61.46V60.34H1424v7.2c0,2.8-1.78,4.1-4.18,4.1a6.64,6.64,0,0,1-3.69-1.15l.35-.71a5.59,5.59,0,0,0,3.14,1,3,3,0,0,0,3.3-3.26v-.82a4,4,0,0,1-3.26,1.62,3.92,3.92,0,0,1-3.93-4.06,4,4,0,0,1,3.93-4.1A4.76,4.76,0,0,1,1422.92,61.46Zm-6.12,2.82a3.2,3.2,0,0,0,3.21,3.18,3.33,3.33,0,0,0,2.91-1.71V62.34A4,4,0,0,0,1420,61.1,3.2,3.2,0,0,0,1416.8,64.28Z"/><path class="cls-4" d="M1046,80.21l-.16.7a2.5,2.5,0,0,0-.91-.18,1.91,1.91,0,0,0-1.94,2v.57h6.23v8h-1.08V84.18H1043v7.16h-1.08V84.18h-1.38v-.84h1.38v-.6A2.58,2.58,0,0,1,1044.6,80,4.41,4.41,0,0,1,1046,80.21Z"/><path class="cls-4" d="M1060,86.21v5.13h-1.07V86.5a2.17,2.17,0,0,0-2.27-2.44,4.94,4.94,0,0,0-3.36,1.31v6h-1.08v-8h1.08v1.23a5.85,5.85,0,0,1,3.74-1.39A2.77,2.77,0,0,1,1060,86.21Z"/><path class="cls-4" d="M1064.14,81.1a.61.61,0,0,1-.64.57.57.57,0,1,1,.64-.57ZM1063,91.34v-8H1064v8Z"/><path class="cls-4" d="M1072.81,84l-.38.67a5.44,5.44,0,0,0-2.78-.77c-1.05,0-2,.42-2,1.42,0,.63.37.94,2,1.37,2.07.55,3.4.82,3.4,2.54,0,1.52-1.44,2.25-3.17,2.24a6.68,6.68,0,0,1-3.6-1l.41-.65a5.93,5.93,0,0,0,3.18.91c1.16,0,2.18-.41,2.18-1.41,0-1.18-.86-1.28-2.64-1.76-1.94-.52-2.76-1-2.76-2.15,0-1.58,1.37-2.25,3-2.25A6.05,6.05,0,0,1,1072.81,84Z"/><path class="cls-4" d="M1076.7,84.57a5.8,5.8,0,0,1,3.73-1.39,2.77,2.77,0,0,1,3,3v5.13h-1.08V86.5a2.17,2.17,0,0,0-2.27-2.44,4.91,4.91,0,0,0-3.35,1.31v6h-1.08V80.14h1.08Z"/><path class="cls-4" d="M1093.94,87.34v.36h-7.13a3.17,3.17,0,0,0,3.21,3,3.82,3.82,0,0,0,2.71-1.1l.59.53a4.83,4.83,0,0,1-3.38,1.37,4.17,4.17,0,0,1-4.18-4.16,4.12,4.12,0,0,1,4.09-4.16A3.93,3.93,0,0,1,1093.94,87.34Zm-7.12-.21h6.11a3,3,0,0,0-3.06-3.16A3.11,3.11,0,0,0,1086.82,87.13Z"/><path class="cls-4" d="M1102.13,84l-.38.67a5.49,5.49,0,0,0-2.78-.77c-1.06,0-2,.42-2,1.42,0,.63.37.94,2,1.37,2.07.55,3.41.82,3.41,2.54,0,1.52-1.44,2.25-3.18,2.24a6.62,6.62,0,0,1-3.59-1l.4-.65a6,6,0,0,0,3.19.91c1.15,0,2.17-.41,2.17-1.41,0-1.18-.85-1.28-2.64-1.76-1.94-.52-2.76-1-2.76-2.15,0-1.58,1.37-2.25,3-2.25A6.11,6.11,0,0,1,1102.13,84Z"/><path class="cls-4" d="M1113,83.34v.84h-2.61v4.38a1.92,1.92,0,0,0,2,2,2.35,2.35,0,0,0,1.15-.3l.18.75a3.58,3.58,0,0,1-1.69.44,2.58,2.58,0,0,1-2.67-2.77V84.18h-1.48v-.84h1.48V81h1.08v2.37Z"/><path class="cls-4" d="M1117.21,84.57a5.81,5.81,0,0,1,3.74-1.39,2.77,2.77,0,0,1,3,3v5.13h-1.08V86.5a2.17,2.17,0,0,0-2.26-2.44,4.92,4.92,0,0,0-3.36,1.31v6h-1.08V80.14h1.08Z"/><path class="cls-4" d="M1131.54,84.06a5.23,5.23,0,0,0-3.77,1.69v5.59h-1.08v-8h1.08v1.54a5.29,5.29,0,0,1,3.77-1.7Z"/><path class="cls-4" d="M1141.32,87.34a4.35,4.35,0,1,1-4.34-4.16A4.26,4.26,0,0,1,1141.32,87.34Zm-7.63,0A3.28,3.28,0,1,0,1137,84.1,3.27,3.27,0,0,0,1133.69,87.34Z"/><path class="cls-4" d="M1144.78,88.18a2.16,2.16,0,0,0,2.27,2.43,4.93,4.93,0,0,0,3.36-1.3v-6h1.07v8h-1.07V90.11a5.85,5.85,0,0,1-3.74,1.39,2.78,2.78,0,0,1-3-3V83.34h1.08Z"/><path class="cls-4" d="M1161.07,84.46V83.34h1.08v7.2c0,2.8-1.78,4.1-4.18,4.1a6.64,6.64,0,0,1-3.69-1.15l.35-.71a5.59,5.59,0,0,0,3.14,1,3,3,0,0,0,3.3-3.26v-.82a4,4,0,0,1-3.25,1.62,3.93,3.93,0,0,1-3.94-4.06,4,4,0,0,1,3.94-4.1A4.75,4.75,0,0,1,1161.07,84.46ZM1155,87.28a3.2,3.2,0,0,0,3.21,3.18,3.32,3.32,0,0,0,2.91-1.71V85.34a4,4,0,0,0-2.91-1.24A3.2,3.2,0,0,0,1155,87.28Z"/><path class="cls-4" d="M1166.25,84.57a5.8,5.8,0,0,1,3.73-1.39,2.77,2.77,0,0,1,3,3v5.13h-1.08V86.5a2.17,2.17,0,0,0-2.27-2.44,4.91,4.91,0,0,0-3.35,1.31v6h-1.08V80.14h1.08Z"/><path class="cls-4" d="M1184,87.34a4.35,4.35,0,1,1-4.35-4.16A4.26,4.26,0,0,1,1184,87.34Zm-7.63,0a3.28,3.28,0,1,0,3.28-3.24A3.26,3.26,0,0,0,1176.38,87.34Z"/><path class="cls-4" d="M1187.47,88.18a2.16,2.16,0,0,0,2.27,2.43,4.9,4.9,0,0,0,3.35-1.3v-6h1.08v8h-1.08V90.11a5.81,5.81,0,0,1-3.74,1.39,2.77,2.77,0,0,1-3-3V83.34h1.08Z"/><path class="cls-4" d="M1201.09,83.34v.84h-2.61v4.38a1.92,1.92,0,0,0,2,2,2.38,2.38,0,0,0,1.15-.3l.18.75a3.58,3.58,0,0,1-1.69.44,2.58,2.58,0,0,1-2.67-2.77V84.18h-1.48v-.84h1.48V81h1.07v2.37Z"/><path class="cls-4" d="M1212.29,83.34v.84h-2.61v4.38a1.92,1.92,0,0,0,2,2,2.35,2.35,0,0,0,1.15-.3l.18.75a3.58,3.58,0,0,1-1.69.44,2.58,2.58,0,0,1-2.67-2.77V84.18h-1.48v-.84h1.48V81h1.07v2.37Z"/><path class="cls-4" d="M1216.52,84.57a5.81,5.81,0,0,1,3.74-1.39,2.77,2.77,0,0,1,3,3v5.13h-1.08V86.5a2.17,2.17,0,0,0-2.26-2.44,4.92,4.92,0,0,0-3.36,1.31v6h-1.08V80.14h1.08Z"/><path class="cls-4" d="M1233.76,87.34v.36h-7.12a3.16,3.16,0,0,0,3.2,3,3.82,3.82,0,0,0,2.71-1.1l.59.53a4.83,4.83,0,0,1-3.38,1.37,4.17,4.17,0,0,1-4.17-4.16,4.12,4.12,0,0,1,4.09-4.16A3.93,3.93,0,0,1,1233.76,87.34Zm-7.12-.21h6.11a3,3,0,0,0-3.06-3.16A3.11,3.11,0,0,0,1226.64,87.13Z"/><path class="cls-4" d="M1241.35,84.57a5.81,5.81,0,0,1,3.74-1.39,2.77,2.77,0,0,1,3,3v5.13H1247V86.5a2.17,2.17,0,0,0-2.26-2.44,4.94,4.94,0,0,0-3.36,1.31v6h-1.08V80.14h1.08Z"/><path class="cls-4" d="M1259.11,87.34a4.35,4.35,0,1,1-4.34-4.16A4.26,4.26,0,0,1,1259.11,87.34Zm-7.63,0a3.28,3.28,0,1,0,3.28-3.24A3.27,3.27,0,0,0,1251.48,87.34Z"/><path class="cls-4" d="M1265.76,83.34v.84h-2.6v4.38a1.91,1.91,0,0,0,1.95,2,2.35,2.35,0,0,0,1.15-.3l.18.75a3.58,3.58,0,0,1-1.69.44,2.58,2.58,0,0,1-2.67-2.77V84.18h-1.48v-.84h1.48V81h1.08v2.37Z"/><path class="cls-4" d="M1275.91,87.34v.36h-7.13a3.16,3.16,0,0,0,3.2,3,3.84,3.84,0,0,0,2.72-1.1l.59.53a4.85,4.85,0,0,1-3.39,1.37,4.17,4.17,0,0,1-4.17-4.16,4.12,4.12,0,0,1,4.09-4.16A3.93,3.93,0,0,1,1275.91,87.34Zm-7.13-.21h6.11a3,3,0,0,0-3.05-3.16A3.11,3.11,0,0,0,1268.78,87.13Z"/><path class="cls-4" d="M1278.44,91.34V80.13h1.08V91.34Z"/><path class="cls-4" d="M1282.86,90.93a.66.66,0,1,1-.65-.59A.62.62,0,0,1,1282.86,90.93Z"/></g></g></svg>