<svg xmlns="http://www.w3.org/2000/svg" viewBox="0 0 1640 790"><defs><style>.cls-1{fill:#06a7e0;stroke-width:1.33px;opacity:0.9;}.cls-1,.cls-2,.cls-3{stroke:#fff;stroke-miterlimit:10;}.cls-2{fill:none;stroke-width:4.67px;}.cls-3{fill:#fff;stroke-width:2px;}.cls-4{fill:#231f20;}</style></defs><title>09_1640x790</title><g id="_14_1640x790" data-name="14_1640x790"><g id="_14_plus" class="svg-showtip" data-name="14_plus"><circle class="cls-1" cx="571.8" cy="649.32" r="25"/><line class="cls-2" x1="557.19" y1="649.32" x2="586.42" y2="649.32"/><line class="cls-2" x1="571.8" y1="663.94" x2="571.8" y2="634.7"/></g><g id="_14_tooltip" class="svg-tooltip" data-name="14_tooltip"><path id="tooltip" class="cls-3" d="M968.81,576.12H597.07l-23,20-24-20H510.54a3.27,3.27,0,0,1-3.26-3.26V476.42a3.27,3.27,0,0,1,3.26-3.26H968.81a3.27,3.27,0,0,1,3.26,3.26v96.44A3.27,3.27,0,0,1,968.81,576.12Z"/><path class="cls-4" d="M548,506.27l-.5.89a8.15,8.15,0,0,0-4-1.08c-1.49,0-2.77.6-2.77,2,0,.9.53,1.33,2.9,2,2.86.76,4.67,1.11,4.67,3.44,0,2.09-2,3.12-4.34,3.12a9.06,9.06,0,0,1-5-1.39l.53-.86a8.82,8.82,0,0,0,4.53,1.26c1.6,0,3-.62,3-2,0-1.66-1.17-1.81-3.79-2.49s-3.81-1.32-3.81-2.91c0-2.19,1.89-3.12,4.12-3.13A8.45,8.45,0,0,1,548,506.27Z"/><path class="cls-4" d="M558.61,512.45v.36h-7.12a3.16,3.16,0,0,0,3.2,3,3.82,3.82,0,0,0,2.71-1.1l.59.53a4.83,4.83,0,0,1-3.38,1.37,4.16,4.16,0,0,1-.08-8.32A3.94,3.94,0,0,1,558.61,512.45Zm-7.12-.21h6.11a3,3,0,0,0-3.06-3.16A3.11,3.11,0,0,0,551.49,512.24Z"/><path class="cls-4" d="M568,511.28v5.17H566.9v-1a5.55,5.55,0,0,1-3.58,1.18,2.58,2.58,0,0,1-2.81-2.58c0-1.55,1.22-2.36,3.15-2.36h3.24v-.3c0-1.54-1-2.23-2.49-2.23a4.94,4.94,0,0,0-2.91,1l-.35-.7a6.11,6.11,0,0,1,3.52-1.14C566.57,508.29,568,509.18,568,511.28Zm-4,.87c-1.52,0-2.44.6-2.44,1.78a2,2,0,0,0,2.16,2,5,5,0,0,0,3.16-1v-2.79Z"/><path class="cls-4" d="M574.88,508.45v.84h-2.6v4.39a1.91,1.91,0,0,0,2,2.05,2.36,2.36,0,0,0,1.15-.31l.19.76a3.76,3.76,0,0,1-1.7.43,2.58,2.58,0,0,1-2.67-2.77v-4.55h-1.48v-.84h1.48v-2.37h1.08v2.37Z"/><path class="cls-4" d="M579.34,506.22a.61.61,0,0,1-.64.56.57.57,0,1,1,0-1.13A.61.61,0,0,1,579.34,506.22Zm-1.18,10.23v-8h1.08v8Z"/><path class="cls-4" d="M590,511.33v5.12H589v-4.84a2.16,2.16,0,0,0-2.27-2.43,5,5,0,0,0-3.36,1.3v6h-1.07v-8h1.07v1.23a5.85,5.85,0,0,1,3.74-1.39A2.78,2.78,0,0,1,590,511.33Z"/><path class="cls-4" d="M599.61,509.57v-1.12h1.08v7.21c0,2.79-1.78,4.09-4.18,4.09a6.57,6.57,0,0,1-3.69-1.15l.35-.7a5.51,5.51,0,0,0,3.15,1,3,3,0,0,0,3.29-3.25v-.83a4,4,0,0,1-3.25,1.62,3.92,3.92,0,0,1-3.93-4.05,4,4,0,0,1,3.93-4.11A4.75,4.75,0,0,1,599.61,509.57Zm-6.12,2.83a3.2,3.2,0,0,0,3.22,3.18,3.3,3.3,0,0,0,2.9-1.72v-3.41a4,4,0,0,0-2.9-1.24A3.21,3.21,0,0,0,593.49,512.4Z"/><path class="cls-4" d="M614.43,509.57v-1.12h1.08v7.21c0,2.79-1.78,4.09-4.18,4.09a6.57,6.57,0,0,1-3.69-1.15l.35-.7a5.5,5.5,0,0,0,3.14,1,3,3,0,0,0,3.3-3.25v-.83a4,4,0,0,1-3.25,1.62,3.92,3.92,0,0,1-3.94-4.05,4,4,0,0,1,3.94-4.11A4.75,4.75,0,0,1,614.43,509.57Zm-6.12,2.83a3.2,3.2,0,0,0,3.21,3.18,3.31,3.31,0,0,0,2.91-1.72v-3.41a4,4,0,0,0-2.91-1.24A3.2,3.2,0,0,0,608.31,512.4Z"/><path class="cls-4" d="M623.3,509.18a5.22,5.22,0,0,0-3.77,1.68v5.59h-1.08v-8h1.08V510a5.29,5.29,0,0,1,3.77-1.7Z"/><path class="cls-4" d="M633.08,512.45a4.35,4.35,0,1,1-4.34-4.16A4.25,4.25,0,0,1,633.08,512.45Zm-7.63,0a3.28,3.28,0,1,0,3.28-3.24A3.27,3.27,0,0,0,625.45,512.45Z"/><path class="cls-4" d="M636.54,513.29a2.17,2.17,0,0,0,2.27,2.44,5,5,0,0,0,3.36-1.3v-6h1.07v8h-1.07v-1.22a5.89,5.89,0,0,1-3.74,1.38,2.77,2.77,0,0,1-3-3v-5.13h1.08Z"/><path class="cls-4" d="M654.16,512.45a4,4,0,0,1-7,2.83v4.3h-1.08V508.45h1.08v1.17a4,4,0,0,1,7,2.83Zm-7-1.91v3.82a3.25,3.25,0,1,0,2.63-5.15A3.3,3.3,0,0,0,647.19,510.54Z"/><path class="cls-4" d="M662.48,509.14l-.38.68a5.58,5.58,0,0,0-2.78-.78c-1.06,0-2,.43-2,1.43,0,.63.37.93,2,1.36,2.07.56,3.41.82,3.41,2.54,0,1.53-1.44,2.26-3.18,2.24a6.62,6.62,0,0,1-3.59-1l.4-.65a6.14,6.14,0,0,0,3.19.91c1.15,0,2.17-.42,2.17-1.41,0-1.19-.85-1.29-2.64-1.77-1.94-.52-2.75-1-2.75-2.14,0-1.58,1.36-2.26,3-2.26A6.11,6.11,0,0,1,662.48,509.14Z"/><path class="cls-4" d="M675,509.14l-.38.68a5.58,5.58,0,0,0-2.78-.78c-1.06,0-2,.43-2,1.43,0,.63.37.93,2,1.36,2.08.56,3.41.82,3.41,2.54,0,1.53-1.44,2.26-3.18,2.24a6.62,6.62,0,0,1-3.59-1l.4-.65a6.14,6.14,0,0,0,3.19.91c1.15,0,2.17-.42,2.17-1.41,0-1.19-.85-1.29-2.64-1.77-1.94-.52-2.75-1-2.75-2.14,0-1.58,1.36-2.26,3-2.26A6.11,6.11,0,0,1,675,509.14Z"/><path class="cls-4" d="M678.84,509.68a5.81,5.81,0,0,1,3.74-1.39,2.77,2.77,0,0,1,3,3v5.12h-1.08v-4.84a2.16,2.16,0,0,0-2.26-2.43,5,5,0,0,0-3.36,1.3v6h-1.08v-11.2h1.08Z"/><path class="cls-4" d="M696.6,512.45a4.35,4.35,0,1,1-4.34-4.16A4.25,4.25,0,0,1,696.6,512.45Zm-7.63,0a3.28,3.28,0,1,0,3.28-3.24A3.27,3.27,0,0,0,689,512.45Z"/><path class="cls-4" d="M700.06,513.29a2.17,2.17,0,0,0,2.27,2.44,5,5,0,0,0,3.36-1.3v-6h1.07v8h-1.07v-1.22a5.89,5.89,0,0,1-3.74,1.38,2.77,2.77,0,0,1-3-3v-5.13h1.08Z"/><path class="cls-4" d="M709.65,516.45v-11.2h1.08v11.2Z"/><path class="cls-4" d="M721.15,516.45h-1.08v-1.17a4,4,0,0,1-7-2.83,4,4,0,0,1,7-2.83v-4.37h1.08Zm-7-4a3.27,3.27,0,0,0,5.9,1.91v-3.82a3.27,3.27,0,0,0-5.9,1.91Z"/><path class="cls-4" d="M729.16,509.62a4.16,4.16,0,1,1,0,5.66v1.17h-1.08v-11.2h1.08Zm0,.92v3.82a3.24,3.24,0,1,0,0-3.82Z"/><path class="cls-4" d="M746.4,512.45v.36h-7.12a3.16,3.16,0,0,0,3.2,3,3.82,3.82,0,0,0,2.71-1.1l.59.53a4.83,4.83,0,0,1-3.38,1.37,4.16,4.16,0,0,1-.08-8.32A3.94,3.94,0,0,1,746.4,512.45Zm-7.12-.21h6.11a3,3,0,0,0-3.06-3.16A3.11,3.11,0,0,0,739.28,512.24Z"/><path class="cls-4" d="M757,505.25h3.4v11.21H759.3V506h-2.19a2.72,2.72,0,0,0-.92-.17,1.89,1.89,0,0,0-1.93,2v.57H757v.84h-2.7v7.16h-1.08v-7.16H751.8v-.84h1.38v-.59a2.59,2.59,0,0,1,2.73-2.77A3.56,3.56,0,0,1,757,505.25Z"/><path class="cls-4" d="M770.93,512.45v.36H763.8a3.17,3.17,0,0,0,3.21,3,3.82,3.82,0,0,0,2.71-1.1l.59.53a4.83,4.83,0,0,1-3.38,1.37,4.16,4.16,0,0,1-.09-8.32A3.94,3.94,0,0,1,770.93,512.45Zm-7.12-.21h6.11a3,3,0,0,0-3.06-3.16A3.11,3.11,0,0,0,763.81,512.24Z"/><path class="cls-4" d="M780.23,516.45H779L776.24,513l-2.72,3.41h-1.24l3.33-4.15-3.09-3.85h1.25l2.51,3.14,2.49-3.14H780l-3.1,3.88Z"/><path class="cls-4" d="M783.45,506.22a.61.61,0,0,1-.64.56.57.57,0,1,1,0-1.13A.61.61,0,0,1,783.45,506.22Zm-1.18,10.23v-8h1.08v8Z"/><path class="cls-4" d="M787.44,509.62a4.16,4.16,0,1,1,0,5.66v1.17h-1.07v-11.2h1.07Zm0,.92v3.82a3.24,3.24,0,1,0,0-3.82Z"/><path class="cls-4" d="M797,516.45v-11.2h1.08v11.2Z"/><path class="cls-4" d="M808.66,512.45v.36h-7.13a3.16,3.16,0,0,0,3.2,3,3.84,3.84,0,0,0,2.72-1.1l.59.53a4.85,4.85,0,0,1-3.39,1.37,4.16,4.16,0,0,1-.08-8.32A3.94,3.94,0,0,1,808.66,512.45Zm-7.13-.21h6.11a3,3,0,0,0-3-3.16A3.11,3.11,0,0,0,801.53,512.24Z"/><path class="cls-4" d="M822,511.28v5.17H821v-1a5.55,5.55,0,0,1-3.58,1.18,2.57,2.57,0,0,1-2.81-2.58c0-1.55,1.21-2.36,3.14-2.36H821v-.3c0-1.54-1-2.23-2.49-2.23a4.94,4.94,0,0,0-2.92,1l-.35-.7a6.16,6.16,0,0,1,3.53-1.14C820.62,508.29,822,509.18,822,511.28Zm-4,.87c-1.53,0-2.44.6-2.44,1.78a2,2,0,0,0,2.16,2,5,5,0,0,0,3.16-1v-2.79Z"/><path class="cls-4" d="M832.58,511.33v5.12H831.5v-4.84a2.16,2.16,0,0,0-2.27-2.43,5,5,0,0,0-3.35,1.3v6H824.8v-8h1.08v1.23a5.8,5.8,0,0,1,3.73-1.39A2.78,2.78,0,0,1,832.58,511.33Z"/><path class="cls-4" d="M843,516.45h-1.08v-1.17a4,4,0,0,1-7-2.83,4,4,0,0,1,7-2.83v-4.37H843Zm-7-4a3.27,3.27,0,0,0,5.9,1.91v-3.82a3.27,3.27,0,0,0-5.9,1.91Z"/><path class="cls-4" d="M853.79,508.29a4.31,4.31,0,0,1,3.29,1.51l-.82.48a3.26,3.26,0,1,0-2.43,5.41,3.24,3.24,0,0,0,2.52-1.17l.82.48a4.32,4.32,0,0,1-3.38,1.61,4.16,4.16,0,1,1,0-8.32Z"/><path class="cls-4" d="M866.54,511.28v5.17h-1.08v-1a5.55,5.55,0,0,1-3.58,1.18,2.57,2.57,0,0,1-2.81-2.58c0-1.55,1.21-2.36,3.14-2.36h3.25v-.3c0-1.54-1-2.23-2.49-2.23a4.94,4.94,0,0,0-2.92,1l-.35-.7a6.16,6.16,0,0,1,3.53-1.14C865.13,508.29,866.54,509.18,866.54,511.28Zm-4,.87c-1.53,0-2.44.6-2.44,1.78a2,2,0,0,0,2.16,2,5,5,0,0,0,3.16-1v-2.79Z"/><path class="cls-4" d="M873.44,508.45v.84h-2.61v4.39a1.92,1.92,0,0,0,2,2.05,2.39,2.39,0,0,0,1.15-.31l.18.76a3.69,3.69,0,0,1-1.69.43,2.58,2.58,0,0,1-2.68-2.77v-4.55h-1.47v-.84h1.47v-2.37h1.08v2.37Z"/><path class="cls-4" d="M883.58,512.45v.36h-7.12a3.16,3.16,0,0,0,3.2,3,3.82,3.82,0,0,0,2.71-1.1l.59.53a4.83,4.83,0,0,1-3.38,1.37,4.16,4.16,0,0,1-.08-8.32A3.94,3.94,0,0,1,883.58,512.45Zm-7.12-.21h6.11a3,3,0,0,0-3.05-3.16A3.11,3.11,0,0,0,876.46,512.24Z"/><path class="cls-4" d="M890.86,509.18a5.22,5.22,0,0,0-3.77,1.68v5.59H886v-8h1.08V510a5.29,5.29,0,0,1,3.77-1.7Z"/><path class="cls-4" d="M900.83,508.45v.84h-2.6v4.39a1.91,1.91,0,0,0,1.95,2.05,2.36,2.36,0,0,0,1.15-.31l.18.76a3.69,3.69,0,0,1-1.69.43,2.58,2.58,0,0,1-2.67-2.77v-4.55h-1.48v-.84h1.48v-2.37h1.08v2.37Z"/><path class="cls-4" d="M911.49,512.45a4.35,4.35,0,1,1-4.34-4.16A4.25,4.25,0,0,1,911.49,512.45Zm-7.63,0a3.28,3.28,0,1,0,3.28-3.24A3.27,3.27,0,0,0,903.86,512.45Z"/><path class="cls-4" d="M546.53,534.28v5.17h-1.08v-1a5.55,5.55,0,0,1-3.58,1.18,2.57,2.57,0,0,1-2.81-2.58c0-1.55,1.21-2.36,3.14-2.36h3.25v-.3c0-1.54-1-2.23-2.49-2.23a4.94,4.94,0,0,0-2.92,1l-.35-.7a6.16,6.16,0,0,1,3.53-1.14C545.12,531.29,546.53,532.18,546.53,534.28Zm-4,.87c-1.53,0-2.44.6-2.44,1.78a2,2,0,0,0,2.16,2,5,5,0,0,0,3.16-1v-2.79Z"/><path class="cls-4" d="M553.17,531.29a4.31,4.31,0,0,1,3.29,1.51l-.82.48a3.26,3.26,0,1,0-2.43,5.41,3.24,3.24,0,0,0,2.52-1.17l.82.48a4.32,4.32,0,0,1-3.38,1.61,4.16,4.16,0,1,1,0-8.32Z"/><path class="cls-4" d="M562.85,531.29a4.31,4.31,0,0,1,3.29,1.51l-.82.48a3.26,3.26,0,1,0-2.43,5.41,3.24,3.24,0,0,0,2.52-1.17l.82.48a4.32,4.32,0,0,1-3.38,1.61,4.16,4.16,0,1,1,0-8.32Z"/><path class="cls-4" d="M576.94,535.45a4.35,4.35,0,1,1-4.35-4.16A4.25,4.25,0,0,1,576.94,535.45Zm-7.64,0a3.29,3.29,0,1,0,3.29-3.24A3.27,3.27,0,0,0,569.3,535.45Z"/><path class="cls-4" d="M586.44,532.71a5.47,5.47,0,0,1,3.69-1.42,2.75,2.75,0,0,1,2.9,3v5.12H592v-4.84a2.13,2.13,0,0,0-2.2-2.43,4.78,4.78,0,0,0-3.15,1.2,4.37,4.37,0,0,1,.18,1.31v4.76H585.7v-4.84a2.13,2.13,0,0,0-2.2-2.43,4.24,4.24,0,0,0-3,1.22v6.05h-1.07v-8h1.07v1.22a5,5,0,0,1,3.4-1.38A2.64,2.64,0,0,1,586.44,532.71Z"/><path class="cls-4" d="M602.79,532.71a5.47,5.47,0,0,1,3.69-1.42,2.74,2.74,0,0,1,2.9,3v5.12H608.3v-4.84a2.13,2.13,0,0,0-2.2-2.43,4.73,4.73,0,0,0-3.14,1.2,4.73,4.73,0,0,1,.17,1.31v4.76h-1.07v-4.84a2.14,2.14,0,0,0-2.21-2.43,4.2,4.2,0,0,0-3,1.22v6.05h-1.08v-8h1.08v1.22a5,5,0,0,1,3.39-1.38A2.64,2.64,0,0,1,602.79,532.71Z"/><path class="cls-4" d="M620.44,535.45a4.35,4.35,0,1,1-4.34-4.16A4.25,4.25,0,0,1,620.44,535.45Zm-7.63,0a3.28,3.28,0,1,0,3.28-3.24A3.27,3.27,0,0,0,612.81,535.45Z"/><path class="cls-4" d="M630.59,539.45h-1.08v-1.17a4,4,0,0,1-7-2.83,4,4,0,0,1,7-2.83v-4.37h1.08Zm-7-4a3.27,3.27,0,0,0,5.9,1.91v-3.82a3.27,3.27,0,0,0-5.9,1.91Z"/><path class="cls-4" d="M640.46,534.28v5.17h-1.08v-1a5.55,5.55,0,0,1-3.58,1.18A2.58,2.58,0,0,1,633,537c0-1.55,1.22-2.36,3.15-2.36h3.24v-.3c0-1.54-1-2.23-2.49-2.23a4.94,4.94,0,0,0-2.91,1l-.35-.7a6.11,6.11,0,0,1,3.52-1.14C639.05,531.29,640.46,532.18,640.46,534.28Zm-4,.87c-1.52,0-2.44.6-2.44,1.78a2,2,0,0,0,2.16,2,5,5,0,0,0,3.16-1v-2.79Z"/><path class="cls-4" d="M647.36,531.45v.84h-2.6v4.39a1.91,1.91,0,0,0,2,2.05,2.36,2.36,0,0,0,1.15-.31l.18.76a3.69,3.69,0,0,1-1.69.43,2.58,2.58,0,0,1-2.67-2.77v-4.55H642.2v-.84h1.48v-2.37h1.08v2.37Z"/><path class="cls-4" d="M657.51,535.45v.36h-7.13a3.16,3.16,0,0,0,3.2,3,3.84,3.84,0,0,0,2.72-1.1l.59.53a4.85,4.85,0,0,1-3.39,1.37,4.16,4.16,0,0,1-.08-8.32A3.94,3.94,0,0,1,657.51,535.45Zm-7.13-.21h6.11a3,3,0,0,0-3-3.16A3.11,3.11,0,0,0,650.38,535.24Z"/><path class="cls-4" d="M666.38,539.45l-3.52-8H664l3,6.91,3-6.91h1.16l-3.52,8Z"/><path class="cls-4" d="M679.67,534.28v5.17h-1.08v-1a5.52,5.52,0,0,1-3.57,1.18,2.57,2.57,0,0,1-2.81-2.58c0-1.55,1.21-2.36,3.14-2.36h3.24v-.3c0-1.54-1-2.23-2.48-2.23a4.94,4.94,0,0,0-2.92,1l-.35-.7a6.15,6.15,0,0,1,3.52-1.14C678.26,531.29,679.67,532.18,679.67,534.28Zm-3.95.87c-1.53,0-2.45.6-2.45,1.78a2,2,0,0,0,2.17,2,4.94,4.94,0,0,0,3.15-1v-2.79Z"/><path class="cls-4" d="M687.3,532.18a5.24,5.24,0,0,0-3.78,1.68v5.59h-1.07v-8h1.07V533a5.31,5.31,0,0,1,3.78-1.7Z"/><path class="cls-4" d="M690.52,529.22a.64.64,0,1,1-.64-.57A.6.6,0,0,1,690.52,529.22Zm-1.17,10.23v-8h1.07v8Z"/><path class="cls-4" d="M701.72,535.45a4.35,4.35,0,1,1-4.35-4.16A4.25,4.25,0,0,1,701.72,535.45Zm-7.64,0a3.29,3.29,0,1,0,3.29-3.24A3.27,3.27,0,0,0,694.08,535.45Z"/><path class="cls-4" d="M705.18,536.29a2.17,2.17,0,0,0,2.27,2.44,5,5,0,0,0,3.35-1.3v-6h1.08v8H710.8v-1.22a5.85,5.85,0,0,1-3.74,1.38,2.77,2.77,0,0,1-3-3v-5.13h1.08Z"/><path class="cls-4" d="M720.43,532.14l-.38.68a5.61,5.61,0,0,0-2.78-.78c-1.06,0-2,.43-2,1.43,0,.63.37.93,2,1.36,2.07.56,3.41.82,3.41,2.54,0,1.53-1.44,2.26-3.18,2.24a6.62,6.62,0,0,1-3.59-1l.4-.65a6.14,6.14,0,0,0,3.19.91c1.15,0,2.17-.42,2.17-1.41,0-1.19-.85-1.29-2.64-1.77s-2.76-1-2.76-2.14c0-1.58,1.37-2.26,3-2.26A6.11,6.11,0,0,1,720.43,532.14Z"/><path class="cls-4" d="M734,532.57v-1.12H735v7.21c0,2.79-1.78,4.09-4.18,4.09a6.56,6.56,0,0,1-3.68-1.15l.35-.7a5.5,5.5,0,0,0,3.14,1,3,3,0,0,0,3.29-3.25v-.83a4,4,0,0,1-3.25,1.62,3.92,3.92,0,0,1-3.93-4.05,4,4,0,0,1,3.93-4.11A4.79,4.79,0,0,1,734,532.57Zm-6.12,2.83a3.19,3.19,0,0,0,3.21,3.18,3.29,3.29,0,0,0,2.9-1.72v-3.41a4,4,0,0,0-2.9-1.24A3.2,3.2,0,0,0,727.83,535.4Z"/><path class="cls-4" d="M742.81,532.18a5.24,5.24,0,0,0-3.77,1.68v5.59H738v-8H739V533a5.31,5.31,0,0,1,3.77-1.7Z"/><path class="cls-4" d="M752.6,535.45a4.35,4.35,0,1,1-4.35-4.16A4.25,4.25,0,0,1,752.6,535.45Zm-7.63,0a3.28,3.28,0,1,0,3.28-3.24A3.26,3.26,0,0,0,745,535.45Z"/><path class="cls-4" d="M756.06,536.29a2.17,2.17,0,0,0,2.26,2.44,5,5,0,0,0,3.36-1.3v-6h1.08v8h-1.08v-1.22a5.85,5.85,0,0,1-3.74,1.38,2.77,2.77,0,0,1-3-3v-5.13h1.08Z"/><path class="cls-4" d="M773.67,535.45a4,4,0,0,1-7,2.83v4.3h-1.08V531.45h1.08v1.17a4,4,0,0,1,7,2.83Zm-7-1.91v3.82a3.24,3.24,0,1,0,0-3.82Z"/><path class="cls-4" d="M782,532.14l-.38.68a5.55,5.55,0,0,0-2.78-.78c-1.05,0-2,.43-2,1.43,0,.63.37.93,2,1.36,2.07.56,3.4.82,3.4,2.54,0,1.53-1.44,2.26-3.17,2.24a6.68,6.68,0,0,1-3.6-1l.41-.65a6.11,6.11,0,0,0,3.19.91c1.15,0,2.17-.42,2.17-1.41,0-1.19-.86-1.29-2.64-1.77-1.94-.52-2.76-1-2.76-2.14,0-1.58,1.37-2.26,3-2.26A6.05,6.05,0,0,1,782,532.14Z"/><path class="cls-4" d="M785.28,539a.66.66,0,0,1-1.32,0,.63.63,0,0,1,.66-.58A.62.62,0,0,1,785.28,539Z"/></g></g></svg>