<svg xmlns="http://www.w3.org/2000/svg" viewBox="0 0 1640 790"><defs><style>.cls-1{fill:#06a7e0;stroke-width:1.33px;opacity:0.9;}.cls-1,.cls-2,.cls-3{stroke:#fff;stroke-miterlimit:10;}.cls-2{fill:none;stroke-width:4.67px;}.cls-3{fill:#fff;stroke-width:2px;}.cls-4{fill:#231f20;}</style></defs><title>09_1640x790</title><g id="_15_1640x790" data-name="15_1640x790"><g id="_16_plus" class="svg-showtip" data-name="16_plus"><circle class="cls-1" cx="1372.88" cy="293.08" r="25"/><line class="cls-2" x1="1358.27" y1="293.08" x2="1387.5" y2="293.08"/><line class="cls-2" x1="1372.88" y1="307.7" x2="1372.88" y2="278.47"/></g><g id="_16_tooltip" class="svg-tooltip" data-name="16_tooltip"><path id="tooltip" class="cls-3" d="M978.64,366.43h371.74l23-20,24,20h39.53a3.27,3.27,0,0,1,3.26,3.26v96.44a3.27,3.27,0,0,1-3.26,3.26H978.64a3.27,3.27,0,0,1-3.26-3.26V369.69A3.27,3.27,0,0,1,978.64,366.43Z"/><path class="cls-4" d="M1017.84,406.76c0,3.37-2,5.12-4.87,5.12s-4.88-1.75-4.88-5.12v-6.24h1.16v6.24c0,2.67,1.52,4.07,3.72,4.07s3.72-1.4,3.72-4.07v-6.24h1.15Z"/><path class="cls-4" d="M1026.56,404.41l-.38.68a5.48,5.48,0,0,0-2.78-.78c-1.06,0-2,.43-2,1.43,0,.63.37.93,2,1.36,2.08.56,3.41.82,3.41,2.54,0,1.53-1.44,2.26-3.18,2.24a6.62,6.62,0,0,1-3.59-1l.4-.65a6.14,6.14,0,0,0,3.19.91c1.15,0,2.17-.42,2.17-1.41,0-1.19-.85-1.29-2.64-1.76s-2.75-1-2.75-2.15c0-1.58,1.36-2.26,3-2.26A6.21,6.21,0,0,1,1026.56,404.41Z"/><path class="cls-4" d="M1037.05,407.72v.36h-7.13a3.16,3.16,0,0,0,3.2,3,3.84,3.84,0,0,0,2.72-1.1l.58.53a4.83,4.83,0,0,1-3.38,1.37,4.16,4.16,0,0,1-.08-8.32A3.94,3.94,0,0,1,1037.05,407.72Zm-7.13-.21H1036a3,3,0,0,0-3-3.16A3.11,3.11,0,0,0,1029.92,407.51Z"/><path class="cls-4" d="M1045.91,411.72l-3.51-8h1.15l3,6.91,3-6.91h1.16l-3.52,8Z"/><path class="cls-4" d="M1059.21,406.55v5.17h-1.08v-1a5.53,5.53,0,0,1-3.58,1.18,2.57,2.57,0,0,1-2.8-2.58c0-1.55,1.21-2.36,3.14-2.36h3.24v-.3c0-1.55-1-2.23-2.48-2.22a4.86,4.86,0,0,0-2.92,1l-.35-.7a6.23,6.23,0,0,1,3.52-1.14C1057.8,403.56,1059.21,404.45,1059.21,406.55Zm-4,.87c-1.53,0-2.45.6-2.45,1.79a2,2,0,0,0,2.17,2,4.94,4.94,0,0,0,3.15-1v-2.79Z"/><path class="cls-4" d="M1066.83,404.45a5.24,5.24,0,0,0-3.77,1.68v5.59H1062v-8h1.08v1.54a5.29,5.29,0,0,1,3.77-1.7Z"/><path class="cls-4" d="M1070.06,401.49a.65.65,0,1,1-.64-.57A.61.61,0,0,1,1070.06,401.49Zm-1.18,10.23v-8H1070v8Z"/><path class="cls-4" d="M1081.26,407.72a4.35,4.35,0,1,1-4.35-4.16A4.25,4.25,0,0,1,1081.26,407.72Zm-7.64,0a3.29,3.29,0,1,0,3.28-3.23A3.27,3.27,0,0,0,1073.62,407.72Z"/><path class="cls-4" d="M1084.72,408.57A2.16,2.16,0,0,0,1087,411a5,5,0,0,0,3.36-1.3v-6h1.08v8h-1.08V410.5a5.85,5.85,0,0,1-3.74,1.38,2.77,2.77,0,0,1-3-3v-5.13h1.08Z"/><path class="cls-4" d="M1100,404.41l-.38.68a5.45,5.45,0,0,0-2.78-.78c-1,0-2,.43-2,1.43,0,.63.37.93,2,1.36,2.07.56,3.4.82,3.4,2.54,0,1.53-1.44,2.26-3.17,2.24a6.68,6.68,0,0,1-3.6-1l.41-.65a6.11,6.11,0,0,0,3.19.91c1.15,0,2.17-.42,2.17-1.41,0-1.19-.86-1.29-2.64-1.76-1.94-.52-2.76-1-2.76-2.15,0-1.58,1.37-2.26,3-2.26A6.15,6.15,0,0,1,1100,404.41Z"/><path class="cls-4" d="M1106.79,411.72v-11.2h1.08v11.2Z"/><path class="cls-4" d="M1112,401.49a.64.64,0,1,1-.64-.57A.6.6,0,0,1,1112,401.49Zm-1.17,10.23v-8h1.07v8Z"/><path class="cls-4" d="M1121.76,404.84v-1.12h1.07v7.21c0,2.79-1.78,4.09-4.18,4.09a6.64,6.64,0,0,1-3.68-1.15l.35-.7a5.5,5.5,0,0,0,3.14,1,3,3,0,0,0,3.29-3.26v-.82a4,4,0,0,1-3.25,1.62,3.92,3.92,0,0,1-3.93-4.05,4,4,0,0,1,3.93-4.11A4.79,4.79,0,0,1,1121.76,404.84Zm-6.12,2.83a3.19,3.19,0,0,0,3.21,3.18,3.3,3.3,0,0,0,2.9-1.71v-3.42a4,4,0,0,0-2.9-1.24A3.2,3.2,0,0,0,1115.64,407.67Z"/><path class="cls-4" d="M1126.93,405a5.85,5.85,0,0,1,3.74-1.39,2.78,2.78,0,0,1,3,3v5.12h-1.08v-4.84a2.16,2.16,0,0,0-2.27-2.43,5,5,0,0,0-3.36,1.3v6h-1.08v-11.2h1.08Z"/><path class="cls-4" d="M1140.54,403.72v.84h-2.6V409a1.91,1.91,0,0,0,2,2.05,2.42,2.42,0,0,0,1.15-.31l.18.76a3.7,3.7,0,0,1-1.7.43,2.58,2.58,0,0,1-2.67-2.77v-4.55h-1.47v-.84h1.47v-2.37h1.08v2.37Z"/><path class="cls-4" d="M1152.06,400.59l-.17.7a2.62,2.62,0,0,0-.91-.17,1.89,1.89,0,0,0-1.94,2v.57h6.24v8h-1.08v-7.16H1149v7.16H1148v-7.16h-1.38v-.84H1148v-.59a2.58,2.58,0,0,1,2.72-2.77A4.47,4.47,0,0,1,1152.06,400.59Z"/><path class="cls-4" d="M1165.16,411.72h-1.25l-2.74-3.41-2.72,3.41h-1.24l3.33-4.15-3.09-3.85h1.25l2.51,3.14,2.49-3.14h1.23l-3.09,3.88Z"/><path class="cls-4" d="M1171.12,403.72v.84h-2.6V409a1.91,1.91,0,0,0,2,2.05,2.36,2.36,0,0,0,1.15-.31l.19.76a3.76,3.76,0,0,1-1.7.43,2.58,2.58,0,0,1-2.67-2.77v-4.55H1166v-.84h1.48v-2.37h1.08v2.37Z"/><path class="cls-4" d="M1175.13,408.57a2.16,2.16,0,0,0,2.27,2.43,5,5,0,0,0,3.36-1.3v-6h1.08v8h-1.08V410.5a5.89,5.89,0,0,1-3.74,1.38,2.77,2.77,0,0,1-3-3v-5.13h1.08Z"/><path class="cls-4" d="M1189.47,404.45a5.22,5.22,0,0,0-3.77,1.68v5.59h-1.08v-8h1.08v1.54a5.29,5.29,0,0,1,3.77-1.7Z"/><path class="cls-4" d="M1198.74,407.72v.36h-7.13a3.16,3.16,0,0,0,3.2,3,3.84,3.84,0,0,0,2.72-1.1l.59.53a4.85,4.85,0,0,1-3.39,1.37,4.16,4.16,0,0,1-.08-8.32A3.94,3.94,0,0,1,1198.74,407.72Zm-7.12-.21h6.11a3,3,0,0,0-3.06-3.16A3.11,3.11,0,0,0,1191.62,407.51Z"/><path class="cls-4" d="M1212.8,411.72h-1.08v-1.17a4,4,0,0,1-7-2.83,4,4,0,0,1,7-2.83v-4.37h1.08Zm-7-4a3.27,3.27,0,0,0,5.9,1.91v-3.82a3.27,3.27,0,0,0-5.9,1.91Z"/><path class="cls-4" d="M1223.49,407.72v.36h-7.13a3.17,3.17,0,0,0,3.21,3,3.82,3.82,0,0,0,2.71-1.1l.59.53a4.85,4.85,0,0,1-3.39,1.37,4.16,4.16,0,0,1-.08-8.32A3.94,3.94,0,0,1,1223.49,407.72Zm-7.12-.21h6.11a3,3,0,0,0-3.06-3.16A3.11,3.11,0,0,0,1216.37,407.51Z"/><path class="cls-4" d="M1231.67,404.41l-.38.68a5.45,5.45,0,0,0-2.78-.78c-1,0-2,.43-2,1.43,0,.63.37.93,2,1.36,2.07.56,3.4.82,3.4,2.54,0,1.53-1.44,2.26-3.17,2.24a6.68,6.68,0,0,1-3.6-1l.41-.65a6.14,6.14,0,0,0,3.19.91c1.15,0,2.17-.42,2.17-1.41,0-1.19-.86-1.29-2.64-1.76-1.94-.52-2.76-1-2.76-2.15,0-1.58,1.37-2.26,3-2.26A6.15,6.15,0,0,1,1231.67,404.41Z"/><path class="cls-4" d="M1235.78,401.49a.6.6,0,0,1-.64.56.57.57,0,1,1,.64-.56Zm-1.17,10.23v-8h1.08v8Z"/><path class="cls-4" d="M1245.5,404.84v-1.12h1.08v7.21c0,2.79-1.78,4.09-4.18,4.09a6.64,6.64,0,0,1-3.69-1.15l.35-.7a5.5,5.5,0,0,0,3.14,1,3,3,0,0,0,3.3-3.26v-.82a4,4,0,0,1-3.25,1.62,3.92,3.92,0,0,1-3.94-4.05,4,4,0,0,1,3.94-4.11A4.75,4.75,0,0,1,1245.5,404.84Zm-6.12,2.83a3.2,3.2,0,0,0,3.21,3.18,3.32,3.32,0,0,0,2.91-1.71v-3.42a4,4,0,0,0-2.91-1.24A3.21,3.21,0,0,0,1239.38,407.67Z"/><path class="cls-4" d="M1257.3,406.6v5.12h-1.08v-4.84a2.16,2.16,0,0,0-2.27-2.43,5,5,0,0,0-3.35,1.3v6h-1.08v-8h1.08V405a5.8,5.8,0,0,1,3.73-1.39A2.78,2.78,0,0,1,1257.3,406.6Z"/><path class="cls-4" d="M1265.83,404.41l-.38.68a5.45,5.45,0,0,0-2.78-.78c-1.05,0-2,.43-2,1.43,0,.63.37.93,2,1.36,2.07.56,3.4.82,3.4,2.54,0,1.53-1.44,2.26-3.17,2.24a6.68,6.68,0,0,1-3.6-1l.41-.65a6.11,6.11,0,0,0,3.19.91c1.15,0,2.17-.42,2.17-1.41,0-1.19-.86-1.29-2.64-1.76-1.94-.52-2.76-1-2.76-2.15,0-1.58,1.37-2.26,3-2.26A6.15,6.15,0,0,1,1265.83,404.41Z"/><path class="cls-4" d="M1276.69,403.72v.84h-2.61V409a1.92,1.92,0,0,0,2,2.05,2.39,2.39,0,0,0,1.15-.31l.18.76a3.69,3.69,0,0,1-1.69.43,2.58,2.58,0,0,1-2.68-2.77v-4.55h-1.47v-.84H1273v-2.37h1.08v2.37Z"/><path class="cls-4" d="M1287.35,407.72a4.35,4.35,0,1,1-4.34-4.16A4.25,4.25,0,0,1,1287.35,407.72Zm-7.63,0a3.28,3.28,0,1,0,3.28-3.23A3.27,3.27,0,0,0,1279.72,407.72Z"/><path class="cls-4" d="M1302,407.72a4,4,0,0,1-7,2.83v4.3H1294V403.72H1295v1.17a4,4,0,0,1,7,2.83Zm-7-1.91v3.82a3.23,3.23,0,1,0,0-3.82Z"/><path class="cls-4" d="M1309.41,404.45a5.22,5.22,0,0,0-3.77,1.68v5.59h-1.08v-8h1.08v1.54a5.27,5.27,0,0,1,3.77-1.7Z"/><path class="cls-4" d="M1319.19,407.72a4.35,4.35,0,1,1-4.35-4.16A4.25,4.25,0,0,1,1319.19,407.72Zm-7.63,0a3.28,3.28,0,1,0,3.28-3.23A3.27,3.27,0,0,0,1311.56,407.72Z"/><path class="cls-4" d="M1323.69,411.72l-3.52-8h1.15l3,6.91,3-6.91h1.16l-3.52,8Z"/><path class="cls-4" d="M1331.77,401.49a.65.65,0,1,1-.65-.57A.61.61,0,0,1,1331.77,401.49Zm-1.18,10.23v-8h1.08v8Z"/><path class="cls-4" d="M1342.32,411.72h-1.08v-1.17a4.16,4.16,0,1,1,0-5.66v-4.37h1.08Zm-7-4a3.27,3.27,0,0,0,5.9,1.91v-3.82a3.29,3.29,0,0,0-2.63-1.32A3.26,3.26,0,0,0,1335.34,407.72Z"/><path class="cls-4" d="M1353,407.72v.36h-7.13a3.16,3.16,0,0,0,3.2,3,3.84,3.84,0,0,0,2.72-1.1l.59.53a4.85,4.85,0,0,1-3.39,1.37,4.16,4.16,0,0,1-.08-8.32A3.94,3.94,0,0,1,1353,407.72Zm-7.13-.21H1352a3,3,0,0,0-3-3.16A3.11,3.11,0,0,0,1345.88,407.51Z"/><path class="cls-4" d="M1366.38,406.55v5.17h-1.08v-1a5.57,5.57,0,0,1-3.58,1.18,2.57,2.57,0,0,1-2.81-2.58c0-1.55,1.21-2.36,3.14-2.36h3.25v-.3c0-1.55-1-2.23-2.49-2.22a4.86,4.86,0,0,0-2.92,1l-.35-.7a6.23,6.23,0,0,1,3.52-1.14C1365,403.56,1366.38,404.45,1366.38,406.55Zm-4,.87c-1.53,0-2.44.6-2.44,1.79a2,2,0,0,0,2.16,2,5,5,0,0,0,3.16-1v-2.79Z"/><path class="cls-4" d="M1376.93,406.6v5.12h-1.08v-4.84a2.16,2.16,0,0,0-2.27-2.43,5,5,0,0,0-3.35,1.3v6h-1.08v-8h1.08V405a5.8,5.8,0,0,1,3.73-1.39A2.78,2.78,0,0,1,1376.93,406.6Z"/><path class="cls-4" d="M1014.62,429.55v5.17h-1.08v-1a5.55,5.55,0,0,1-3.58,1.18,2.57,2.57,0,0,1-2.8-2.58c0-1.55,1.21-2.36,3.14-2.36h3.24v-.3c0-1.55-1-2.23-2.48-2.22a4.86,4.86,0,0,0-2.92,1l-.35-.7a6.2,6.2,0,0,1,3.52-1.14C1013.21,426.56,1014.62,427.45,1014.62,429.55Zm-4,.87c-1.53,0-2.45.6-2.45,1.79a2,2,0,0,0,2.17,2,4.94,4.94,0,0,0,3.15-1v-2.79Z"/><path class="cls-4" d="M1018.34,431.57a2.16,2.16,0,0,0,2.26,2.43,5,5,0,0,0,3.36-1.3v-6H1025v8H1024V433.5a5.89,5.89,0,0,1-3.74,1.38,2.77,2.77,0,0,1-3-3v-5.13h1.08Z"/><path class="cls-4" d="M1032,426.72v.84h-2.6V432a1.92,1.92,0,0,0,2,2.05,2.42,2.42,0,0,0,1.15-.31l.18.76a3.7,3.7,0,0,1-1.7.43,2.58,2.58,0,0,1-2.67-2.77v-4.55h-1.47v-.84h1.47v-2.37h1.08v2.37Z"/><path class="cls-4" d="M1036.18,428a5.85,5.85,0,0,1,3.74-1.39,2.78,2.78,0,0,1,3,3v5.12h-1.08v-4.84a2.16,2.16,0,0,0-2.27-2.43,5,5,0,0,0-3.36,1.3v6h-1.08v-11.2h1.08Z"/><path class="cls-4" d="M1053.43,430.72v.36h-7.13a3.17,3.17,0,0,0,3.21,3,3.82,3.82,0,0,0,2.71-1.1l.59.53a4.85,4.85,0,0,1-3.39,1.37,4.16,4.16,0,0,1-.08-8.32A3.94,3.94,0,0,1,1053.43,430.72Zm-7.12-.21h6.11a3,3,0,0,0-3.06-3.16A3.11,3.11,0,0,0,1046.31,430.51Z"/><path class="cls-4" d="M1063.64,429.6v5.12h-1.08v-4.84a2.16,2.16,0,0,0-2.27-2.43,5,5,0,0,0-3.35,1.3v6h-1.08v-8h1.08V428a5.8,5.8,0,0,1,3.73-1.39A2.78,2.78,0,0,1,1063.64,429.6Z"/><path class="cls-4" d="M1070.55,426.72v.84h-2.61V432a1.92,1.92,0,0,0,2,2.05,2.39,2.39,0,0,0,1.15-.31l.18.76a3.69,3.69,0,0,1-1.69.43,2.58,2.58,0,0,1-2.68-2.77v-4.55h-1.47v-.84h1.47v-2.37h1.08v2.37Z"/><path class="cls-4" d="M1075,424.49a.6.6,0,0,1-.64.56.57.57,0,1,1,.64-.56Zm-1.17,10.23v-8h1.08v8Z"/><path class="cls-4" d="M1085.08,428.07l-.82.48a3.25,3.25,0,1,0-2.42,5.41,3.22,3.22,0,0,0,2.51-1.17l.83.48a4.32,4.32,0,0,1-3.39,1.61,4.16,4.16,0,1,1,0-8.32A4.3,4.3,0,0,1,1085.08,428.07Z"/><path class="cls-4" d="M1098.54,429.55v5.17h-1.08v-1a5.55,5.55,0,0,1-3.58,1.18,2.58,2.58,0,0,1-2.81-2.58c0-1.55,1.22-2.36,3.15-2.36h3.24v-.3c0-1.55-1-2.23-2.48-2.22a4.86,4.86,0,0,0-2.92,1l-.35-.7a6.18,6.18,0,0,1,3.52-1.14C1097.13,426.56,1098.54,427.45,1098.54,429.55Zm-4,.87c-1.52,0-2.44.6-2.44,1.79a2,2,0,0,0,2.17,2,4.94,4.94,0,0,0,3.15-1v-2.79Z"/><path class="cls-4" d="M1108.3,428a5.47,5.47,0,0,1,3.69-1.42,2.75,2.75,0,0,1,2.9,3v5.12h-1.08v-4.84a2.14,2.14,0,0,0-2.21-2.43,4.77,4.77,0,0,0-3.14,1.2,4.39,4.39,0,0,1,.18,1.32v4.75h-1.08v-4.84a2.13,2.13,0,0,0-2.2-2.43,4.24,4.24,0,0,0-3,1.22v6.05h-1.08v-8h1.08v1.22a5,5,0,0,1,3.39-1.38A2.65,2.65,0,0,1,1108.3,428Z"/><path class="cls-4" d="M1118.74,427.89a4.16,4.16,0,1,1,0,5.66v1.17h-1.08v-11.2h1.08Zm0,.92v3.82a3.23,3.23,0,1,0,0-3.82Z"/><path class="cls-4" d="M1129.61,424.49a.64.64,0,1,1-.64-.57A.6.6,0,0,1,1129.61,424.49Zm-1.17,10.23v-8h1.07v8Z"/><path class="cls-4" d="M1139.47,429.55v5.17h-1.08v-1a5.55,5.55,0,0,1-3.58,1.18,2.58,2.58,0,0,1-2.81-2.58c0-1.55,1.22-2.36,3.15-2.36h3.24v-.3c0-1.55-1-2.23-2.49-2.22a4.86,4.86,0,0,0-2.92,1l-.35-.7a6.23,6.23,0,0,1,3.53-1.14C1138.06,426.56,1139.47,427.45,1139.47,429.55Zm-4,.87c-1.52,0-2.44.6-2.44,1.79a2,2,0,0,0,2.16,2,5,5,0,0,0,3.16-1v-2.79Z"/><path class="cls-4" d="M1150,429.6v5.12h-1.08v-4.84a2.16,2.16,0,0,0-2.26-2.43,5,5,0,0,0-3.36,1.3v6h-1.08v-8h1.08V428a5.81,5.81,0,0,1,3.74-1.39A2.77,2.77,0,0,1,1150,429.6Z"/><path class="cls-4" d="M1160,428.07l-.82.48a3.25,3.25,0,1,0-2.42,5.41,3.23,3.23,0,0,0,2.51-1.17l.82.48a4.3,4.3,0,0,1-3.38,1.61,4.16,4.16,0,1,1,0-8.32A4.31,4.31,0,0,1,1160,428.07Z"/><path class="cls-4" d="M1170.24,430.72v.36h-7.12a3.16,3.16,0,0,0,3.2,3A3.82,3.82,0,0,0,1169,433l.59.53a4.83,4.83,0,0,1-3.38,1.37,4.16,4.16,0,0,1-.08-8.32A3.94,3.94,0,0,1,1170.24,430.72Zm-7.12-.21h6.11a3,3,0,0,0-3.06-3.16A3.11,3.11,0,0,0,1163.12,430.51Z"/><path class="cls-4" d="M1173.23,434.31a.66.66,0,1,1-.66-.58A.62.62,0,0,1,1173.23,434.31Z"/></g><g id="_15_plus" class="svg-showtip" data-name="15_plus"><circle class="cls-1" cx="715.82" cy="260.81" r="25"/><line class="cls-2" x1="701.2" y1="260.81" x2="730.43" y2="260.81"/><line class="cls-2" x1="715.82" y1="275.42" x2="715.82" y2="246.19"/></g><g id="_15_tooltip" class="svg-tooltip" data-name="15_tooltip"><path id="tooltip-2" data-name="tooltip" class="cls-3" d="M1112.83,187.61H741.09l-23,20-24-20H654.56a3.27,3.27,0,0,1-3.26-3.26V87.91a3.27,3.27,0,0,1,3.26-3.26h458.27a3.27,3.27,0,0,1,3.26,3.26v96.44A3.27,3.27,0,0,1,1112.83,187.61Z"/><path class="cls-4" d="M684,127.94v-11.2h1.16v11.2Z"/><path class="cls-4" d="M696.28,122.82v5.12H695.2V123.1a2.16,2.16,0,0,0-2.27-2.43,4.94,4.94,0,0,0-3.36,1.3v6H688.5v-8h1.07v1.23a5.85,5.85,0,0,1,3.74-1.39A2.78,2.78,0,0,1,696.28,122.82Z"/><path class="cls-4" d="M703.18,119.94v.84h-2.6v4.38a1.92,1.92,0,0,0,2,2.06,2.39,2.39,0,0,0,1.15-.31l.18.75a3.59,3.59,0,0,1-1.7.44,2.58,2.58,0,0,1-2.67-2.77v-4.55H698v-.84h1.47v-2.37h1.08v2.37Z"/><path class="cls-4" d="M713.33,123.94v.36h-7.12a3.16,3.16,0,0,0,3.2,3,3.82,3.82,0,0,0,2.71-1.1l.59.53a4.83,4.83,0,0,1-3.38,1.37,4.16,4.16,0,0,1-4.17-4.16,4.12,4.12,0,0,1,4.09-4.16A3.93,3.93,0,0,1,713.33,123.94Zm-7.12-.21h6.11a3,3,0,0,0-3.06-3.16A3.11,3.11,0,0,0,706.21,123.73Z"/><path class="cls-4" d="M722.56,121.06v-1.12h1.07v7.2c0,2.8-1.78,4.1-4.18,4.1a6.64,6.64,0,0,1-3.68-1.15l.35-.71a5.51,5.51,0,0,0,3.14,1,3,3,0,0,0,3.3-3.26v-.82a4,4,0,0,1-3.26,1.62,3.92,3.92,0,0,1-3.93-4.06,4,4,0,0,1,3.93-4.1A4.79,4.79,0,0,1,722.56,121.06Zm-6.12,2.82a3.21,3.21,0,0,0,3.21,3.19,3.34,3.34,0,0,0,2.91-1.72v-3.41a4,4,0,0,0-2.91-1.24A3.2,3.2,0,0,0,716.44,123.88Z"/><path class="cls-4" d="M731.43,120.67a5.24,5.24,0,0,0-3.78,1.68v5.59h-1.07v-8h1.07v1.54a5.31,5.31,0,0,1,3.78-1.7Z"/><path class="cls-4" d="M740,122.77v5.17h-1.08v-1a5.52,5.52,0,0,1-3.57,1.18,2.57,2.57,0,0,1-2.81-2.58c0-1.56,1.21-2.36,3.14-2.36h3.24v-.3c0-1.55-1-2.23-2.48-2.23a4.93,4.93,0,0,0-2.92,1l-.35-.7a6.14,6.14,0,0,1,3.52-1.13C738.55,119.77,740,120.67,740,122.77Zm-4,.87c-1.53,0-2.45.6-2.45,1.78a2,2,0,0,0,2.17,2,4.94,4.94,0,0,0,3.15-1v-2.79Z"/><path class="cls-4" d="M746.86,119.94v.84h-2.6v4.38a1.92,1.92,0,0,0,2,2.06,2.42,2.42,0,0,0,1.15-.31l.18.75a3.59,3.59,0,0,1-1.7.44,2.58,2.58,0,0,1-2.67-2.77v-4.55h-1.47v-.84h1.47v-2.37h1.08v2.37Z"/><path class="cls-4" d="M751.32,117.7a.65.65,0,1,1-.64-.56A.6.6,0,0,1,751.32,117.7Zm-1.17,10.24v-8h1.08v8Z"/><path class="cls-4" d="M762.52,123.94a4.35,4.35,0,1,1-4.34-4.16A4.25,4.25,0,0,1,762.52,123.94Zm-7.63,0a3.28,3.28,0,1,0,3.28-3.24A3.27,3.27,0,0,0,754.89,123.94Z"/><path class="cls-4" d="M772.82,122.82v5.12h-1.08V123.1a2.16,2.16,0,0,0-2.26-2.43,4.91,4.91,0,0,0-3.36,1.3v6H765v-8h1.08v1.23a5.81,5.81,0,0,1,3.74-1.39A2.77,2.77,0,0,1,772.82,122.82Z"/><path class="cls-4" d="M787.88,123.94a4.35,4.35,0,1,1-4.35-4.16A4.25,4.25,0,0,1,787.88,123.94Zm-7.63,0a3.28,3.28,0,1,0,3.28-3.24A3.27,3.27,0,0,0,780.25,123.94Z"/><path class="cls-4" d="M794.84,116.81l-.16.7a2.49,2.49,0,0,0-.92-.17,1.89,1.89,0,0,0-1.93,2v.57h2.7v.84h-2.7v7.16h-1.08v-7.16h-1.38v-.84h1.38v-.6a2.58,2.58,0,0,1,2.72-2.76A4.47,4.47,0,0,1,794.84,116.81Z"/><path class="cls-4" d="M807.71,122.77v5.17h-1.08v-1a5.55,5.55,0,0,1-3.58,1.18,2.58,2.58,0,0,1-2.81-2.58c0-1.56,1.21-2.36,3.15-2.36h3.24v-.3c0-1.55-1-2.23-2.49-2.23a4.93,4.93,0,0,0-2.92,1l-.35-.7a6.15,6.15,0,0,1,3.53-1.13C806.3,119.77,807.71,120.67,807.71,122.77Zm-4,.87c-1.52,0-2.44.6-2.44,1.78a2,2,0,0,0,2.16,2,5,5,0,0,0,3.16-1v-2.79Z"/><path class="cls-4" d="M815.33,120.67a5.22,5.22,0,0,0-3.77,1.68v5.59h-1.08v-8h1.08v1.54a5.29,5.29,0,0,1,3.77-1.7Z"/><path class="cls-4" d="M821.29,119.94v.84h-2.6v4.38a1.92,1.92,0,0,0,2,2.06,2.39,2.39,0,0,0,1.15-.31l.18.75a3.59,3.59,0,0,1-1.7.44,2.58,2.58,0,0,1-2.67-2.77v-4.55h-1.47v-.84h1.47v-2.37h1.08v2.37Z"/><path class="cls-4" d="M831.65,127.94l-2.17-6.48-2.17,6.48h-1.2l-2.82-8h1.08l2.38,6.85,2.27-6.85h.92l2.27,6.85,2.38-6.85h1.08l-2.82,8Z"/><path class="cls-4" d="M845.5,123.94a4.35,4.35,0,1,1-4.35-4.16A4.26,4.26,0,0,1,845.5,123.94Zm-7.64,0a3.28,3.28,0,1,0,3.28-3.24A3.27,3.27,0,0,0,837.86,123.94Z"/><path class="cls-4" d="M852.86,120.67a5.24,5.24,0,0,0-3.77,1.68v5.59H848v-8h1.08v1.54a5.29,5.29,0,0,1,3.77-1.7Z"/><path class="cls-4" d="M860.85,119.94h1.32l-3,3,3.3,5h-1.18l-2.87-4.22-2.53,2.34v1.88h-1.08v-11.2h1.08v8Z"/><path class="cls-4" d="M875.57,127.94l-2.17-6.48-2.17,6.48H870l-2.82-8h1.08l2.38,6.85,2.27-6.85h.92l2.27,6.85,2.38-6.85h1.08l-2.82,8Z"/><path class="cls-4" d="M882.81,117.7a.65.65,0,1,1-.64-.56A.61.61,0,0,1,882.81,117.7Zm-1.18,10.24v-8h1.08v8Z"/><path class="cls-4" d="M889.85,119.94v.84h-2.6v4.38a1.92,1.92,0,0,0,2,2.06,2.42,2.42,0,0,0,1.15-.31l.18.75a3.59,3.59,0,0,1-1.7.44,2.58,2.58,0,0,1-2.67-2.77v-4.55H884.7v-.84h1.47v-2.37h1.08v2.37Z"/><path class="cls-4" d="M894.08,121.17a5.85,5.85,0,0,1,3.74-1.39,2.78,2.78,0,0,1,3,3v5.12h-1.08V123.1a2.16,2.16,0,0,0-2.27-2.43,4.94,4.94,0,0,0-3.36,1.3v6H893v-11.2h1.07Z"/><path class="cls-4" d="M914.51,122.77v5.17h-1.08v-1a5.55,5.55,0,0,1-3.58,1.18,2.57,2.57,0,0,1-2.81-2.58c0-1.56,1.21-2.36,3.14-2.36h3.25v-.3c0-1.55-1-2.23-2.49-2.23a4.93,4.93,0,0,0-2.92,1l-.35-.7a6.15,6.15,0,0,1,3.53-1.13C913.1,119.77,914.51,120.67,914.51,122.77Zm-4,.87c-1.53,0-2.44.6-2.44,1.78a2,2,0,0,0,2.16,2,5,5,0,0,0,3.16-1v-2.79Z"/><path class="cls-4" d="M924.44,121.29l-.82.48a3.24,3.24,0,1,0,.09,4.24l.82.48a4.32,4.32,0,0,1-3.38,1.61,4.16,4.16,0,1,1,0-8.32A4.28,4.28,0,0,1,924.44,121.29Z"/><path class="cls-4" d="M934.12,121.29l-.82.48a3.24,3.24,0,1,0,.09,4.24l.82.48a4.32,4.32,0,0,1-3.38,1.61,4.16,4.16,0,1,1,0-8.32A4.28,4.28,0,0,1,934.12,121.29Z"/><path class="cls-4" d="M944.4,123.94v.36h-7.13a3.17,3.17,0,0,0,3.21,3,3.82,3.82,0,0,0,2.71-1.1l.59.53a4.83,4.83,0,0,1-3.38,1.37,4.16,4.16,0,0,1-4.17-4.16,4.11,4.11,0,0,1,4.08-4.16A3.93,3.93,0,0,1,944.4,123.94Zm-7.12-.21h6.11a3,3,0,0,0-3.06-3.16A3.11,3.11,0,0,0,937.28,123.73Z"/><path class="cls-4" d="M954.61,122.82v5.12h-1.08V123.1a2.16,2.16,0,0,0-2.26-2.43,4.91,4.91,0,0,0-3.36,1.3v6h-1.08v-8h1.08v1.23a5.81,5.81,0,0,1,3.74-1.39A2.77,2.77,0,0,1,954.61,122.82Z"/><path class="cls-4" d="M961.52,119.94v.84h-2.61v4.38a1.92,1.92,0,0,0,2,2.06,2.39,2.39,0,0,0,1.15-.31l.18.75a3.58,3.58,0,0,1-1.69.44,2.58,2.58,0,0,1-2.67-2.77v-4.55h-1.48v-.84h1.48v-2.37h1.07v2.37Z"/><path class="cls-4" d="M975.75,121.29l-.82.48A3.24,3.24,0,1,0,975,126l.82.48a4.3,4.3,0,0,1-3.38,1.61,4.16,4.16,0,1,1,0-8.32A4.28,4.28,0,0,1,975.75,121.29Z"/><path class="cls-4" d="M986.55,123.94a4.35,4.35,0,1,1-4.35-4.16A4.25,4.25,0,0,1,986.55,123.94Zm-7.63,0a3.28,3.28,0,1,0,3.28-3.24A3.27,3.27,0,0,0,978.92,123.94Z"/><path class="cls-4" d="M991.05,127.94l-3.52-8h1.15l3,6.91,3-6.91h1.16l-3.52,8Z"/><path class="cls-4" d="M1005.1,123.94v.36H998a3.16,3.16,0,0,0,3.2,3,3.86,3.86,0,0,0,2.72-1.1l.58.53a4.83,4.83,0,0,1-3.38,1.37,4.16,4.16,0,0,1-4.17-4.16,4.12,4.12,0,0,1,4.09-4.16A3.93,3.93,0,0,1,1005.1,123.94Zm-7.12-.21h6.11a3,3,0,0,0-3.05-3.16A3.11,3.11,0,0,0,998,123.73Z"/><path class="cls-4" d="M1011.63,127.94v-11.2h1.08v11.2Z"/><path class="cls-4" d="M1016.89,117.7a.65.65,0,1,1-.65-.56A.61.61,0,0,1,1016.89,117.7Zm-1.18,10.24v-8h1.08v8Z"/><path class="cls-4" d="M1026.6,121.06v-1.12h1.08v7.2c0,2.8-1.78,4.1-4.18,4.1a6.64,6.64,0,0,1-3.69-1.15l.35-.71a5.51,5.51,0,0,0,3.14,1,3,3,0,0,0,3.3-3.26v-.82a4,4,0,0,1-3.25,1.62,3.93,3.93,0,0,1-3.94-4.06,4,4,0,0,1,3.94-4.1A4.75,4.75,0,0,1,1026.6,121.06Zm-6.12,2.82a3.21,3.21,0,0,0,3.21,3.19,3.33,3.33,0,0,0,2.91-1.72v-3.41a4,4,0,0,0-2.91-1.24A3.2,3.2,0,0,0,1020.48,123.88Z"/><path class="cls-4" d="M1031.78,121.17a5.81,5.81,0,0,1,3.74-1.39,2.77,2.77,0,0,1,3,3v5.12h-1.08V123.1a2.16,2.16,0,0,0-2.26-2.43,4.91,4.91,0,0,0-3.36,1.3v6h-1.08v-11.2h1.08Z"/><path class="cls-4" d="M1045.39,119.94v.84h-2.61v4.38a1.92,1.92,0,0,0,2,2.06,2.36,2.36,0,0,0,1.15-.31l.18.75a3.58,3.58,0,0,1-1.69.44,2.58,2.58,0,0,1-2.67-2.77v-4.55h-1.48v-.84h1.48v-2.37h1.08v2.37Z"/><path class="cls-4" d="M1049.85,117.7a.65.65,0,1,1-.65-.56A.61.61,0,0,1,1049.85,117.7Zm-1.18,10.24v-8h1.08v8Z"/><path class="cls-4" d="M1060.55,122.82v5.12h-1.08V123.1a2.16,2.16,0,0,0-2.27-2.43,4.93,4.93,0,0,0-3.36,1.3v6h-1.08v-8h1.08v1.23a5.85,5.85,0,0,1,3.74-1.39A2.78,2.78,0,0,1,1060.55,122.82Z"/><path class="cls-4" d="M1070.12,121.06v-1.12h1.08v7.2c0,2.8-1.78,4.1-4.18,4.1a6.64,6.64,0,0,1-3.69-1.15l.35-.71a5.51,5.51,0,0,0,3.14,1,3,3,0,0,0,3.3-3.26v-.82a4,4,0,0,1-3.25,1.62,3.93,3.93,0,0,1-3.94-4.06,4,4,0,0,1,3.94-4.1A4.75,4.75,0,0,1,1070.12,121.06Zm-6.12,2.82a3.21,3.21,0,0,0,3.21,3.19,3.33,3.33,0,0,0,2.91-1.72v-3.41a4,4,0,0,0-2.91-1.24A3.2,3.2,0,0,0,1064,123.88Z"/><path class="cls-4" d="M690.54,145.77v5.17h-1.08v-1a5.55,5.55,0,0,1-3.58,1.18,2.58,2.58,0,0,1-2.81-2.58c0-1.56,1.22-2.36,3.15-2.36h3.24v-.3c0-1.55-1-2.23-2.49-2.23a4.92,4.92,0,0,0-2.91,1l-.35-.7a6.1,6.1,0,0,1,3.52-1.13C689.13,142.77,690.54,143.67,690.54,145.77Zm-4,.87c-1.52,0-2.44.6-2.44,1.78a2,2,0,0,0,2.16,2,5,5,0,0,0,3.16-1v-2.79Z"/><path class="cls-4" d="M697.44,142.94v.84h-2.6v4.38a1.92,1.92,0,0,0,1.95,2.06,2.36,2.36,0,0,0,1.15-.31l.19.75a3.65,3.65,0,0,1-1.7.44,2.58,2.58,0,0,1-2.67-2.77v-4.55h-1.48v-.84h1.48v-2.37h1.08v2.37Z"/><path class="cls-4" d="M705.59,144.11a4.16,4.16,0,1,1,0,5.66v1.17h-1.08v-11.2h1.08Zm0,.91v3.83a3.24,3.24,0,1,0,0-3.83Z"/><path class="cls-4" d="M716,147.78a2.17,2.17,0,0,0,2.27,2.44,4.94,4.94,0,0,0,3.36-1.31v-6h1.08v8h-1.08v-1.23a5.85,5.85,0,0,1-3.74,1.39,2.78,2.78,0,0,1-3-3v-5.13H716Z"/><path class="cls-4" d="M726.89,140.7a.61.61,0,0,1-.64.57.57.57,0,1,1,.64-.57Zm-1.18,10.24v-8h1.08v8Z"/><path class="cls-4" d="M729.91,150.94v-11.2H731v11.2Z"/><path class="cls-4" d="M737.9,142.94v.84h-2.6v4.38a1.92,1.92,0,0,0,2,2.06,2.42,2.42,0,0,0,1.15-.31l.18.75a3.59,3.59,0,0,1-1.7.44,2.58,2.58,0,0,1-2.67-2.77v-4.55h-1.47v-.84h1.47v-2.37h1.08v2.37Z"/><path class="cls-4" d="M740.22,147.25v-.92h5.48v.92Z"/><path class="cls-4" d="M749.26,140.7a.65.65,0,1,1-.64-.56A.61.61,0,0,1,749.26,140.7Zm-1.18,10.24v-8h1.08v8Z"/><path class="cls-4" d="M760,145.82v5.12h-1.08V146.1a2.16,2.16,0,0,0-2.27-2.43,4.93,4.93,0,0,0-3.36,1.3v6h-1.08v-8h1.08v1.23a5.85,5.85,0,0,1,3.74-1.39A2.78,2.78,0,0,1,760,145.82Z"/><path class="cls-4" d="M772.49,143.63l-.38.67a5.47,5.47,0,0,0-2.78-.77c-1.06,0-2,.42-2,1.43,0,.63.37.93,2,1.36,2.07.55,3.4.82,3.4,2.54,0,1.52-1.44,2.25-3.17,2.24a6.57,6.57,0,0,1-3.6-1l.41-.65a5.9,5.9,0,0,0,3.18.91c1.15,0,2.17-.41,2.17-1.41,0-1.18-.85-1.28-2.63-1.76-1.94-.52-2.76-1-2.76-2.15,0-1.57,1.37-2.25,3-2.25A6.06,6.06,0,0,1,772.49,143.63Z"/><path class="cls-4" d="M782.37,144.29l-.81.48a3.24,3.24,0,1,0,.09,4.24l.82.48a4.32,4.32,0,0,1-3.38,1.61,4.16,4.16,0,1,1,3.28-6.81Z"/><path class="cls-4" d="M785.84,147.78a2.17,2.17,0,0,0,2.26,2.44,4.94,4.94,0,0,0,3.36-1.31v-6h1.08v8h-1.08v-1.23a5.81,5.81,0,0,1-3.74,1.39,2.77,2.77,0,0,1-3-3v-5.13h1.08Z"/><path class="cls-4" d="M795.43,150.94v-11.2h1.08v11.2Z"/><path class="cls-4" d="M807.42,146.94a4,4,0,0,1-7,2.83v4.29h-1.08V142.94h1.08v1.17a4,4,0,0,1,7,2.83Zm-7-1.92v3.83a3.3,3.3,0,0,0,2.63,1.33,3.24,3.24,0,1,0-2.63-5.16Z"/><path class="cls-4" d="M814.11,142.94v.84h-2.6v4.38a1.92,1.92,0,0,0,2,2.06,2.36,2.36,0,0,0,1.15-.31l.19.75a3.59,3.59,0,0,1-1.7.44,2.58,2.58,0,0,1-2.67-2.77v-4.55H809v-.84h1.48v-2.37h1.08v2.37Z"/><path class="cls-4" d="M818.12,147.78a2.17,2.17,0,0,0,2.27,2.44,4.94,4.94,0,0,0,3.36-1.31v-6h1.08v8h-1.08v-1.23A5.85,5.85,0,0,1,820,151.1a2.77,2.77,0,0,1-3-3v-5.13h1.07Z"/><path class="cls-4" d="M832.46,143.67a5.24,5.24,0,0,0-3.77,1.68v5.59h-1.08v-8h1.08v1.54a5.29,5.29,0,0,1,3.77-1.7Z"/><path class="cls-4" d="M841.73,146.94v.36H834.6a3.17,3.17,0,0,0,3.21,3,3.82,3.82,0,0,0,2.71-1.1l.59.53a4.83,4.83,0,0,1-3.38,1.37,4.16,4.16,0,0,1-4.17-4.16,4.11,4.11,0,0,1,4.08-4.16A3.93,3.93,0,0,1,841.73,146.94Zm-7.12-.21h6.11a3,3,0,0,0-3.06-3.16A3.11,3.11,0,0,0,834.61,146.73Z"/><path class="cls-4" d="M855.94,145.82v5.12h-1.08V146.1a2.16,2.16,0,0,0-2.27-2.43,4.9,4.9,0,0,0-3.35,1.3v6h-1.08v-8h1.08v1.23a5.81,5.81,0,0,1,3.74-1.39A2.77,2.77,0,0,1,855.94,145.82Z"/><path class="cls-4" d="M860.1,140.7a.6.6,0,0,1-.64.57.57.57,0,1,1,0-1.13A.6.6,0,0,1,860.1,140.7Zm-1.17,10.24v-8H860v8Z"/><path class="cls-4" d="M870.18,144.29l-.82.48a3.22,3.22,0,0,0-2.42-1.07,3.24,3.24,0,1,0,0,6.48,3.22,3.22,0,0,0,2.51-1.17l.83.48a4.32,4.32,0,0,1-3.39,1.61,4.16,4.16,0,1,1,0-8.32A4.26,4.26,0,0,1,870.18,144.29Z"/><path class="cls-4" d="M873.86,144.17a5.81,5.81,0,0,1,3.74-1.39,2.77,2.77,0,0,1,3,3v5.12h-1.08V146.1a2.16,2.16,0,0,0-2.26-2.43,4.93,4.93,0,0,0-3.36,1.3v6h-1.08v-11.2h1.08Z"/><path class="cls-4" d="M891.11,146.94v.36H884a3.16,3.16,0,0,0,3.2,3,3.84,3.84,0,0,0,2.72-1.1l.58.53a4.83,4.83,0,0,1-3.38,1.37,4.16,4.16,0,0,1-.08-8.32A3.94,3.94,0,0,1,891.11,146.94Zm-7.13-.21h6.11a3,3,0,0,0-3.05-3.16A3.11,3.11,0,0,0,884,146.73Z"/><path class="cls-4" d="M894.1,150.53a.66.66,0,1,1-.66-.59A.63.63,0,0,1,894.1,150.53Z"/></g><g id="_17_plus" class="svg-showtip" data-name="17_plus"><circle class="cls-1" cx="914.74" cy="716.81" r="25"/><line class="cls-2" x1="900.13" y1="716.81" x2="929.36" y2="716.81"/><line class="cls-2" x1="914.74" y1="731.42" x2="914.74" y2="702.19"/></g><g id="_17_tooltip" class="svg-tooltip" data-name="17_tooltip"><path id="tooltip-3" data-name="tooltip" class="cls-3" d="M1311.75,643.61H940l-23,20-24-20H853.48a3.27,3.27,0,0,1-3.26-3.26V573.93a3.27,3.27,0,0,1,3.26-3.26h458.27a3.27,3.27,0,0,1,3.26,3.26v66.42A3.27,3.27,0,0,1,1311.75,643.61Z"/><path class="cls-4" d="M882.94,612.73v-11.2h1.15v11.2Z"/><path class="cls-4" d="M895.2,607.61v5.12h-1.08v-4.84a2.16,2.16,0,0,0-2.26-2.43,5,5,0,0,0-3.36,1.3v6h-1.08v-8h1.08V606a5.81,5.81,0,0,1,3.74-1.39A2.77,2.77,0,0,1,895.2,607.61Z"/><path class="cls-4" d="M905.76,607.61v5.12h-1.08v-4.84a2.16,2.16,0,0,0-2.26-2.43,5,5,0,0,0-3.36,1.3v6H898v-8h1.08V606a5.81,5.81,0,0,1,3.74-1.39A2.77,2.77,0,0,1,905.76,607.61Z"/><path class="cls-4" d="M916.82,608.73a4.35,4.35,0,1,1-4.34-4.16A4.25,4.25,0,0,1,916.82,608.73Zm-7.63,0a3.28,3.28,0,1,0,3.28-3.23A3.27,3.27,0,0,0,909.19,608.73Z"/><path class="cls-4" d="M921.32,612.73l-3.52-8H919l3,6.91,3-6.91h1.15l-3.52,8Z"/><path class="cls-4" d="M934.62,607.56v5.17h-1.08v-1a5.57,5.57,0,0,1-3.58,1.18,2.57,2.57,0,0,1-2.81-2.58c0-1.55,1.21-2.36,3.14-2.36h3.25v-.3c0-1.55-1-2.23-2.49-2.23a4.94,4.94,0,0,0-2.92,1l-.35-.7a6.23,6.23,0,0,1,3.53-1.14C933.21,604.57,934.62,605.46,934.62,607.56Zm-4,.87c-1.53,0-2.44.6-2.44,1.79a2,2,0,0,0,2.16,2,5,5,0,0,0,3.16-1v-2.79Z"/><path class="cls-4" d="M941.52,604.73v.84h-2.61V610a1.92,1.92,0,0,0,2,2,2.39,2.39,0,0,0,1.15-.31l.18.76a3.69,3.69,0,0,1-1.69.43,2.58,2.58,0,0,1-2.68-2.77v-4.55h-1.47v-.84h1.47v-2.37h1.08v2.37Z"/><path class="cls-4" d="M946,602.5a.6.6,0,0,1-.64.56.57.57,0,1,1,.64-.56Zm-1.17,10.23v-8h1.08v8Z"/><path class="cls-4" d="M951.33,612.73l-3.51-8H949l3,6.91,3-6.91h1.16l-3.52,8Z"/><path class="cls-4" d="M965.39,608.73v.36h-7.13a3.17,3.17,0,0,0,3.21,3,3.82,3.82,0,0,0,2.71-1.1l.59.53a4.83,4.83,0,0,1-3.38,1.37,4.16,4.16,0,0,1-.09-8.32A3.94,3.94,0,0,1,965.39,608.73Zm-7.12-.21h6.11a3,3,0,0,0-3.06-3.16A3.11,3.11,0,0,0,958.27,608.52Z"/><path class="cls-4" d="M972.76,609.58A2.16,2.16,0,0,0,975,612a5,5,0,0,0,3.35-1.3v-6h1.08v8h-1.08v-1.22a5.85,5.85,0,0,1-3.73,1.38,2.77,2.77,0,0,1-3-3v-5.13h1.08Z"/><path class="cls-4" d="M988,605.42l-.38.68a5.48,5.48,0,0,0-2.78-.78c-1.06,0-2,.43-2,1.43,0,.63.37.93,2,1.36,2.07.56,3.41.82,3.41,2.54,0,1.53-1.44,2.26-3.18,2.24a6.62,6.62,0,0,1-3.59-1l.4-.65a6.14,6.14,0,0,0,3.19.91c1.15,0,2.17-.42,2.17-1.41,0-1.19-.85-1.29-2.64-1.76s-2.75-1-2.75-2.15c0-1.58,1.36-2.26,3-2.26A6.11,6.11,0,0,1,988,605.42Z"/><path class="cls-4" d="M998.5,608.73v.36h-7.13a3.16,3.16,0,0,0,3.2,3,3.86,3.86,0,0,0,2.72-1.1l.58.53a4.83,4.83,0,0,1-3.38,1.37,4.16,4.16,0,0,1-.08-8.32A3.94,3.94,0,0,1,998.5,608.73Zm-7.13-.21h6.11a3,3,0,0,0-3.05-3.16A3.11,3.11,0,0,0,991.37,608.52Z"/><path class="cls-4" d="M1013.2,608.73a4.35,4.35,0,1,1-4.34-4.16A4.25,4.25,0,0,1,1013.2,608.73Zm-7.63,0a3.28,3.28,0,1,0,3.28-3.23A3.27,3.27,0,0,0,1005.57,608.73Z"/><path class="cls-4" d="M1020.16,601.6l-.16.7a2.72,2.72,0,0,0-.92-.17,1.89,1.89,0,0,0-1.93,2v.57h2.7v.84h-2.7v7.16h-1.08v-7.16h-1.38v-.84h1.38v-.59a2.59,2.59,0,0,1,2.73-2.77A4.46,4.46,0,0,1,1020.16,601.6Z"/><path class="cls-4" d="M1030.24,601.53h3.4v11.21h-1.08V602.3h-2.19a2.72,2.72,0,0,0-.92-.17,1.89,1.89,0,0,0-1.93,2v.57h2.7v.84h-2.7v7.16h-1.08v-7.16h-1.38v-.84h1.38v-.59a2.59,2.59,0,0,1,2.73-2.77A3.56,3.56,0,0,1,1030.24,601.53Z"/><path class="cls-4" d="M1044.71,608.73a4.35,4.35,0,1,1-4.35-4.16A4.25,4.25,0,0,1,1044.71,608.73Zm-7.64,0a3.29,3.29,0,1,0,3.28-3.23A3.27,3.27,0,0,0,1037.07,608.73Z"/><path class="cls-4" d="M1055.51,608.73a4.35,4.35,0,1,1-4.35-4.16A4.25,4.25,0,0,1,1055.51,608.73Zm-7.64,0a3.28,3.28,0,1,0,3.28-3.23A3.27,3.27,0,0,0,1047.87,608.73Z"/><path class="cls-4" d="M1062.87,605.46a5.24,5.24,0,0,0-3.77,1.68v5.59H1058v-8h1.07v1.54a5.31,5.31,0,0,1,3.77-1.7Z"/><path class="cls-4" d="M1076.84,608.73a4,4,0,0,1-7,2.83v4.3h-1.08V604.73h1.08v1.17a4,4,0,0,1,7,2.83Zm-7-1.91v3.82a3.25,3.25,0,1,0,2.63-5.14A3.29,3.29,0,0,0,1069.87,606.82Z"/><path class="cls-4" d="M1086.28,607.56v5.17h-1.08v-1a5.55,5.55,0,0,1-3.58,1.18,2.57,2.57,0,0,1-2.81-2.58c0-1.55,1.21-2.36,3.14-2.36h3.25v-.3c0-1.55-1-2.23-2.49-2.23a4.94,4.94,0,0,0-2.92,1l-.35-.7a6.23,6.23,0,0,1,3.53-1.14C1084.87,604.57,1086.28,605.46,1086.28,607.56Zm-4,.87c-1.53,0-2.44.6-2.44,1.79a2,2,0,0,0,2.16,2,5,5,0,0,0,3.16-1v-2.79Z"/><path class="cls-4" d="M1093.18,604.73v.84h-2.61V610a1.92,1.92,0,0,0,2,2,2.39,2.39,0,0,0,1.15-.31l.18.76a3.69,3.69,0,0,1-1.69.43,2.58,2.58,0,0,1-2.68-2.77v-4.55H1088v-.84h1.47v-2.37h1.08v2.37Z"/><path class="cls-4" d="M1100.38,604.73v.84h-2.61V610a1.92,1.92,0,0,0,2,2,2.39,2.39,0,0,0,1.15-.31l.18.76a3.69,3.69,0,0,1-1.69.43,2.58,2.58,0,0,1-2.68-2.77v-4.55h-1.47v-.84h1.47v-2.37h1.08v2.37Z"/><path class="cls-4" d="M1110.52,608.73v.36h-7.12a3.16,3.16,0,0,0,3.2,3,3.82,3.82,0,0,0,2.71-1.1l.59.53a4.83,4.83,0,0,1-3.38,1.37,4.16,4.16,0,0,1-.08-8.32A3.94,3.94,0,0,1,1110.52,608.73Zm-7.12-.21h6.11a3,3,0,0,0-3-3.16A3.11,3.11,0,0,0,1103.4,608.52Z"/><path class="cls-4" d="M1117.8,605.46a5.24,5.24,0,0,0-3.77,1.68v5.59H1113v-8H1114v1.54a5.29,5.29,0,0,1,3.77-1.7Z"/><path class="cls-4" d="M1127.42,607.61v5.12h-1.08v-4.84a2.16,2.16,0,0,0-2.26-2.43,5,5,0,0,0-3.36,1.3v6h-1.08v-8h1.08V606a5.81,5.81,0,0,1,3.74-1.39A2.77,2.77,0,0,1,1127.42,607.61Z"/><path class="cls-4" d="M1136,605.42l-.38.68a5.48,5.48,0,0,0-2.78-.78c-1.06,0-2,.43-2,1.43,0,.63.37.93,2,1.36,2.07.56,3.41.82,3.41,2.54,0,1.53-1.44,2.26-3.18,2.24a6.62,6.62,0,0,1-3.59-1l.4-.65a6.14,6.14,0,0,0,3.19.91c1.15,0,2.17-.42,2.17-1.41,0-1.19-.85-1.29-2.64-1.76s-2.76-1-2.76-2.15c0-1.58,1.37-2.26,3-2.26A6.11,6.11,0,0,1,1136,605.42Z"/><path class="cls-4" d="M1139.24,612.32a.66.66,0,1,1-.66-.58A.62.62,0,0,1,1139.24,612.32Z"/></g></g></svg>