<svg xmlns="http://www.w3.org/2000/svg" viewBox="0 0 1640 790"><defs><style>.cls-1{fill:#fff;stroke-width:2px;}.cls-1,.cls-3,.cls-4{stroke:#fff;stroke-miterlimit:10;}.cls-2{fill:#231f20;}.cls-3{fill:#06a7e0;stroke-width:1.33px;opacity:0.9;}.cls-4{fill:none;stroke-width:4.67px;}</style></defs><title>09_1640x790</title><g id="_21_1640x750" data-name="21_1640x750"><g id="_28_tooltip" class="svg-tooltip" data-name="28_tooltip"><path id="tooltip" class="cls-1" d="M960.53,527H588.79l-23,20-24-20H502.26a3.26,3.26,0,0,1-3.26-3.26V422.29a3.27,3.27,0,0,1,3.26-3.26H960.53a3.27,3.27,0,0,1,3.26,3.26V523.73A3.27,3.27,0,0,1,960.53,527Z"/><path class="cls-2" d="M532.87,455.44v4.28H539v1h-6.17v4.88h-1.16V454.4h7.9v1Z"/><path class="cls-2" d="M543.39,455.36a.65.65,0,1,1-.64-.56A.6.6,0,0,1,543.39,455.36Zm-1.17,10.24v-8h1.07v8Z"/><path class="cls-2" d="M551.16,458.32a5.23,5.23,0,0,0-3.77,1.69v5.59h-1.08v-8h1.08v1.54a5.29,5.29,0,0,1,3.77-1.7Z"/><path class="cls-2" d="M560.42,461.6V462H553.3a3.16,3.16,0,0,0,3.2,3,3.82,3.82,0,0,0,2.71-1.1l.59.53a4.83,4.83,0,0,1-3.38,1.37,4.17,4.17,0,0,1-4.17-4.16,4.12,4.12,0,0,1,4.09-4.16A3.93,3.93,0,0,1,560.42,461.6Zm-7.12-.21h6.11a3,3,0,0,0-3.06-3.16A3.11,3.11,0,0,0,553.3,461.39Z"/><path class="cls-2" d="M571,461.6a4,4,0,0,1-4,4.16,4,4,0,0,1-3-1.33v4.29h-1.08V457.6H564v1.17a4,4,0,0,1,7,2.83Zm-7-1.92v3.83a3.24,3.24,0,1,0,0-3.83Z"/><path class="cls-2" d="M573.64,465.6V454.4h1.08v11.2Z"/><path class="cls-2" d="M584.45,460.43v5.17h-1.08v-1a5.55,5.55,0,0,1-3.58,1.18,2.57,2.57,0,0,1-2.81-2.58c0-1.56,1.21-2.36,3.14-2.36h3.25v-.3c0-1.55-1-2.23-2.49-2.23a4.93,4.93,0,0,0-2.92,1l-.35-.7a6.15,6.15,0,0,1,3.53-1.13C583,457.44,584.45,458.33,584.45,460.43Zm-4,.87c-1.53,0-2.44.6-2.44,1.78a2,2,0,0,0,2.16,2,5,5,0,0,0,3.16-1V461.3Z"/><path class="cls-2" d="M591.09,457.44a4.31,4.31,0,0,1,3.29,1.51l-.82.48a3.24,3.24,0,1,0,.09,4.24l.82.48a4.3,4.3,0,0,1-3.38,1.61,4.16,4.16,0,1,1,0-8.32Z"/><path class="cls-2" d="M604.66,461.6V462h-7.13a3.17,3.17,0,0,0,3.21,3,3.82,3.82,0,0,0,2.71-1.1l.59.53a4.83,4.83,0,0,1-3.38,1.37,4.17,4.17,0,0,1-4.17-4.16,4.11,4.11,0,0,1,4.08-4.16A3.93,3.93,0,0,1,604.66,461.6Zm-7.12-.21h6.11a3,3,0,0,0-3.06-3.16A3.11,3.11,0,0,0,597.54,461.39Z"/><path class="cls-2" d="M612.85,458.29l-.38.67a5.6,5.6,0,0,0-2.79-.77c-1,0-1.95.42-1.95,1.42,0,.64.37.94,2,1.37,2.07.55,3.41.82,3.41,2.54,0,1.52-1.44,2.25-3.18,2.24a6.54,6.54,0,0,1-3.59-1l.4-.64a6.14,6.14,0,0,0,3.19.91c1.15,0,2.17-.42,2.17-1.42,0-1.18-.85-1.28-2.64-1.76-1.94-.52-2.76-1-2.76-2.14,0-1.59,1.37-2.26,3-2.26A6.11,6.11,0,0,1,612.85,458.29Z"/><path class="cls-2" d="M626.37,458.72V457.6h1.07v7.2c0,2.8-1.78,4.1-4.18,4.1a6.64,6.64,0,0,1-3.68-1.15l.35-.71a5.51,5.51,0,0,0,3.14,1,3,3,0,0,0,3.29-3.26V464a4,4,0,0,1-3.25,1.62,3.92,3.92,0,0,1-3.93-4.06,4,4,0,0,1,3.93-4.1A4.79,4.79,0,0,1,626.37,458.72Zm-6.12,2.82a3.2,3.2,0,0,0,3.21,3.19,3.31,3.31,0,0,0,2.9-1.72V459.6a4,4,0,0,0-2.9-1.24A3.19,3.19,0,0,0,620.25,461.54Z"/><path class="cls-2" d="M631.77,455.36a.65.65,0,1,1-.64-.56A.6.6,0,0,1,631.77,455.36ZM630.6,465.6v-8h1.08v8Z"/><path class="cls-2" d="M637.13,465.6l-3.52-8h1.16l3,6.91,3-6.91H642l-3.51,8Z"/><path class="cls-2" d="M651.19,461.6V462h-7.13a3.17,3.17,0,0,0,3.21,3,3.83,3.83,0,0,0,2.71-1.1l.59.53a4.85,4.85,0,0,1-3.39,1.37A4.17,4.17,0,0,1,643,461.6a4.12,4.12,0,0,1,4.09-4.16A3.93,3.93,0,0,1,651.19,461.6Zm-7.12-.21h6.11a3,3,0,0,0-3.06-3.16A3.11,3.11,0,0,0,644.07,461.39Z"/><path class="cls-2" d="M664.56,460.43v5.17h-1.08v-1a5.55,5.55,0,0,1-3.58,1.18,2.57,2.57,0,0,1-2.81-2.58c0-1.56,1.21-2.36,3.14-2.36h3.25v-.3c0-1.55-1-2.23-2.49-2.23a4.93,4.93,0,0,0-2.92,1l-.35-.7a6.15,6.15,0,0,1,3.53-1.13C663.15,457.44,664.56,458.33,664.56,460.43Zm-4,.87c-1.53,0-2.44.6-2.44,1.78a2,2,0,0,0,2.16,2,5,5,0,0,0,3.16-1V461.3Z"/><path class="cls-2" d="M678.61,465.6l-2.17-6.49-2.17,6.49h-1.2l-2.82-8h1.09l2.38,6.85L676,457.6h.92l2.27,6.85,2.38-6.85h1.08l-2.82,8Z"/><path class="cls-2" d="M691.13,460.43v5.17h-1.08v-1a5.55,5.55,0,0,1-3.58,1.18,2.57,2.57,0,0,1-2.8-2.58c0-1.56,1.21-2.36,3.14-2.36h3.24v-.3c0-1.55-1-2.23-2.48-2.23a4.93,4.93,0,0,0-2.92,1l-.35-.7a6.14,6.14,0,0,1,3.52-1.13C689.72,457.44,691.13,458.33,691.13,460.43Zm-4,.87c-1.53,0-2.45.6-2.45,1.78a2,2,0,0,0,2.17,2,4.94,4.94,0,0,0,3.15-1V461.3Z"/><path class="cls-2" d="M698.75,458.32A5.25,5.25,0,0,0,695,460v5.59H693.9v-8H695v1.54a5.29,5.29,0,0,1,3.77-1.7Z"/><path class="cls-2" d="M707.58,458.86a5.47,5.47,0,0,1,3.69-1.42,2.75,2.75,0,0,1,2.9,3v5.12h-1.08v-4.84a2.13,2.13,0,0,0-2.2-2.43,4.78,4.78,0,0,0-3.15,1.2,4.37,4.37,0,0,1,.18,1.31v4.76h-1.08v-4.84a2.14,2.14,0,0,0-2.2-2.44,4.26,4.26,0,0,0-3,1.23v6.05h-1.08v-8h1.08v1.22a5,5,0,0,1,3.39-1.38A2.65,2.65,0,0,1,707.58,458.86Z"/><path class="cls-2" d="M725.79,458.32A5.25,5.25,0,0,0,722,460v5.59h-1.08v-8H722v1.54a5.29,5.29,0,0,1,3.77-1.7Z"/><path class="cls-2" d="M735.06,461.6V462h-7.13a3.17,3.17,0,0,0,3.21,3,3.82,3.82,0,0,0,2.71-1.1l.59.53a4.85,4.85,0,0,1-3.38,1.37,4.17,4.17,0,0,1-4.18-4.16,4.12,4.12,0,0,1,4.09-4.16A3.93,3.93,0,0,1,735.06,461.6Zm-7.12-.21h6.11a3,3,0,0,0-3.06-3.16A3.11,3.11,0,0,0,727.94,461.39Z"/><path class="cls-2" d="M743.24,458.29l-.38.67a5.54,5.54,0,0,0-2.78-.77c-1.05,0-2,.42-2,1.42,0,.64.37.94,2,1.37,2.07.55,3.4.82,3.4,2.54,0,1.52-1.44,2.25-3.17,2.24a6.6,6.6,0,0,1-3.6-1l.41-.64a6.11,6.11,0,0,0,3.19.91c1.15,0,2.17-.42,2.17-1.42,0-1.18-.86-1.28-2.64-1.76-1.94-.52-2.76-1-2.76-2.14,0-1.59,1.37-2.26,3-2.26A6.05,6.05,0,0,1,743.24,458.29Z"/><path class="cls-2" d="M747.35,455.36a.6.6,0,0,1-.64.57.57.57,0,1,1,0-1.13A.6.6,0,0,1,747.35,455.36Zm-1.17,10.24v-8h1.08v8Z"/><path class="cls-2" d="M757.91,465.6h-1.08v-1.17a4.16,4.16,0,1,1,0-5.66V454.4h1.08Zm-7-4a3.26,3.26,0,0,0,3.27,3.24,3.3,3.3,0,0,0,2.63-1.33v-3.83a3.27,3.27,0,0,0-5.9,1.92Z"/><path class="cls-2" d="M768.6,461.6V462h-7.13a3.16,3.16,0,0,0,3.2,3,3.84,3.84,0,0,0,2.72-1.1l.58.53a4.83,4.83,0,0,1-3.38,1.37,4.17,4.17,0,0,1-4.17-4.16,4.12,4.12,0,0,1,4.09-4.16A3.94,3.94,0,0,1,768.6,461.6Zm-7.13-.21h6.11a3,3,0,0,0-3.05-3.16A3.11,3.11,0,0,0,761.47,461.39Z"/><path class="cls-2" d="M778.8,460.48v5.12h-1.07v-4.84a2.17,2.17,0,0,0-2.27-2.44,4.94,4.94,0,0,0-3.36,1.31v6H771v-8h1.08v1.23a5.85,5.85,0,0,1,3.74-1.39A2.77,2.77,0,0,1,778.8,460.48Z"/><path class="cls-2" d="M785.71,457.6v.84h-2.6v4.38a1.92,1.92,0,0,0,1.95,2.06,2.48,2.48,0,0,0,1.15-.31l.19.75a3.65,3.65,0,0,1-1.7.44A2.58,2.58,0,0,1,782,463v-4.55h-1.48v-.84H782v-2.37h1.08v2.37Z"/><path class="cls-2" d="M790.17,455.36a.61.61,0,0,1-.64.57.57.57,0,1,1,.64-.57ZM789,465.6v-8h1.08v8Z"/><path class="cls-2" d="M800,460.43v5.17H799v-1a5.55,5.55,0,0,1-3.58,1.18,2.57,2.57,0,0,1-2.81-2.58c0-1.56,1.21-2.36,3.14-2.36H799v-.3c0-1.55-1-2.23-2.49-2.23a4.93,4.93,0,0,0-2.92,1l-.35-.7a6.15,6.15,0,0,1,3.53-1.13C798.62,457.44,800,458.33,800,460.43Zm-4,.87c-1.53,0-2.44.6-2.44,1.78a2,2,0,0,0,2.16,2,5,5,0,0,0,3.16-1V461.3Z"/><path class="cls-2" d="M802.9,465.6V454.4H804v11.2Z"/><path class="cls-2" d="M815.21,454.47l-.17.7a2.41,2.41,0,0,0-.91-.17,1.89,1.89,0,0,0-1.94,2v.57h2.7v.84h-2.7v7.16h-1.07v-7.16h-1.38v-.84h1.38V457a2.58,2.58,0,0,1,2.72-2.76A4.47,4.47,0,0,1,815.21,454.47Z"/><path class="cls-2" d="M824.39,461.6V462h-7.13a3.16,3.16,0,0,0,3.2,3,3.84,3.84,0,0,0,2.72-1.1l.59.53a4.85,4.85,0,0,1-3.39,1.37,4.17,4.17,0,0,1-4.17-4.16,4.12,4.12,0,0,1,4.09-4.16A3.94,3.94,0,0,1,824.39,461.6Zm-7.13-.21h6.11a3,3,0,0,0-3-3.16A3.11,3.11,0,0,0,817.26,461.39Z"/><path class="cls-2" d="M834.58,461.6V462h-7.13a3.16,3.16,0,0,0,3.2,3,3.84,3.84,0,0,0,2.72-1.1l.59.53a4.85,4.85,0,0,1-3.39,1.37,4.17,4.17,0,0,1-4.17-4.16,4.12,4.12,0,0,1,4.09-4.16A3.93,3.93,0,0,1,834.58,461.6Zm-7.13-.21h6.11a3,3,0,0,0-3-3.16A3.11,3.11,0,0,0,827.45,461.39Z"/><path class="cls-2" d="M837.11,465.6V454.4h1.08v11.2Z"/><path class="cls-2" d="M851.91,460.43v5.17h-1.08v-1a5.53,5.53,0,0,1-3.58,1.18,2.57,2.57,0,0,1-2.8-2.58c0-1.56,1.21-2.36,3.14-2.36h3.24v-.3c0-1.55-1-2.23-2.48-2.23a4.93,4.93,0,0,0-2.92,1l-.35-.7a6.14,6.14,0,0,1,3.52-1.13C850.5,457.44,851.91,458.33,851.91,460.43Zm-3.95.87c-1.53,0-2.45.6-2.45,1.78a2,2,0,0,0,2.17,2,4.94,4.94,0,0,0,3.15-1V461.3Z"/><path class="cls-2" d="M862.47,460.48v5.12h-1.08v-4.84a2.17,2.17,0,0,0-2.27-2.44,4.94,4.94,0,0,0-3.36,1.31v6h-1.08v-8h1.08v1.23a5.85,5.85,0,0,1,3.74-1.39A2.78,2.78,0,0,1,862.47,460.48Z"/><path class="cls-2" d="M872.88,465.6H871.8v-1.17a4.16,4.16,0,1,1,0-5.66V454.4h1.08Zm-7-4a3.27,3.27,0,0,0,5.9,1.91v-3.83a3.27,3.27,0,0,0-5.9,1.92Z"/><path class="cls-2" d="M883.68,457.44A4.29,4.29,0,0,1,887,459l-.81.48a3.24,3.24,0,1,0,.09,4.24l.82.48a4.32,4.32,0,0,1-3.38,1.61,4.16,4.16,0,1,1,0-8.32Z"/><path class="cls-2" d="M896.42,460.43v5.17h-1.08v-1a5.52,5.52,0,0,1-3.57,1.18,2.57,2.57,0,0,1-2.81-2.58c0-1.56,1.21-2.36,3.14-2.36h3.24v-.3c0-1.55-1-2.23-2.48-2.23a4.93,4.93,0,0,0-2.92,1l-.35-.7a6.14,6.14,0,0,1,3.52-1.13C895,457.44,896.42,458.33,896.42,460.43Zm-3.95.87c-1.53,0-2.45.6-2.45,1.78a2,2,0,0,0,2.17,2,4.94,4.94,0,0,0,3.15-1V461.3Z"/><path class="cls-2" d="M907,460.48v5.12H905.9v-4.84a2.17,2.17,0,0,0-2.27-2.44,5,5,0,0,0-3.36,1.31v6h-1.08v-8h1.08v1.23a5.85,5.85,0,0,1,3.74-1.39A2.78,2.78,0,0,1,907,460.48Z"/><path class="cls-2" d="M537.06,481.29l-.38.67a5.57,5.57,0,0,0-2.78-.77c-1.06,0-2,.42-2,1.42,0,.64.37.94,2,1.37,2.07.55,3.41.82,3.41,2.54,0,1.52-1.44,2.25-3.18,2.24a6.54,6.54,0,0,1-3.59-1l.4-.64a6.14,6.14,0,0,0,3.19.91c1.15,0,2.17-.42,2.17-1.42,0-1.18-.85-1.28-2.64-1.76s-2.75-1-2.75-2.14c0-1.59,1.36-2.26,3-2.26A6.11,6.11,0,0,1,537.06,481.29Z"/><path class="cls-2" d="M547.55,484.6V485h-7.13a3.16,3.16,0,0,0,3.2,3,3.86,3.86,0,0,0,2.72-1.1l.58.53a4.83,4.83,0,0,1-3.38,1.37,4.17,4.17,0,0,1-4.17-4.16,4.12,4.12,0,0,1,4.09-4.16A3.94,3.94,0,0,1,547.55,484.6Zm-7.13-.21h6.11a3,3,0,0,0-3-3.16A3.11,3.11,0,0,0,540.42,484.39Z"/><path class="cls-2" d="M554.82,481.32a5.23,5.23,0,0,0-3.77,1.69v5.59H550v-8h1.08v1.54a5.29,5.29,0,0,1,3.77-1.7Z"/><path class="cls-2" d="M559.1,488.6l-3.52-8h1.16l3,6.91,3-6.91H564l-3.51,8Z"/><path class="cls-2" d="M573.16,484.6V485H566a3.17,3.17,0,0,0,3.21,3,3.82,3.82,0,0,0,2.71-1.1l.59.53a4.85,4.85,0,0,1-3.39,1.37A4.17,4.17,0,0,1,565,484.6a4.12,4.12,0,0,1,4.09-4.16A3.93,3.93,0,0,1,573.16,484.6Zm-7.12-.21h6.11a3,3,0,0,0-3.06-3.16A3.11,3.11,0,0,0,566,484.39Z"/><path class="cls-2" d="M586.53,483.43v5.17h-1.08v-1a5.55,5.55,0,0,1-3.58,1.18,2.58,2.58,0,0,1-2.81-2.58c0-1.56,1.21-2.36,3.15-2.36h3.24v-.3c0-1.55-1-2.23-2.49-2.23a4.93,4.93,0,0,0-2.92,1l-.35-.7a6.15,6.15,0,0,1,3.53-1.13C585.12,480.44,586.53,481.33,586.53,483.43Zm-4,.87c-1.52,0-2.44.6-2.44,1.78a2,2,0,0,0,2.16,2,5,5,0,0,0,3.16-1V484.3Z"/><path class="cls-2" d="M595.06,481.29l-.38.67a5.57,5.57,0,0,0-2.78-.77c-1.06,0-2,.42-2,1.42,0,.64.37.94,2,1.37,2.07.55,3.41.82,3.41,2.54,0,1.52-1.44,2.25-3.18,2.24a6.54,6.54,0,0,1-3.59-1l.4-.64a6.14,6.14,0,0,0,3.19.91c1.15,0,2.17-.42,2.17-1.42,0-1.18-.85-1.28-2.64-1.76s-2.75-1-2.75-2.14c0-1.59,1.36-2.26,3-2.26A6.11,6.11,0,0,1,595.06,481.29Z"/><path class="cls-2" d="M608.72,483.43v5.17h-1.08v-1a5.55,5.55,0,0,1-3.58,1.18,2.58,2.58,0,0,1-2.81-2.58c0-1.56,1.22-2.36,3.15-2.36h3.24v-.3c0-1.55-1-2.23-2.49-2.23a5,5,0,0,0-2.92,1l-.34-.7a6.1,6.1,0,0,1,3.52-1.13C607.31,480.44,608.72,481.33,608.72,483.43Zm-4,.87c-1.52,0-2.44.6-2.44,1.78a2,2,0,0,0,2.16,2,5,5,0,0,0,3.16-1V484.3Z"/><path class="cls-2" d="M621.25,481.29l-.38.67a5.57,5.57,0,0,0-2.78-.77c-1.06,0-2,.42-2,1.42,0,.64.37.94,2,1.37,2.08.55,3.41.82,3.41,2.54,0,1.52-1.44,2.25-3.18,2.24a6.54,6.54,0,0,1-3.59-1l.4-.64a6.14,6.14,0,0,0,3.19.91c1.15,0,2.17-.42,2.17-1.42,0-1.18-.85-1.28-2.64-1.76-1.94-.52-2.75-1-2.75-2.14,0-1.59,1.36-2.26,3-2.26A6.09,6.09,0,0,1,621.25,481.29Z"/><path class="cls-2" d="M632.1,484.6a4,4,0,0,1-4,4.16,4,4,0,0,1-3-1.33v4.29h-1.08V480.6h1.08v1.17a4,4,0,0,1,7,2.83Zm-7-1.92v3.83a3.24,3.24,0,1,0,0-3.83Z"/><path class="cls-2" d="M641.53,483.43v5.17h-1.08v-1a5.52,5.52,0,0,1-3.57,1.18,2.57,2.57,0,0,1-2.81-2.58c0-1.56,1.21-2.36,3.14-2.36h3.24v-.3c0-1.55-1-2.23-2.48-2.23a4.93,4.93,0,0,0-2.92,1l-.35-.7a6.14,6.14,0,0,1,3.52-1.13C640.12,480.44,641.53,481.33,641.53,483.43Zm-3.95.87c-1.53,0-2.45.6-2.45,1.78a2,2,0,0,0,2.17,2,4.94,4.94,0,0,0,3.15-1V484.3Z"/><path class="cls-2" d="M648.43,480.6v.84h-2.6v4.38a1.92,1.92,0,0,0,2,2.06,2.54,2.54,0,0,0,1.15-.31l.18.75a3.59,3.59,0,0,1-1.7.44,2.58,2.58,0,0,1-2.67-2.77v-4.55h-1.47v-.84h1.47v-2.37h1.08v2.37Z"/><path class="cls-2" d="M652.89,478.36a.65.65,0,1,1-.64-.56A.6.6,0,0,1,652.89,478.36Zm-1.17,10.24v-8h1.08v8Z"/><path class="cls-2" d="M662.75,483.43v5.17h-1.08v-1a5.55,5.55,0,0,1-3.58,1.18,2.58,2.58,0,0,1-2.81-2.58c0-1.56,1.22-2.36,3.15-2.36h3.24v-.3c0-1.55-1-2.23-2.49-2.23a4.92,4.92,0,0,0-2.91,1l-.35-.7a6.1,6.1,0,0,1,3.52-1.13C661.34,480.44,662.75,481.33,662.75,483.43Zm-4,.87c-1.52,0-2.44.6-2.44,1.78a2,2,0,0,0,2.16,2,5,5,0,0,0,3.16-1V484.3Z"/><path class="cls-2" d="M665.62,488.6V477.4h1.08v11.2Z"/><path class="cls-2" d="M681.12,488.6H680v-1.17a4,4,0,0,1-3,1.33,4.16,4.16,0,1,1,3-7V477.4h1.08Zm-7-4a3.27,3.27,0,0,0,5.9,1.91v-3.83a3.27,3.27,0,0,0-5.9,1.92Z"/><path class="cls-2" d="M685.43,478.36a.6.6,0,0,1-.64.57.57.57,0,1,1,0-1.13A.6.6,0,0,1,685.43,478.36Zm-1.17,10.24v-8h1.08v8Z"/><path class="cls-2" d="M690.79,488.6l-3.51-8h1.15l3,6.91,3-6.91h1.16l-3.52,8Z"/><path class="cls-2" d="M698.87,478.36a.6.6,0,0,1-.64.57.57.57,0,1,1,0-1.13A.6.6,0,0,1,698.87,478.36ZM697.7,488.6v-8h1.08v8Z"/><path class="cls-2" d="M707.55,481.29l-.38.67a5.57,5.57,0,0,0-2.78-.77c-1.06,0-2,.42-2,1.42,0,.64.38.94,2,1.37,2.07.55,3.4.82,3.4,2.54,0,1.52-1.44,2.25-3.18,2.24a6.54,6.54,0,0,1-3.59-1l.4-.64a6.14,6.14,0,0,0,3.19.91c1.15,0,2.17-.42,2.17-1.42,0-1.18-.85-1.28-2.64-1.76s-2.75-1-2.75-2.14c0-1.59,1.36-2.26,3-2.26A6.09,6.09,0,0,1,707.55,481.29Z"/><path class="cls-2" d="M711.66,478.36a.65.65,0,1,1-.64-.56A.61.61,0,0,1,711.66,478.36Zm-1.18,10.24v-8h1.08v8Z"/><path class="cls-2" d="M722.86,484.6a4.35,4.35,0,1,1-4.35-4.16A4.26,4.26,0,0,1,722.86,484.6Zm-7.64,0a3.28,3.28,0,1,0,3.28-3.24A3.27,3.27,0,0,0,715.22,484.6Z"/><path class="cls-2" d="M733.16,483.48v5.12h-1.08v-4.84a2.17,2.17,0,0,0-2.27-2.44,5,5,0,0,0-3.36,1.31v6h-1.08v-8h1.08v1.23a5.85,5.85,0,0,1,3.74-1.39A2.78,2.78,0,0,1,733.16,483.48Z"/><path class="cls-2" d="M736.5,488.19a.66.66,0,1,1-.66-.59A.63.63,0,0,1,736.5,488.19Z"/></g><g id="_28_plus" class="svg-showtip" data-name="28_plus"><circle class="cls-3" cx="565.54" cy="590.57" r="25"/><line class="cls-4" x1="550.93" y1="590.57" x2="580.16" y2="590.57"/><line class="cls-4" x1="565.54" y1="605.18" x2="565.54" y2="575.95"/></g></g></svg>