<svg xmlns="http://www.w3.org/2000/svg" viewBox="0 0 1640 790"><defs><style>.cls-1{fill:#06a7e0;stroke-width:1.33px;opacity:0.9;}.cls-1,.cls-2,.cls-3{stroke:#fff;stroke-miterlimit:10;}.cls-2{fill:none;stroke-width:4.67px;}.cls-3{fill:#fff;stroke-width:2px;}.cls-4{fill:#231f20;}</style></defs><title>12_1640x790</title><g id="_16_1640x790" data-name="16_1640x790"><g id="_18_plus" class="svg-showtip" data-name="18_plus"><circle class="cls-1" cx="782.34" cy="432.5" r="25"/><line class="cls-2" x1="767.73" y1="432.5" x2="796.96" y2="432.5"/><line class="cls-2" x1="782.34" y1="447.12" x2="782.34" y2="417.88"/></g><g id="_18_tooltip" class="svg-tooltip" data-name="18_tooltip"><path id="tooltip" class="cls-3" d="M1177.35,502.31H805.61l-23-20-24,20H719.08a3.27,3.27,0,0,0-3.26,3.26V602a3.27,3.27,0,0,0,3.26,3.26h458.27a3.27,3.27,0,0,0,3.26-3.26V505.57A3.27,3.27,0,0,0,1177.35,502.31Z"/><path class="cls-4" d="M749.69,535.44v4.28h6.17v1h-6.17v4.88h-1.16V534.4h7.9v1Z"/><path class="cls-4" d="M760.21,535.36a.65.65,0,1,1-.64-.56A.6.6,0,0,1,760.21,535.36ZM759,545.6v-8h1.07v8Z"/><path class="cls-4" d="M768,538.33a5.22,5.22,0,0,0-3.77,1.68v5.59h-1.08v-8h1.08v1.54a5.29,5.29,0,0,1,3.77-1.7Z"/><path class="cls-4" d="M777.25,541.6V542h-7.13a3.16,3.16,0,0,0,3.2,3,3.86,3.86,0,0,0,2.72-1.1l.58.53a4.83,4.83,0,0,1-3.38,1.37,4.16,4.16,0,0,1-.08-8.32A3.94,3.94,0,0,1,777.25,541.6Zm-7.13-.21h6.11a3,3,0,0,0-3.05-3.16A3.11,3.11,0,0,0,770.12,541.39Z"/><path class="cls-4" d="M787.8,541.6a4,4,0,0,1-7,2.83v4.29h-1.08V537.6h1.08v1.17a4,4,0,0,1,7,2.83Zm-7-1.92v3.83a3.25,3.25,0,1,0,2.63-5.15A3.29,3.29,0,0,0,780.83,539.68Z"/><path class="cls-4" d="M790.46,545.6V534.4h1.08v11.2Z"/><path class="cls-4" d="M801.27,540.43v5.17h-1.08v-1a5.55,5.55,0,0,1-3.58,1.18,2.58,2.58,0,0,1-2.81-2.58c0-1.55,1.22-2.36,3.15-2.36h3.24v-.3c0-1.55-1-2.23-2.49-2.23a4.93,4.93,0,0,0-2.92,1l-.35-.7a6.15,6.15,0,0,1,3.53-1.13C799.86,537.44,801.27,538.33,801.27,540.43Zm-4,.87c-1.52,0-2.44.6-2.44,1.78a2,2,0,0,0,2.16,2,5,5,0,0,0,3.16-1V541.3Z"/><path class="cls-4" d="M807.91,537.44A4.31,4.31,0,0,1,811.2,539l-.82.48a3.24,3.24,0,1,0,.09,4.24l.82.48a4.3,4.3,0,0,1-3.38,1.61,4.16,4.16,0,1,1,0-8.32Z"/><path class="cls-4" d="M821.48,541.6V542h-7.12a3.16,3.16,0,0,0,3.2,3,3.82,3.82,0,0,0,2.71-1.1l.59.53a4.83,4.83,0,0,1-3.38,1.37,4.16,4.16,0,0,1-.08-8.32A3.94,3.94,0,0,1,821.48,541.6Zm-7.12-.21h6.11a3,3,0,0,0-3.06-3.16A3.11,3.11,0,0,0,814.36,541.39Z"/><path class="cls-4" d="M829.67,538.29l-.38.67a5.57,5.57,0,0,0-2.78-.77c-1.06,0-2,.43-2,1.43,0,.63.37.93,2,1.36,2.07.55,3.41.82,3.41,2.54,0,1.52-1.44,2.25-3.18,2.24a6.54,6.54,0,0,1-3.59-1l.4-.64a6.14,6.14,0,0,0,3.19.91c1.15,0,2.17-.42,2.17-1.41,0-1.19-.85-1.29-2.64-1.77s-2.75-1-2.75-2.14c0-1.58,1.36-2.26,3-2.26A6.11,6.11,0,0,1,829.67,538.29Z"/><path class="cls-4" d="M844.52,541.6a4,4,0,0,1-7,2.83v4.29h-1.08V537.6h1.08v1.17a4,4,0,0,1,7,2.83Zm-7-1.92v3.83a3.25,3.25,0,1,0,2.63-5.15A3.29,3.29,0,0,0,837.55,539.68Z"/><path class="cls-4" d="M851.93,538.33a5.22,5.22,0,0,0-3.77,1.68v5.59h-1.08v-8h1.08v1.54a5.29,5.29,0,0,1,3.77-1.7Z"/><path class="cls-4" d="M861.71,541.6a4.35,4.35,0,1,1-4.34-4.16A4.25,4.25,0,0,1,861.71,541.6Zm-7.63,0a3.28,3.28,0,1,0,3.28-3.24A3.27,3.27,0,0,0,854.08,541.6Z"/><path class="cls-4" d="M866.21,545.6l-3.52-8h1.16l3,6.91,3-6.91h1.15l-3.52,8Z"/><path class="cls-4" d="M874.29,535.36a.65.65,0,1,1-.64-.56A.61.61,0,0,1,874.29,535.36Zm-1.18,10.24v-8h1.08v8Z"/><path class="cls-4" d="M884.84,545.6h-1.08v-1.17a4.16,4.16,0,1,1,0-5.66V534.4h1.08Zm-7-4a3.27,3.27,0,0,0,5.9,1.91v-3.83a3.27,3.27,0,0,0-5.9,1.92Z"/><path class="cls-4" d="M895.53,541.6V542H888.4a3.16,3.16,0,0,0,3.2,3,3.84,3.84,0,0,0,2.72-1.1l.59.53a4.85,4.85,0,0,1-3.39,1.37,4.16,4.16,0,0,1-.08-8.32A3.94,3.94,0,0,1,895.53,541.6Zm-7.12-.21h6.11a3,3,0,0,0-3.06-3.16A3.11,3.11,0,0,0,888.41,541.39Z"/><path class="cls-4" d="M908.9,540.43v5.17h-1.08v-1a5.55,5.55,0,0,1-3.58,1.18,2.57,2.57,0,0,1-2.81-2.58c0-1.55,1.21-2.36,3.14-2.36h3.25v-.3c0-1.55-1-2.23-2.49-2.23a4.93,4.93,0,0,0-2.92,1l-.35-.7a6.15,6.15,0,0,1,3.53-1.13C907.49,537.44,908.9,538.33,908.9,540.43Zm-4,.87c-1.53,0-2.44.6-2.44,1.78a2,2,0,0,0,2.16,2,5,5,0,0,0,3.16-1V541.3Z"/><path class="cls-4" d="M919.54,537.44a4.31,4.31,0,0,1,3.29,1.51l-.82.48a3.24,3.24,0,1,0,.09,4.24l.82.48a4.3,4.3,0,0,1-3.38,1.61,4.16,4.16,0,1,1,0-8.32Z"/><path class="cls-4" d="M933.63,541.6a4.35,4.35,0,1,1-4.35-4.16A4.25,4.25,0,0,1,933.63,541.6Zm-7.63,0a3.28,3.28,0,1,0,3.28-3.24A3.27,3.27,0,0,0,926,541.6Z"/><path class="cls-4" d="M943.13,538.86a5.47,5.47,0,0,1,3.69-1.42,2.74,2.74,0,0,1,2.9,3v5.12h-1.08v-4.84a2.13,2.13,0,0,0-2.2-2.43,4.73,4.73,0,0,0-3.14,1.2,4.73,4.73,0,0,1,.17,1.31v4.76H942.4v-4.84a2.14,2.14,0,0,0-2.21-2.43,4.2,4.2,0,0,0-3,1.22v6.05h-1.08v-8h1.08v1.22a5,5,0,0,1,3.39-1.38A2.64,2.64,0,0,1,943.13,538.86Z"/><path class="cls-4" d="M956.94,534.47l-.16.7a2.49,2.49,0,0,0-.92-.17,1.89,1.89,0,0,0-1.93,2v.57h2.7v.84h-2.7v7.16h-1.08v-7.16h-1.38v-.84h1.38V537a2.58,2.58,0,0,1,2.72-2.76A4.47,4.47,0,0,1,956.94,534.47Z"/><path class="cls-4" d="M966.64,541.6a4.35,4.35,0,1,1-4.35-4.16A4.25,4.25,0,0,1,966.64,541.6Zm-7.64,0a3.28,3.28,0,1,0,3.28-3.24A3.27,3.27,0,0,0,959,541.6Z"/><path class="cls-4" d="M974,538.33a5.24,5.24,0,0,0-3.77,1.68v5.59h-1.07v-8h1.07v1.54a5.31,5.31,0,0,1,3.77-1.7Z"/><path class="cls-4" d="M980,537.6v.84h-2.6v4.38a1.92,1.92,0,0,0,2,2.06,2.43,2.43,0,0,0,1.16-.31l.18.75a3.59,3.59,0,0,1-1.7.44,2.58,2.58,0,0,1-2.67-2.77v-4.55h-1.48v-.84h1.48v-2.37h1.08v2.37Z"/><path class="cls-4" d="M989.63,540.43v5.17h-1.08v-1a5.55,5.55,0,0,1-3.58,1.18,2.57,2.57,0,0,1-2.8-2.58c0-1.55,1.21-2.36,3.14-2.36h3.24v-.3c0-1.55-1-2.23-2.48-2.23a4.93,4.93,0,0,0-2.92,1l-.35-.7a6.12,6.12,0,0,1,3.52-1.13C988.22,537.44,989.63,538.33,989.63,540.43Zm-4,.87c-1.53,0-2.45.6-2.45,1.78a2,2,0,0,0,2.17,2,4.94,4.94,0,0,0,3.15-1V541.3Z"/><path class="cls-4" d="M993.48,538.77a4.16,4.16,0,1,1,0,5.66v1.17H992.4V534.4h1.08Zm0,.91v3.83a3.25,3.25,0,1,0,2.63-5.15A3.29,3.29,0,0,0,993.48,539.68Z"/><path class="cls-4" d="M1003.07,545.6V534.4h1.07v11.2Z"/><path class="cls-4" d="M1014.69,541.6V542h-7.12a3.16,3.16,0,0,0,3.2,3,3.82,3.82,0,0,0,2.71-1.1l.59.53a4.83,4.83,0,0,1-3.38,1.37,4.16,4.16,0,0,1-.08-8.32A3.94,3.94,0,0,1,1014.69,541.6Zm-7.12-.21h6.11a3,3,0,0,0-3-3.16A3.11,3.11,0,0,0,1007.57,541.39Z"/><path class="cls-4" d="M1026,538.33a5.22,5.22,0,0,0-3.77,1.68v5.59h-1.08v-8h1.08v1.54a5.29,5.29,0,0,1,3.77-1.7Z"/><path class="cls-4" d="M1035.24,541.6V542h-7.13a3.16,3.16,0,0,0,3.2,3,3.84,3.84,0,0,0,2.72-1.1l.59.53a4.85,4.85,0,0,1-3.39,1.37,4.16,4.16,0,0,1-.08-8.32A3.94,3.94,0,0,1,1035.24,541.6Zm-7.13-.21h6.11a3,3,0,0,0-3-3.16A3.11,3.11,0,0,0,1028.11,541.39Z"/><path class="cls-4" d="M1043.42,538.29l-.38.67a5.57,5.57,0,0,0-2.78-.77c-1.06,0-2,.43-2,1.43,0,.63.37.93,2,1.36,2.07.55,3.4.82,3.4,2.54,0,1.52-1.44,2.25-3.17,2.24a6.55,6.55,0,0,1-3.6-1l.41-.64a6.08,6.08,0,0,0,3.18.91c1.15,0,2.17-.42,2.17-1.41,0-1.19-.85-1.29-2.63-1.77-1.94-.52-2.76-1-2.76-2.14,0-1.58,1.36-2.26,3-2.26A6.06,6.06,0,0,1,1043.42,538.29Z"/><path class="cls-4" d="M1047.53,535.36a.65.65,0,1,1-.64-.56A.6.6,0,0,1,1047.53,535.36Zm-1.17,10.24v-8h1.07v8Z"/><path class="cls-4" d="M1058.08,545.6H1057v-1.17a4,4,0,0,1-7-2.83,4,4,0,0,1,7-2.83V534.4h1.08Zm-7-4a3.27,3.27,0,0,0,5.9,1.91v-3.83a3.27,3.27,0,0,0-5.9,1.92Z"/><path class="cls-4" d="M1068.77,541.6V542h-7.12a3.16,3.16,0,0,0,3.2,3,3.82,3.82,0,0,0,2.71-1.1l.59.53a4.83,4.83,0,0,1-3.38,1.37,4.16,4.16,0,0,1-.08-8.32A3.94,3.94,0,0,1,1068.77,541.6Zm-7.12-.21h6.11a3,3,0,0,0-3.06-3.16A3.11,3.11,0,0,0,1061.65,541.39Z"/><path class="cls-4" d="M1079,540.48v5.12h-1.08v-4.84a2.16,2.16,0,0,0-2.26-2.43,4.91,4.91,0,0,0-3.36,1.3v6h-1.08v-8h1.08v1.23a5.81,5.81,0,0,1,3.74-1.39A2.77,2.77,0,0,1,1079,540.48Z"/><path class="cls-4" d="M1085.89,537.6v.84h-2.61v4.38a1.92,1.92,0,0,0,2,2.06,2.36,2.36,0,0,0,1.15-.31l.18.75a3.58,3.58,0,0,1-1.69.44,2.58,2.58,0,0,1-2.67-2.77v-4.55h-1.48v-.84h1.48v-2.37h1.08v2.37Z"/><path class="cls-4" d="M1090.35,535.36a.65.65,0,1,1-.65-.56A.61.61,0,0,1,1090.35,535.36Zm-1.18,10.24v-8h1.08v8Z"/><path class="cls-4" d="M1100.2,540.43v5.17h-1.08v-1a5.52,5.52,0,0,1-3.57,1.18,2.57,2.57,0,0,1-2.81-2.58c0-1.55,1.21-2.36,3.14-2.36h3.24v-.3c0-1.55-1-2.23-2.48-2.23a4.93,4.93,0,0,0-2.92,1l-.35-.7a6.14,6.14,0,0,1,3.52-1.13C1098.79,537.44,1100.2,538.33,1100.2,540.43Zm-4,.87c-1.53,0-2.45.6-2.45,1.78a2,2,0,0,0,2.17,2,4.94,4.94,0,0,0,3.15-1V541.3Z"/><path class="cls-4" d="M1103.08,545.6V534.4h1.08v11.2Z"/><path class="cls-4" d="M1115.39,534.47l-.17.7a2.44,2.44,0,0,0-.91-.17,1.89,1.89,0,0,0-1.94,2v.57h2.7v.84h-2.7v7.16h-1.08v-7.16h-1.38v-.84h1.38V537a2.59,2.59,0,0,1,2.73-2.76A4.52,4.52,0,0,1,1115.39,534.47Z"/><path class="cls-4" d="M1124.56,541.6V542h-7.12a3.16,3.16,0,0,0,3.2,3,3.82,3.82,0,0,0,2.71-1.1l.59.53a4.83,4.83,0,0,1-3.38,1.37,4.16,4.16,0,0,1-.08-8.32A3.94,3.94,0,0,1,1124.56,541.6Zm-7.12-.21h6.11a3,3,0,0,0-3.06-3.16A3.11,3.11,0,0,0,1117.44,541.39Z"/><path class="cls-4" d="M1134.76,541.6V542h-7.13a3.16,3.16,0,0,0,3.2,3,3.86,3.86,0,0,0,2.72-1.1l.58.53a4.83,4.83,0,0,1-3.38,1.37,4.16,4.16,0,0,1-.08-8.32A3.94,3.94,0,0,1,1134.76,541.6Zm-7.13-.21h6.11a3,3,0,0,0-3-3.16A3.11,3.11,0,0,0,1127.63,541.39Z"/><path class="cls-4" d="M1137.28,545.6V534.4h1.08v11.2Z"/><path class="cls-4" d="M752.25,560.6v.84h-2.6v4.38a1.92,1.92,0,0,0,2,2.06,2.36,2.36,0,0,0,1.15-.31l.19.75a3.65,3.65,0,0,1-1.7.44,2.58,2.58,0,0,1-2.67-2.77v-4.55h-1.48v-.84h1.48v-2.37h1.08v2.37Z"/><path class="cls-4" d="M762.92,564.6a4.35,4.35,0,1,1-4.35-4.16A4.26,4.26,0,0,1,762.92,564.6Zm-7.64,0a3.28,3.28,0,1,0,3.28-3.24A3.27,3.27,0,0,0,755.28,564.6Z"/><path class="cls-4" d="M773.56,560.6v.84H771v4.38a1.92,1.92,0,0,0,2,2.06,2.42,2.42,0,0,0,1.15-.31l.18.75a3.59,3.59,0,0,1-1.7.44,2.58,2.58,0,0,1-2.67-2.77v-4.55H768.4v-.84h1.48v-2.37H771v2.37Z"/><path class="cls-4" d="M777.79,561.83a5.85,5.85,0,0,1,3.74-1.39,2.77,2.77,0,0,1,3,3v5.12h-1.07v-4.84a2.16,2.16,0,0,0-2.27-2.43,4.93,4.93,0,0,0-3.36,1.3v6h-1.08V557.4h1.08Z"/><path class="cls-4" d="M795,564.6V565h-7.13a3.16,3.16,0,0,0,3.2,3,3.84,3.84,0,0,0,2.72-1.1l.59.53a4.85,4.85,0,0,1-3.39,1.37,4.16,4.16,0,0,1-.08-8.32A3.94,3.94,0,0,1,795,564.6Zm-7.13-.21H794a3,3,0,0,0-3-3.16A3.11,3.11,0,0,0,787.91,564.39Z"/><path class="cls-4" d="M807.22,561.29l-.38.67a5.57,5.57,0,0,0-2.78-.77c-1,0-1.95.43-1.95,1.43,0,.63.37.93,2,1.36,2.07.55,3.4.82,3.4,2.54,0,1.52-1.44,2.25-3.17,2.24a6.57,6.57,0,0,1-3.6-1l.41-.64a6.08,6.08,0,0,0,3.18.91c1.15,0,2.17-.42,2.17-1.41,0-1.19-.85-1.29-2.63-1.77-1.94-.52-2.76-1-2.76-2.14,0-1.58,1.37-2.26,3-2.26A6.06,6.06,0,0,1,807.22,561.29Z"/><path class="cls-4" d="M818.07,564.6a4,4,0,0,1-7,2.83v4.29H810V560.6h1.08v1.17a4,4,0,0,1,7,2.83Zm-7-1.92v3.83a3.24,3.24,0,1,0,0-3.83Z"/><path class="cls-4" d="M827.51,563.43v5.17h-1.08v-1a5.55,5.55,0,0,1-3.58,1.18,2.58,2.58,0,0,1-2.81-2.58c0-1.55,1.22-2.36,3.15-2.36h3.24v-.3c0-1.55-1-2.23-2.49-2.23a5,5,0,0,0-2.92,1l-.34-.7a6.1,6.1,0,0,1,3.52-1.13C826.1,560.44,827.51,561.33,827.51,563.43Zm-4,.87c-1.52,0-2.44.6-2.44,1.78a2,2,0,0,0,2.16,2,5,5,0,0,0,3.16-1V564.3Z"/><path class="cls-4" d="M834.15,560.44a4.3,4.3,0,0,1,3.29,1.51l-.82.48a3.22,3.22,0,0,0-2.42-1.07,3.24,3.24,0,1,0,0,6.48,3.22,3.22,0,0,0,2.51-1.17l.82.48a4.3,4.3,0,0,1-3.38,1.61,4.16,4.16,0,1,1,0-8.32Z"/><path class="cls-4" d="M847.73,564.6V565H840.6a3.16,3.16,0,0,0,3.2,3,3.86,3.86,0,0,0,2.72-1.1l.58.53a4.83,4.83,0,0,1-3.38,1.37,4.16,4.16,0,0,1-.08-8.32A3.94,3.94,0,0,1,847.73,564.6Zm-7.13-.21h6.11a3,3,0,0,0-3.05-3.16A3.11,3.11,0,0,0,840.6,564.39Z"/><path class="cls-4" d="M850.71,568.19a.66.66,0,0,1-1.31,0,.66.66,0,0,1,1.31,0Z"/></g><g id="_19_plus" class="svg-showtip" data-name="19_plus"><circle class="cls-1" cx="251.03" cy="153.98" r="25"/><line class="cls-2" x1="236.41" y1="153.98" x2="265.64" y2="153.98"/><line class="cls-2" x1="251.03" y1="168.59" x2="251.03" y2="139.36"/></g><g id="_19_tooltip" class="svg-tooltip" data-name="19_tooltip"><path id="tooltip-2" data-name="tooltip" class="cls-3" d="M646,223.79H274.3l-23-20-24,20H187.77a3.26,3.26,0,0,0-3.26,3.26v96.44a3.27,3.27,0,0,0,3.26,3.26H646a3.27,3.27,0,0,0,3.26-3.26V227.05A3.27,3.27,0,0,0,646,223.79Z"/><path class="cls-4" d="M227.1,257.85l-1,.58a4.68,4.68,0,1,0,0,6.1l1,.58a5.76,5.76,0,1,1,0-7.26Z"/><path class="cls-4" d="M237.71,263.08a4.35,4.35,0,1,1-4.34-4.16A4.26,4.26,0,0,1,237.71,263.08Zm-7.63,0a3.28,3.28,0,1,0,3.28-3.24A3.27,3.27,0,0,0,230.08,263.08Z"/><path class="cls-4" d="M248,262v5.13h-1.07v-4.84a2.17,2.17,0,0,0-2.27-2.44,4.94,4.94,0,0,0-3.36,1.31v6h-1.08v-8h1.08v1.23a5.85,5.85,0,0,1,3.74-1.39A2.77,2.77,0,0,1,248,262Z"/><path class="cls-4" d="M256.55,259.77l-.38.67a5.47,5.47,0,0,0-2.78-.77c-1.06,0-2,.42-2,1.42,0,.64.37.94,2,1.37,2.08.55,3.41.82,3.41,2.54,0,1.52-1.44,2.25-3.18,2.24a6.62,6.62,0,0,1-3.59-1l.4-.65a6,6,0,0,0,3.19.91c1.15,0,2.17-.41,2.17-1.41,0-1.18-.85-1.28-2.64-1.76s-2.75-1-2.75-2.15c0-1.58,1.36-2.25,3-2.25A6.11,6.11,0,0,1,256.55,259.77Z"/><path class="cls-4" d="M260.66,256.84a.65.65,0,1,1-.64-.56A.61.61,0,0,1,260.66,256.84Zm-1.18,10.24v-8h1.08v8Z"/><path class="cls-4" d="M271.21,267.08h-1.08v-1.17a4,4,0,0,1-3,1.33,4.16,4.16,0,1,1,3-7v-4.37h1.08Zm-7-4a3.27,3.27,0,0,0,5.9,1.91v-3.83a3.27,3.27,0,0,0-5.9,1.92Z"/><path class="cls-4" d="M281.9,263.08v.36h-7.13a3.17,3.17,0,0,0,3.21,3,3.83,3.83,0,0,0,2.71-1.1l.59.53a4.85,4.85,0,0,1-3.39,1.37,4.17,4.17,0,0,1-4.17-4.16,4.12,4.12,0,0,1,4.09-4.16A3.93,3.93,0,0,1,281.9,263.08Zm-7.12-.21h6.11a3,3,0,0,0-3.06-3.16A3.11,3.11,0,0,0,274.78,262.87Z"/><path class="cls-4" d="M289.18,259.8a5.26,5.26,0,0,0-3.78,1.69v5.59h-1.07v-8h1.07v1.54a5.31,5.31,0,0,1,3.78-1.7Z"/><path class="cls-4" d="M303.3,263.08a4.35,4.35,0,1,1-4.35-4.16A4.26,4.26,0,0,1,303.3,263.08Zm-7.64,0a3.28,3.28,0,1,0,3.28-3.24A3.27,3.27,0,0,0,295.66,263.08Z"/><path class="cls-4" d="M310.66,259.8a5.25,5.25,0,0,0-3.77,1.69v5.59h-1.08v-8h1.08v1.54a5.29,5.29,0,0,1,3.77-1.7Z"/><path class="cls-4" d="M320.28,262v5.13H319.2v-4.84a2.16,2.16,0,0,0-2.26-2.44,4.94,4.94,0,0,0-3.36,1.31v6H312.5v-8h1.08v1.23a5.85,5.85,0,0,1,3.74-1.39A2.77,2.77,0,0,1,320.28,262Z"/><path class="cls-4" d="M330,261.91v5.17h-1.08v-1a5.53,5.53,0,0,1-3.58,1.18,2.57,2.57,0,0,1-2.8-2.58c0-1.56,1.21-2.36,3.14-2.36h3.24V262c0-1.55-1-2.23-2.48-2.23a4.93,4.93,0,0,0-2.92,1l-.35-.7a6.14,6.14,0,0,1,3.52-1.13C328.59,258.91,330,259.81,330,261.91Zm-3.95.87c-1.53,0-2.45.6-2.45,1.78a2,2,0,0,0,2.17,2,4.94,4.94,0,0,0,3.15-1v-2.79Z"/><path class="cls-4" d="M339.76,260.34a5.47,5.47,0,0,1,3.69-1.42,2.75,2.75,0,0,1,2.9,3v5.12h-1.08v-4.84a2.13,2.13,0,0,0-2.2-2.43,4.78,4.78,0,0,0-3.15,1.2,4.37,4.37,0,0,1,.18,1.31v4.76H339v-4.84a2.14,2.14,0,0,0-2.2-2.44,4.26,4.26,0,0,0-3,1.23v6.05h-1.08v-8h1.08v1.22a5,5,0,0,1,3.39-1.38A2.65,2.65,0,0,1,339.76,260.34Z"/><path class="cls-4" d="M356.89,263.08v.36h-7.13a3.17,3.17,0,0,0,3.21,3,3.82,3.82,0,0,0,2.71-1.1l.59.53a4.85,4.85,0,0,1-3.39,1.37,4.17,4.17,0,0,1-4.17-4.16,4.12,4.12,0,0,1,4.09-4.16A3.93,3.93,0,0,1,356.89,263.08Zm-7.12-.21h6.11a3,3,0,0,0-3.06-3.16A3.11,3.11,0,0,0,349.77,262.87Z"/><path class="cls-4" d="M367.1,262v5.13H366v-4.84a2.17,2.17,0,0,0-2.27-2.44,4.91,4.91,0,0,0-3.35,1.31v6h-1.08v-8h1.08v1.23a5.8,5.8,0,0,1,3.73-1.39A2.77,2.77,0,0,1,367.1,262Z"/><path class="cls-4" d="M374,259.08v.84H371.4v4.38a1.92,1.92,0,0,0,2,2.06,2.51,2.51,0,0,0,1.15-.31l.18.75a3.58,3.58,0,0,1-1.69.44,2.59,2.59,0,0,1-2.68-2.77v-4.55h-1.47v-.84h1.47v-2.37h1.08v2.37Z"/><path class="cls-4" d="M383.67,261.91v5.17h-1.08v-1a5.57,5.57,0,0,1-3.58,1.18,2.57,2.57,0,0,1-2.81-2.58c0-1.56,1.21-2.36,3.14-2.36h3.25V262c0-1.55-1-2.23-2.49-2.23a4.93,4.93,0,0,0-2.92,1l-.35-.7a6.14,6.14,0,0,1,3.52-1.13C382.26,258.91,383.67,259.81,383.67,261.91Zm-4,.87c-1.53,0-2.44.6-2.44,1.78a2,2,0,0,0,2.16,2,5,5,0,0,0,3.16-1v-2.79Z"/><path class="cls-4" d="M386.54,267.08v-11.2h1.08v11.2Z"/><path class="cls-4" d="M401.35,261.91v5.17h-1.08v-1a5.57,5.57,0,0,1-3.58,1.18,2.57,2.57,0,0,1-2.81-2.58c0-1.56,1.21-2.36,3.14-2.36h3.25V262c0-1.55-1-2.23-2.49-2.23a4.93,4.93,0,0,0-2.92,1l-.35-.7a6.14,6.14,0,0,1,3.52-1.13C399.94,258.91,401.35,259.81,401.35,261.91Zm-4,.87c-1.53,0-2.45.6-2.45,1.78a2,2,0,0,0,2.17,2,5,5,0,0,0,3.16-1v-2.79Z"/><path class="cls-4" d="M411.9,262v5.13h-1.08v-4.84a2.17,2.17,0,0,0-2.27-2.44,5,5,0,0,0-3.36,1.31v6h-1.07v-8h1.07v1.23a5.85,5.85,0,0,1,3.74-1.39A2.77,2.77,0,0,1,411.9,262Z"/><path class="cls-4" d="M422.31,267.08h-1.08v-1.17a4,4,0,0,1-3,1.33,4.16,4.16,0,1,1,3-7v-4.37h1.08Zm-7-4a3.27,3.27,0,0,0,5.9,1.91v-3.83a3.27,3.27,0,0,0-5.9,1.92Z"/><path class="cls-4" d="M436.87,267.08h-1.08v-1.17a4.16,4.16,0,1,1,0-5.66v-4.37h1.08Zm-7-4a3.27,3.27,0,0,0,5.9,1.91v-3.83a3.27,3.27,0,0,0-5.9,1.92Z"/><path class="cls-4" d="M447.56,263.08v.36h-7.13a3.17,3.17,0,0,0,3.21,3,3.82,3.82,0,0,0,2.71-1.1l.59.53a4.85,4.85,0,0,1-3.39,1.37,4.17,4.17,0,0,1-4.17-4.16,4.12,4.12,0,0,1,4.09-4.16A3.93,3.93,0,0,1,447.56,263.08Zm-7.12-.21h6.11a3,3,0,0,0-3.06-3.16A3.11,3.11,0,0,0,440.44,262.87Z"/><path class="cls-4" d="M453.86,258.92a4.28,4.28,0,0,1,3.29,1.51l-.82.48a3.24,3.24,0,1,0,.09,4.24l.82.48a4.32,4.32,0,0,1-3.38,1.61,4.16,4.16,0,1,1,0-8.32Z"/><path class="cls-4" d="M468,263.08a4.35,4.35,0,1,1-4.35-4.16A4.26,4.26,0,0,1,468,263.08Zm-7.64,0a3.29,3.29,0,1,0,3.29-3.24A3.27,3.27,0,0,0,460.31,263.08Z"/><path class="cls-4" d="M475.31,259.8a5.25,5.25,0,0,0-3.77,1.69v5.59h-1.07v-8h1.07v1.54a5.31,5.31,0,0,1,3.77-1.7Z"/><path class="cls-4" d="M483.85,261.91v5.17h-1.08v-1a5.52,5.52,0,0,1-3.57,1.18,2.57,2.57,0,0,1-2.81-2.58c0-1.56,1.21-2.36,3.14-2.36h3.24V262c0-1.55-1-2.23-2.48-2.23a4.93,4.93,0,0,0-2.92,1l-.35-.7a6.14,6.14,0,0,1,3.52-1.13C482.44,258.91,483.85,259.81,483.85,261.91Zm-4,.87c-1.53,0-2.45.6-2.45,1.78a2,2,0,0,0,2.17,2,4.94,4.94,0,0,0,3.15-1v-2.79Z"/><path class="cls-4" d="M490.76,259.08v.84h-2.61v4.38a1.92,1.92,0,0,0,2,2.06,2.51,2.51,0,0,0,1.15-.31l.18.75a3.58,3.58,0,0,1-1.69.44,2.59,2.59,0,0,1-2.68-2.77v-4.55H485.6v-.84h1.47v-2.37h1.08v2.37Z"/><path class="cls-4" d="M495.21,256.84a.65.65,0,1,1-.64-.56A.6.6,0,0,1,495.21,256.84ZM494,267.08v-8h1.08v8Z"/><path class="cls-4" d="M500.57,267.08l-3.51-8h1.15l3,6.91,3-6.91h1.16l-3.52,8Z"/><path class="cls-4" d="M514.63,263.08v.36H507.5a3.17,3.17,0,0,0,3.21,3,3.82,3.82,0,0,0,2.71-1.1l.59.53a4.83,4.83,0,0,1-3.38,1.37,4.17,4.17,0,0,1-4.18-4.16,4.12,4.12,0,0,1,4.09-4.16A3.93,3.93,0,0,1,514.63,263.08Zm-7.12-.21h6.11a3,3,0,0,0-3.06-3.16A3.11,3.11,0,0,0,507.51,262.87Z"/><path class="cls-4" d="M524.93,258.92a4.28,4.28,0,0,1,3.29,1.51l-.82.48a3.24,3.24,0,1,0,.09,4.24l.82.48a4.3,4.3,0,0,1-3.38,1.61,4.16,4.16,0,1,1,0-8.32Z"/><path class="cls-4" d="M538.5,263.08v.36h-7.13a3.17,3.17,0,0,0,3.21,3,3.82,3.82,0,0,0,2.71-1.1l.59.53a4.83,4.83,0,0,1-3.38,1.37,4.17,4.17,0,0,1-4.17-4.16,4.11,4.11,0,0,1,4.08-4.16A3.93,3.93,0,0,1,538.5,263.08Zm-7.12-.21h6.11a3,3,0,0,0-3.06-3.16A3.11,3.11,0,0,0,531.38,262.87Z"/><path class="cls-4" d="M542.31,256.84a.6.6,0,0,1-.64.57.57.57,0,1,1,0-1.13A.6.6,0,0,1,542.31,256.84Zm-1.17,10.24v-8h1.08v8Z"/><path class="cls-4" d="M545.34,267.08v-11.2h1.07v11.2Z"/><path class="cls-4" d="M550.59,256.84a.65.65,0,1,1-.65-.56A.61.61,0,0,1,550.59,256.84Zm-1.18,10.24v-8h1.08v8Z"/><path class="cls-4" d="M561.29,262v5.13h-1.08v-4.84a2.17,2.17,0,0,0-2.27-2.44,4.94,4.94,0,0,0-3.36,1.31v6H553.5v-8h1.08v1.23a5.85,5.85,0,0,1,3.74-1.39A2.78,2.78,0,0,1,561.29,262Z"/><path class="cls-4" d="M570.86,260.2v-1.12h1.08v7.2c0,2.8-1.78,4.1-4.18,4.1a6.64,6.64,0,0,1-3.69-1.15l.35-.71a5.59,5.59,0,0,0,3.14,1,3,3,0,0,0,3.3-3.26v-.82a4,4,0,0,1-3.25,1.62,3.93,3.93,0,0,1-3.94-4.06,4,4,0,0,1,3.94-4.1A4.75,4.75,0,0,1,570.86,260.2ZM564.74,263A3.2,3.2,0,0,0,568,266.2a3.32,3.32,0,0,0,2.91-1.71v-3.41a4,4,0,0,0-2.91-1.24A3.2,3.2,0,0,0,564.74,263Z"/><path class="cls-4" d="M224.44,290.08h-1.08v-1.17a4,4,0,0,1-3,1.33,4.16,4.16,0,1,1,3-7v-4.37h1.08Zm-7-4a3.27,3.27,0,0,0,5.9,1.91v-3.83a3.27,3.27,0,0,0-5.9,1.92Z"/><path class="cls-4" d="M235.13,286.08v.36H228a3.16,3.16,0,0,0,3.2,3,3.82,3.82,0,0,0,2.71-1.1l.59.53a4.83,4.83,0,0,1-3.38,1.37,4.17,4.17,0,0,1-4.17-4.16,4.12,4.12,0,0,1,4.09-4.16A3.93,3.93,0,0,1,235.13,286.08Zm-7.12-.21h6.11a3,3,0,0,0-3.06-3.16A3.11,3.11,0,0,0,228,285.87Z"/><path class="cls-4" d="M243.32,282.77l-.38.67a5.47,5.47,0,0,0-2.78-.77c-1.06,0-2,.42-2,1.42,0,.64.37.94,2,1.37,2.08.55,3.41.82,3.41,2.54,0,1.52-1.44,2.25-3.18,2.24a6.62,6.62,0,0,1-3.59-1l.4-.65a6,6,0,0,0,3.19.91c1.15,0,2.17-.41,2.17-1.41,0-1.18-.85-1.28-2.64-1.76-1.94-.52-2.75-1-2.75-2.15,0-1.58,1.36-2.25,3-2.25A6.11,6.11,0,0,1,243.32,282.77Z"/><path class="cls-4" d="M247.43,279.84a.65.65,0,1,1-.64-.56A.61.61,0,0,1,247.43,279.84Zm-1.18,10.24v-8h1.08v8Z"/><path class="cls-4" d="M257.14,283.2v-1.12h1.08v7.2c0,2.8-1.78,4.1-4.18,4.1a6.64,6.64,0,0,1-3.69-1.15l.35-.71a5.59,5.59,0,0,0,3.15,1,3,3,0,0,0,3.29-3.26v-.82a4,4,0,0,1-3.25,1.62A3.92,3.92,0,0,1,250,286a4,4,0,0,1,3.93-4.1A4.75,4.75,0,0,1,257.14,283.2ZM251,286a3.2,3.2,0,0,0,3.21,3.18,3.32,3.32,0,0,0,2.91-1.71v-3.41a4,4,0,0,0-2.91-1.24A3.2,3.2,0,0,0,251,286Z"/><path class="cls-4" d="M268.94,285v5.13h-1.08v-4.84a2.17,2.17,0,0,0-2.26-2.44,4.92,4.92,0,0,0-3.36,1.31v6h-1.08v-8h1.08v1.23a5.81,5.81,0,0,1,3.74-1.39A2.77,2.77,0,0,1,268.94,285Z"/><path class="cls-4" d="M277.48,282.77l-.38.67a5.47,5.47,0,0,0-2.78-.77c-1.06,0-2,.42-2,1.42,0,.64.37.94,2,1.37,2.07.55,3.41.82,3.41,2.54,0,1.52-1.44,2.25-3.18,2.24a6.62,6.62,0,0,1-3.59-1l.4-.65a6,6,0,0,0,3.19.91c1.15,0,2.17-.41,2.17-1.41,0-1.18-.85-1.28-2.64-1.76-1.94-.52-2.75-1-2.75-2.15,0-1.58,1.36-2.25,3-2.25A6.11,6.11,0,0,1,277.48,282.77Z"/><path class="cls-4" d="M280.76,289.67a.66.66,0,1,1-.66-.59A.62.62,0,0,1,280.76,289.67Z"/></g></g></svg>