<svg xmlns="http://www.w3.org/2000/svg" viewBox="0 0 1640 790"><defs><style>.cls-1{fill:#06a7e0;stroke-width:1.33px;opacity:0.9;}.cls-1,.cls-2,.cls-3{stroke:#fff;stroke-miterlimit:10;}.cls-2{fill:none;stroke-width:4.67px;}.cls-3{fill:#fff;stroke-width:2px;}.cls-4{fill:#231f20;}</style></defs><title>09_1640x790</title><g id="_17_1640x790" data-name="17_1640x790"><g id="_20_plus" class="svg-showtip" data-name="20_plus"><circle class="cls-1" cx="973.49" cy="320.16" r="25"/><line class="cls-2" x1="958.87" y1="320.16" x2="988.1" y2="320.16"/><line class="cls-2" x1="973.49" y1="334.78" x2="973.49" y2="305.55"/></g><g id="_20_tooltip" class="svg-tooltip" data-name="20_tooltip"><path id="tooltip" class="cls-3" d="M1369.35,242.39H997.61l-23,20-24-20H911.08a3.27,3.27,0,0,1-3.26-3.26V72.64a3.27,3.27,0,0,1,3.26-3.26h458.27a3.27,3.27,0,0,1,3.26,3.26V239.13A3.27,3.27,0,0,1,1369.35,242.39Z"/><path class="cls-4" d="M944.38,107.46v10.21h-1.16V107.46h-3.9v-1h9v1Z"/><path class="cls-4" d="M951.55,110.9a5.85,5.85,0,0,1,3.74-1.39,2.78,2.78,0,0,1,3,3v5.12h-1.08v-4.84a2.16,2.16,0,0,0-2.27-2.43,4.94,4.94,0,0,0-3.36,1.3v6h-1.07v-11.2h1.07Z"/><path class="cls-4" d="M968.8,113.67V114h-7.13a3.17,3.17,0,0,0,3.21,3,3.82,3.82,0,0,0,2.71-1.1l.59.53a4.85,4.85,0,0,1-3.39,1.37,4.16,4.16,0,0,1-.08-8.32A3.94,3.94,0,0,1,968.8,113.67Zm-7.12-.21h6.11a3,3,0,0,0-3.06-3.16A3.11,3.11,0,0,0,961.68,113.46Z"/><path class="cls-4" d="M980.08,110.4a5.22,5.22,0,0,0-3.77,1.68v5.59h-1.08v-8h1.08v1.54a5.29,5.29,0,0,1,3.77-1.7Z"/><path class="cls-4" d="M989.35,113.67V114h-7.13a3.16,3.16,0,0,0,3.2,3,3.82,3.82,0,0,0,2.71-1.1l.59.53a4.83,4.83,0,0,1-3.38,1.37,4.16,4.16,0,0,1-.08-8.32A3.94,3.94,0,0,1,989.35,113.67Zm-7.13-.21h6.11a3,3,0,0,0-3.06-3.16A3.11,3.11,0,0,0,982.22,113.46Z"/><path class="cls-4" d="M997.53,110.36l-.38.67a5.57,5.57,0,0,0-2.78-.77c-1.06,0-2,.43-2,1.43,0,.63.37.93,2,1.36,2.08.56,3.41.82,3.41,2.54,0,1.52-1.44,2.26-3.18,2.24a6.62,6.62,0,0,1-3.59-1l.4-.65a6.14,6.14,0,0,0,3.19.91c1.15,0,2.17-.42,2.17-1.41,0-1.19-.85-1.29-2.64-1.77s-2.75-1-2.75-2.14c0-1.58,1.36-2.26,3-2.26A6.09,6.09,0,0,1,997.53,110.36Z"/><path class="cls-4" d="M1004.38,109.67v.84h-2.6v4.39a1.91,1.91,0,0,0,2,2,2.36,2.36,0,0,0,1.15-.31l.19.76a3.76,3.76,0,0,1-1.7.43,2.58,2.58,0,0,1-2.67-2.77v-4.55h-1.48v-.84h1.48V107.3h1.08v2.37Z"/><path class="cls-4" d="M1014,112.5v5.17H1013v-1a5.55,5.55,0,0,1-3.58,1.18,2.58,2.58,0,0,1-2.81-2.58c0-1.55,1.22-2.36,3.15-2.36H1013v-.3c0-1.55-1-2.23-2.49-2.23a4.92,4.92,0,0,0-2.91,1l-.35-.69a6.11,6.11,0,0,1,3.52-1.14C1012.63,109.51,1014,110.4,1014,112.5Zm-4,.87c-1.52,0-2.44.6-2.44,1.78a2,2,0,0,0,2.16,2,5,5,0,0,0,3.16-1v-2.79Z"/><path class="cls-4" d="M1017.75,114.51A2.17,2.17,0,0,0,1020,117a5,5,0,0,0,3.36-1.3v-6h1.08v8h-1.08v-1.22a5.89,5.89,0,0,1-3.74,1.38,2.77,2.77,0,0,1-3-3v-5.13h1.07Z"/><path class="cls-4" d="M1032.09,110.4a5.24,5.24,0,0,0-3.77,1.68v5.59h-1.08v-8h1.08v1.54a5.29,5.29,0,0,1,3.77-1.7Z"/><path class="cls-4" d="M1040.63,112.5v5.17h-1.08v-1a5.55,5.55,0,0,1-3.58,1.18,2.57,2.57,0,0,1-2.8-2.58c0-1.55,1.21-2.36,3.14-2.36h3.24v-.3c0-1.55-1-2.23-2.48-2.23a4.93,4.93,0,0,0-2.92,1l-.35-.69a6.11,6.11,0,0,1,3.52-1.14C1039.22,109.51,1040.63,110.4,1040.63,112.5Zm-4,.87c-1.53,0-2.45.6-2.45,1.78a2,2,0,0,0,2.17,2,4.94,4.94,0,0,0,3.15-1v-2.79Z"/><path class="cls-4" d="M1051.19,112.55v5.12h-1.09v-4.84a2.15,2.15,0,0,0-2.26-2.43,4.93,4.93,0,0,0-3.36,1.3v6h-1.08v-8h1.08v1.23a5.85,5.85,0,0,1,3.74-1.39A2.78,2.78,0,0,1,1051.19,112.55Z"/><path class="cls-4" d="M1058.09,109.67v.84h-2.6v4.39a1.91,1.91,0,0,0,2,2,2.43,2.43,0,0,0,1.16-.31l.18.76a3.7,3.7,0,0,1-1.7.43,2.58,2.58,0,0,1-2.67-2.77v-4.55h-1.48v-.84h1.48V107.3h1.08v2.37Z"/><path class="cls-4" d="M1070.92,110.36l-.38.67a5.57,5.57,0,0,0-2.78-.77c-1.06,0-2,.43-2,1.43,0,.63.38.93,2,1.36,2.07.56,3.4.82,3.4,2.54,0,1.52-1.44,2.26-3.17,2.24a6.63,6.63,0,0,1-3.6-1l.4-.65a6.14,6.14,0,0,0,3.19.91c1.15,0,2.17-.42,2.17-1.41,0-1.19-.85-1.29-2.64-1.77-1.94-.52-2.75-1-2.75-2.14,0-1.58,1.36-2.26,3-2.26A6.09,6.09,0,0,1,1070.92,110.36Z"/><path class="cls-4" d="M1074.8,110.9a5.83,5.83,0,0,1,3.74-1.39,2.77,2.77,0,0,1,3,3v5.12h-1.07v-4.84a2.16,2.16,0,0,0-2.27-2.43,4.93,4.93,0,0,0-3.36,1.3v6h-1.08v-11.2h1.08Z"/><path class="cls-4" d="M1092.56,113.67a4.35,4.35,0,1,1-4.34-4.16A4.25,4.25,0,0,1,1092.56,113.67Zm-7.63,0a3.28,3.28,0,1,0,3.28-3.24A3.27,3.27,0,0,0,1084.93,113.67Z"/><path class="cls-4" d="M1096,114.51a2.17,2.17,0,0,0,2.27,2.44,5,5,0,0,0,3.36-1.3v-6h1.08v8h-1.08v-1.22a5.89,5.89,0,0,1-3.74,1.38,2.77,2.77,0,0,1-3-3v-5.13H1096Z"/><path class="cls-4" d="M1105.62,117.67v-11.2h1.07v11.2Z"/><path class="cls-4" d="M1117.11,117.67H1116V116.5a4.16,4.16,0,1,1,0-5.66v-4.37h1.07Zm-7-4a3.28,3.28,0,0,0,5.91,1.91v-3.82a3.28,3.28,0,0,0-5.91,1.91Z"/><path class="cls-4" d="M1128.17,109.67v.84h-2.6v4.39a1.91,1.91,0,0,0,2,2,2.36,2.36,0,0,0,1.15-.31l.18.76a3.69,3.69,0,0,1-1.69.43,2.58,2.58,0,0,1-2.67-2.77v-4.55H1123v-.84h1.48V107.3h1.08v2.37Z"/><path class="cls-4" d="M1136.09,110.4a5.22,5.22,0,0,0-3.77,1.68v5.59h-1.08v-8h1.08v1.54a5.29,5.29,0,0,1,3.77-1.7Z"/><path class="cls-4" d="M1144.63,112.5v5.17h-1.08v-1a5.55,5.55,0,0,1-3.58,1.18,2.58,2.58,0,0,1-2.81-2.58c0-1.55,1.22-2.36,3.15-2.36h3.24v-.3c0-1.55-1-2.23-2.49-2.23a4.92,4.92,0,0,0-2.91,1l-.35-.69a6.11,6.11,0,0,1,3.52-1.14C1143.22,109.51,1144.63,110.4,1144.63,112.5Zm-4,.87c-1.52,0-2.44.6-2.44,1.78a2,2,0,0,0,2.16,2,5,5,0,0,0,3.16-1v-2.79Z"/><path class="cls-4" d="M1155.18,112.55v5.12h-1.08v-4.84a2.16,2.16,0,0,0-2.26-2.43,4.91,4.91,0,0,0-3.36,1.3v6h-1.08v-8h1.08v1.23a5.81,5.81,0,0,1,3.74-1.39A2.77,2.77,0,0,1,1155.18,112.55Z"/><path class="cls-4" d="M1163.72,110.36l-.38.67a5.57,5.57,0,0,0-2.78-.77c-1.06,0-2,.43-2,1.43,0,.63.37.93,2,1.36,2.08.56,3.41.82,3.41,2.54,0,1.52-1.44,2.26-3.18,2.24a6.62,6.62,0,0,1-3.59-1l.4-.65a6.14,6.14,0,0,0,3.19.91c1.15,0,2.17-.42,2.17-1.41,0-1.19-.85-1.29-2.64-1.77s-2.75-1-2.75-2.14c0-1.58,1.36-2.26,3-2.26A6.11,6.11,0,0,1,1163.72,110.36Z"/><path class="cls-4" d="M1167.83,107.43a.65.65,0,1,1-.64-.56A.61.61,0,0,1,1167.83,107.43Zm-1.18,10.24v-8h1.08v8Z"/><path class="cls-4" d="M1174.87,109.67v.84h-2.6v4.39a1.91,1.91,0,0,0,2,2,2.42,2.42,0,0,0,1.15-.31l.18.76a3.7,3.7,0,0,1-1.7.43,2.58,2.58,0,0,1-2.67-2.77v-4.55h-1.47v-.84h1.47V107.3h1.08v2.37Z"/><path class="cls-4" d="M1179.33,107.43a.65.65,0,1,1-.64-.56A.6.6,0,0,1,1179.33,107.43Zm-1.17,10.24v-8h1.07v8Z"/><path class="cls-4" d="M1190.53,113.67a4.35,4.35,0,1,1-4.34-4.16A4.25,4.25,0,0,1,1190.53,113.67Zm-7.63,0a3.28,3.28,0,1,0,3.28-3.24A3.27,3.27,0,0,0,1182.9,113.67Z"/><path class="cls-4" d="M1200.83,112.55v5.12h-1.08v-4.84a2.16,2.16,0,0,0-2.27-2.43,4.9,4.9,0,0,0-3.35,1.3v6h-1.08v-8h1.08v1.23a5.8,5.8,0,0,1,3.73-1.39A2.78,2.78,0,0,1,1200.83,112.55Z"/><path class="cls-4" d="M1212.05,106.54l-.16.7a2.72,2.72,0,0,0-.92-.17,1.89,1.89,0,0,0-1.93,2v.57h2.7v.84H1209v7.16H1208v-7.16h-1.38v-.84H1208v-.6a2.58,2.58,0,0,1,2.72-2.76A4.47,4.47,0,0,1,1212.05,106.54Z"/><path class="cls-4" d="M1218.83,110.4a5.24,5.24,0,0,0-3.78,1.68v5.59H1214v-8h1.07v1.54a5.31,5.31,0,0,1,3.78-1.7Z"/><path class="cls-4" d="M1228.61,113.67a4.35,4.35,0,1,1-4.35-4.16A4.25,4.25,0,0,1,1228.61,113.67Zm-7.63,0a3.28,3.28,0,1,0,3.28-3.24A3.26,3.26,0,0,0,1221,113.67Z"/><path class="cls-4" d="M1238.11,110.93a5.47,5.47,0,0,1,3.69-1.42,2.74,2.74,0,0,1,2.9,3v5.12h-1.08v-4.84a2.13,2.13,0,0,0-2.2-2.43,4.78,4.78,0,0,0-3.15,1.2,4.37,4.37,0,0,1,.18,1.31v4.76h-1.08v-4.84a2.13,2.13,0,0,0-2.2-2.43,4.2,4.2,0,0,0-3,1.22v6h-1.08v-8h1.08v1.22a5,5,0,0,1,3.39-1.38A2.64,2.64,0,0,1,1238.11,110.93Z"/><path class="cls-4" d="M1252.56,110.84a4.16,4.16,0,1,1,0,5.66v1.17h-1.08v-11.2h1.08Zm0,.92v3.82a3.24,3.24,0,1,0,0-3.82Z"/><path class="cls-4" d="M1266.89,110.4a5.22,5.22,0,0,0-3.77,1.68v5.59H1262v-8h1.08v1.54a5.29,5.29,0,0,1,3.77-1.7Z"/><path class="cls-4" d="M1276.16,113.67V114H1269a3.16,3.16,0,0,0,3.2,3,3.82,3.82,0,0,0,2.71-1.1l.59.53a4.83,4.83,0,0,1-3.38,1.37,4.16,4.16,0,0,1-.08-8.32A3.94,3.94,0,0,1,1276.16,113.67Zm-7.13-.21h6.11a3,3,0,0,0-3.05-3.16A3.11,3.11,0,0,0,1269,113.46Z"/><path class="cls-4" d="M1285.52,112.5v5.17h-1.08v-1a5.55,5.55,0,0,1-3.58,1.18,2.57,2.57,0,0,1-2.8-2.58c0-1.55,1.21-2.36,3.14-2.36h3.24v-.3c0-1.55-1-2.23-2.48-2.23a4.93,4.93,0,0,0-2.92,1l-.35-.69a6.11,6.11,0,0,1,3.52-1.14C1284.11,109.51,1285.52,110.4,1285.52,112.5Zm-4,.87c-1.53,0-2.45.6-2.45,1.78a2,2,0,0,0,2.17,2,4.94,4.94,0,0,0,3.15-1v-2.79Z"/><path class="cls-4" d="M1294.44,109.67h1.32l-3,3,3.3,5h-1.18l-2.87-4.22-2.53,2.34v1.88h-1.08v-11.2h1.08v8Z"/><path class="cls-4" d="M1302.32,106.54l-.16.7a2.72,2.72,0,0,0-.92-.17,1.89,1.89,0,0,0-1.93,2v.57h2.7v.84h-2.7v7.16h-1.08v-7.16h-1.38v-.84h1.38v-.6a2.58,2.58,0,0,1,2.72-2.76A4.47,4.47,0,0,1,1302.32,106.54Z"/><path class="cls-4" d="M1310.79,112.5v5.17h-1.08v-1a5.55,5.55,0,0,1-3.58,1.18,2.58,2.58,0,0,1-2.81-2.58c0-1.55,1.21-2.36,3.14-2.36h3.25v-.3c0-1.55-1-2.23-2.49-2.23a4.93,4.93,0,0,0-2.92,1l-.35-.69a6.16,6.16,0,0,1,3.53-1.14C1309.38,109.51,1310.79,110.4,1310.79,112.5Zm-4,.87c-1.53,0-2.44.6-2.44,1.78a2,2,0,0,0,2.16,2,5,5,0,0,0,3.16-1v-2.79Z"/><path class="cls-4" d="M1319.31,110.36l-.37.67a5.6,5.6,0,0,0-2.79-.77c-1.05,0-2,.43-2,1.43,0,.63.37.93,2,1.36,2.07.56,3.41.82,3.41,2.54,0,1.52-1.45,2.26-3.18,2.24a6.68,6.68,0,0,1-3.6-1l.41-.65a6.14,6.14,0,0,0,3.19.91c1.15,0,2.17-.42,2.17-1.41,0-1.19-.86-1.29-2.64-1.77-1.94-.52-2.76-1-2.76-2.14,0-1.58,1.37-2.26,3-2.26A6.05,6.05,0,0,1,1319.31,110.36Z"/><path class="cls-4" d="M1326.17,109.67v.84h-2.61v4.39a1.92,1.92,0,0,0,2,2,2.39,2.39,0,0,0,1.15-.31l.18.76a3.69,3.69,0,0,1-1.69.43,2.59,2.59,0,0,1-2.68-2.77v-4.55H1321v-.84h1.47V107.3h1.08v2.37Z"/><path class="cls-4" d="M1330,117.26a.55.55,0,0,1-.1.31l-1.33,2.06-.37-.17.85-1.67a.57.57,0,0,1-.37-.53.66.66,0,0,1,1.32,0Z"/><path class="cls-4" d="M944.25,132.67v.84h-2.6v4.39a1.91,1.91,0,0,0,2,2,2.42,2.42,0,0,0,1.15-.31l.18.76a3.7,3.7,0,0,1-1.7.43,2.58,2.58,0,0,1-2.67-2.77v-4.55H939.1v-.84h1.47V130.3h1.08v2.37Z"/><path class="cls-4" d="M954.92,136.67a4.35,4.35,0,1,1-4.35-4.16A4.25,4.25,0,0,1,954.92,136.67Zm-7.64,0a3.29,3.29,0,1,0,3.29-3.24A3.27,3.27,0,0,0,947.28,136.67Z"/><path class="cls-4" d="M961.54,140.67v-11.2h1.08v11.2Z"/><path class="cls-4" d="M966.35,137.51a2.17,2.17,0,0,0,2.26,2.44,5,5,0,0,0,3.36-1.3v-6h1.08v8H972v-1.22a5.85,5.85,0,0,1-3.74,1.38,2.77,2.77,0,0,1-3-3v-5.13h1.08Z"/><path class="cls-4" d="M983.62,135.55v5.12h-1.08v-4.84a2.16,2.16,0,0,0-2.27-2.43,4.94,4.94,0,0,0-3.36,1.3v6h-1.07v-8h1.07v1.23a5.85,5.85,0,0,1,3.74-1.39A2.78,2.78,0,0,1,983.62,135.55Z"/><path class="cls-4" d="M990.27,132.51a4.31,4.31,0,0,1,3.29,1.51l-.82.48a3.24,3.24,0,1,0,.09,4.24l.82.48a4.32,4.32,0,0,1-3.38,1.61,4.16,4.16,0,1,1,0-8.32Z"/><path class="cls-4" d="M997.23,133.9a5.85,5.85,0,0,1,3.74-1.39,2.78,2.78,0,0,1,3,3v5.12h-1.08v-4.84a2.16,2.16,0,0,0-2.27-2.43,4.94,4.94,0,0,0-3.36,1.3v6h-1.07v-11.2h1.07Z"/><path class="cls-4" d="M1007.48,140.26a.54.54,0,0,1-.09.31l-1.34,2.06-.36-.17.84-1.67a.56.56,0,0,1-.36-.53.66.66,0,0,1,1.31,0Z"/><path class="cls-4" d="M1017.77,132.67v.84h-2.6v4.39a1.91,1.91,0,0,0,2,2,2.36,2.36,0,0,0,1.15-.31l.19.76a3.7,3.7,0,0,1-1.7.43,2.58,2.58,0,0,1-2.67-2.77v-4.55h-1.48v-.84h1.48V130.3h1.08v2.37Z"/><path class="cls-4" d="M1022,133.9a5.85,5.85,0,0,1,3.74-1.39,2.77,2.77,0,0,1,3,3v5.12h-1.07v-4.84a2.16,2.16,0,0,0-2.27-2.43,4.93,4.93,0,0,0-3.36,1.3v6h-1.08v-11.2H1022Z"/><path class="cls-4" d="M1039.25,136.67V137h-7.13a3.16,3.16,0,0,0,3.2,3,3.84,3.84,0,0,0,2.72-1.1l.58.53a4.81,4.81,0,0,1-3.38,1.37,4.16,4.16,0,0,1-.08-8.32A3.94,3.94,0,0,1,1039.25,136.67Zm-7.13-.21h6.11a3,3,0,0,0-3-3.16A3.11,3.11,0,0,0,1032.12,136.46Z"/><path class="cls-4" d="M1049.46,135.55v5.12h-1.08v-4.84a2.16,2.16,0,0,0-2.27-2.43,4.93,4.93,0,0,0-3.36,1.3v6h-1.07v-8h1.07v1.23a5.85,5.85,0,0,1,3.74-1.39A2.78,2.78,0,0,1,1049.46,135.55Z"/><path class="cls-4" d="M1063.87,140.67h-1.08V139.5a4.16,4.16,0,1,1,0-5.66v-4.37h1.08Zm-7-4a3.27,3.27,0,0,0,5.9,1.91v-3.82a3.27,3.27,0,0,0-5.9,1.91Z"/><path class="cls-4" d="M1068.18,130.43a.65.65,0,1,1-.64-.56A.6.6,0,0,1,1068.18,130.43ZM1067,140.67v-8h1.07v8Z"/><path class="cls-4" d="M1078.88,135.55v5.12h-1.08v-4.84a2.16,2.16,0,0,0-2.27-2.43,4.9,4.9,0,0,0-3.35,1.3v6h-1.08v-8h1.08v1.23a5.8,5.8,0,0,1,3.73-1.39A2.78,2.78,0,0,1,1078.88,135.55Z"/><path class="cls-4" d="M1089.44,135.55v5.12h-1.08v-4.84a2.16,2.16,0,0,0-2.27-2.43,4.9,4.9,0,0,0-3.35,1.3v6h-1.08v-8h1.08v1.23a5.8,5.8,0,0,1,3.73-1.39A2.78,2.78,0,0,1,1089.44,135.55Z"/><path class="cls-4" d="M1100,136.67V137h-7.13a3.17,3.17,0,0,0,3.21,3,3.82,3.82,0,0,0,2.71-1.1l.59.53a4.83,4.83,0,0,1-3.38,1.37,4.16,4.16,0,0,1-.09-8.32A3.94,3.94,0,0,1,1100,136.67Zm-7.12-.21H1099a3,3,0,0,0-3.06-3.16A3.11,3.11,0,0,0,1092.86,136.46Z"/><path class="cls-4" d="M1107.26,133.4a5.22,5.22,0,0,0-3.77,1.68v5.59h-1.08v-8h1.08v1.54a5.29,5.29,0,0,1,3.77-1.7Z"/><path class="cls-4" d="M1109.66,140.26a.66.66,0,0,1-1.32,0,.66.66,0,0,1,1.32,0Z"/><path class="cls-4" d="M1120.09,130.46v10.21h-1.16V130.46H1115v-1h9v1Z"/><path class="cls-4" d="M1127.26,133.9a5.85,5.85,0,0,1,3.74-1.39,2.78,2.78,0,0,1,3,3v5.12h-1.08v-4.84a2.16,2.16,0,0,0-2.27-2.43,4.93,4.93,0,0,0-3.36,1.3v6h-1.07v-11.2h1.07Z"/><path class="cls-4" d="M1138.13,130.43a.65.65,0,1,1-.64-.56A.6.6,0,0,1,1138.13,130.43ZM1137,140.67v-8H1138v8Z"/><path class="cls-4" d="M1148.83,135.55v5.12h-1.08v-4.84a2.16,2.16,0,0,0-2.27-2.43,4.9,4.9,0,0,0-3.35,1.3v6h-1.08v-8h1.08v1.23a5.8,5.8,0,0,1,3.73-1.39A2.78,2.78,0,0,1,1148.83,135.55Z"/><path class="cls-4" d="M1157.76,132.67h1.31l-3,3,3.3,5h-1.19l-2.87-4.22-2.52,2.34v1.88h-1.08v-11.2h1.08v8Z"/><path class="cls-4" d="M1173.47,136.67a4.35,4.35,0,1,1-4.34-4.16A4.25,4.25,0,0,1,1173.47,136.67Zm-7.63,0a3.28,3.28,0,1,0,3.28-3.24A3.27,3.27,0,0,0,1165.84,136.67Z"/><path class="cls-4" d="M1180.44,129.54l-.17.7a2.72,2.72,0,0,0-.92-.17,1.89,1.89,0,0,0-1.93,2v.57h2.7v.84h-2.7v7.16h-1.08v-7.16H1175v-.84h1.38v-.6a2.59,2.59,0,0,1,2.73-2.76A4.52,4.52,0,0,1,1180.44,129.54Z"/><path class="cls-4" d="M1190.51,129.46h3.4v11.21h-1.08V130.24h-2.19a2.72,2.72,0,0,0-.92-.17,1.89,1.89,0,0,0-1.93,2v.57h2.7v.84h-2.7v7.16h-1.08v-7.16h-1.38v-.84h1.38v-.6a2.58,2.58,0,0,1,2.73-2.76A3.89,3.89,0,0,1,1190.51,129.46Z"/><path class="cls-4" d="M1204.46,136.67V137h-7.13a3.17,3.17,0,0,0,3.2,3,3.82,3.82,0,0,0,2.72-1.1l.59.53a4.85,4.85,0,0,1-3.39,1.37,4.16,4.16,0,0,1-.08-8.32A3.94,3.94,0,0,1,1204.46,136.67Zm-7.12-.21h6.1a3,3,0,0,0-3-3.16A3.11,3.11,0,0,0,1197.34,136.46Z"/><path class="cls-4" d="M1213.76,140.67h-1.25l-2.74-3.41-2.72,3.41h-1.24l3.33-4.15-3.09-3.85h1.25l2.51,3.14,2.49-3.14h1.23l-3.09,3.88Z"/><path class="cls-4" d="M1217,130.43a.65.65,0,1,1-.64-.56A.61.61,0,0,1,1217,130.43Zm-1.18,10.24v-8h1.08v8Z"/><path class="cls-4" d="M1221,133.84a4.16,4.16,0,1,1,0,5.66v1.17h-1.07v-11.2H1221Zm0,.92v3.82a3.24,3.24,0,1,0,0-3.82Z"/><path class="cls-4" d="M1230.56,140.67v-11.2h1.08v11.2Z"/><path class="cls-4" d="M1242.19,136.67V137h-7.13a3.16,3.16,0,0,0,3.2,3,3.84,3.84,0,0,0,2.72-1.1l.59.53a4.85,4.85,0,0,1-3.39,1.37,4.16,4.16,0,0,1-.08-8.32A3.94,3.94,0,0,1,1242.19,136.67Zm-7.13-.21h6.11a3,3,0,0,0-3.05-3.16A3.11,3.11,0,0,0,1235.06,136.46Z"/><path class="cls-4" d="M1256.25,140.67h-1.08V139.5a4.16,4.16,0,1,1,0-5.66v-4.37h1.08Zm-7-4a3.27,3.27,0,0,0,5.9,1.91v-3.82a3.27,3.27,0,0,0-5.9,1.91Z"/><path class="cls-4" d="M1266.94,136.67V137h-7.13a3.16,3.16,0,0,0,3.2,3,3.84,3.84,0,0,0,2.72-1.1l.59.53a4.85,4.85,0,0,1-3.39,1.37,4.16,4.16,0,0,1-.08-8.32A3.94,3.94,0,0,1,1266.94,136.67Zm-7.13-.21h6.11a3,3,0,0,0-3.05-3.16A3.11,3.11,0,0,0,1259.81,136.46Z"/><path class="cls-4" d="M1275.12,133.36l-.38.67a5.54,5.54,0,0,0-2.78-.77c-1,0-2,.43-2,1.43,0,.63.37.93,2,1.36,2.07.56,3.4.82,3.4,2.54,0,1.52-1.44,2.26-3.17,2.24a6.68,6.68,0,0,1-3.6-1l.41-.65a6.11,6.11,0,0,0,3.18.91c1.16,0,2.18-.42,2.18-1.41,0-1.19-.86-1.29-2.64-1.77-1.94-.52-2.76-1-2.76-2.14,0-1.58,1.37-2.26,3-2.26A6.05,6.05,0,0,1,1275.12,133.36Z"/><path class="cls-4" d="M1279.23,130.43a.6.6,0,0,1-.64.57.57.57,0,1,1,0-1.13A.6.6,0,0,1,1279.23,130.43Zm-1.17,10.24v-8h1.08v8Z"/><path class="cls-4" d="M1289,133.79v-1.12H1290v7.2c0,2.8-1.78,4.1-4.17,4.1a6.64,6.64,0,0,1-3.69-1.15l.35-.7a5.58,5.58,0,0,0,3.14,1,3,3,0,0,0,3.29-3.26v-.82a4,4,0,0,1-3.25,1.62,3.92,3.92,0,0,1-3.93-4.06,4,4,0,0,1,3.93-4.1A4.77,4.77,0,0,1,1289,133.79Zm-6.12,2.82a3.2,3.2,0,0,0,3.21,3.19,3.29,3.29,0,0,0,2.9-1.72v-3.41a4,4,0,0,0-2.9-1.24A3.19,3.19,0,0,0,1282.83,136.61Z"/><path class="cls-4" d="M1300.75,135.55v5.12h-1.08v-4.84a2.16,2.16,0,0,0-2.27-2.43,4.94,4.94,0,0,0-3.36,1.3v6H1293v-8H1294v1.23a5.85,5.85,0,0,1,3.74-1.39A2.78,2.78,0,0,1,1300.75,135.55Z"/><path class="cls-4" d="M1309.28,133.36l-.38.67a5.57,5.57,0,0,0-2.78-.77c-1,0-1.95.43-1.95,1.43,0,.63.37.93,2,1.36,2.07.56,3.4.82,3.4,2.54,0,1.52-1.44,2.26-3.17,2.24a6.65,6.65,0,0,1-3.6-1l.41-.65a6.08,6.08,0,0,0,3.18.91c1.15,0,2.17-.42,2.17-1.41,0-1.19-.85-1.29-2.63-1.77-1.94-.52-2.76-1-2.76-2.14,0-1.58,1.37-2.26,3-2.26A6.06,6.06,0,0,1,1309.28,133.36Z"/><path class="cls-4" d="M944.25,155.67v.84h-2.6v4.39a1.91,1.91,0,0,0,2,2,2.42,2.42,0,0,0,1.15-.31l.18.76a3.7,3.7,0,0,1-1.7.43,2.58,2.58,0,0,1-2.67-2.77v-4.55H939.1v-.84h1.47V153.3h1.08v2.37Z"/><path class="cls-4" d="M948.48,156.9a5.85,5.85,0,0,1,3.74-1.39,2.78,2.78,0,0,1,3,3v5.12h-1.08v-4.84a2.16,2.16,0,0,0-2.27-2.43,4.94,4.94,0,0,0-3.36,1.3v6H947.4v-11.2h1.08Z"/><path class="cls-4" d="M964.91,158.5v5.17h-1.08v-1a5.57,5.57,0,0,1-3.58,1.18,2.57,2.57,0,0,1-2.81-2.58c0-1.55,1.21-2.36,3.14-2.36h3.25v-.3c0-1.55-1-2.23-2.49-2.23a4.93,4.93,0,0,0-2.92,1l-.35-.69a6.16,6.16,0,0,1,3.53-1.14C963.5,155.51,964.91,156.4,964.91,158.5Zm-4,.87c-1.53,0-2.44.6-2.44,1.78a2,2,0,0,0,2.16,2,5,5,0,0,0,3.16-1v-2.79Z"/><path class="cls-4" d="M971.8,155.67v.84h-2.6v4.39a1.92,1.92,0,0,0,2,2,2.39,2.39,0,0,0,1.15-.31l.18.76a3.7,3.7,0,0,1-1.7.43,2.58,2.58,0,0,1-2.67-2.77v-4.55h-1.47v-.84h1.47V153.3h1.08v2.37Z"/><path class="cls-4" d="M982.75,155.51A4.31,4.31,0,0,1,986,157l-.82.48a3.24,3.24,0,1,0,.09,4.24l.82.48a4.32,4.32,0,0,1-3.38,1.61,4.16,4.16,0,1,1,0-8.32Z"/><path class="cls-4" d="M995.5,158.5v5.17h-1.08v-1a5.55,5.55,0,0,1-3.58,1.18,2.57,2.57,0,0,1-2.81-2.58c0-1.55,1.21-2.36,3.15-2.36h3.24v-.3c0-1.55-1-2.23-2.49-2.23a4.93,4.93,0,0,0-2.92,1l-.35-.69a6.16,6.16,0,0,1,3.53-1.14C994.09,155.51,995.5,156.4,995.5,158.5Zm-4,.87c-1.52,0-2.44.6-2.44,1.78a2,2,0,0,0,2.16,2,5,5,0,0,0,3.16-1v-2.79Z"/><path class="cls-4" d="M1006.05,158.55v5.12H1005v-4.84a2.16,2.16,0,0,0-2.27-2.43,4.9,4.9,0,0,0-3.35,1.3v6h-1.08v-8h1.08v1.23a5.81,5.81,0,0,1,3.74-1.39A2.77,2.77,0,0,1,1006.05,158.55Z"/><path class="cls-4" d="M1017,155.67v.84h-2.61v4.39a1.92,1.92,0,0,0,2,2,2.39,2.39,0,0,0,1.15-.31l.18.76a3.69,3.69,0,0,1-1.69.43,2.59,2.59,0,0,1-2.68-2.77v-4.55h-1.47v-.84h1.47V153.3h1.08v2.37Z"/><path class="cls-4" d="M1024.88,156.4a5.22,5.22,0,0,0-3.77,1.68v5.59H1020v-8h1.08v1.54a5.29,5.29,0,0,1,3.77-1.7Z"/><path class="cls-4" d="M1033.42,158.5v5.17h-1.08v-1a5.55,5.55,0,0,1-3.58,1.18,2.57,2.57,0,0,1-2.81-2.58c0-1.55,1.21-2.36,3.15-2.36h3.24v-.3c0-1.55-1-2.23-2.49-2.23a4.93,4.93,0,0,0-2.92,1l-.35-.69a6.16,6.16,0,0,1,3.53-1.14C1032,155.51,1033.42,156.4,1033.42,158.5Zm-4,.87c-1.52,0-2.44.6-2.44,1.78a2,2,0,0,0,2.16,2,5,5,0,0,0,3.16-1v-2.79Z"/><path class="cls-4" d="M1044,158.55v5.12h-1.08v-4.84a2.16,2.16,0,0,0-2.27-2.43,4.9,4.9,0,0,0-3.35,1.3v6h-1.08v-8h1.08v1.23a5.81,5.81,0,0,1,3.74-1.39A2.77,2.77,0,0,1,1044,158.55Z"/><path class="cls-4" d="M1052.5,156.36l-.38.67a5.54,5.54,0,0,0-2.78-.77c-1,0-1.95.43-1.95,1.43,0,.63.37.93,2,1.36,2.07.56,3.4.82,3.4,2.54,0,1.52-1.44,2.26-3.17,2.24a6.68,6.68,0,0,1-3.6-1l.41-.65a6.11,6.11,0,0,0,3.19.91c1.15,0,2.17-.42,2.17-1.41,0-1.19-.86-1.29-2.64-1.77-1.94-.52-2.76-1-2.76-2.14,0-1.58,1.37-2.26,3-2.26A6.05,6.05,0,0,1,1052.5,156.36Z"/><path class="cls-4" d="M1056.61,153.43a.6.6,0,0,1-.64.57.57.57,0,1,1,0-1.13A.6.6,0,0,1,1056.61,153.43Zm-1.17,10.24v-8h1.08v8Z"/><path class="cls-4" d="M1063.66,155.67v.84h-2.6v4.39a1.91,1.91,0,0,0,2,2,2.36,2.36,0,0,0,1.15-.31l.19.76a3.76,3.76,0,0,1-1.7.43,2.58,2.58,0,0,1-2.67-2.77v-4.55h-1.48v-.84H1060V153.3h1.08v2.37Z"/><path class="cls-4" d="M1068.12,153.43a.61.61,0,0,1-.64.57.57.57,0,1,1,.64-.57Zm-1.18,10.24v-8H1068v8Z"/><path class="cls-4" d="M1079.32,159.67a4.35,4.35,0,1,1-4.35-4.16A4.25,4.25,0,0,1,1079.32,159.67Zm-7.64,0a3.29,3.29,0,1,0,3.28-3.24A3.27,3.27,0,0,0,1071.68,159.67Z"/><path class="cls-4" d="M1089.62,158.55v5.12h-1.08v-4.84a2.16,2.16,0,0,0-2.27-2.43,4.94,4.94,0,0,0-3.36,1.3v6h-1.07v-8h1.07v1.23a5.85,5.85,0,0,1,3.74-1.39A2.78,2.78,0,0,1,1089.62,158.55Z"/><path class="cls-4" d="M1095.64,160v-.92h7.21V160Z"/><path class="cls-4" d="M1113.13,155.67v.84h-2.6v4.39a1.91,1.91,0,0,0,2,2,2.42,2.42,0,0,0,1.15-.31l.18.76a3.7,3.7,0,0,1-1.7.43,2.58,2.58,0,0,1-2.67-2.77v-4.55H1108v-.84h1.48V153.3h1.08v2.37Z"/><path class="cls-4" d="M1117.36,156.9a5.85,5.85,0,0,1,3.74-1.39,2.78,2.78,0,0,1,3,3v5.12H1123v-4.84a2.16,2.16,0,0,0-2.27-2.43,4.93,4.93,0,0,0-3.36,1.3v6h-1.08v-11.2h1.08Z"/><path class="cls-4" d="M1134.61,159.67V160h-7.13a3.16,3.16,0,0,0,3.2,3,3.84,3.84,0,0,0,2.72-1.1l.59.53a4.85,4.85,0,0,1-3.39,1.37,4.16,4.16,0,0,1-.08-8.32A3.94,3.94,0,0,1,1134.61,159.67Zm-7.13-.21h6.11a3,3,0,0,0-3-3.16A3.11,3.11,0,0,0,1127.48,159.46Z"/><path class="cls-4" d="M1144.91,155.51a4.28,4.28,0,0,1,3.28,1.51l-.81.48a3.24,3.24,0,1,0,.09,4.24l.82.48a4.32,4.32,0,0,1-3.38,1.61,4.16,4.16,0,1,1,0-8.32Z"/><path class="cls-4" d="M1159,159.67a4.35,4.35,0,1,1-4.35-4.16A4.26,4.26,0,0,1,1159,159.67Zm-7.64,0a3.28,3.28,0,1,0,3.28-3.24A3.27,3.27,0,0,0,1151.36,159.67Z"/><path class="cls-4" d="M1162.46,160.51a2.16,2.16,0,0,0,2.26,2.44,5,5,0,0,0,3.36-1.3v-6h1.08v8h-1.08v-1.22a5.89,5.89,0,0,1-3.74,1.38,2.77,2.77,0,0,1-3-3v-5.13h1.08Z"/><path class="cls-4" d="M1179.73,158.55v5.12h-1.08v-4.84a2.16,2.16,0,0,0-2.27-2.43,4.94,4.94,0,0,0-3.36,1.3v6h-1.08v-8H1173v1.23a5.85,5.85,0,0,1,3.74-1.39A2.78,2.78,0,0,1,1179.73,158.55Z"/><path class="cls-4" d="M1186.63,155.67v.84H1184v4.39a1.92,1.92,0,0,0,2,2,2.42,2.42,0,0,0,1.15-.31l.18.76a3.7,3.7,0,0,1-1.7.43,2.58,2.58,0,0,1-2.67-2.77v-4.55h-1.47v-.84H1183V153.3H1184v2.37Z"/><path class="cls-4" d="M1196.78,159.67V160h-7.12a3.16,3.16,0,0,0,3.2,3,3.82,3.82,0,0,0,2.71-1.1l.59.53a4.83,4.83,0,0,1-3.38,1.37,4.16,4.16,0,0,1-.09-8.32A3.94,3.94,0,0,1,1196.78,159.67Zm-7.12-.21h6.11a3,3,0,0,0-3.06-3.16A3.11,3.11,0,0,0,1189.66,159.46Z"/><path class="cls-4" d="M1204.06,156.4a5.22,5.22,0,0,0-3.77,1.68v5.59h-1.08v-8h1.08v1.54a5.29,5.29,0,0,1,3.77-1.7Z"/><path class="cls-4" d="M1211.65,156.36l-.38.67a5.54,5.54,0,0,0-2.78-.77c-1,0-2,.43-2,1.43,0,.63.37.93,2,1.36,2.07.56,3.41.82,3.41,2.54,0,1.52-1.45,2.26-3.18,2.24a6.68,6.68,0,0,1-3.6-1l.41-.65a6.14,6.14,0,0,0,3.19.91c1.15,0,2.17-.42,2.17-1.41,0-1.19-.86-1.29-2.64-1.77-1.94-.52-2.76-1-2.76-2.14,0-1.58,1.37-2.26,3-2.26A6.05,6.05,0,0,1,1211.65,156.36Z"/><path class="cls-4" d="M1222.25,155.51a4.31,4.31,0,0,1,3.29,1.51l-.82.48a3.24,3.24,0,1,0,.09,4.24l.82.48a4.3,4.3,0,0,1-3.38,1.61,4.16,4.16,0,1,1,0-8.32Z"/><path class="cls-4" d="M1235,158.5v5.17h-1.08v-1a5.55,5.55,0,0,1-3.58,1.18,2.58,2.58,0,0,1-2.81-2.58c0-1.55,1.22-2.36,3.15-2.36h3.24v-.3c0-1.55-1-2.23-2.49-2.23a4.9,4.9,0,0,0-2.91,1l-.35-.69a6.11,6.11,0,0,1,3.52-1.14C1233.59,155.51,1235,156.4,1235,158.5Zm-4,.87c-1.52,0-2.44.6-2.44,1.78a2,2,0,0,0,2.16,2,5,5,0,0,0,3.16-1v-2.79Z"/><path class="cls-4" d="M1245.55,158.55v5.12h-1.08v-4.84a2.16,2.16,0,0,0-2.26-2.43,4.91,4.91,0,0,0-3.36,1.3v6h-1.08v-8h1.08v1.23a5.81,5.81,0,0,1,3.74-1.39A2.77,2.77,0,0,1,1245.55,158.55Z"/><path class="cls-4" d="M1258.09,156.36l-.38.67a5.6,5.6,0,0,0-2.78-.77c-1.06,0-2,.43-2,1.43,0,.63.37.93,2,1.36,2.07.56,3.41.82,3.41,2.54,0,1.52-1.44,2.26-3.18,2.24a6.62,6.62,0,0,1-3.59-1l.4-.65a6.14,6.14,0,0,0,3.19.91c1.15,0,2.17-.42,2.17-1.41,0-1.19-.85-1.29-2.64-1.77-1.94-.52-2.76-1-2.76-2.14,0-1.58,1.37-2.26,3-2.26A6.11,6.11,0,0,1,1258.09,156.36Z"/><path class="cls-4" d="M1268.58,159.67V160h-7.13a3.16,3.16,0,0,0,3.2,3,3.82,3.82,0,0,0,2.71-1.1l.59.53a4.83,4.83,0,0,1-3.38,1.37,4.16,4.16,0,0,1-.08-8.32A3.94,3.94,0,0,1,1268.58,159.67Zm-7.13-.21h6.11a3,3,0,0,0-3-3.16A3.11,3.11,0,0,0,1261.45,159.46Z"/><path class="cls-4" d="M1275.85,156.4a5.22,5.22,0,0,0-3.77,1.68v5.59H1271v-8h1.08v1.54a5.29,5.29,0,0,1,3.77-1.7Z"/><path class="cls-4" d="M1280.13,163.67l-3.52-8h1.16l3,6.91,3-6.91H1285l-3.51,8Z"/><path class="cls-4" d="M1294.19,159.67V160h-7.13a3.17,3.17,0,0,0,3.21,3,3.83,3.83,0,0,0,2.71-1.1l.59.53a4.85,4.85,0,0,1-3.39,1.37,4.16,4.16,0,0,1-.08-8.32A3.94,3.94,0,0,1,1294.19,159.67Zm-7.12-.21h6.11a3,3,0,0,0-3.06-3.16A3.11,3.11,0,0,0,1287.07,159.46Z"/><path class="cls-4" d="M1307.56,158.5v5.17h-1.08v-1a5.55,5.55,0,0,1-3.58,1.18,2.57,2.57,0,0,1-2.81-2.58c0-1.55,1.21-2.36,3.15-2.36h3.24v-.3c0-1.55-1-2.23-2.49-2.23a4.93,4.93,0,0,0-2.92,1l-.35-.69a6.16,6.16,0,0,1,3.53-1.14C1306.15,155.51,1307.56,156.4,1307.56,158.5Zm-4,.87c-1.52,0-2.44.6-2.44,1.78a2,2,0,0,0,2.16,2,5,5,0,0,0,3.16-1v-2.79Z"/><path class="cls-4" d="M1316.09,156.36l-.39.67a5.53,5.53,0,0,0-2.77-.77c-1.06,0-2,.43-2,1.43,0,.63.37.93,2,1.36,2.07.56,3.4.82,3.4,2.54,0,1.52-1.43,2.26-3.17,2.24a6.62,6.62,0,0,1-3.59-1l.4-.65a6.14,6.14,0,0,0,3.19.91c1.15,0,2.17-.42,2.17-1.41,0-1.19-.85-1.29-2.64-1.77-1.94-.52-2.76-1-2.76-2.14,0-1.58,1.37-2.26,3-2.26A6.11,6.11,0,0,1,1316.09,156.36Z"/><path class="cls-4" d="M941.2,179.84a4.16,4.16,0,1,1,0,5.66v1.17h-1.08v-11.2h1.08Zm0,.92v3.82a3.24,3.24,0,1,0,0-3.82Z"/><path class="cls-4" d="M955.53,179.4a5.24,5.24,0,0,0-3.77,1.68v5.59h-1.07v-8h1.07v1.54a5.29,5.29,0,0,1,3.77-1.7Z"/><path class="cls-4" d="M964.8,182.67V183h-7.13a3.17,3.17,0,0,0,3.21,3,3.82,3.82,0,0,0,2.71-1.1l.59.53a4.83,4.83,0,0,1-3.38,1.37,4.16,4.16,0,0,1-.09-8.32A3.94,3.94,0,0,1,964.8,182.67Zm-7.12-.21h6.11a3,3,0,0,0-3.06-3.16A3.11,3.11,0,0,0,957.68,182.46Z"/><path class="cls-4" d="M974.17,181.5v5.17h-1.08v-1a5.55,5.55,0,0,1-3.58,1.18,2.58,2.58,0,0,1-2.81-2.58c0-1.55,1.22-2.36,3.15-2.36h3.24v-.3c0-1.55-1-2.23-2.49-2.23a4.9,4.9,0,0,0-2.91,1l-.35-.69a6.11,6.11,0,0,1,3.52-1.14C972.76,178.51,974.17,179.4,974.17,181.5Zm-4,.87c-1.52,0-2.44.6-2.44,1.78a2,2,0,0,0,2.16,2,5,5,0,0,0,3.16-1v-2.79Z"/><path class="cls-4" d="M983.09,178.67h1.32l-3,3,3.3,5h-1.19l-2.86-4.22-2.53,2.34v1.88H977v-11.2h1.08v8Z"/><path class="cls-4" d="M991,175.54l-.17.7a2.66,2.66,0,0,0-.91-.17,1.89,1.89,0,0,0-1.94,2v.57h2.7v.84H988v7.16h-1.08v-7.16H985.5v-.84h1.37v-.6a2.59,2.59,0,0,1,2.73-2.76A4.47,4.47,0,0,1,991,175.54Z"/><path class="cls-4" d="M999.43,181.5v5.17h-1.08v-1a5.55,5.55,0,0,1-3.58,1.18,2.57,2.57,0,0,1-2.8-2.58c0-1.55,1.21-2.36,3.14-2.36h3.24v-.3c0-1.55-1-2.23-2.48-2.23a4.93,4.93,0,0,0-2.92,1l-.35-.69a6.11,6.11,0,0,1,3.52-1.14C998,178.51,999.43,179.4,999.43,181.5Zm-3.95.87c-1.53,0-2.45.6-2.45,1.78a2,2,0,0,0,2.17,2,4.94,4.94,0,0,0,3.15-1v-2.79Z"/><path class="cls-4" d="M1008,179.36l-.38.67a5.57,5.57,0,0,0-2.78-.77c-1,0-1.95.43-1.95,1.43,0,.63.37.93,2,1.36,2.07.56,3.4.82,3.4,2.54,0,1.52-1.44,2.26-3.17,2.24a6.65,6.65,0,0,1-3.6-1l.41-.65a6.08,6.08,0,0,0,3.18.91c1.15,0,2.17-.42,2.17-1.41,0-1.19-.85-1.29-2.63-1.77-1.94-.52-2.76-1-2.76-2.14,0-1.58,1.36-2.26,3-2.26A6.06,6.06,0,0,1,1008,179.36Z"/><path class="cls-4" d="M1014.81,178.67v.84h-2.6v4.39a1.91,1.91,0,0,0,2,2,2.42,2.42,0,0,0,1.15-.31l.18.76a3.7,3.7,0,0,1-1.7.43,2.58,2.58,0,0,1-2.67-2.77v-4.55h-1.48v-.84h1.48V176.3h1.08v2.37Z"/><path class="cls-4" d="M1023,179.84a4.16,4.16,0,1,1,0,5.66v1.17h-1.08v-11.2H1023Zm0,.92v3.82a3.24,3.24,0,1,0,0-3.82Z"/><path class="cls-4" d="M1033.38,183.51a2.17,2.17,0,0,0,2.27,2.44,5,5,0,0,0,3.36-1.3v-6h1.08v8H1039v-1.22a5.89,5.89,0,0,1-3.74,1.38,2.77,2.77,0,0,1-3-3v-5.13h1.07Z"/><path class="cls-4" d="M1047.32,175.54l-.17.7a2.66,2.66,0,0,0-.91-.17,1.89,1.89,0,0,0-1.94,2v.57h5.3v-.6a2.58,2.58,0,0,1,2.72-2.76,4.47,4.47,0,0,1,1.37.23l-.17.7a2.62,2.62,0,0,0-.91-.17,1.89,1.89,0,0,0-1.94,2v.57h2.7v.84h-2.7v7.16h-1.07v-7.16h-5.3v7.16h-1.08v-7.16h-1.37v-.84h1.37v-.6a2.59,2.59,0,0,1,2.73-2.76A4.47,4.47,0,0,1,1047.32,175.54Z"/><path class="cls-4" d="M1062.86,182.67V183h-7.12a3.16,3.16,0,0,0,3.2,3,3.82,3.82,0,0,0,2.71-1.1l.59.53a4.83,4.83,0,0,1-3.38,1.37,4.16,4.16,0,0,1-.08-8.32A3.94,3.94,0,0,1,1062.86,182.67Zm-7.12-.21h6.11a3,3,0,0,0-3.06-3.16A3.11,3.11,0,0,0,1055.74,182.46Z"/><path class="cls-4" d="M1069.42,178.67v.84h-2.6v4.39a1.91,1.91,0,0,0,2,2,2.36,2.36,0,0,0,1.15-.31l.18.76a3.69,3.69,0,0,1-1.69.43,2.58,2.58,0,0,1-2.67-2.77v-4.55h-1.48v-.84h1.48V176.3h1.08v2.37Z"/><path class="cls-4" d="M1084.12,186.67h-1.07V185.5a4.16,4.16,0,1,1,0-5.66v-4.37h1.07Zm-7-4a3.28,3.28,0,0,0,5.91,1.91v-3.82a3.28,3.28,0,0,0-5.91,1.91Z"/><path class="cls-4" d="M1088.44,176.43a.65.65,0,1,1-.65-.56A.61.61,0,0,1,1088.44,176.43Zm-1.18,10.24v-8h1.08v8Z"/><path class="cls-4" d="M1097.11,179.36l-.38.67a5.57,5.57,0,0,0-2.78-.77c-1.06,0-2,.43-2,1.43,0,.63.37.93,2,1.36,2.07.56,3.4.82,3.4,2.54,0,1.52-1.44,2.26-3.17,2.24a6.63,6.63,0,0,1-3.6-1l.41-.65a6.08,6.08,0,0,0,3.18.91c1.15,0,2.17-.42,2.17-1.41,0-1.19-.85-1.29-2.63-1.77-1.94-.52-2.76-1-2.76-2.14,0-1.58,1.37-2.26,3-2.26A6.06,6.06,0,0,1,1097.11,179.36Z"/><path class="cls-4" d="M1108,182.67a4,4,0,0,1-7,2.83v4.29h-1.08V178.67H1101v1.17a4,4,0,0,1,7,2.83Zm-7-1.91v3.82a3.24,3.24,0,1,0,0-3.82Z"/><path class="cls-4" d="M1110.62,186.67v-11.2h1.08v11.2Z"/><path class="cls-4" d="M1121.43,181.5v5.17h-1.08v-1a5.55,5.55,0,0,1-3.58,1.18,2.58,2.58,0,0,1-2.81-2.58c0-1.55,1.22-2.36,3.15-2.36h3.24v-.3c0-1.55-1-2.23-2.49-2.23a5,5,0,0,0-2.92,1l-.34-.69a6.11,6.11,0,0,1,3.52-1.14C1120,178.51,1121.43,179.4,1121.43,181.5Zm-4,.87c-1.52,0-2.44.6-2.44,1.78a2,2,0,0,0,2.16,2,5,5,0,0,0,3.16-1v-2.79Z"/><path class="cls-4" d="M1127.55,187.49c-.81,1.92-1.79,2.45-3,2.46a4.15,4.15,0,0,1-1.57-.32l.31-.72a2.77,2.77,0,0,0,1.16.22c.81,0,1.45-.42,2.09-1.81l.18-.39-3.67-8.26h1.15l3,6.91,2.9-6.91h1.12Z"/><path class="cls-4" d="M1138.88,179.36l-.37.67a5.6,5.6,0,0,0-2.79-.77c-1,0-2,.43-2,1.43,0,.63.37.93,2,1.36,2.07.56,3.41.82,3.41,2.54,0,1.52-1.45,2.26-3.18,2.24a6.68,6.68,0,0,1-3.6-1l.41-.65a6.14,6.14,0,0,0,3.19.91c1.15,0,2.17-.42,2.17-1.41,0-1.19-.86-1.29-2.64-1.77-1.94-.52-2.76-1-2.76-2.14,0-1.58,1.37-2.26,3-2.26A6.05,6.05,0,0,1,1138.88,179.36Z"/><path class="cls-4" d="M1152.55,181.5v5.17h-1.08v-1a5.55,5.55,0,0,1-3.58,1.18,2.58,2.58,0,0,1-2.81-2.58c0-1.55,1.22-2.36,3.15-2.36h3.24v-.3c0-1.55-1-2.23-2.49-2.23a4.92,4.92,0,0,0-2.91,1l-.35-.69a6.11,6.11,0,0,1,3.52-1.14C1151.14,178.51,1152.55,179.4,1152.55,181.5Zm-4,.87c-1.52,0-2.44.6-2.44,1.78a2,2,0,0,0,2.16,2,5,5,0,0,0,3.16-1v-2.79Z"/><path class="cls-4" d="M1163.1,181.55v5.12H1162v-4.84a2.16,2.16,0,0,0-2.26-2.43,4.91,4.91,0,0,0-3.36,1.3v6h-1.08v-8h1.08v1.23a5.81,5.81,0,0,1,3.74-1.39A2.77,2.77,0,0,1,1163.1,181.55Z"/><path class="cls-4" d="M1173.52,186.67h-1.08V185.5a4.16,4.16,0,1,1,0-5.66v-4.37h1.08Zm-7-4a3.28,3.28,0,0,0,5.91,1.91v-3.82a3.28,3.28,0,0,0-5.91,1.91Z"/><path class="cls-4" d="M1188.2,182.67V183h-7.12a3.16,3.16,0,0,0,3.2,3,3.86,3.86,0,0,0,2.72-1.1l.58.53a4.83,4.83,0,0,1-3.38,1.37,4.16,4.16,0,0,1-.08-8.32A3.94,3.94,0,0,1,1188.2,182.67Zm-7.12-.21h6.11a3,3,0,0,0-3-3.16A3.11,3.11,0,0,0,1181.08,182.46Z"/><path class="cls-4" d="M1192.93,186.67l-3.52-8h1.16l3,6.91,3-6.91h1.15l-3.51,8Z"/><path class="cls-4" d="M1207,182.67V183h-7.13a3.16,3.16,0,0,0,3.2,3,3.84,3.84,0,0,0,2.72-1.1l.59.53a4.85,4.85,0,0,1-3.39,1.37,4.16,4.16,0,0,1-.08-8.32A3.94,3.94,0,0,1,1207,182.67Zm-7.13-.21H1206a3,3,0,0,0-3-3.16A3.12,3.12,0,0,0,1199.86,182.46Z"/><path class="cls-4" d="M1217.2,181.55v5.12h-1.08v-4.84a2.16,2.16,0,0,0-2.27-2.43,4.9,4.9,0,0,0-3.35,1.3v6h-1.08v-8h1.08v1.23a5.8,5.8,0,0,1,3.73-1.39A2.78,2.78,0,0,1,1217.2,181.55Z"/><path class="cls-4" d="M1221.36,176.43a.65.65,0,1,1-.64-.56A.6.6,0,0,1,1221.36,176.43Zm-1.17,10.24v-8h1.08v8Z"/><path class="cls-4" d="M1232.06,181.55v5.12H1231v-4.84a2.16,2.16,0,0,0-2.26-2.43,4.91,4.91,0,0,0-3.36,1.3v6h-1.08v-8h1.08v1.23a5.81,5.81,0,0,1,3.74-1.39A2.77,2.77,0,0,1,1232.06,181.55Z"/><path class="cls-4" d="M1241.64,179.79v-1.12h1.07v7.2c0,2.8-1.78,4.1-4.18,4.1a6.64,6.64,0,0,1-3.68-1.15l.35-.7a5.58,5.58,0,0,0,3.14,1,3,3,0,0,0,3.29-3.26v-.82a4,4,0,0,1-3.25,1.62,3.92,3.92,0,0,1-3.93-4.06,4,4,0,0,1,3.93-4.1A4.79,4.79,0,0,1,1241.64,179.79Zm-6.12,2.82a3.2,3.2,0,0,0,3.21,3.19,3.29,3.29,0,0,0,2.9-1.72v-3.41a4,4,0,0,0-2.9-1.24A3.19,3.19,0,0,0,1235.52,182.61Z"/><path class="cls-4" d="M1250.73,179.84a4.16,4.16,0,1,1,0,5.66v1.17h-1.08v-11.2h1.08Zm0,.92v3.82a3.24,3.24,0,1,0,0-3.82Z"/><path class="cls-4" d="M1267.16,181.5v5.17h-1.08v-1a5.57,5.57,0,0,1-3.58,1.18,2.57,2.57,0,0,1-2.81-2.58c0-1.55,1.21-2.36,3.14-2.36h3.25v-.3c0-1.55-1-2.23-2.49-2.23a4.93,4.93,0,0,0-2.92,1l-.35-.69a6.16,6.16,0,0,1,3.53-1.14C1265.75,178.51,1267.16,179.4,1267.16,181.5Zm-4,.87c-1.53,0-2.44.6-2.44,1.78a2,2,0,0,0,2.16,2,5,5,0,0,0,3.16-1v-2.79Z"/><path class="cls-4" d="M1274.77,179.4a5.2,5.2,0,0,0-3.76,1.68v5.59h-1.08v-8H1271v1.54a5.27,5.27,0,0,1,3.76-1.7Z"/><path class="cls-4" d="M945.88,202.36l-.38.67a5.57,5.57,0,0,0-2.78-.77c-1.05,0-2,.43-2,1.43,0,.63.37.93,2,1.36,2.07.56,3.4.82,3.4,2.54,0,1.52-1.44,2.26-3.17,2.24a6.65,6.65,0,0,1-3.6-1l.41-.65a6.08,6.08,0,0,0,3.18.91c1.15,0,2.17-.42,2.17-1.41,0-1.19-.85-1.29-2.63-1.77-1.94-.52-2.76-1-2.76-2.14,0-1.58,1.36-2.26,3-2.26A6.06,6.06,0,0,1,945.88,202.36Z"/><path class="cls-4" d="M956.37,205.67V206h-7.13a3.17,3.17,0,0,0,3.2,3,3.82,3.82,0,0,0,2.72-1.1l.59.53a4.85,4.85,0,0,1-3.39,1.37,4.16,4.16,0,0,1-.08-8.32A3.94,3.94,0,0,1,956.37,205.67Zm-7.12-.21h6.1a3,3,0,0,0-3.05-3.16A3.11,3.11,0,0,0,949.25,205.46Z"/><path class="cls-4" d="M965.74,204.5v5.17h-1.08v-1a5.55,5.55,0,0,1-3.58,1.18,2.57,2.57,0,0,1-2.81-2.58c0-1.55,1.21-2.36,3.15-2.36h3.24v-.3c0-1.55-1-2.23-2.49-2.23a4.93,4.93,0,0,0-2.92,1l-.35-.69a6.16,6.16,0,0,1,3.53-1.14C964.33,201.51,965.74,202.4,965.74,204.5Zm-4,.87c-1.52,0-2.44.6-2.44,1.78a2,2,0,0,0,2.16,2,5,5,0,0,0,3.16-1v-2.79Z"/><path class="cls-4" d="M972.64,201.67v.84H970v4.39a1.92,1.92,0,0,0,2,2,2.39,2.39,0,0,0,1.15-.31l.18.76a3.69,3.69,0,0,1-1.69.43,2.59,2.59,0,0,1-2.68-2.77v-4.55h-1.47v-.84H969V199.3H970v2.37Z"/><path class="cls-4" d="M977.1,199.43a.65.65,0,1,1-.65-.56A.61.61,0,0,1,977.1,199.43Zm-1.18,10.24v-8H977v8Z"/><path class="cls-4" d="M987.79,204.55v5.12h-1.08v-4.84a2.15,2.15,0,0,0-2.26-2.43,4.93,4.93,0,0,0-3.36,1.3v6H980v-8h1.08v1.23a5.85,5.85,0,0,1,3.74-1.39A2.77,2.77,0,0,1,987.79,204.55Z"/><path class="cls-4" d="M997.37,202.79v-1.12h1.08v7.2c0,2.8-1.78,4.1-4.18,4.1a6.64,6.64,0,0,1-3.69-1.15l.35-.7a5.58,5.58,0,0,0,3.14,1,3,3,0,0,0,3.3-3.26v-.82a4,4,0,0,1-3.26,1.62,3.92,3.92,0,0,1-3.93-4.06,4,4,0,0,1,3.93-4.1A4.76,4.76,0,0,1,997.37,202.79Zm-6.12,2.82a3.21,3.21,0,0,0,3.21,3.19,3.31,3.31,0,0,0,2.91-1.72v-3.41a4,4,0,0,0-2.91-1.24A3.2,3.2,0,0,0,991.25,205.61Z"/><path class="cls-4" d="M1002,209.26a.66.66,0,0,1-1.32,0,.66.66,0,0,1,1.32,0Z"/></g></g></svg>