<svg id="_18_1640x790" data-name="18_1640x790" xmlns="http://www.w3.org/2000/svg" viewBox="0 0 1640 790"><defs><style>.cls-1{fill:#fff;stroke-width:2px;}.cls-1,.cls-3,.cls-4{stroke:#fff;stroke-miterlimit:10;}.cls-2{fill:#231f20;}.cls-3{fill:#06a7e0;stroke-width:1.33px;opacity:0.9;}.cls-4{fill:none;stroke-width:4.67px;}</style></defs><title>03_1640x790</title><g id="_23_tooltip" class="svg-tooltip" data-name="23_tooltip"><path id="tooltip" class="cls-1" d="M1141.15,605.56H769.41l-23,20-24-20H682.88a3.27,3.27,0,0,1-3.26-3.26V485.84a3.27,3.27,0,0,1,3.26-3.26h458.27a3.27,3.27,0,0,1,3.26,3.26V602.3A3.27,3.27,0,0,1,1141.15,605.56Z"/><path class="cls-2" d="M716.18,528.68v10.21H715V528.68h-3.9v-1h9v1Z"/><path class="cls-2" d="M723.35,532.11a5.9,5.9,0,0,1,3.74-1.39,2.78,2.78,0,0,1,3,3v5.13H729V534a2.16,2.16,0,0,0-2.27-2.43,5,5,0,0,0-3.36,1.3v6h-1.08V527.68h1.08Z"/><path class="cls-2" d="M740.6,534.89v.35h-7.13a3.17,3.17,0,0,0,3.21,3,3.82,3.82,0,0,0,2.71-1.1l.59.53a4.86,4.86,0,0,1-3.39,1.38,4.17,4.17,0,0,1-.08-8.33A3.94,3.94,0,0,1,740.6,534.89Zm-7.12-.21h6.11a3,3,0,0,0-3.06-3.17A3.12,3.12,0,0,0,733.48,534.68Z"/><path class="cls-2" d="M747.88,531.61a5.22,5.22,0,0,0-3.77,1.68v5.6H743v-8h1.08v1.54a5.33,5.33,0,0,1,3.77-1.7Z"/><path class="cls-2" d="M757.14,534.89v.35H750a3.16,3.16,0,0,0,3.2,3,3.82,3.82,0,0,0,2.71-1.1l.59.53a4.84,4.84,0,0,1-3.38,1.38,4.17,4.17,0,0,1-.08-8.33A3.94,3.94,0,0,1,757.14,534.89Zm-7.12-.21h6.11a3,3,0,0,0-3.06-3.17A3.12,3.12,0,0,0,750,534.68Z"/><path class="cls-2" d="M770.51,533.72v5.17h-1.08v-1a5.5,5.5,0,0,1-3.58,1.19,2.58,2.58,0,0,1-2.81-2.59c0-1.55,1.22-2.36,3.15-2.36h3.24v-.29c0-1.55-1-2.23-2.49-2.23a4.86,4.86,0,0,0-2.91,1l-.35-.7a6.1,6.1,0,0,1,3.52-1.13C769.1,530.72,770.51,531.61,770.51,533.72Zm-4,.86c-1.52,0-2.44.6-2.44,1.79a2,2,0,0,0,2.16,2,5,5,0,0,0,3.16-1v-2.79Z"/><path class="cls-2" d="M778.13,531.61a5.22,5.22,0,0,0-3.77,1.68v5.6h-1.08v-8h1.08v1.54a5.33,5.33,0,0,1,3.77-1.7Z"/><path class="cls-2" d="M787.4,534.89v.35h-7.13a3.17,3.17,0,0,0,3.21,3,3.83,3.83,0,0,0,2.71-1.1l.59.53a4.86,4.86,0,0,1-3.39,1.38,4.17,4.17,0,0,1-.08-8.33A3.94,3.94,0,0,1,787.4,534.89Zm-7.12-.21h6.11a3,3,0,0,0-3.06-3.17A3.12,3.12,0,0,0,780.28,534.68Z"/><path class="cls-2" d="M798,530.88v.84h-2.6v4.39a1.92,1.92,0,0,0,2,2,2.5,2.5,0,0,0,1.15-.3l.18.75a3.84,3.84,0,0,1-1.7.44,2.59,2.59,0,0,1-2.67-2.78v-4.55H792.8v-.84h1.47v-2.37h1.08v2.37Z"/><path class="cls-2" d="M808.31,538.89l-2.17-6.49L804,538.89h-1.2l-2.82-8H801l2.38,6.85,2.27-6.85h.92l2.27,6.85,2.38-6.85h1.08l-2.82,8Z"/><path class="cls-2" d="M822.16,534.89a4.35,4.35,0,1,1-4.35-4.17A4.26,4.26,0,0,1,822.16,534.89Zm-7.64,0a3.28,3.28,0,1,0,3.28-3.24A3.26,3.26,0,0,0,814.52,534.89Z"/><path class="cls-2" d="M837.68,538.89v-5.13h-7.44v5.13h-1.15V527.68h1.15v5h7.44v-5h1.16v11.21Z"/><path class="cls-2" d="M843.55,528.65a.65.65,0,1,1-.64-.57A.61.61,0,0,1,843.55,528.65Zm-1.18,10.24v-8h1.08v8Z"/><path class="cls-2" d="M846.57,538.89V527.68h1.08v11.21Z"/><path class="cls-2" d="M854.56,530.88v.84H852v4.39a1.91,1.91,0,0,0,1.95,2,2.46,2.46,0,0,0,1.15-.3l.19.75a3.84,3.84,0,0,1-1.7.44,2.59,2.59,0,0,1-2.67-2.78v-4.55H849.4v-.84h1.48v-2.37H852v2.37Z"/><path class="cls-2" d="M865.23,534.89a4.35,4.35,0,1,1-4.35-4.17A4.26,4.26,0,0,1,865.23,534.89Zm-7.64,0a3.28,3.28,0,1,0,3.28-3.24A3.26,3.26,0,0,0,857.59,534.89Z"/><path class="cls-2" d="M875.53,533.76v5.13h-1.08V534a2.16,2.16,0,0,0-2.27-2.43,5,5,0,0,0-3.36,1.3v6h-1.08v-8h1.08v1.23a5.9,5.9,0,0,1,3.74-1.39A2.78,2.78,0,0,1,875.53,533.76Z"/><path class="cls-2" d="M883.46,532.11a5.9,5.9,0,0,1,3.74-1.39,2.78,2.78,0,0,1,3,3v5.13h-1.08V534a2.16,2.16,0,0,0-2.27-2.43,5,5,0,0,0-3.36,1.3v6h-1.08V527.68h1.08Z"/><path class="cls-2" d="M901.23,534.89a4.35,4.35,0,1,1-4.35-4.17A4.26,4.26,0,0,1,901.23,534.89Zm-7.64,0a3.28,3.28,0,1,0,3.28-3.24A3.26,3.26,0,0,0,893.59,534.89Z"/><path class="cls-2" d="M907.87,530.88v.84h-2.6v4.39a1.91,1.91,0,0,0,2,2,2.53,2.53,0,0,0,1.15-.3l.18.75a3.84,3.84,0,0,1-1.7.44,2.59,2.59,0,0,1-2.67-2.78v-4.55h-1.47v-.84h1.47v-2.37h1.08v2.37Z"/><path class="cls-2" d="M918,534.89v.35h-7.13a3.17,3.17,0,0,0,3.21,3,3.82,3.82,0,0,0,2.71-1.1l.59.53a4.86,4.86,0,0,1-3.38,1.38,4.17,4.17,0,0,1-4.18-4.16,4.13,4.13,0,0,1,4.09-4.17A3.94,3.94,0,0,1,918,534.89Zm-7.12-.21H917a3,3,0,0,0-3.06-3.17A3.12,3.12,0,0,0,910.9,534.68Z"/><path class="cls-2" d="M920.55,538.89V527.68h1.08v11.21Z"/><path class="cls-2" d="M930.17,531.57l-.38.68a5.58,5.58,0,0,0-2.78-.78c-1,0-2,.43-2,1.43,0,.63.37.94,2,1.37,2.07.55,3.4.82,3.4,2.53,0,1.53-1.44,2.26-3.17,2.25a6.66,6.66,0,0,1-3.6-1l.41-.65a6,6,0,0,0,3.18.91c1.15,0,2.17-.41,2.17-1.41,0-1.19-.85-1.29-2.63-1.76-1.94-.52-2.76-1-2.76-2.15,0-1.58,1.37-2.25,3-2.26A6.15,6.15,0,0,1,930.17,531.57Z"/><path class="cls-2" d="M941,530.88v.84h-2.6v4.39a1.91,1.91,0,0,0,2,2,2.53,2.53,0,0,0,1.15-.3l.18.75a3.84,3.84,0,0,1-1.7.44,2.59,2.59,0,0,1-2.67-2.78v-4.55h-1.47v-.84h1.47v-2.37h1.08v2.37Z"/><path class="cls-2" d="M945.25,532.11a5.9,5.9,0,0,1,3.74-1.39,2.78,2.78,0,0,1,3,3v5.13h-1.08V534a2.16,2.16,0,0,0-2.27-2.43,5,5,0,0,0-3.36,1.3v6h-1.08V527.68h1.08Z"/><path class="cls-2" d="M961.68,533.72v5.17H960.6v-1a5.52,5.52,0,0,1-3.58,1.19,2.58,2.58,0,0,1-2.81-2.59c0-1.55,1.21-2.36,3.14-2.36h3.25v-.29c0-1.55-1-2.23-2.49-2.23a4.86,4.86,0,0,0-2.92,1l-.35-.7a6.14,6.14,0,0,1,3.52-1.13C960.27,530.72,961.68,531.61,961.68,533.72Zm-4,.86c-1.53,0-2.45.6-2.45,1.79a2,2,0,0,0,2.17,2,5,5,0,0,0,3.16-1v-2.79Z"/><path class="cls-2" d="M968.57,530.88v.84H966v4.39a1.92,1.92,0,0,0,2,2,2.5,2.5,0,0,0,1.15-.3l.18.75a3.84,3.84,0,0,1-1.7.44,2.59,2.59,0,0,1-2.67-2.78v-4.55h-1.47v-.84h1.47v-2.37H966v2.37Z"/><path class="cls-2" d="M982.59,533.72v5.17h-1.08v-1a5.5,5.5,0,0,1-3.58,1.19,2.58,2.58,0,0,1-2.81-2.59c0-1.55,1.21-2.36,3.15-2.36h3.24v-.29c0-1.55-1-2.23-2.49-2.23a4.86,4.86,0,0,0-2.92,1l-.35-.7a6.15,6.15,0,0,1,3.53-1.13C981.18,530.72,982.59,531.61,982.59,533.72Zm-4,.86c-1.53,0-2.44.6-2.44,1.79a2,2,0,0,0,2.16,2,5,5,0,0,0,3.16-1v-2.79Z"/><path class="cls-2" d="M990.21,531.61a5.22,5.22,0,0,0-3.77,1.68v5.6h-1.08v-8h1.08v1.54a5.33,5.33,0,0,1,3.77-1.7Z"/><path class="cls-2" d="M999.48,534.89v.35h-7.13a3.16,3.16,0,0,0,3.2,3,3.84,3.84,0,0,0,2.72-1.1l.58.53a4.84,4.84,0,0,1-3.38,1.38,4.17,4.17,0,0,1-.08-8.33A4,4,0,0,1,999.48,534.89Zm-7.13-.21h6.11a3,3,0,0,0-3.05-3.17A3.12,3.12,0,0,0,992.35,534.68Z"/><path class="cls-2" d="M1010,530.88v.84h-2.6v4.39a1.91,1.91,0,0,0,2,2,2.46,2.46,0,0,0,1.15-.3l.19.75a3.84,3.84,0,0,1-1.7.44,2.59,2.59,0,0,1-2.67-2.78v-4.55h-1.48v-.84h1.48v-2.37h1.08v2.37Z"/><path class="cls-2" d="M1014.26,532.11a5.9,5.9,0,0,1,3.74-1.39,2.77,2.77,0,0,1,3,3v5.13h-1.07V534a2.16,2.16,0,0,0-2.27-2.43,5,5,0,0,0-3.36,1.3v6h-1.08V527.68h1.08Z"/><path class="cls-2" d="M1031.51,534.89v.35h-7.13a3.16,3.16,0,0,0,3.2,3,3.84,3.84,0,0,0,2.72-1.1l.59.53a4.86,4.86,0,0,1-3.39,1.38,4.17,4.17,0,0,1-.08-8.33A4,4,0,0,1,1031.51,534.89Zm-7.13-.21h6.11a3,3,0,0,0-3-3.17A3.12,3.12,0,0,0,1024.38,534.68Z"/><path class="cls-2" d="M1043.69,531.57l-.38.68a5.58,5.58,0,0,0-2.78-.78c-1.06,0-2,.43-2,1.43,0,.63.38.94,2,1.37,2.07.55,3.4.82,3.4,2.53,0,1.53-1.44,2.26-3.17,2.25a6.63,6.63,0,0,1-3.6-1l.41-.65a6,6,0,0,0,3.18.91c1.15,0,2.17-.41,2.17-1.41,0-1.19-.85-1.29-2.63-1.76-1.94-.52-2.76-1-2.76-2.15,0-1.58,1.36-2.25,3-2.26A6.16,6.16,0,0,1,1043.69,531.57Z"/><path class="cls-2" d="M1053.35,533.72v5.17h-1.08v-1a5.48,5.48,0,0,1-3.57,1.19,2.58,2.58,0,0,1-2.81-2.59c0-1.55,1.21-2.36,3.14-2.36h3.24v-.29c0-1.55-1-2.23-2.48-2.23a4.86,4.86,0,0,0-2.92,1l-.35-.7a6.14,6.14,0,0,1,3.52-1.13C1051.94,530.72,1053.35,531.61,1053.35,533.72Zm-3.95.86c-1.53,0-2.45.6-2.45,1.79a2,2,0,0,0,2.17,2,4.94,4.94,0,0,0,3.15-1v-2.79Z"/><path class="cls-2" d="M1063.11,532.14a5.51,5.51,0,0,1,3.69-1.41,2.74,2.74,0,0,1,2.9,3v5.13h-1.08V534a2.13,2.13,0,0,0-2.2-2.43,4.74,4.74,0,0,0-3.15,1.21,4.28,4.28,0,0,1,.18,1.31v4.76h-1.08V534a2.13,2.13,0,0,0-2.2-2.43,4.29,4.29,0,0,0-3,1.22v6.06h-1.07v-8h1.07v1.22a5,5,0,0,1,3.4-1.38A2.65,2.65,0,0,1,1063.11,532.14Z"/><path class="cls-2" d="M1080.24,534.89v.35h-7.13a3.17,3.17,0,0,0,3.21,3,3.82,3.82,0,0,0,2.71-1.1l.59.53a4.84,4.84,0,0,1-3.38,1.38,4.17,4.17,0,0,1-4.17-4.16,4.12,4.12,0,0,1,4.08-4.17A3.94,3.94,0,0,1,1080.24,534.89Zm-7.12-.21h6.11a3,3,0,0,0-3.06-3.17A3.12,3.12,0,0,0,1073.12,534.68Z"/><path class="cls-2" d="M1085.92,535.19v-.92h7.2v.92Z"/><path class="cls-2" d="M719.21,561.89,717,555.4l-2.18,6.49h-1.19l-2.82-8h1.08l2.38,6.85,2.26-6.85h.93l2.26,6.85,2.38-6.85h1.08l-2.82,8Z"/><path class="cls-2" d="M732.6,557.89v.35h-7.13a3.17,3.17,0,0,0,3.21,3,3.82,3.82,0,0,0,2.71-1.1l.59.53a4.86,4.86,0,0,1-3.39,1.38,4.17,4.17,0,0,1-.08-8.33A3.94,3.94,0,0,1,732.6,557.89Zm-7.12-.21h6.11a3,3,0,0,0-3.06-3.17A3.12,3.12,0,0,0,725.48,557.68Z"/><path class="cls-2" d="M746.79,557.89v.35h-7.13a3.17,3.17,0,0,0,3.21,3,3.82,3.82,0,0,0,2.71-1.1l.59.53a4.84,4.84,0,0,1-3.38,1.38,4.17,4.17,0,0,1-4.18-4.16,4.13,4.13,0,0,1,4.09-4.17A3.94,3.94,0,0,1,746.79,557.89Zm-7.12-.21h6.11a3,3,0,0,0-3.06-3.17A3.12,3.12,0,0,0,739.67,557.68Z"/><path class="cls-2" d="M757,556.76v5.13h-1.08V557a2.16,2.16,0,0,0-2.27-2.43,5,5,0,0,0-3.35,1.3v6h-1.08v-8h1.08v1.23a5.86,5.86,0,0,1,3.73-1.39A2.78,2.78,0,0,1,757,556.76Z"/><path class="cls-2" d="M763.65,553.72a4.31,4.31,0,0,1,3.29,1.51l-.82.49a3.23,3.23,0,1,0,.09,4.23l.82.48a4.29,4.29,0,0,1-3.38,1.62,4.17,4.17,0,1,1,0-8.33Z"/><path class="cls-2" d="M777.74,557.89a4.35,4.35,0,1,1-4.35-4.17A4.26,4.26,0,0,1,777.74,557.89Zm-7.64,0a3.29,3.29,0,1,0,3.29-3.24A3.26,3.26,0,0,0,770.1,557.89Z"/><path class="cls-2" d="M781.2,558.73a2.16,2.16,0,0,0,2.27,2.43,5,5,0,0,0,3.35-1.3v-6h1.08v8h-1.08v-1.23a5.86,5.86,0,0,1-3.74,1.39,2.77,2.77,0,0,1-3-3v-5.13h1.08Z"/><path class="cls-2" d="M795.54,554.61a5.22,5.22,0,0,0-3.77,1.68v5.6h-1.08v-8h1.08v1.54a5.33,5.33,0,0,1,3.77-1.7Z"/><path class="cls-2" d="M804.08,556.72v5.17H803v-1a5.5,5.5,0,0,1-3.58,1.19,2.58,2.58,0,0,1-2.81-2.59c0-1.55,1.21-2.36,3.14-2.36H803v-.29c0-1.55-1-2.23-2.49-2.23a4.86,4.86,0,0,0-2.92,1l-.35-.7a6.15,6.15,0,0,1,3.53-1.13C802.67,553.72,804.08,554.61,804.08,556.72Zm-4,.86c-1.53,0-2.44.6-2.44,1.79a2,2,0,0,0,2.16,2,5,5,0,0,0,3.16-1v-2.79Z"/><path class="cls-2" d="M813.64,555v-1.12h1.08v7.21c0,2.8-1.78,4.1-4.18,4.09a6.51,6.51,0,0,1-3.69-1.15l.36-.7a5.56,5.56,0,0,0,3.14,1,3,3,0,0,0,3.29-3.26v-.83a4,4,0,0,1-3.25,1.63,4.09,4.09,0,0,1,0-8.17A4.8,4.8,0,0,1,813.64,555Zm-6.12,2.83a3.2,3.2,0,0,0,3.22,3.18,3.3,3.3,0,0,0,2.9-1.71v-3.41a4,4,0,0,0-2.9-1.24A3.2,3.2,0,0,0,807.52,557.83Z"/><path class="cls-2" d="M825.43,557.89v.35H818.3a3.16,3.16,0,0,0,3.2,3,3.84,3.84,0,0,0,2.72-1.1l.59.53a4.86,4.86,0,0,1-3.39,1.38,4.17,4.17,0,0,1-.08-8.33A3.94,3.94,0,0,1,825.43,557.89Zm-7.13-.21h6.11a3,3,0,0,0-3-3.17A3.12,3.12,0,0,0,818.3,557.68Z"/><path class="cls-2" d="M839.49,561.89h-1.08v-1.18a4,4,0,0,1-3,1.34,4.17,4.17,0,0,1,0-8.33,4,4,0,0,1,3,1.34v-4.38h1.08Zm-7-4a3.27,3.27,0,0,0,5.9,1.9V556a3.27,3.27,0,0,0-5.9,1.92Z"/><path class="cls-2" d="M850.18,557.89v.35h-7.13a3.16,3.16,0,0,0,3.2,3,3.84,3.84,0,0,0,2.72-1.1l.59.53a4.86,4.86,0,0,1-3.39,1.38,4.17,4.17,0,0,1-.08-8.33A3.94,3.94,0,0,1,850.18,557.89Zm-7.12-.21h6.1a3,3,0,0,0-3-3.17A3.11,3.11,0,0,0,843.06,557.68Z"/><path class="cls-2" d="M858.36,554.57l-.38.68a5.55,5.55,0,0,0-2.78-.78c-1.05,0-2,.43-2,1.43,0,.63.37.94,2,1.37,2.07.55,3.4.82,3.4,2.53,0,1.53-1.44,2.26-3.17,2.25a6.68,6.68,0,0,1-3.6-1l.41-.65a6,6,0,0,0,3.18.91c1.16,0,2.18-.41,2.18-1.41,0-1.19-.86-1.29-2.64-1.76-1.94-.52-2.76-1-2.76-2.15,0-1.58,1.37-2.25,3-2.26A6.15,6.15,0,0,1,858.36,554.57Z"/><path class="cls-2" d="M862.47,551.65a.6.6,0,0,1-.64.56.57.57,0,1,1,.64-.56Zm-1.17,10.24v-8h1.08v8Z"/><path class="cls-2" d="M872.19,555v-1.12h1.08v7.21c0,2.8-1.79,4.1-4.18,4.09A6.49,6.49,0,0,1,865.4,564l.35-.7a5.59,5.59,0,0,0,3.14,1,3,3,0,0,0,3.3-3.26v-.83a4,4,0,0,1-3.26,1.63,4.09,4.09,0,0,1,0-8.17A4.82,4.82,0,0,1,872.19,555Zm-6.12,2.83a3.2,3.2,0,0,0,3.21,3.18,3.33,3.33,0,0,0,2.91-1.71v-3.41a4,4,0,0,0-2.91-1.24A3.2,3.2,0,0,0,866.07,557.83Z"/><path class="cls-2" d="M884,556.76v5.13h-1.08V557a2.16,2.16,0,0,0-2.27-2.43,5,5,0,0,0-3.36,1.3v6h-1.07v-8h1.07v1.23a5.9,5.9,0,0,1,3.74-1.39A2.78,2.78,0,0,1,884,556.76Z"/><path class="cls-2" d="M894.53,557.89v.35H887.4a3.17,3.17,0,0,0,3.21,3,3.82,3.82,0,0,0,2.71-1.1l.59.53a4.86,4.86,0,0,1-3.39,1.38,4.17,4.17,0,0,1-.08-8.33A3.94,3.94,0,0,1,894.53,557.89Zm-7.12-.21h6.11a3,3,0,0,0-3.06-3.17A3.12,3.12,0,0,0,887.41,557.68Z"/><path class="cls-2" d="M901.81,554.61a5.22,5.22,0,0,0-3.77,1.68v5.6H897v-8H898v1.54a5.33,5.33,0,0,1,3.77-1.7Z"/><path class="cls-2" d="M909.4,554.57l-.38.68a5.55,5.55,0,0,0-2.78-.78c-1,0-2,.43-2,1.43,0,.63.37.94,2,1.37,2.07.55,3.4.82,3.4,2.53,0,1.53-1.44,2.26-3.17,2.25a6.66,6.66,0,0,1-3.6-1l.41-.65a6,6,0,0,0,3.18.91c1.15,0,2.17-.41,2.17-1.41,0-1.19-.85-1.29-2.63-1.76-1.94-.52-2.76-1-2.76-2.15,0-1.58,1.37-2.25,3-2.26A6.15,6.15,0,0,1,909.4,554.57Z"/><path class="cls-2" d="M920.25,553.88v.84h-2.6v4.39a1.92,1.92,0,0,0,2,2,2.5,2.5,0,0,0,1.15-.3l.18.75a3.84,3.84,0,0,1-1.7.44,2.59,2.59,0,0,1-2.67-2.78v-4.55H915.1v-.84h1.47v-2.37h1.08v2.37Z"/><path class="cls-2" d="M930.92,557.89a4.35,4.35,0,1,1-4.35-4.17A4.26,4.26,0,0,1,930.92,557.89Zm-7.63,0a3.28,3.28,0,1,0,3.28-3.24A3.26,3.26,0,0,0,923.29,557.89Z"/><path class="cls-2" d="M938.52,555.06a4,4,0,0,1,3-1.34,4.17,4.17,0,0,1,0,8.33,4,4,0,0,1-3-1.34v1.18h-1.08V550.68h1.08Zm0,.91v3.82a3.23,3.23,0,1,0,0-3.82Z"/><path class="cls-2" d="M955.76,557.89v.35h-7.12a3.16,3.16,0,0,0,3.2,3,3.82,3.82,0,0,0,2.71-1.1l.59.53a4.84,4.84,0,0,1-3.38,1.38,4.17,4.17,0,0,1-.08-8.33A3.94,3.94,0,0,1,955.76,557.89Zm-7.12-.21h6.11a3,3,0,0,0-3.06-3.17A3.12,3.12,0,0,0,948.64,557.68Z"/><path class="cls-2" d="M966.06,553.72a4.31,4.31,0,0,1,3.29,1.51l-.82.49a3.23,3.23,0,1,0,.09,4.23l.82.48a4.28,4.28,0,0,1-3.38,1.62,4.17,4.17,0,1,1,0-8.33Z"/><path class="cls-2" d="M976.72,554.61a5.22,5.22,0,0,0-3.77,1.68v5.6h-1.08v-8H973v1.54a5.33,5.33,0,0,1,3.77-1.7Z"/><path class="cls-2" d="M986,557.89v.35h-7.13a3.16,3.16,0,0,0,3.2,3,3.86,3.86,0,0,0,2.72-1.1l.58.53a4.84,4.84,0,0,1-3.38,1.38,4.17,4.17,0,0,1-.08-8.33A4,4,0,0,1,986,557.89Zm-7.13-.21H985a3,3,0,0,0-3.05-3.17A3.12,3.12,0,0,0,978.86,557.68Z"/><path class="cls-2" d="M995.35,556.72v5.17h-1.08v-1a5.5,5.5,0,0,1-3.58,1.19,2.57,2.57,0,0,1-2.8-2.59c0-1.55,1.21-2.36,3.14-2.36h3.24v-.29c0-1.55-1-2.23-2.48-2.23a4.86,4.86,0,0,0-2.92,1l-.35-.7a6.12,6.12,0,0,1,3.52-1.13C993.94,553.72,995.35,554.61,995.35,556.72Zm-4,.86c-1.53,0-2.45.6-2.45,1.79a2,2,0,0,0,2.17,2,4.94,4.94,0,0,0,3.15-1v-2.79Z"/><path class="cls-2" d="M1002.25,553.88v.84h-2.6v4.39a1.91,1.91,0,0,0,2,2,2.53,2.53,0,0,0,1.15-.3l.18.75a3.84,3.84,0,0,1-1.7.44,2.59,2.59,0,0,1-2.67-2.78v-4.55H997.1v-.84h1.47v-2.37h1.08v2.37Z"/><path class="cls-2" d="M1006.71,551.65a.64.64,0,1,1-.64-.57A.6.6,0,0,1,1006.71,551.65Zm-1.17,10.24v-8h1.07v8Z"/><path class="cls-2" d="M1012.07,561.89l-3.52-8h1.16l3,6.91,3-6.91h1.15l-3.51,8Z"/><path class="cls-2" d="M1026.13,557.89v.35H1019a3.16,3.16,0,0,0,3.2,3,3.84,3.84,0,0,0,2.72-1.1l.59.53a4.86,4.86,0,0,1-3.39,1.38,4.17,4.17,0,0,1-.08-8.33A3.94,3.94,0,0,1,1026.13,557.89Zm-7.12-.21h6.1a3,3,0,0,0-3-3.17A3.12,3.12,0,0,0,1019,557.68Z"/><path class="cls-2" d="M1029.12,561.48a.66.66,0,1,1-.66-.59A.63.63,0,0,1,1029.12,561.48Z"/></g><g id="_23_plus" class="svg-showtip" data-name="23_plus"><circle class="cls-3" cx="746" cy="672.39" r="25"/><line class="cls-4" x1="731.38" y1="672.39" x2="760.61" y2="672.39"/><line class="cls-4" x1="746" y1="687" x2="746" y2="657.77"/></g><g id="_22_tooltip" class="svg-tooltip" data-name="22_tooltip"><path id="tooltip-2" data-name="tooltip" class="cls-1" d="M849.13,146.54H477.39l-23-20-24,20H390.86a3.27,3.27,0,0,0-3.26,3.26V266.26a3.27,3.27,0,0,0,3.26,3.26H849.13a3.27,3.27,0,0,0,3.26-3.26V149.8A3.27,3.27,0,0,0,849.13,146.54Z"/><path class="cls-2" d="M424.16,191.64v10.21H423V191.64h-3.9v-1h9v1Z"/><path class="cls-2" d="M431.33,195.07a5.9,5.9,0,0,1,3.74-1.39,2.78,2.78,0,0,1,3,3v5.13H437V197a2.16,2.16,0,0,0-2.27-2.43,5,5,0,0,0-3.36,1.3v6h-1.07V190.64h1.07Z"/><path class="cls-2" d="M448.58,197.84v.36h-7.13a3.17,3.17,0,0,0,3.21,3,3.82,3.82,0,0,0,2.71-1.1l.59.53a4.86,4.86,0,0,1-3.39,1.38,4.17,4.17,0,0,1-4.17-4.17,4.13,4.13,0,0,1,4.09-4.16A3.94,3.94,0,0,1,448.58,197.84Zm-7.12-.2h6.11a3,3,0,0,0-3.06-3.17A3.12,3.12,0,0,0,441.46,197.64Z"/><path class="cls-2" d="M455.86,194.57a5.22,5.22,0,0,0-3.77,1.68v5.6H451v-8h1.08v1.54a5.33,5.33,0,0,1,3.77-1.7Z"/><path class="cls-2" d="M465.12,197.84v.36H458a3.16,3.16,0,0,0,3.2,3,3.82,3.82,0,0,0,2.71-1.1l.59.53a4.84,4.84,0,0,1-3.38,1.38,4.17,4.17,0,0,1-4.17-4.17,4.12,4.12,0,0,1,4.09-4.16A3.94,3.94,0,0,1,465.12,197.84Zm-7.12-.2h6.11a3,3,0,0,0-3.05-3.17A3.12,3.12,0,0,0,458,197.64Z"/><path class="cls-2" d="M478.49,196.68v5.17h-1.08v-1a5.5,5.5,0,0,1-3.58,1.19,2.58,2.58,0,0,1-2.81-2.59c0-1.55,1.22-2.36,3.15-2.36h3.24v-.29c0-1.55-1-2.24-2.48-2.23a4.86,4.86,0,0,0-2.92,1l-.35-.7a6.18,6.18,0,0,1,3.52-1.14C477.08,193.68,478.49,194.57,478.49,196.68Zm-4,.86c-1.52,0-2.44.6-2.44,1.79a2,2,0,0,0,2.17,2,4.94,4.94,0,0,0,3.15-1v-2.79Z"/><path class="cls-2" d="M486.11,194.57a5.22,5.22,0,0,0-3.77,1.68v5.6h-1.08v-8h1.08v1.54a5.33,5.33,0,0,1,3.77-1.7Z"/><path class="cls-2" d="M495.38,197.84v.36h-7.13a3.17,3.17,0,0,0,3.21,3,3.82,3.82,0,0,0,2.71-1.1l.59.53a4.86,4.86,0,0,1-3.39,1.38,4.17,4.17,0,0,1-4.17-4.17,4.13,4.13,0,0,1,4.09-4.16A3.94,3.94,0,0,1,495.38,197.84Zm-7.12-.2h6.11a3,3,0,0,0-3.06-3.17A3.12,3.12,0,0,0,488.26,197.64Z"/><path class="cls-2" d="M505.93,193.84v.84h-2.6v4.39a1.92,1.92,0,0,0,2,2.05,2.5,2.5,0,0,0,1.15-.3l.18.75a3.83,3.83,0,0,1-1.69.44,2.59,2.59,0,0,1-2.68-2.78v-4.55h-1.47v-.84h1.47v-2.37h1.08v2.37Z"/><path class="cls-2" d="M516.29,201.85l-2.17-6.49L512,201.85h-1.2l-2.82-8H509l2.38,6.85,2.27-6.85h.92l2.27,6.85,2.38-6.85h1.08l-2.82,8Z"/><path class="cls-2" d="M530.14,197.84a4.35,4.35,0,1,1-4.35-4.16A4.27,4.27,0,0,1,530.14,197.84Zm-7.64,0a3.28,3.28,0,1,0,3.28-3.23A3.26,3.26,0,0,0,522.5,197.84Z"/><path class="cls-2" d="M545.66,201.85v-5.13h-7.44v5.13h-1.15V190.64h1.15v5h7.44v-5h1.16v11.21Z"/><path class="cls-2" d="M551.53,191.61a.65.65,0,1,1-.64-.57A.61.61,0,0,1,551.53,191.61Zm-1.18,10.24v-8h1.08v8Z"/><path class="cls-2" d="M554.55,201.84v-11.2h1.08v11.2Z"/><path class="cls-2" d="M562.54,193.84v.84h-2.6v4.39a1.91,1.91,0,0,0,1.95,2.05,2.53,2.53,0,0,0,1.16-.3l.18.75a3.84,3.84,0,0,1-1.7.44,2.59,2.59,0,0,1-2.67-2.78v-4.55h-1.48v-.84h1.48v-2.37h1.08v2.37Z"/><path class="cls-2" d="M573.21,197.84a4.35,4.35,0,1,1-4.35-4.16A4.26,4.26,0,0,1,573.21,197.84Zm-7.64,0a3.29,3.29,0,1,0,3.28-3.23A3.26,3.26,0,0,0,565.57,197.84Z"/><path class="cls-2" d="M583.51,196.72v5.13h-1.08V197a2.16,2.16,0,0,0-2.27-2.43,5,5,0,0,0-3.36,1.3v6h-1.07v-8h1.07v1.23a5.9,5.9,0,0,1,3.74-1.39A2.78,2.78,0,0,1,583.51,196.72Z"/><path class="cls-2" d="M591.44,195.07a5.9,5.9,0,0,1,3.74-1.39,2.78,2.78,0,0,1,3,3v5.13h-1.08V197a2.16,2.16,0,0,0-2.27-2.43,5,5,0,0,0-3.36,1.3v6h-1.08V190.64h1.08Z"/><path class="cls-2" d="M609.21,197.84a4.35,4.35,0,1,1-4.35-4.16A4.26,4.26,0,0,1,609.21,197.84Zm-7.64,0a3.28,3.28,0,1,0,3.28-3.23A3.26,3.26,0,0,0,601.57,197.84Z"/><path class="cls-2" d="M615.85,193.84v.84h-2.6v4.39a1.91,1.91,0,0,0,2,2.05,2.53,2.53,0,0,0,1.15-.3l.18.75a3.84,3.84,0,0,1-1.7.44,2.59,2.59,0,0,1-2.67-2.78v-4.55H610.7v-.84h1.47v-2.37h1.08v2.37Z"/><path class="cls-2" d="M626,197.84v.36h-7.13a3.17,3.17,0,0,0,3.21,3,3.82,3.82,0,0,0,2.71-1.1l.59.53A4.84,4.84,0,0,1,622,202a4.18,4.18,0,0,1-4.18-4.17,4.13,4.13,0,0,1,4.09-4.16A3.94,3.94,0,0,1,626,197.84Zm-7.12-.2H625a3,3,0,0,0-3.06-3.17A3.12,3.12,0,0,0,618.88,197.64Z"/><path class="cls-2" d="M628.53,201.84v-11.2h1.08v11.2Z"/><path class="cls-2" d="M638.15,194.53l-.38.68a5.55,5.55,0,0,0-2.78-.78c-1,0-2,.43-2,1.43,0,.63.37.94,2,1.37,2.07.55,3.4.81,3.4,2.53,0,1.53-1.44,2.26-3.17,2.25a6.66,6.66,0,0,1-3.6-1l.41-.65a6,6,0,0,0,3.18.91c1.15,0,2.17-.42,2.17-1.41,0-1.19-.85-1.29-2.63-1.76-1.94-.52-2.76-1-2.76-2.15,0-1.58,1.37-2.25,3-2.26A6.15,6.15,0,0,1,638.15,194.53Z"/><path class="cls-2" d="M649,193.84v.84h-2.6v4.39a1.91,1.91,0,0,0,2,2.05,2.53,2.53,0,0,0,1.15-.3l.18.75a3.84,3.84,0,0,1-1.7.44,2.59,2.59,0,0,1-2.67-2.78v-4.55h-1.47v-.84h1.47v-2.37h1.08v2.37Z"/><path class="cls-2" d="M653.23,195.07a5.9,5.9,0,0,1,3.74-1.39,2.78,2.78,0,0,1,3,3v5.13h-1.08V197a2.16,2.16,0,0,0-2.27-2.43,5,5,0,0,0-3.36,1.3v6h-1.08V190.64h1.08Z"/><path class="cls-2" d="M669.66,196.68v5.17h-1.08v-1A5.52,5.52,0,0,1,665,202a2.58,2.58,0,0,1-2.81-2.59c0-1.55,1.21-2.36,3.14-2.36h3.25v-.29c0-1.55-1-2.24-2.49-2.23a4.86,4.86,0,0,0-2.92,1l-.35-.7a6.23,6.23,0,0,1,3.53-1.14C668.25,193.68,669.66,194.57,669.66,196.68Zm-4,.86c-1.53,0-2.44.6-2.44,1.79a2,2,0,0,0,2.16,2,5,5,0,0,0,3.16-1v-2.79Z"/><path class="cls-2" d="M676.56,193.84v.84H674v4.39a1.92,1.92,0,0,0,2,2.05,2.5,2.5,0,0,0,1.15-.3l.18.75a3.83,3.83,0,0,1-1.69.44,2.59,2.59,0,0,1-2.68-2.78v-4.55H671.4v-.84h1.47v-2.37H674v2.37Z"/><path class="cls-2" d="M690.57,196.68v5.17h-1.08v-1a5.5,5.5,0,0,1-3.58,1.19,2.58,2.58,0,0,1-2.81-2.59c0-1.55,1.21-2.36,3.15-2.36h3.24v-.29c0-1.55-1-2.24-2.49-2.23a4.86,4.86,0,0,0-2.92,1l-.35-.7a6.23,6.23,0,0,1,3.53-1.14C689.16,193.68,690.57,194.57,690.57,196.68Zm-4,.86c-1.52,0-2.44.6-2.44,1.79a2,2,0,0,0,2.16,2,5,5,0,0,0,3.16-1v-2.79Z"/><path class="cls-2" d="M698.19,194.57a5.22,5.22,0,0,0-3.77,1.68v5.6h-1.08v-8h1.08v1.54a5.33,5.33,0,0,1,3.77-1.7Z"/><path class="cls-2" d="M707.46,197.84v.36h-7.13a3.16,3.16,0,0,0,3.2,3,3.84,3.84,0,0,0,2.72-1.1l.58.53a4.82,4.82,0,0,1-3.38,1.38,4.17,4.17,0,0,1-.08-8.33A3.94,3.94,0,0,1,707.46,197.84Zm-7.13-.2h6.11a3,3,0,0,0-3.05-3.17A3.12,3.12,0,0,0,700.33,197.64Z"/><path class="cls-2" d="M718,193.84v.84h-2.6v4.39a1.91,1.91,0,0,0,2,2.05,2.53,2.53,0,0,0,1.16-.3l.18.75a3.84,3.84,0,0,1-1.7.44,2.59,2.59,0,0,1-2.67-2.78v-4.55h-1.48v-.84h1.48v-2.37h1.08v2.37Z"/><path class="cls-2" d="M722.24,195.07a5.9,5.9,0,0,1,3.74-1.39,2.77,2.77,0,0,1,3,3v5.13h-1.07V197a2.16,2.16,0,0,0-2.27-2.43,5,5,0,0,0-3.36,1.3v6h-1.08V190.64h1.08Z"/><path class="cls-2" d="M739.49,197.84v.36h-7.13a3.16,3.16,0,0,0,3.2,3,3.84,3.84,0,0,0,2.72-1.1l.59.53a4.86,4.86,0,0,1-3.39,1.38,4.17,4.17,0,0,1-.08-8.33A3.94,3.94,0,0,1,739.49,197.84Zm-7.13-.2h6.11a3,3,0,0,0-3.05-3.17A3.12,3.12,0,0,0,732.36,197.64Z"/><path class="cls-2" d="M751.67,194.53l-.38.68a5.58,5.58,0,0,0-2.78-.78c-1.06,0-2,.43-2,1.43,0,.63.37.94,2,1.37,2.07.55,3.4.81,3.4,2.53,0,1.53-1.44,2.26-3.17,2.25a6.63,6.63,0,0,1-3.6-1l.41-.65a6,6,0,0,0,3.18.91c1.15,0,2.17-.42,2.17-1.41,0-1.19-.85-1.29-2.63-1.76-1.94-.52-2.76-1-2.76-2.15,0-1.58,1.36-2.25,3-2.26A6.16,6.16,0,0,1,751.67,194.53Z"/><path class="cls-2" d="M761.34,196.68v5.17h-1.08v-1a5.52,5.52,0,0,1-3.58,1.19,2.58,2.58,0,0,1-2.81-2.59c0-1.55,1.21-2.36,3.14-2.36h3.25v-.29c0-1.55-1-2.24-2.49-2.23a4.86,4.86,0,0,0-2.92,1l-.35-.7a6.23,6.23,0,0,1,3.52-1.14C759.93,193.68,761.34,194.57,761.34,196.68Zm-4,.86c-1.53,0-2.45.6-2.45,1.79a2,2,0,0,0,2.17,2,5,5,0,0,0,3.16-1v-2.79Z"/><path class="cls-2" d="M771.09,195.1a5.52,5.52,0,0,1,3.69-1.42,2.74,2.74,0,0,1,2.9,3v5.13H776.6V197a2.13,2.13,0,0,0-2.2-2.43,4.78,4.78,0,0,0-3.15,1.2,4.39,4.39,0,0,1,.18,1.32v4.76h-1.08V197a2.13,2.13,0,0,0-2.2-2.43,4.29,4.29,0,0,0-3,1.22v6.06h-1.07v-8h1.07v1.22a5,5,0,0,1,3.4-1.38A2.64,2.64,0,0,1,771.09,195.1Z"/><path class="cls-2" d="M788.22,197.84v.36H781.1a3.16,3.16,0,0,0,3.2,3,3.82,3.82,0,0,0,2.71-1.1l.59.53a4.84,4.84,0,0,1-3.38,1.38,4.17,4.17,0,0,1-4.17-4.17,4.12,4.12,0,0,1,4.09-4.16A3.94,3.94,0,0,1,788.22,197.84Zm-7.12-.2h6.11a3,3,0,0,0-3.06-3.17A3.12,3.12,0,0,0,781.1,197.64Z"/><path class="cls-2" d="M793.9,198.15v-.92h7.2v.92Z"/><path class="cls-2" d="M427.19,224.85,425,218.36l-2.18,6.49h-1.19l-2.82-8h1.08l2.38,6.85,2.26-6.85h.93l2.26,6.85,2.38-6.85h1.08l-2.82,8Z"/><path class="cls-2" d="M440.58,220.84v.36h-7.13a3.17,3.17,0,0,0,3.21,3,3.82,3.82,0,0,0,2.71-1.1l.59.53a4.86,4.86,0,0,1-3.39,1.38,4.17,4.17,0,0,1-4.17-4.17,4.13,4.13,0,0,1,4.09-4.16A3.94,3.94,0,0,1,440.58,220.84Zm-7.12-.2h6.11a3,3,0,0,0-3.06-3.17A3.12,3.12,0,0,0,433.46,220.64Z"/><path class="cls-2" d="M454.77,220.84v.36h-7.13a3.17,3.17,0,0,0,3.21,3,3.82,3.82,0,0,0,2.71-1.1l.59.53a4.84,4.84,0,0,1-3.38,1.38,4.17,4.17,0,0,1-4.17-4.17,4.12,4.12,0,0,1,4.08-4.16A3.94,3.94,0,0,1,454.77,220.84Zm-7.12-.2h6.11a3,3,0,0,0-3.06-3.17A3.12,3.12,0,0,0,447.65,220.64Z"/><path class="cls-2" d="M465,219.72v5.13H463.9V220a2.16,2.16,0,0,0-2.27-2.43,5,5,0,0,0-3.35,1.3v6H457.2v-8h1.08v1.23a5.86,5.86,0,0,1,3.74-1.39A2.77,2.77,0,0,1,465,219.72Z"/><path class="cls-2" d="M471.63,216.68a4.31,4.31,0,0,1,3.29,1.51l-.82.48a3.24,3.24,0,1,0,.09,4.24l.82.48a4.31,4.31,0,0,1-3.38,1.62,4.17,4.17,0,1,1,0-8.33Z"/><path class="cls-2" d="M485.72,220.84a4.35,4.35,0,1,1-4.35-4.16A4.26,4.26,0,0,1,485.72,220.84Zm-7.63,0a3.28,3.28,0,1,0,3.28-3.23A3.25,3.25,0,0,0,478.09,220.84Z"/><path class="cls-2" d="M489.18,221.69a2.16,2.16,0,0,0,2.27,2.43,5,5,0,0,0,3.35-1.3v-6h1.08v8H494.8v-1.23a5.86,5.86,0,0,1-3.74,1.39,2.77,2.77,0,0,1-3-3v-5.13h1.08Z"/><path class="cls-2" d="M503.52,217.57a5.22,5.22,0,0,0-3.77,1.68v5.6h-1.08v-8h1.08v1.54a5.33,5.33,0,0,1,3.77-1.7Z"/><path class="cls-2" d="M512.06,219.68v5.17H511v-1A5.5,5.5,0,0,1,507.4,225a2.58,2.58,0,0,1-2.81-2.59c0-1.55,1.21-2.36,3.14-2.36H511v-.29c0-1.55-1-2.24-2.49-2.23a4.86,4.86,0,0,0-2.92,1l-.35-.7a6.23,6.23,0,0,1,3.53-1.14C510.65,216.68,512.06,217.57,512.06,219.68Zm-4,.86c-1.53,0-2.44.6-2.44,1.79a2,2,0,0,0,2.16,2,5,5,0,0,0,3.16-1v-2.79Z"/><path class="cls-2" d="M521.62,218v-1.12h1.08v7.21c0,2.79-1.78,4.1-4.18,4.09a6.54,6.54,0,0,1-3.69-1.15l.36-.7a5.56,5.56,0,0,0,3.14,1,3,3,0,0,0,3.29-3.26v-.83a4,4,0,0,1-3.25,1.63,4.09,4.09,0,0,1,0-8.17A4.8,4.8,0,0,1,521.62,218Zm-6.12,2.83a3.2,3.2,0,0,0,3.22,3.18,3.3,3.3,0,0,0,2.9-1.71v-3.41a4,4,0,0,0-2.9-1.24A3.2,3.2,0,0,0,515.5,220.79Z"/><path class="cls-2" d="M533.41,220.84v.36h-7.13a3.16,3.16,0,0,0,3.2,3,3.84,3.84,0,0,0,2.72-1.1l.59.53A4.86,4.86,0,0,1,529.4,225a4.17,4.17,0,0,1-.08-8.33A3.94,3.94,0,0,1,533.41,220.84Zm-7.13-.2h6.11a3,3,0,0,0-3-3.17A3.12,3.12,0,0,0,526.28,220.64Z"/><path class="cls-2" d="M547.47,224.85h-1.08v-1.18a4,4,0,0,1-3,1.34,4.17,4.17,0,0,1,0-8.33,4,4,0,0,1,3,1.34v-4.38h1.08Zm-7-4a3.27,3.27,0,0,0,5.9,1.91v-3.82a3.27,3.27,0,0,0-5.9,1.91Z"/><path class="cls-2" d="M558.16,220.84v.36H551a3.16,3.16,0,0,0,3.2,3,3.84,3.84,0,0,0,2.72-1.1l.59.53a4.86,4.86,0,0,1-3.39,1.38,4.17,4.17,0,0,1-4.17-4.17,4.13,4.13,0,0,1,4.09-4.16A3.94,3.94,0,0,1,558.16,220.84Zm-7.12-.2h6.1a3,3,0,0,0-3-3.17A3.12,3.12,0,0,0,551,220.64Z"/><path class="cls-2" d="M566.34,217.53l-.38.68a5.55,5.55,0,0,0-2.78-.78c-1,0-1.95.43-1.95,1.43,0,.63.37.94,2,1.37,2.07.55,3.4.81,3.4,2.53,0,1.53-1.44,2.26-3.17,2.25a6.68,6.68,0,0,1-3.6-1l.41-.65a6,6,0,0,0,3.18.91c1.16,0,2.18-.42,2.18-1.41,0-1.19-.86-1.29-2.64-1.76-1.94-.52-2.76-1-2.76-2.15,0-1.58,1.37-2.25,3-2.26A6.15,6.15,0,0,1,566.34,217.53Z"/><path class="cls-2" d="M570.45,214.61a.6.6,0,0,1-.64.56.57.57,0,1,1,.64-.56Zm-1.17,10.24v-8h1.08v8Z"/><path class="cls-2" d="M580.17,218v-1.12h1.08v7.21c0,2.79-1.78,4.1-4.18,4.09a6.49,6.49,0,0,1-3.69-1.15l.35-.7a5.59,5.59,0,0,0,3.14,1,3,3,0,0,0,3.3-3.26v-.83a4,4,0,0,1-3.26,1.63,4.09,4.09,0,0,1,0-8.17A4.8,4.8,0,0,1,580.17,218Zm-6.12,2.83a3.2,3.2,0,0,0,3.21,3.18,3.33,3.33,0,0,0,2.91-1.71v-3.41a4,4,0,0,0-2.91-1.24A3.2,3.2,0,0,0,574.05,220.79Z"/><path class="cls-2" d="M592,219.72v5.13h-1.08V220a2.16,2.16,0,0,0-2.27-2.43,5,5,0,0,0-3.35,1.3v6h-1.08v-8h1.08v1.23a5.86,5.86,0,0,1,3.73-1.39A2.78,2.78,0,0,1,592,219.72Z"/><path class="cls-2" d="M602.51,220.84v.36h-7.13a3.17,3.17,0,0,0,3.21,3,3.82,3.82,0,0,0,2.71-1.1l.59.53a4.84,4.84,0,0,1-3.38,1.38,4.18,4.18,0,0,1-4.18-4.17,4.13,4.13,0,0,1,4.09-4.16A3.94,3.94,0,0,1,602.51,220.84Zm-7.12-.2h6.11a3,3,0,0,0-3.06-3.17A3.12,3.12,0,0,0,595.39,220.64Z"/><path class="cls-2" d="M609.79,217.57a5.22,5.22,0,0,0-3.77,1.68v5.6h-1.08v-8H606v1.54a5.33,5.33,0,0,1,3.77-1.7Z"/><path class="cls-2" d="M617.38,217.53l-.38.68a5.55,5.55,0,0,0-2.78-.78c-1.05,0-2,.43-2,1.43,0,.63.37.94,2,1.37,2.07.55,3.4.81,3.4,2.53,0,1.53-1.44,2.26-3.17,2.25a6.68,6.68,0,0,1-3.6-1l.41-.65a6,6,0,0,0,3.18.91c1.16,0,2.17-.42,2.17-1.41,0-1.19-.85-1.29-2.63-1.76-1.94-.52-2.76-1-2.76-2.15,0-1.58,1.37-2.25,3-2.26A6.15,6.15,0,0,1,617.38,217.53Z"/><path class="cls-2" d="M628.23,216.84v.84h-2.6v4.39a1.92,1.92,0,0,0,2,2.05,2.5,2.5,0,0,0,1.15-.3l.18.75a3.83,3.83,0,0,1-1.69.44,2.59,2.59,0,0,1-2.68-2.78v-4.55h-1.47v-.84h1.47v-2.37h1.08v2.37Z"/><path class="cls-2" d="M638.9,220.84a4.35,4.35,0,1,1-4.34-4.16A4.26,4.26,0,0,1,638.9,220.84Zm-7.63,0a3.28,3.28,0,1,0,3.28-3.23A3.26,3.26,0,0,0,631.27,220.84Z"/><path class="cls-2" d="M646.5,218a4,4,0,0,1,3-1.34,4.17,4.17,0,0,1,0,8.33,4,4,0,0,1-3-1.34v1.18h-1.08V213.64h1.08Zm0,.91v3.82a3.23,3.23,0,1,0,0-3.82Z"/><path class="cls-2" d="M663.74,220.84v.36h-7.12a3.16,3.16,0,0,0,3.2,3,3.82,3.82,0,0,0,2.71-1.1l.59.53a4.84,4.84,0,0,1-3.38,1.38,4.17,4.17,0,0,1-4.17-4.17,4.12,4.12,0,0,1,4.09-4.16A3.94,3.94,0,0,1,663.74,220.84Zm-7.12-.2h6.11a3,3,0,0,0-3.06-3.17A3.12,3.12,0,0,0,656.62,220.64Z"/><path class="cls-2" d="M674,216.68a4.31,4.31,0,0,1,3.29,1.51l-.82.48a3.24,3.24,0,1,0,.09,4.24l.82.48A4.31,4.31,0,0,1,674,225a4.17,4.17,0,1,1,0-8.33Z"/><path class="cls-2" d="M684.7,217.57a5.22,5.22,0,0,0-3.77,1.68v5.6h-1.08v-8h1.08v1.54a5.33,5.33,0,0,1,3.77-1.7Z"/><path class="cls-2" d="M694,220.84v.36h-7.13a3.16,3.16,0,0,0,3.2,3,3.84,3.84,0,0,0,2.72-1.1l.58.53A4.84,4.84,0,0,1,690,225a4.17,4.17,0,0,1-.08-8.33A3.94,3.94,0,0,1,694,220.84Zm-7.13-.2H693a3,3,0,0,0-3.05-3.17A3.12,3.12,0,0,0,686.84,220.64Z"/><path class="cls-2" d="M703.33,219.68v5.17h-1.08v-1a5.48,5.48,0,0,1-3.58,1.19,2.57,2.57,0,0,1-2.8-2.59c0-1.55,1.21-2.36,3.14-2.36h3.24v-.29c0-1.55-1-2.24-2.48-2.23a4.86,4.86,0,0,0-2.92,1l-.35-.7a6.23,6.23,0,0,1,3.52-1.14C701.92,216.68,703.33,217.57,703.33,219.68Zm-4,.86c-1.53,0-2.45.6-2.45,1.79a2,2,0,0,0,2.17,2,4.94,4.94,0,0,0,3.15-1v-2.79Z"/><path class="cls-2" d="M710.23,216.84v.84h-2.6v4.39a1.92,1.92,0,0,0,2,2.05,2.53,2.53,0,0,0,1.15-.3l.18.75a3.84,3.84,0,0,1-1.7.44,2.59,2.59,0,0,1-2.67-2.78v-4.55h-1.47v-.84h1.47v-2.37h1.08v2.37Z"/><path class="cls-2" d="M714.69,214.61a.64.64,0,1,1-.64-.57A.6.6,0,0,1,714.69,214.61Zm-1.17,10.24v-8h1.07v8Z"/><path class="cls-2" d="M720.05,224.85l-3.52-8h1.16l3,6.91,3-6.91h1.15l-3.51,8Z"/><path class="cls-2" d="M734.11,220.84v.36H727a3.16,3.16,0,0,0,3.2,3,3.84,3.84,0,0,0,2.72-1.1l.59.53A4.86,4.86,0,0,1,730.1,225a4.17,4.17,0,0,1-4.17-4.17,4.13,4.13,0,0,1,4.09-4.16A3.94,3.94,0,0,1,734.11,220.84Zm-7.12-.2h6.11a3,3,0,0,0-3.06-3.17A3.12,3.12,0,0,0,727,220.64Z"/><path class="cls-2" d="M737.1,224.44a.67.67,0,0,1-1.32,0,.66.66,0,0,1,1.32,0Z"/></g><g id="_22_plus" class="svg-showtip" data-name="22_plus"><circle class="cls-3" cx="454.27" cy="85.08" r="25"/><line class="cls-4" x1="439.65" y1="85.08" x2="468.89" y2="85.08"/><line class="cls-4" x1="454.27" y1="99.69" x2="454.27" y2="70.46"/></g></svg>