<svg id="_19_1640x750" data-name="19_1640x750" xmlns="http://www.w3.org/2000/svg" viewBox="0 0 1640 790"><defs><style>.cls-1{fill:#fff;stroke-width:2px;}.cls-1,.cls-3,.cls-4{stroke:#fff;stroke-miterlimit:10;}.cls-2{fill:#231f20;}.cls-3{fill:#06a7e0;stroke-width:1.33px;opacity:0.9;}.cls-4{fill:none;stroke-width:4.67px;}</style></defs><title>04_1640x790</title><g id="_24_tooltip" class="svg-tooltip" data-name="24_tooltip"><path id="tooltip" class="cls-1" d="M1232.53,341.94H860.79l-23,20-24-20H774.26a3.27,3.27,0,0,1-3.26-3.26V213.22a3.27,3.27,0,0,1,3.26-3.26h458.27a3.27,3.27,0,0,1,3.26,3.26V338.68A3.27,3.27,0,0,1,1232.53,341.94Z"/><path class="cls-2" d="M807.56,246.37v10.21H806.4V246.37h-3.9v-1h9v1Z"/><path class="cls-2" d="M814.73,249.81a5.81,5.81,0,0,1,3.74-1.39,2.77,2.77,0,0,1,3,3v5.13h-1.08v-4.84a2.17,2.17,0,0,0-2.26-2.44,4.94,4.94,0,0,0-3.36,1.31v6h-1.08v-11.2h1.08Z"/><path class="cls-2" d="M832,252.58v.36h-7.13a3.16,3.16,0,0,0,3.2,3,3.88,3.88,0,0,0,2.72-1.1l.58.53a4.83,4.83,0,0,1-3.38,1.37,4.17,4.17,0,0,1-4.17-4.16,4.12,4.12,0,0,1,4.09-4.16A3.94,3.94,0,0,1,832,252.58Zm-7.13-.21H831a3,3,0,0,0-3.05-3.16A3.11,3.11,0,0,0,824.85,252.37Z"/><path class="cls-2" d="M845.39,249.84a5.47,5.47,0,0,1,3.69-1.42,2.75,2.75,0,0,1,2.9,3v5.13H850.9v-4.84a2.14,2.14,0,0,0-2.2-2.44,4.74,4.74,0,0,0-3.15,1.21,4.37,4.37,0,0,1,.18,1.31v4.76h-1.08v-4.84a2.14,2.14,0,0,0-2.2-2.44,4.26,4.26,0,0,0-3,1.23v6H838.4v-8h1.08v1.22a5,5,0,0,1,3.39-1.38A2.64,2.64,0,0,1,845.39,249.84Z"/><path class="cls-2" d="M861.7,251.41v5.17h-1.08v-1a5.57,5.57,0,0,1-3.58,1.18,2.57,2.57,0,0,1-2.81-2.58c0-1.56,1.21-2.36,3.14-2.37h3.25v-.29c0-1.55-1-2.23-2.49-2.23a4.93,4.93,0,0,0-2.92,1l-.35-.7a6.15,6.15,0,0,1,3.53-1.13C860.29,248.41,861.7,249.31,861.7,251.41Zm-4,.87c-1.53,0-2.44.6-2.44,1.78a2,2,0,0,0,2.16,2,5,5,0,0,0,3.16-1v-2.79Z"/><path class="cls-2" d="M865.85,246.34a.65.65,0,1,1-.64-.56A.6.6,0,0,1,865.85,246.34Zm-1.17,10.24v-8h1.08v8Z"/><path class="cls-2" d="M876.55,251.45v5.13h-1.08v-4.84a2.17,2.17,0,0,0-2.26-2.44,4.94,4.94,0,0,0-3.36,1.31v6h-1.08v-8h1.08v1.23a5.81,5.81,0,0,1,3.74-1.39A2.77,2.77,0,0,1,876.55,251.45Z"/><path class="cls-2" d="M883.43,256.58V245.37h1.08v11.21Z"/><path class="cls-2" d="M895.58,252.58a4.35,4.35,0,1,1-4.35-4.16A4.26,4.26,0,0,1,895.58,252.58Zm-7.63,0a3.28,3.28,0,1,0,3.28-3.24A3.27,3.27,0,0,0,888,252.58Z"/><path class="cls-2" d="M899.18,249.75a4.16,4.16,0,1,1,0,5.66v1.17H898.1v-11.2h1.08Zm0,.91v3.83a3.24,3.24,0,1,0,0-3.83Z"/><path class="cls-2" d="M909.74,249.75a4.16,4.16,0,1,1,0,5.66v1.17h-1.08v-11.2h1.08Zm0,.91v3.83a3.24,3.24,0,1,0,0-3.83Z"/><path class="cls-2" d="M922.2,257.4c-.82,1.92-1.79,2.45-3,2.46a4.1,4.1,0,0,1-1.56-.32l.31-.73a2.79,2.79,0,0,0,1.16.23c.81,0,1.45-.42,2.09-1.81l.18-.4-3.67-8.25h1.14l3,6.91,2.9-6.91h1.12Z"/><path class="cls-2" d="M938.72,251.41v5.17h-1.08v-1a5.55,5.55,0,0,1-3.58,1.18,2.58,2.58,0,0,1-2.81-2.58c0-1.56,1.22-2.36,3.15-2.37h3.24v-.29c0-1.55-1-2.23-2.49-2.23a4.93,4.93,0,0,0-2.92,1l-.35-.7a6.15,6.15,0,0,1,3.53-1.13C937.31,248.41,938.72,249.31,938.72,251.41Zm-4,.87c-1.52,0-2.44.6-2.44,1.78a2,2,0,0,0,2.16,2,5,5,0,0,0,3.16-1v-2.79Z"/><path class="cls-2" d="M949.27,251.45v5.13h-1.08v-4.84a2.17,2.17,0,0,0-2.26-2.44,4.92,4.92,0,0,0-3.36,1.31v6h-1.08v-8h1.08v1.23a5.81,5.81,0,0,1,3.74-1.39A2.77,2.77,0,0,1,949.27,251.45Z"/><path class="cls-2" d="M959.68,256.58H958.6v-1.17a4,4,0,0,1-3,1.33,4.16,4.16,0,1,1,3-7v-4.37h1.08Zm-7-4a3.27,3.27,0,0,0,5.9,1.91v-3.83a3.27,3.27,0,0,0-5.9,1.92Z"/><path class="cls-2" d="M971.46,249.3a5.23,5.23,0,0,0-3.77,1.69v5.59h-1.08v-8h1.08v1.54a5.29,5.29,0,0,1,3.77-1.7Z"/><path class="cls-2" d="M980.73,252.58v.36H973.6a3.16,3.16,0,0,0,3.2,3,3.88,3.88,0,0,0,2.72-1.1l.58.53a4.83,4.83,0,0,1-3.38,1.37,4.17,4.17,0,0,1-4.17-4.16,4.12,4.12,0,0,1,4.09-4.16A3.94,3.94,0,0,1,980.73,252.58Zm-7.13-.21h6.11a3,3,0,0,0-3.05-3.16A3.11,3.11,0,0,0,973.6,252.37Z"/><path class="cls-2" d="M990.31,249.93l-.81.48a3.24,3.24,0,1,0,.09,4.24l.82.48a4.32,4.32,0,0,1-3.39,1.61,4.16,4.16,0,1,1,3.29-6.81Z"/><path class="cls-2" d="M1000.6,252.58v.36h-7.13a3.16,3.16,0,0,0,3.2,3,3.88,3.88,0,0,0,2.72-1.1l.59.53a4.85,4.85,0,0,1-3.39,1.37,4.17,4.17,0,0,1-4.17-4.16,4.12,4.12,0,0,1,4.09-4.16A3.93,3.93,0,0,1,1000.6,252.58Zm-7.13-.21h6.11a3,3,0,0,0-3.05-3.16A3.11,3.11,0,0,0,993.47,252.37Z"/><path class="cls-2" d="M1011.15,252.58a4,4,0,0,1-7,2.83v4.29h-1.08V248.58h1.08v1.17a4,4,0,0,1,7,2.83Zm-7-1.92v3.83a3.24,3.24,0,1,0,0-3.83Z"/><path class="cls-2" d="M1017.84,248.58v.84h-2.6v4.38a1.92,1.92,0,0,0,2,2.06,2.36,2.36,0,0,0,1.15-.31l.18.75a3.58,3.58,0,0,1-1.69.44,2.58,2.58,0,0,1-2.67-2.77v-4.55h-1.48v-.84h1.48v-2.37h1.08v2.37Z"/><path class="cls-2" d="M1022.3,246.34a.61.61,0,0,1-.64.57.57.57,0,1,1,.64-.57Zm-1.18,10.24v-8h1.08v8Z"/><path class="cls-2" d="M1033.5,252.58a4.35,4.35,0,1,1-4.35-4.16A4.26,4.26,0,0,1,1033.5,252.58Zm-7.64,0a3.29,3.29,0,1,0,3.28-3.24A3.27,3.27,0,0,0,1025.86,252.58Z"/><path class="cls-2" d="M1043.8,251.45v5.13h-1.08v-4.84a2.17,2.17,0,0,0-2.27-2.44,4.94,4.94,0,0,0-3.36,1.31v6H1036v-8h1.07v1.23a5.85,5.85,0,0,1,3.74-1.39A2.77,2.77,0,0,1,1043.8,251.45Z"/><path class="cls-2" d="M1052,246.34a.65.65,0,1,1-.64-.56A.6.6,0,0,1,1052,246.34Zm-1.17,10.24v-8h1.07v8Z"/><path class="cls-2" d="M1060.63,249.27l-.37.67a5.5,5.5,0,0,0-2.79-.77c-1,0-2,.42-2,1.43,0,.62.37.93,2,1.36,2.07.55,3.41.82,3.41,2.54,0,1.52-1.45,2.25-3.18,2.24a6.68,6.68,0,0,1-3.6-1l.41-.65a6,6,0,0,0,3.19.91c1.15,0,2.17-.41,2.17-1.41,0-1.18-.86-1.28-2.64-1.76-1.94-.52-2.76-1-2.76-2.15,0-1.57,1.37-2.25,3-2.25A6.05,6.05,0,0,1,1060.63,249.27Z"/><path class="cls-2" d="M1075.64,252.58a4.35,4.35,0,1,1-4.35-4.16A4.26,4.26,0,0,1,1075.64,252.58Zm-7.63,0a3.28,3.28,0,1,0,3.28-3.24A3.27,3.27,0,0,0,1068,252.58Z"/><path class="cls-2" d="M1085.94,251.45v5.13h-1.08v-4.84a2.17,2.17,0,0,0-2.27-2.44,4.91,4.91,0,0,0-3.35,1.31v6h-1.08v-8h1.08v1.23a5.8,5.8,0,0,1,3.73-1.39A2.77,2.77,0,0,1,1085.94,251.45Z"/><path class="cls-2" d="M1096.85,248.58v.84h-2.61v4.38a1.92,1.92,0,0,0,2,2.06,2.39,2.39,0,0,0,1.15-.31l.18.75a3.58,3.58,0,0,1-1.69.44,2.59,2.59,0,0,1-2.68-2.77v-4.55h-1.47v-.84h1.47v-2.37h1.08v2.37Z"/><path class="cls-2" d="M1101.08,249.81a5.8,5.8,0,0,1,3.73-1.39,2.77,2.77,0,0,1,3,3v5.13h-1.08v-4.84a2.17,2.17,0,0,0-2.27-2.44,4.91,4.91,0,0,0-3.35,1.31v6H1100v-11.2h1.08Z"/><path class="cls-2" d="M1118.32,252.58v.36h-7.13a3.17,3.17,0,0,0,3.21,3,3.86,3.86,0,0,0,2.71-1.1l.59.53a4.83,4.83,0,0,1-3.38,1.37,4.17,4.17,0,0,1-4.17-4.16,4.11,4.11,0,0,1,4.08-4.16A3.93,3.93,0,0,1,1118.32,252.58Zm-7.12-.21h6.11a3,3,0,0,0-3.06-3.16A3.11,3.11,0,0,0,1111.2,252.37Z"/><path class="cls-2" d="M1126.18,256.58h-1.31l5.76-9.88H1124v-1h8v1Z"/><path class="cls-2" d="M1137.92,248.58v.84h-2.61v4.38a1.92,1.92,0,0,0,2,2.06,2.39,2.39,0,0,0,1.15-.31l.18.75a3.58,3.58,0,0,1-1.69.44,2.58,2.58,0,0,1-2.67-2.77v-4.55h-1.48v-.84h1.48v-2.37h1.07v2.37Z"/><path class="cls-2" d="M1142.15,249.81a5.81,5.81,0,0,1,3.74-1.39,2.77,2.77,0,0,1,3,3v5.13h-1.08v-4.84a2.17,2.17,0,0,0-2.26-2.44,4.92,4.92,0,0,0-3.36,1.31v6h-1.08v-11.2h1.08Z"/><path class="cls-2" d="M1159.78,245.37h3.4v11.21h-1.08V246.15h-2.19a2.51,2.51,0,0,0-.92-.18,1.91,1.91,0,0,0-1.93,2v.57h2.7v.84h-2.7v7.16H1156v-7.16h-1.38v-.84H1156V248a2.58,2.58,0,0,1,2.72-2.76A3.91,3.91,0,0,1,1159.78,245.37Z"/><path class="cls-2" d="M1174.25,252.58a4.35,4.35,0,1,1-4.35-4.16A4.26,4.26,0,0,1,1174.25,252.58Zm-7.64,0a3.28,3.28,0,1,0,3.28-3.24A3.27,3.27,0,0,0,1166.61,252.58Z"/><path class="cls-2" d="M1185.05,252.58a4.35,4.35,0,1,1-4.35-4.16A4.26,4.26,0,0,1,1185.05,252.58Zm-7.64,0a3.28,3.28,0,1,0,3.28-3.24A3.27,3.27,0,0,0,1177.41,252.58Z"/><path class="cls-2" d="M1192.41,249.3a5.25,5.25,0,0,0-3.77,1.69v5.59h-1.08v-8h1.08v1.54a5.29,5.29,0,0,1,3.77-1.7Z"/><path class="cls-2" d="M1194.81,256.17a.66.66,0,1,1-.65-.59A.62.62,0,0,1,1194.81,256.17Z"/><path class="cls-2" d="M807.56,269.37v10.21H806.4V269.37h-3.9v-1h9v1Z"/><path class="cls-2" d="M814.73,272.81a5.81,5.81,0,0,1,3.74-1.39,2.77,2.77,0,0,1,3,3v5.13h-1.08v-4.84a2.17,2.17,0,0,0-2.26-2.44,4.94,4.94,0,0,0-3.36,1.31v6h-1.08v-11.2h1.08Z"/><path class="cls-2" d="M832,275.58v.36h-7.13a3.16,3.16,0,0,0,3.2,3,3.88,3.88,0,0,0,2.72-1.1l.58.53a4.83,4.83,0,0,1-3.38,1.37,4.17,4.17,0,0,1-4.17-4.16,4.12,4.12,0,0,1,4.09-4.16A3.94,3.94,0,0,1,832,275.58Zm-7.13-.21H831a3,3,0,0,0-3.05-3.16A3.11,3.11,0,0,0,824.85,275.37Z"/><path class="cls-2" d="M839.25,272.3a5.25,5.25,0,0,0-3.77,1.69v5.59H834.4v-8h1.08v1.54a5.29,5.29,0,0,1,3.77-1.7Z"/><path class="cls-2" d="M848.52,275.58v.36h-7.13a3.17,3.17,0,0,0,3.21,3,3.86,3.86,0,0,0,2.71-1.1l.59.53a4.85,4.85,0,0,1-3.38,1.37,4.17,4.17,0,0,1-4.18-4.16,4.12,4.12,0,0,1,4.09-4.16A3.93,3.93,0,0,1,848.52,275.58Zm-7.12-.21h6.11a3,3,0,0,0-3.06-3.16A3.11,3.11,0,0,0,841.4,275.37Z"/><path class="cls-2" d="M861.89,274.41v5.17h-1.08v-1a5.55,5.55,0,0,1-3.58,1.18,2.57,2.57,0,0,1-2.81-2.58c0-1.56,1.21-2.36,3.15-2.37h3.24v-.29c0-1.55-1-2.23-2.49-2.23a4.93,4.93,0,0,0-2.92,1l-.35-.7a6.15,6.15,0,0,1,3.53-1.13C860.48,271.41,861.89,272.31,861.89,274.41Zm-4,.87c-1.52,0-2.44.6-2.44,1.78a2,2,0,0,0,2.16,2,5,5,0,0,0,3.16-1v-2.79Z"/><path class="cls-2" d="M869.51,272.3a5.23,5.23,0,0,0-3.77,1.69v5.59h-1.08v-8h1.08v1.54a5.29,5.29,0,0,1,3.77-1.7Z"/><path class="cls-2" d="M878.78,275.58v.36h-7.13a3.16,3.16,0,0,0,3.2,3,3.9,3.9,0,0,0,2.72-1.1l.58.53a4.81,4.81,0,0,1-3.38,1.37,4.17,4.17,0,0,1-4.17-4.16,4.12,4.12,0,0,1,4.09-4.16A3.94,3.94,0,0,1,878.78,275.58Zm-7.13-.21h6.11a3,3,0,0,0-3-3.16A3.11,3.11,0,0,0,871.65,275.37Z"/><path class="cls-2" d="M888.15,273.55a5.27,5.27,0,0,1,1.37-.09c1.77.15,3,1.15,3,2.74,0,2.21-1.72,3.54-4.17,3.54a6.64,6.64,0,0,1-3.83-1.3l.7-.76a5.2,5.2,0,0,0,3.08,1.06c1.8,0,3.05-.95,3.05-2.58,0-1.32-1.11-2.06-2.7-2.06a5.58,5.58,0,0,0-1.84.33l-.21-.66,4-4.12h-5.48v-.95h6.89v.89Z"/><path class="cls-2" d="M900,276.42a2.17,2.17,0,0,0,2.27,2.44,4.94,4.94,0,0,0,3.36-1.31v-6h1.08v8h-1.08v-1.23a5.85,5.85,0,0,1-3.74,1.39,2.77,2.77,0,0,1-3-3v-5.12H900Z"/><path class="cls-2" d="M917.26,274.45v5.13h-1.08v-4.84a2.17,2.17,0,0,0-2.27-2.44,4.94,4.94,0,0,0-3.36,1.31v6h-1.08v-8h1.08v1.23a5.85,5.85,0,0,1,3.74-1.39A2.77,2.77,0,0,1,917.26,274.45Z"/><path class="cls-2" d="M921.42,269.34a.65.65,0,1,1-.64-.56A.6.6,0,0,1,921.42,269.34Zm-1.17,10.24v-8h1.07v8Z"/><path class="cls-2" d="M930.89,272.75v-1.17H932V282.7h-1.08v-4.29a4,4,0,0,1-3,1.33,4.16,4.16,0,1,1,3-7Zm-5.9,2.83a3.27,3.27,0,0,0,5.9,1.91v-3.83a3.27,3.27,0,0,0-5.9,1.92Z"/><path class="cls-2" d="M935.84,276.42a2.17,2.17,0,0,0,2.26,2.44,4.92,4.92,0,0,0,3.36-1.31v-6h1.08v8h-1.08v-1.23a5.81,5.81,0,0,1-3.74,1.39,2.77,2.77,0,0,1-3-3v-5.12h1.08Z"/><path class="cls-2" d="M953.09,275.58v.36H946a3.16,3.16,0,0,0,3.2,3,3.86,3.86,0,0,0,2.71-1.1l.59.53a4.83,4.83,0,0,1-3.38,1.37,4.17,4.17,0,0,1-4.17-4.16,4.12,4.12,0,0,1,4.09-4.16A3.93,3.93,0,0,1,953.09,275.58Zm-7.12-.21h6.11a3,3,0,0,0-3.06-3.16A3.11,3.11,0,0,0,946,275.37Z"/><path class="cls-2" d="M964.37,272.3A5.23,5.23,0,0,0,960.6,274v5.59h-1.08v-8h1.08v1.54a5.29,5.29,0,0,1,3.77-1.7Z"/><path class="cls-2" d="M973.64,275.58v.36h-7.13a3.16,3.16,0,0,0,3.2,3,3.88,3.88,0,0,0,2.72-1.1l.59.53a4.85,4.85,0,0,1-3.39,1.37,4.17,4.17,0,0,1-4.17-4.16,4.12,4.12,0,0,1,4.09-4.16A3.94,3.94,0,0,1,973.64,275.58Zm-7.13-.21h6.11a3,3,0,0,0-3-3.16A3.11,3.11,0,0,0,966.51,275.37Z"/><path class="cls-2" d="M983.22,272.93l-.81.48a3.24,3.24,0,1,0,.09,4.24l.82.48a4.32,4.32,0,0,1-3.39,1.61,4.16,4.16,0,1,1,3.29-6.81Z"/><path class="cls-2" d="M993.51,275.58v.36h-7.13a3.16,3.16,0,0,0,3.2,3,3.88,3.88,0,0,0,2.72-1.1l.59.53a4.85,4.85,0,0,1-3.39,1.37,4.17,4.17,0,0,1-4.17-4.16,4.12,4.12,0,0,1,4.09-4.16A3.93,3.93,0,0,1,993.51,275.58Zm-7.13-.21h6.11a3,3,0,0,0-3-3.16A3.12,3.12,0,0,0,986.38,275.37Z"/><path class="cls-2" d="M1004.06,275.58a4,4,0,0,1-7,2.83v4.29H996V271.58h1.07v1.17a4,4,0,0,1,7,2.83Zm-7-1.92v3.83a3.24,3.24,0,1,0,0-3.83Z"/><path class="cls-2" d="M1010.75,271.58v.84h-2.6v4.38a1.92,1.92,0,0,0,2,2.06,2.43,2.43,0,0,0,1.16-.31l.18.75a3.59,3.59,0,0,1-1.7.44,2.58,2.58,0,0,1-2.67-2.77v-4.55h-1.48v-.84h1.48v-2.37h1.08v2.37Z"/><path class="cls-2" d="M1015.21,269.34a.65.65,0,1,1-.64-.56A.6.6,0,0,1,1015.21,269.34ZM1014,279.58v-8h1.08v8Z"/><path class="cls-2" d="M1026.41,275.58a4.35,4.35,0,1,1-4.35-4.16A4.26,4.26,0,0,1,1026.41,275.58Zm-7.64,0a3.29,3.29,0,1,0,3.29-3.24A3.27,3.27,0,0,0,1018.77,275.58Z"/><path class="cls-2" d="M1036.71,274.45v5.13h-1.08v-4.84a2.17,2.17,0,0,0-2.27-2.44,4.91,4.91,0,0,0-3.35,1.31v6h-1.08v-8H1030v1.23a5.8,5.8,0,0,1,3.73-1.39A2.77,2.77,0,0,1,1036.71,274.45Z"/><path class="cls-2" d="M1051.12,279.58H1050v-1.17a4.16,4.16,0,1,1,0-5.66v-4.37h1.08Zm-7-4a3.27,3.27,0,0,0,5.9,1.91v-3.83a3.27,3.27,0,0,0-5.9,1.92Z"/><path class="cls-2" d="M1061.81,275.58v.36h-7.13a3.17,3.17,0,0,0,3.21,3,3.88,3.88,0,0,0,2.71-1.1l.59.53a4.85,4.85,0,0,1-3.39,1.37,4.17,4.17,0,0,1-4.17-4.16,4.12,4.12,0,0,1,4.09-4.16A3.93,3.93,0,0,1,1061.81,275.58Zm-7.12-.21h6.11a3,3,0,0,0-3.06-3.16A3.11,3.11,0,0,0,1054.69,275.37Z"/><path class="cls-2" d="M1070,272.27l-.38.67a5.44,5.44,0,0,0-2.78-.77c-1,0-1.95.42-1.95,1.43,0,.62.37.93,2,1.36,2.07.55,3.41.82,3.41,2.54,0,1.52-1.45,2.25-3.18,2.24a6.68,6.68,0,0,1-3.6-1l.41-.65a5.94,5.94,0,0,0,3.19.91c1.15,0,2.17-.41,2.17-1.41,0-1.18-.86-1.28-2.64-1.76-1.94-.52-2.76-1-2.76-2.15,0-1.57,1.37-2.25,3-2.25A6.05,6.05,0,0,1,1070,272.27Z"/><path class="cls-2" d="M1078.87,271.58h1.31l-3,3,3.3,5h-1.19l-2.86-4.22-2.53,2.34v1.88h-1.08v-11.2h1.08v7.95Z"/><path class="cls-2" d="M1088.06,272.27l-.38.67a5.47,5.47,0,0,0-2.78-.77c-1.06,0-2,.42-2,1.43,0,.62.38.93,2,1.36,2.07.55,3.4.82,3.4,2.54,0,1.52-1.44,2.25-3.17,2.24a6.63,6.63,0,0,1-3.6-1l.4-.65a6,6,0,0,0,3.19.91c1.15,0,2.17-.41,2.17-1.41,0-1.18-.85-1.28-2.64-1.76-1.94-.52-2.75-1-2.75-2.15,0-1.57,1.36-2.25,3-2.25A6.09,6.09,0,0,1,1088.06,272.27Z"/><path class="cls-2" d="M1098.91,271.58v.84h-2.6v4.38a1.92,1.92,0,0,0,2,2.06,2.42,2.42,0,0,0,1.15-.31l.18.75a3.59,3.59,0,0,1-1.7.44,2.58,2.58,0,0,1-2.67-2.77v-4.55h-1.48v-.84h1.48v-2.37h1.08v2.37Z"/><path class="cls-2" d="M1103.14,272.81a5.85,5.85,0,0,1,3.74-1.39,2.78,2.78,0,0,1,3,3v5.13h-1.08v-4.84a2.17,2.17,0,0,0-2.27-2.44,4.94,4.94,0,0,0-3.36,1.31v6h-1.08v-11.2h1.08Z"/><path class="cls-2" d="M1119.56,274.41v5.17h-1.08v-1a5.53,5.53,0,0,1-3.58,1.18,2.57,2.57,0,0,1-2.8-2.58c0-1.56,1.21-2.36,3.14-2.37h3.24v-.29c0-1.55-1-2.23-2.48-2.23a4.93,4.93,0,0,0-2.92,1l-.35-.7a6.12,6.12,0,0,1,3.52-1.13C1118.15,271.41,1119.56,272.31,1119.56,274.41Zm-4,.87c-1.53,0-2.45.6-2.45,1.78a2,2,0,0,0,2.17,2,4.94,4.94,0,0,0,3.15-1v-2.79Z"/><path class="cls-2" d="M1126.46,271.58v.84h-2.6v4.38a1.92,1.92,0,0,0,2,2.06,2.42,2.42,0,0,0,1.15-.31l.18.75a3.59,3.59,0,0,1-1.7.44,2.58,2.58,0,0,1-2.67-2.77v-4.55h-1.47v-.84h1.47v-2.37h1.08v2.37Z"/><path class="cls-2" d="M1140.82,279.58l-2.17-6.48-2.18,6.48h-1.19l-2.82-8h1.08l2.38,6.85,2.26-6.85h.93l2.26,6.85,2.38-6.85h1.09l-2.82,8Z"/><path class="cls-2" d="M1154.21,275.58v.36h-7.13a3.17,3.17,0,0,0,3.21,3,3.86,3.86,0,0,0,2.71-1.1l.59.53a4.83,4.83,0,0,1-3.38,1.37,4.17,4.17,0,0,1-4.18-4.16,4.12,4.12,0,0,1,4.09-4.16A3.93,3.93,0,0,1,1154.21,275.58Zm-7.12-.21h6.11a3,3,0,0,0-3.06-3.16A3.11,3.11,0,0,0,1147.09,275.37Z"/><path class="cls-2" d="M1156.74,279.58V268.37h1.08v11.21Z"/><path class="cls-2" d="M1159.85,275.89V275h5.48v.92Z"/><path class="cls-2" d="M810.46,295.93l-.82.48a3.24,3.24,0,1,0,.09,4.24l.82.48a4.3,4.3,0,0,1-3.38,1.61,4.16,4.16,0,1,1,3.29-6.81Z"/><path class="cls-2" d="M821.26,298.58a4.35,4.35,0,1,1-4.34-4.16A4.26,4.26,0,0,1,821.26,298.58Zm-7.63,0a3.28,3.28,0,1,0,3.28-3.24A3.27,3.27,0,0,0,813.63,298.58Z"/><path class="cls-2" d="M830.76,295.84a5.51,5.51,0,0,1,3.69-1.42,2.74,2.74,0,0,1,2.9,3v5.13h-1.08v-4.84a2.14,2.14,0,0,0-2.2-2.44,4.71,4.71,0,0,0-3.14,1.21,4.71,4.71,0,0,1,.18,1.31v4.76H830v-4.84a2.14,2.14,0,0,0-2.21-2.44,4.23,4.23,0,0,0-3,1.23v6.05h-1.08v-8h1.08v1.22a5,5,0,0,1,3.39-1.38A2.64,2.64,0,0,1,830.76,295.84Z"/><path class="cls-2" d="M847.9,298.58v.36h-7.13a3.16,3.16,0,0,0,3.2,3,3.88,3.88,0,0,0,2.72-1.1l.58.53a4.83,4.83,0,0,1-3.38,1.37,4.17,4.17,0,0,1-4.17-4.16,4.12,4.12,0,0,1,4.09-4.16A3.94,3.94,0,0,1,847.9,298.58Zm-7.13-.21h6.11a3,3,0,0,0-3-3.16A3.11,3.11,0,0,0,840.77,298.37Z"/><path class="cls-2" d="M862.61,298.58a4.35,4.35,0,1,1-4.35-4.16A4.26,4.26,0,0,1,862.61,298.58Zm-7.64,0a3.28,3.28,0,1,0,3.28-3.24A3.27,3.27,0,0,0,855,298.58Z"/><path class="cls-2" d="M866.07,299.42a2.16,2.16,0,0,0,2.26,2.44,4.94,4.94,0,0,0,3.36-1.31v-6h1.08v8h-1.08v-1.23a5.85,5.85,0,0,1-3.74,1.39,2.77,2.77,0,0,1-3-3v-5.12h1.08Z"/><path class="cls-2" d="M880.4,295.3a5.25,5.25,0,0,0-3.77,1.69v5.59h-1.07v-8h1.07v1.54a5.29,5.29,0,0,1,3.77-1.7Z"/><path class="cls-2" d="M893,295.7v-1.12h1.08v7.2c0,2.8-1.78,4.1-4.18,4.1a6.64,6.64,0,0,1-3.69-1.15l.35-.71a5.59,5.59,0,0,0,3.15,1,3,3,0,0,0,3.29-3.26V301a4,4,0,0,1-3.25,1.62,3.93,3.93,0,0,1-3.94-4.06,4,4,0,0,1,3.94-4.1A4.75,4.75,0,0,1,893,295.7Zm-6.12,2.82a3.2,3.2,0,0,0,3.21,3.18A3.32,3.32,0,0,0,893,300v-3.41a4,4,0,0,0-2.91-1.24A3.2,3.2,0,0,0,886.92,298.52Z"/><path class="cls-2" d="M898,299.42a2.17,2.17,0,0,0,2.27,2.44,5,5,0,0,0,3.36-1.31v-6h1.07v8h-1.07v-1.23a5.85,5.85,0,0,1-3.74,1.39,2.78,2.78,0,0,1-3-3v-5.12H898Z"/><path class="cls-2" d="M915.26,298.58v.36h-7.13a3.16,3.16,0,0,0,3.2,3,3.88,3.88,0,0,0,2.72-1.1l.58.53a4.81,4.81,0,0,1-3.38,1.37,4.17,4.17,0,0,1-4.17-4.16,4.12,4.12,0,0,1,4.09-4.16A3.94,3.94,0,0,1,915.26,298.58Zm-7.13-.21h6.11a3,3,0,0,0-3-3.16A3.11,3.11,0,0,0,908.13,298.37Z"/><path class="cls-2" d="M923.44,295.27l-.38.67a5.47,5.47,0,0,0-2.78-.77c-1.06,0-2,.42-2,1.43,0,.62.38.93,2,1.36,2.07.55,3.4.82,3.4,2.54,0,1.52-1.44,2.25-3.17,2.24a6.63,6.63,0,0,1-3.6-1l.41-.65a5.9,5.9,0,0,0,3.18.91c1.15,0,2.17-.41,2.17-1.41,0-1.18-.85-1.28-2.63-1.76-2-.52-2.76-1-2.76-2.15,0-1.57,1.36-2.25,3-2.25A6.06,6.06,0,0,1,923.44,295.27Z"/><path class="cls-2" d="M930.29,294.58v.84h-2.6v4.38a1.92,1.92,0,0,0,2,2.06,2.42,2.42,0,0,0,1.15-.31l.18.75a3.59,3.59,0,0,1-1.7.44,2.58,2.58,0,0,1-2.67-2.77v-4.55h-1.48v-.84h1.48v-2.37h1.08v2.37Z"/><path class="cls-2" d="M939.12,295.27l-.38.67a5.47,5.47,0,0,0-2.78-.77c-1.06,0-2,.42-2,1.43,0,.62.37.93,2,1.36,2.07.55,3.4.82,3.4,2.54,0,1.52-1.44,2.25-3.17,2.24a6.63,6.63,0,0,1-3.6-1l.4-.65a6,6,0,0,0,3.19.91c1.15,0,2.17-.41,2.17-1.41,0-1.18-.85-1.28-2.63-1.76-1.94-.52-2.76-1-2.76-2.15,0-1.57,1.36-2.25,3-2.25A6.09,6.09,0,0,1,939.12,295.27Z"/><path class="cls-2" d="M942.41,302.17a.66.66,0,1,1-.66-.59A.63.63,0,0,1,942.41,302.17Z"/></g><g id="_24_plus" class="svg-showtip" data-name="24_plus"><circle class="cls-3" cx="837.37" cy="412.77" r="25"/><line class="cls-4" x1="822.76" y1="412.77" x2="851.99" y2="412.77"/><line class="cls-4" x1="837.37" y1="427.39" x2="837.37" y2="398.16"/></g><g id="_25_tooltip" class="svg-tooltip" data-name="25_tooltip"><path id="tooltip-2" data-name="tooltip" class="cls-1" d="M590.56,583.87H218.82l-23,20-24-20H132.29a3.27,3.27,0,0,1-3.26-3.26V495.18a3.27,3.27,0,0,1,3.26-3.26H590.56a3.27,3.27,0,0,1,3.26,3.26v85.43A3.27,3.27,0,0,1,590.56,583.87Z"/><path class="cls-2" d="M162.9,531.32v4.29h6.17v1H162.9v4.89h-1.16V530.28h7.9v1Z"/><path class="cls-2" d="M179.27,537.48v.36h-7.13a3.17,3.17,0,0,0,3.21,3,3.82,3.82,0,0,0,2.71-1.1l.59.53a4.84,4.84,0,0,1-3.38,1.38,4.17,4.17,0,0,1-4.17-4.17,4.12,4.12,0,0,1,4.08-4.16A3.94,3.94,0,0,1,179.27,537.48Zm-7.12-.2h6.11a3,3,0,0,0-3.06-3.17A3.12,3.12,0,0,0,172.15,537.28Z"/><path class="cls-2" d="M188.64,536.32v5.17h-1.08v-1a5.5,5.5,0,0,1-3.58,1.19,2.57,2.57,0,0,1-2.8-2.59c0-1.55,1.21-2.36,3.14-2.36h3.24v-.29c0-1.55-1-2.23-2.48-2.23a4.86,4.86,0,0,0-2.92,1l-.35-.7a6.18,6.18,0,0,1,3.52-1.14C187.23,533.32,188.64,534.21,188.64,536.32Zm-4,.86c-1.52,0-2.44.6-2.44,1.79a2,2,0,0,0,2.17,2,4.94,4.94,0,0,0,3.15-1v-2.79Z"/><path class="cls-2" d="M195.54,533.48v.84h-2.6v4.39a1.91,1.91,0,0,0,1.95,2,2.46,2.46,0,0,0,1.15-.3l.19.75a3.91,3.91,0,0,1-1.7.44,2.59,2.59,0,0,1-2.67-2.78v-4.55h-1.48v-.84h1.48v-2.37h1.08v2.37Z"/><path class="cls-2" d="M199.56,538.33a2.15,2.15,0,0,0,2.26,2.43,5,5,0,0,0,3.36-1.3v-6h1.08v8h-1.08v-1.23a5.9,5.9,0,0,1-3.74,1.39,2.77,2.77,0,0,1-3-3v-5.13h1.08Z"/><path class="cls-2" d="M213.89,534.21a5.24,5.24,0,0,0-3.77,1.68v5.6h-1.07v-8h1.07V535a5.33,5.33,0,0,1,3.77-1.7Z"/><path class="cls-2" d="M223.16,537.48v.36H216a3.17,3.17,0,0,0,3.21,3,3.82,3.82,0,0,0,2.71-1.1l.59.53a4.84,4.84,0,0,1-3.38,1.38,4.18,4.18,0,0,1-4.18-4.17,4.13,4.13,0,0,1,4.09-4.16A3.94,3.94,0,0,1,223.16,537.48Zm-7.12-.2h6.11a3,3,0,0,0-3.06-3.17A3.12,3.12,0,0,0,216,537.28Z"/><path class="cls-2" d="M236.87,541.49,234.7,535l-2.17,6.49h-1.2l-2.82-8h1.08l2.38,6.85,2.27-6.85h.92l2.27,6.85,2.38-6.85h1.08l-2.82,8Z"/><path class="cls-2" d="M249.39,536.32v5.17h-1.08v-1a5.5,5.5,0,0,1-3.58,1.19,2.57,2.57,0,0,1-2.8-2.59c0-1.55,1.21-2.36,3.14-2.36h3.24v-.29c0-1.55-1-2.23-2.48-2.23a4.86,4.86,0,0,0-2.92,1l-.35-.7a6.18,6.18,0,0,1,3.52-1.14C248,533.32,249.39,534.21,249.39,536.32Zm-4,.86c-1.52,0-2.44.6-2.44,1.79a2,2,0,0,0,2.17,2,4.94,4.94,0,0,0,3.15-1v-2.79Z"/><path class="cls-2" d="M252.27,541.48v-11.2h1.07v11.2Z"/><path class="cls-2" d="M256.23,541.48v-11.2h1.08v11.2Z"/><path class="cls-2" d="M265.85,534.17l-.37.68a5.61,5.61,0,0,0-2.79-.78c-1.05,0-1.95.43-1.95,1.43,0,.63.37.94,2,1.37,2.07.55,3.41.82,3.41,2.53,0,1.53-1.45,2.26-3.18,2.25a6.68,6.68,0,0,1-3.6-1l.41-.65a6,6,0,0,0,3.19.91c1.15,0,2.17-.42,2.17-1.41,0-1.19-.85-1.29-2.64-1.76-1.94-.52-2.76-1-2.76-2.15,0-1.58,1.37-2.25,3-2.26A6.15,6.15,0,0,1,265.85,534.17Z"/><path class="cls-2" d="M279.52,536.32v5.17h-1.08v-1a5.5,5.5,0,0,1-3.58,1.19,2.58,2.58,0,0,1-2.81-2.59c0-1.55,1.22-2.36,3.15-2.36h3.24v-.29c0-1.55-1-2.23-2.49-2.23a4.86,4.86,0,0,0-2.91,1l-.35-.7a6.18,6.18,0,0,1,3.52-1.14C278.11,533.32,279.52,534.21,279.52,536.32Zm-4,.86c-1.52,0-2.44.6-2.44,1.79a2,2,0,0,0,2.16,2,5,5,0,0,0,3.16-1v-2.79Z"/><path class="cls-2" d="M290.07,536.36v5.13H289v-4.85a2.16,2.16,0,0,0-2.26-2.43,5,5,0,0,0-3.36,1.3v6h-1.08v-8h1.08v1.23a5.86,5.86,0,0,1,3.74-1.39A2.77,2.77,0,0,1,290.07,536.36Z"/><path class="cls-2" d="M300.48,541.49h-1.07v-1.18a4.17,4.17,0,1,1,0-5.65v-4.38h1.07Zm-7-4a3.28,3.28,0,0,0,5.91,1.91v-3.82a3.28,3.28,0,0,0-5.91,1.91Z"/><path class="cls-2" d="M313.17,534.17l-.38.68a5.58,5.58,0,0,0-2.78-.78c-1.06,0-2,.43-2,1.43,0,.63.37.94,2,1.37,2.07.55,3.41.82,3.41,2.53,0,1.53-1.44,2.26-3.18,2.25a6.62,6.62,0,0,1-3.59-1l.4-.65a6,6,0,0,0,3.19.91c1.15,0,2.17-.42,2.17-1.41,0-1.19-.85-1.29-2.64-1.76-1.94-.52-2.75-1-2.75-2.15,0-1.58,1.36-2.25,3-2.26A6.21,6.21,0,0,1,313.17,534.17Z"/><path class="cls-2" d="M323.65,537.48v.36h-7.12a3.16,3.16,0,0,0,3.2,3,3.82,3.82,0,0,0,2.71-1.1l.59.53a4.84,4.84,0,0,1-3.38,1.38,4.17,4.17,0,0,1-4.17-4.17,4.12,4.12,0,0,1,4.09-4.16A3.94,3.94,0,0,1,323.65,537.48Zm-7.12-.2h6.11a3,3,0,0,0-3.05-3.17A3.12,3.12,0,0,0,316.53,537.28Z"/><path class="cls-2" d="M333,536.32v5.17h-1.08v-1a5.5,5.5,0,0,1-3.58,1.19,2.57,2.57,0,0,1-2.8-2.59c0-1.55,1.21-2.36,3.14-2.36h3.24v-.29c0-1.55-1-2.23-2.48-2.23a4.86,4.86,0,0,0-2.92,1l-.35-.7a6.18,6.18,0,0,1,3.52-1.14C331.61,533.32,333,534.21,333,536.32Zm-4,.86c-1.52,0-2.44.6-2.44,1.79a2,2,0,0,0,2.17,2,4.94,4.94,0,0,0,3.15-1v-2.79Z"/><path class="cls-2" d="M339.92,533.48v.84h-2.6v4.39a1.91,1.91,0,0,0,1.95,2,2.53,2.53,0,0,0,1.16-.3l.18.75a3.84,3.84,0,0,1-1.7.44,2.59,2.59,0,0,1-2.67-2.78v-4.55h-1.48v-.84h1.48v-2.37h1.08v2.37Z"/><path class="cls-2" d="M344.38,531.25a.64.64,0,1,1-.64-.57A.6.6,0,0,1,344.38,531.25Zm-1.18,10.24v-8h1.08v8Z"/><path class="cls-2" d="M355.08,536.36v5.13H354v-4.85a2.16,2.16,0,0,0-2.27-2.43,5,5,0,0,0-3.35,1.3v6H347.3v-8h1.08v1.23a5.86,5.86,0,0,1,3.73-1.39A2.78,2.78,0,0,1,355.08,536.36Z"/><path class="cls-2" d="M364.65,534.6v-1.12h1.08v7.21c0,2.79-1.78,4.1-4.18,4.09a6.49,6.49,0,0,1-3.69-1.15l.36-.7a5.45,5.45,0,0,0,3.14,1,3,3,0,0,0,3.29-3.25v-.83a4,4,0,0,1-3.25,1.63,4.09,4.09,0,0,1,0-8.17A4.8,4.8,0,0,1,364.65,534.6Zm-6.12,2.83a3.2,3.2,0,0,0,3.22,3.18,3.3,3.3,0,0,0,2.9-1.71v-3.41a4,4,0,0,0-2.9-1.24A3.2,3.2,0,0,0,358.53,537.43Z"/><path class="cls-2" d="M379.61,536.32v5.17h-1.08v-1a5.48,5.48,0,0,1-3.58,1.19,2.57,2.57,0,0,1-2.8-2.59c0-1.55,1.21-2.36,3.14-2.36h3.24v-.29c0-1.55-1-2.23-2.48-2.23a4.86,4.86,0,0,0-2.92,1l-.35-.7a6.23,6.23,0,0,1,3.52-1.14C378.2,533.32,379.61,534.21,379.61,536.32Zm-3.95.86c-1.53,0-2.45.6-2.45,1.79a2,2,0,0,0,2.17,2,4.94,4.94,0,0,0,3.15-1v-2.79Z"/><path class="cls-2" d="M384.76,541.49l-3.51-8h1.15l3,6.91,3-6.91h1.15l-3.51,8Z"/><path class="cls-2" d="M398.06,536.32v5.17H397v-1a5.5,5.5,0,0,1-3.58,1.19,2.57,2.57,0,0,1-2.8-2.59c0-1.55,1.21-2.36,3.14-2.36H397v-.29c0-1.55-1-2.23-2.48-2.23a4.86,4.86,0,0,0-2.92,1l-.35-.7a6.18,6.18,0,0,1,3.52-1.14C396.65,533.32,398.06,534.21,398.06,536.32Zm-4,.86c-1.52,0-2.44.6-2.44,1.79a2,2,0,0,0,2.17,2,4.94,4.94,0,0,0,3.15-1v-2.79Z"/><path class="cls-2" d="M402.22,531.25a.65.65,0,1,1-.64-.57A.61.61,0,0,1,402.22,531.25ZM401,541.49v-8h1.08v8Z"/><path class="cls-2" d="M405.24,541.48v-11.2h1.08v11.2Z"/><path class="cls-2" d="M416,536.32v5.17H415v-1a5.48,5.48,0,0,1-3.57,1.19,2.58,2.58,0,0,1-2.81-2.59c0-1.55,1.21-2.36,3.14-2.36H415v-.29c0-1.55-1-2.23-2.48-2.23a4.86,4.86,0,0,0-2.92,1l-.35-.7a6.23,6.23,0,0,1,3.52-1.14C414.63,533.32,416,534.21,416,536.32Zm-4,.86c-1.53,0-2.45.6-2.45,1.79a2,2,0,0,0,2.17,2,4.94,4.94,0,0,0,3.15-1v-2.79Z"/><path class="cls-2" d="M419.89,534.66a4.17,4.17,0,1,1,0,5.65v1.18h-1.07V530.28h1.07Zm0,.91v3.82a3.23,3.23,0,1,0,0-3.82Z"/><path class="cls-2" d="M429.48,541.48v-11.2h1.08v11.2Z"/><path class="cls-2" d="M441.11,537.48v.36H434a3.16,3.16,0,0,0,3.2,3,3.84,3.84,0,0,0,2.72-1.1l.59.53a4.86,4.86,0,0,1-3.39,1.38,4.17,4.17,0,0,1-4.17-4.17,4.13,4.13,0,0,1,4.09-4.16A3.94,3.94,0,0,1,441.11,537.48Zm-7.13-.2h6.11a3,3,0,0,0-3-3.17A3.12,3.12,0,0,0,434,537.28Z"/><path class="cls-2" d="M444.1,541.08a.66.66,0,1,1-.66-.59A.63.63,0,0,1,444.1,541.08Z"/></g><g id="_25_plus" class="svg-showtip" data-name="25_plus"><circle class="cls-3" cx="195.41" cy="654.7" r="25"/><line class="cls-4" x1="180.79" y1="654.7" x2="210.02" y2="654.7"/><line class="cls-4" x1="195.41" y1="669.32" x2="195.41" y2="640.09"/></g><g id="_26_tooltip" class="svg-tooltip" data-name="26_tooltip"><path id="tooltip-3" data-name="tooltip" class="cls-1" d="M1124.29,653.55H752.55l-23,20-24-20H666a3.27,3.27,0,0,1-3.26-3.26V564.86A3.27,3.27,0,0,1,666,561.6h458.27a3.27,3.27,0,0,1,3.26,3.26v85.43A3.27,3.27,0,0,1,1124.29,653.55Z"/><path class="cls-2" d="M703.82,611.17l-7.34-9.41v9.41h-1.14V600h1.27l7.34,9.42V600h1.14v11.21Z"/><path class="cls-2" d="M716.56,607.17a4.35,4.35,0,1,1-4.34-4.17A4.26,4.26,0,0,1,716.56,607.17Zm-7.63,0a3.28,3.28,0,1,0,3.28-3.24A3.26,3.26,0,0,0,708.93,607.17Z"/><path class="cls-2" d="M723.21,603.16V604h-2.6v4.39a1.91,1.91,0,0,0,1.95,2.05,2.46,2.46,0,0,0,1.15-.3l.19.75a3.91,3.91,0,0,1-1.7.44,2.59,2.59,0,0,1-2.67-2.78V604h-1.48v-.84h1.48v-2.37h1.08v2.37Z"/><path class="cls-2" d="M727.67,600.93a.61.61,0,0,1-.64.56.57.57,0,1,1,0-1.13A.61.61,0,0,1,727.67,600.93Zm-1.18,10.24v-8h1.08v8Z"/><path class="cls-2" d="M737.75,604.51l-.82.48a3.24,3.24,0,1,0,.09,4.24l.82.48a4.32,4.32,0,0,1-3.38,1.62,4.17,4.17,0,1,1,0-8.33A4.31,4.31,0,0,1,737.75,604.51Z"/><path class="cls-2" d="M748,607.17v.35H740.9a3.17,3.17,0,0,0,3.21,3,3.82,3.82,0,0,0,2.71-1.1l.59.53a4.86,4.86,0,0,1-3.39,1.38,4.17,4.17,0,0,1-.08-8.33A3.94,3.94,0,0,1,748,607.17Zm-7.12-.21H747a3,3,0,0,0-3.06-3.17A3.12,3.12,0,0,0,740.91,607Z"/><path class="cls-2" d="M761.74,611.17l-2.17-6.49-2.17,6.49h-1.2l-2.82-8h1.08l2.38,6.85,2.27-6.85H760L762.3,610l2.38-6.85h1.08l-2.82,8Z"/><path class="cls-2" d="M774.26,606v5.17h-1.08v-1a5.5,5.5,0,0,1-3.58,1.19,2.58,2.58,0,0,1-2.81-2.59c0-1.55,1.22-2.36,3.15-2.36h3.24v-.29c0-1.55-1-2.23-2.49-2.23a4.86,4.86,0,0,0-2.91,1l-.35-.7A6.1,6.1,0,0,1,771,603C772.85,603,774.26,603.89,774.26,606Zm-4,.86c-1.52,0-2.44.6-2.44,1.79a2,2,0,0,0,2.16,2,5,5,0,0,0,3.16-1v-2.79Z"/><path class="cls-2" d="M780.38,612c-.81,1.92-1.78,2.46-3,2.47a4.58,4.58,0,0,1-1.57-.32l.31-.73a2.8,2.8,0,0,0,1.16.22c.81,0,1.45-.41,2.1-1.81l.17-.39-3.66-8.26h1.14l3,6.91,2.89-6.91h1.12Z"/><path class="cls-2" d="M790.4,600l-.16.7a2.72,2.72,0,0,0-.92-.17,1.89,1.89,0,0,0-1.93,2v.56h6.23v8h-1.08V604h-5.15v7.17h-1.08V604h-1.38v-.84h1.38v-.59A2.59,2.59,0,0,1,789,599.8,4.46,4.46,0,0,1,790.4,600Z"/><path class="cls-2" d="M804.41,606v5.13h-1.08v-4.85a2.15,2.15,0,0,0-2.26-2.43,5,5,0,0,0-3.36,1.3v6h-1.08v-8h1.08v1.23a5.9,5.9,0,0,1,3.74-1.39A2.77,2.77,0,0,1,804.41,606Z"/><path class="cls-2" d="M814.83,611.17h-1.08V610a4,4,0,0,1-3,1.34,4.17,4.17,0,1,1,3-7V600h1.08Zm-7-4a3.27,3.27,0,0,0,5.9,1.9v-3.82a3.27,3.27,0,0,0-5.9,1.92Z"/><path class="cls-2" d="M819.14,600.93a.65.65,0,1,1-.64-.57A.61.61,0,0,1,819.14,600.93ZM818,611.17v-8H819v8Z"/><path class="cls-2" d="M829.84,606v5.13h-1.08v-4.85a2.16,2.16,0,0,0-2.27-2.43,5,5,0,0,0-3.36,1.3v6h-1.08v-8h1.08v1.23a5.9,5.9,0,0,1,3.74-1.39A2.78,2.78,0,0,1,829.84,606Z"/><path class="cls-2" d="M839.41,604.28v-1.12h1.08v7.21c0,2.8-1.78,4.1-4.18,4.09a6.49,6.49,0,0,1-3.69-1.15l.35-.7a5.51,5.51,0,0,0,3.15,1,3,3,0,0,0,3.29-3.25v-.83a4,4,0,0,1-3.25,1.63,4.09,4.09,0,0,1,0-8.17A4.8,4.8,0,0,1,839.41,604.28Zm-6.12,2.83a3.2,3.2,0,0,0,3.21,3.18,3.32,3.32,0,0,0,2.91-1.71v-3.41a4,4,0,0,0-2.91-1.24A3.2,3.2,0,0,0,833.29,607.11Z"/><path class="cls-2" d="M854.59,604.51l-.82.48a3.24,3.24,0,1,0,.09,4.24l.82.48a4.31,4.31,0,0,1-3.38,1.62,4.17,4.17,0,1,1,0-8.33A4.3,4.3,0,0,1,854.59,604.51Z"/><path class="cls-2" d="M858.05,608a2.16,2.16,0,0,0,2.27,2.43,5,5,0,0,0,3.36-1.3v-6h1.07v8h-1.07v-1.23a5.9,5.9,0,0,1-3.74,1.39,2.78,2.78,0,0,1-3-3v-5.13h1.08Z"/><path class="cls-2" d="M875.31,607.17v.35h-7.13a3.16,3.16,0,0,0,3.2,3,3.84,3.84,0,0,0,2.72-1.1l.58.53a4.82,4.82,0,0,1-3.38,1.38,4.17,4.17,0,0,1-.08-8.33A4,4,0,0,1,875.31,607.17Zm-7.13-.21h6.11a3,3,0,0,0-3-3.17A3.12,3.12,0,0,0,868.18,607Z"/><path class="cls-2" d="M883.49,603.85l-.38.68a5.58,5.58,0,0,0-2.78-.78c-1.06,0-2,.43-2,1.43,0,.63.38.94,2,1.37,2.07.55,3.4.81,3.4,2.53,0,1.53-1.44,2.26-3.17,2.25a6.63,6.63,0,0,1-3.6-1l.4-.65a6,6,0,0,0,3.19.91c1.15,0,2.17-.41,2.17-1.41,0-1.19-.85-1.29-2.63-1.76-1.94-.52-2.76-1-2.76-2.15,0-1.58,1.36-2.25,3-2.26A6.18,6.18,0,0,1,883.49,603.85Z"/><path class="cls-2" d="M891.6,600.93a.64.64,0,1,1-.64-.57A.6.6,0,0,1,891.6,600.93Zm-1.17,10.24v-8h1.07v8Z"/><path class="cls-2" d="M902.3,606v5.13h-1.08v-4.85a2.16,2.16,0,0,0-2.27-2.43,5,5,0,0,0-3.35,1.3v6h-1.08v-8h1.08v1.23a5.86,5.86,0,0,1,3.73-1.39A2.78,2.78,0,0,1,902.3,606Z"/><path class="cls-2" d="M913.21,603.16V604H910.6v4.39a1.92,1.92,0,0,0,2,2.05,2.5,2.5,0,0,0,1.15-.3l.18.75a3.83,3.83,0,0,1-1.69.44,2.59,2.59,0,0,1-2.68-2.78V604h-1.47v-.84h1.47v-2.37h1.08v2.37Z"/><path class="cls-2" d="M917.44,604.39a5.86,5.86,0,0,1,3.73-1.39,2.78,2.78,0,0,1,3,3v5.13h-1.08v-4.85a2.16,2.16,0,0,0-2.27-2.43,5,5,0,0,0-3.35,1.3v6h-1.08V600h1.08Z"/><path class="cls-2" d="M934.68,607.17v.35h-7.13a3.17,3.17,0,0,0,3.21,3,3.82,3.82,0,0,0,2.71-1.1l.59.53a4.84,4.84,0,0,1-3.38,1.38,4.17,4.17,0,0,1-4.17-4.16,4.12,4.12,0,0,1,4.08-4.17A3.94,3.94,0,0,1,934.68,607.17Zm-7.12-.21h6.11a3,3,0,0,0-3.06-3.17A3.12,3.12,0,0,0,927.56,607Z"/><path class="cls-2" d="M945.26,600h3.4v11.21h-1.08V600.73h-2.19a2.72,2.72,0,0,0-.92-.17,1.89,1.89,0,0,0-1.93,2v.56h2.7V604h-2.7v7.17h-1.08V604h-1.38v-.84h1.38v-.59a2.58,2.58,0,0,1,2.72-2.77A3.92,3.92,0,0,1,945.26,600Z"/><path class="cls-2" d="M959.73,607.17a4.35,4.35,0,1,1-4.35-4.17A4.26,4.26,0,0,1,959.73,607.17Zm-7.64,0a3.28,3.28,0,1,0,3.28-3.24A3.26,3.26,0,0,0,952.09,607.17Z"/><path class="cls-2" d="M970.53,607.17a4.35,4.35,0,1,1-4.35-4.17A4.26,4.26,0,0,1,970.53,607.17Zm-7.64,0a3.28,3.28,0,1,0,3.28-3.24A3.26,3.26,0,0,0,962.89,607.17Z"/><path class="cls-2" d="M977.89,603.89a5.24,5.24,0,0,0-3.77,1.68v5.6H973v-8h1.08v1.54a5.33,5.33,0,0,1,3.77-1.7Z"/><path class="cls-2" d="M981.12,600.93a.65.65,0,1,1-.64-.57A.61.61,0,0,1,981.12,600.93Zm-1.18,10.24v-8H981v8Z"/><path class="cls-2" d="M991.82,606v5.13h-1.08v-4.85a2.16,2.16,0,0,0-2.27-2.43,5,5,0,0,0-3.36,1.3v6H984v-8h1.08v1.23a5.9,5.9,0,0,1,3.74-1.39A2.78,2.78,0,0,1,991.82,606Z"/><path class="cls-2" d="M1001.39,604.28v-1.12h1.08v7.21c0,2.8-1.78,4.1-4.18,4.09a6.49,6.49,0,0,1-3.69-1.15l.35-.7a5.51,5.51,0,0,0,3.15,1,3,3,0,0,0,3.29-3.25v-.83a4,4,0,0,1-3.25,1.63,4.09,4.09,0,0,1,0-8.17A4.8,4.8,0,0,1,1001.39,604.28Zm-6.12,2.83a3.2,3.2,0,0,0,3.21,3.18,3.32,3.32,0,0,0,2.91-1.71v-3.41a4,4,0,0,0-2.91-1.24A3.2,3.2,0,0,0,995.27,607.11Z"/><path class="cls-2" d="M1006,610.76a.66.66,0,1,1-.66-.59A.62.62,0,0,1,1006,610.76Z"/></g><g id="_26_plus" class="svg-showtip" data-name="26_plus"><circle class="cls-3" cx="729.14" cy="724.38" r="25"/><line class="cls-4" x1="714.53" y1="724.38" x2="743.76" y2="724.38"/><line class="cls-4" x1="729.14" y1="739" x2="729.14" y2="709.77"/></g></svg>