<svg id="_20_1640x750" data-name="20_1640x750" xmlns="http://www.w3.org/2000/svg" viewBox="0 0 1640 790"><defs><style>.cls-1{fill:#fff;stroke-width:2px;}.cls-1,.cls-3,.cls-4{stroke:#fff;stroke-miterlimit:10;}.cls-2{fill:#231f20;}.cls-3{fill:#06a7e0;stroke-width:1.33px;opacity:0.9;}.cls-4{fill:none;stroke-width:4.67px;}</style></defs><title>05_1640x790</title><g id="_27_tooltip" class="svg-tooltip" data-name="27_tooltip"><path id="tooltip" class="cls-1" d="M1442.53,127.15H1070.79l-23-20-24,20H984.26a3.27,3.27,0,0,0-3.26,3.26v81.42a3.26,3.26,0,0,0,3.26,3.26h458.27a3.27,3.27,0,0,0,3.26-3.26V130.41A3.27,3.27,0,0,0,1442.53,127.15Z"/><path class="cls-2" d="M1013.71,176.72V165.51h1.16v11.21Z"/><path class="cls-2" d="M1026,171.59v5.13h-1.08v-4.85a2.16,2.16,0,0,0-2.27-2.43,5,5,0,0,0-3.36,1.3v6h-1.07v-8h1.07v1.23a5.9,5.9,0,0,1,3.74-1.39A2.78,2.78,0,0,1,1026,171.59Z"/><path class="cls-2" d="M1032.88,168.71v.84h-2.6v4.39a1.92,1.92,0,0,0,2,2.05,2.39,2.39,0,0,0,1.15-.31l.18.76a3.84,3.84,0,0,1-1.7.44,2.59,2.59,0,0,1-2.67-2.78v-4.55h-1.47v-.84h1.47v-2.37h1.08v2.37Z"/><path class="cls-2" d="M1040.81,169.44a5.24,5.24,0,0,0-3.78,1.68v5.6H1036v-8H1037v1.54a5.35,5.35,0,0,1,3.78-1.7Z"/><path class="cls-2" d="M1044,166.48a.64.64,0,1,1-.64-.57A.6.6,0,0,1,1044,166.48Zm-1.18,10.24v-8h1.08v8Z"/><path class="cls-2" d="M1053.74,169.83v-1.12h1.08v7.21c0,2.79-1.78,4.1-4.18,4.09a6.57,6.57,0,0,1-3.69-1.15l.36-.7a5.48,5.48,0,0,0,3.14,1,3,3,0,0,0,3.29-3.25v-.83a4,4,0,0,1-3.25,1.63,4.09,4.09,0,0,1,0-8.17A4.8,4.8,0,0,1,1053.74,169.83Zm-6.12,2.83a3.2,3.2,0,0,0,3.22,3.18,3.3,3.3,0,0,0,2.9-1.71v-3.41a4,4,0,0,0-2.9-1.25A3.21,3.21,0,0,0,1047.62,172.66Z"/><path class="cls-2" d="M1058.7,173.56A2.16,2.16,0,0,0,1061,176a5,5,0,0,0,3.36-1.3v-6h1.08v8h-1.08v-1.23a5.9,5.9,0,0,1-3.74,1.39,2.77,2.77,0,0,1-3-3v-5.13h1.07Z"/><path class="cls-2" d="M1069.58,166.48a.64.64,0,1,1-.64-.57A.6.6,0,0,1,1069.58,166.48Zm-1.17,10.24v-8h1.07v8Z"/><path class="cls-2" d="M1080.28,171.59v5.13h-1.08v-4.85a2.16,2.16,0,0,0-2.27-2.43,5,5,0,0,0-3.35,1.3v6h-1.08v-8h1.08v1.23a5.86,5.86,0,0,1,3.73-1.39A2.78,2.78,0,0,1,1080.28,171.59Z"/><path class="cls-2" d="M1089.85,169.83v-1.12h1.08v7.21c0,2.79-1.78,4.1-4.18,4.09a6.59,6.59,0,0,1-3.69-1.15l.36-.7a5.48,5.48,0,0,0,3.14,1,3,3,0,0,0,3.29-3.25v-.83a4,4,0,0,1-3.25,1.63,4.09,4.09,0,0,1,0-8.17A4.8,4.8,0,0,1,1089.85,169.83Zm-6.12,2.83a3.2,3.2,0,0,0,3.22,3.18,3.3,3.3,0,0,0,2.9-1.71v-3.41a4,4,0,0,0-2.9-1.25A3.21,3.21,0,0,0,1083.73,172.66Z"/><path class="cls-2" d="M1105,170.06l-.81.48a3.24,3.24,0,1,0,.09,4.24l.82.48a4.32,4.32,0,0,1-3.38,1.62,4.17,4.17,0,1,1,0-8.33A4.29,4.29,0,0,1,1105,170.06Z"/><path class="cls-2" d="M1115.32,172.71v.36h-7.13a3.16,3.16,0,0,0,3.2,3,3.84,3.84,0,0,0,2.72-1.1l.59.53a4.86,4.86,0,0,1-3.39,1.38,4.17,4.17,0,0,1-4.17-4.17,4.13,4.13,0,0,1,4.09-4.16A3.94,3.94,0,0,1,1115.32,172.71Zm-7.13-.21h6.11a3,3,0,0,0-3-3.16A3.11,3.11,0,0,0,1108.19,172.5Z"/><path class="cls-2" d="M1119.13,166.48a.64.64,0,1,1-.64-.57A.6.6,0,0,1,1119.13,166.48ZM1118,176.72v-8H1119v8Z"/><path class="cls-2" d="M1122.15,176.71v-11.2h1.08v11.2Z"/><path class="cls-2" d="M1127.4,166.48a.64.64,0,1,1-.64-.57A.6.6,0,0,1,1127.4,166.48Zm-1.17,10.24v-8h1.08v8Z"/><path class="cls-2" d="M1138.1,171.59v5.13H1137v-4.85a2.16,2.16,0,0,0-2.26-2.43,5,5,0,0,0-3.36,1.3v6h-1.08v-8h1.08v1.23a5.86,5.86,0,0,1,3.74-1.39A2.77,2.77,0,0,1,1138.1,171.59Z"/><path class="cls-2" d="M1147.68,169.83v-1.12h1.07v7.21c0,2.79-1.78,4.1-4.18,4.09a6.56,6.56,0,0,1-3.68-1.15l.35-.7a5.5,5.5,0,0,0,3.14,1,3,3,0,0,0,3.3-3.25v-.83a4,4,0,0,1-3.26,1.63,4.09,4.09,0,0,1,0-8.17A4.84,4.84,0,0,1,1147.68,169.83Zm-6.12,2.83a3.2,3.2,0,0,0,3.21,3.18,3.33,3.33,0,0,0,2.91-1.71v-3.41a4,4,0,0,0-2.91-1.25A3.21,3.21,0,0,0,1141.56,172.66Z"/><path class="cls-2" d="M1162.64,171.54v5.18h-1.08v-1a5.56,5.56,0,0,1-3.58,1.19,2.58,2.58,0,0,1-2.81-2.59c0-1.55,1.21-2.36,3.14-2.36h3.25v-.29c0-1.55-1-2.24-2.49-2.23a4.86,4.86,0,0,0-2.92,1l-.35-.7a6.23,6.23,0,0,1,3.53-1.14C1161.23,168.55,1162.64,169.44,1162.64,171.54Zm-4,.87c-1.53,0-2.44.6-2.44,1.79a2,2,0,0,0,2.16,2,5,5,0,0,0,3.16-1v-2.79Z"/><path class="cls-2" d="M1173.19,171.59v5.13h-1.08v-4.85a2.16,2.16,0,0,0-2.27-2.43,5,5,0,0,0-3.35,1.3v6h-1.08v-8h1.08v1.23a5.86,5.86,0,0,1,3.74-1.39A2.77,2.77,0,0,1,1173.19,171.59Z"/><path class="cls-2" d="M1183.6,176.72h-1.08v-1.18a4,4,0,0,1-3,1.34,4.17,4.17,0,0,1,0-8.33,4,4,0,0,1,3,1.34v-4.38h1.08Zm-7-4a3.27,3.27,0,0,0,5.9,1.91V170.8a3.27,3.27,0,0,0-5.9,1.91Z"/><path class="cls-2" d="M1190.63,176.71v-11.2h1.08v11.2Z"/><path class="cls-2" d="M1195.88,166.48a.64.64,0,1,1-.64-.57A.6.6,0,0,1,1195.88,166.48Zm-1.17,10.24v-8h1.07v8Z"/><path class="cls-2" d="M1205.6,169.83v-1.12h1.07v7.21c0,2.79-1.78,4.1-4.18,4.09a6.56,6.56,0,0,1-3.68-1.15l.35-.7a5.5,5.5,0,0,0,3.14,1,3,3,0,0,0,3.29-3.25v-.83a4,4,0,0,1-3.25,1.63,4.09,4.09,0,0,1,0-8.17A4.84,4.84,0,0,1,1205.6,169.83Zm-6.12,2.83a3.19,3.19,0,0,0,3.21,3.18,3.3,3.3,0,0,0,2.9-1.71v-3.41a4,4,0,0,0-2.9-1.25A3.2,3.2,0,0,0,1199.48,172.66Z"/><path class="cls-2" d="M1210.77,169.94a5.9,5.9,0,0,1,3.74-1.39,2.78,2.78,0,0,1,3,3v5.13h-1.08v-4.85a2.16,2.16,0,0,0-2.27-2.43,5,5,0,0,0-3.36,1.3v6h-1.08V165.51h1.08Z"/><path class="cls-2" d="M1224.38,168.71v.84h-2.6v4.39a1.91,1.91,0,0,0,2,2.05,2.42,2.42,0,0,0,1.15-.31l.18.76a3.84,3.84,0,0,1-1.7.44,2.59,2.59,0,0,1-2.67-2.78v-4.55h-1.47v-.84h1.47v-2.37h1.08v2.37Z"/><path class="cls-2" d="M1228.84,166.48a.64.64,0,1,1-.64-.57A.6.6,0,0,1,1228.84,166.48Zm-1.17,10.24v-8h1.07v8Z"/><path class="cls-2" d="M1239.54,171.59v5.13h-1.08v-4.85a2.16,2.16,0,0,0-2.27-2.43,5,5,0,0,0-3.35,1.3v6h-1.08v-8h1.08v1.23a5.86,5.86,0,0,1,3.73-1.39A2.78,2.78,0,0,1,1239.54,171.59Z"/><path class="cls-2" d="M1249.11,169.83v-1.12h1.08v7.21c0,2.79-1.78,4.1-4.18,4.09a6.57,6.57,0,0,1-3.69-1.15l.36-.7a5.48,5.48,0,0,0,3.14,1,3,3,0,0,0,3.29-3.25v-.83a4,4,0,0,1-3.25,1.63,4.09,4.09,0,0,1,0-8.17A4.8,4.8,0,0,1,1249.11,169.83Zm-6.12,2.83a3.2,3.2,0,0,0,3.22,3.18,3.3,3.3,0,0,0,2.9-1.71v-3.41a4,4,0,0,0-2.9-1.25A3.21,3.21,0,0,0,1243,172.66Z"/><path class="cls-2" d="M1264.77,176.72h-1.08v-1.18a4,4,0,0,1-3,1.34,4.17,4.17,0,1,1,3-7v-4.38h1.08Zm-7-4a3.27,3.27,0,0,0,5.9,1.91V170.8a3.29,3.29,0,0,0-2.63-1.32A3.26,3.26,0,0,0,1257.79,172.71Z"/><path class="cls-2" d="M1275.46,172.71v.36h-7.13a3.16,3.16,0,0,0,3.2,3,3.84,3.84,0,0,0,2.72-1.1l.59.53a4.86,4.86,0,0,1-3.39,1.38,4.17,4.17,0,0,1-.08-8.33A3.94,3.94,0,0,1,1275.46,172.71Zm-7.13-.21h6.11a3,3,0,0,0-3-3.16A3.11,3.11,0,0,0,1268.33,172.5Z"/><path class="cls-2" d="M1283.64,169.4l-.38.68a5.55,5.55,0,0,0-2.78-.78c-1,0-2,.43-2,1.43,0,.63.37.94,2,1.37,2.07.55,3.4.81,3.4,2.53,0,1.53-1.44,2.26-3.17,2.25a6.66,6.66,0,0,1-3.6-1l.41-.65a6,6,0,0,0,3.18.91c1.16,0,2.17-.42,2.17-1.41,0-1.19-.85-1.29-2.63-1.76-1.94-.52-2.76-1-2.76-2.15,0-1.58,1.37-2.26,3-2.26A6.15,6.15,0,0,1,1283.64,169.4Z"/><path class="cls-2" d="M1287.75,166.48a.64.64,0,1,1-.64-.57A.6.6,0,0,1,1287.75,166.48Zm-1.17,10.24v-8h1.08v8Z"/><path class="cls-2" d="M1297.47,169.83v-1.12h1.07v7.21c0,2.79-1.78,4.1-4.18,4.09a6.56,6.56,0,0,1-3.68-1.15l.35-.7a5.5,5.5,0,0,0,3.14,1,3,3,0,0,0,3.3-3.25v-.83a4,4,0,0,1-3.26,1.63,4.09,4.09,0,0,1,0-8.17A4.84,4.84,0,0,1,1297.47,169.83Zm-6.12,2.83a3.2,3.2,0,0,0,3.21,3.18,3.33,3.33,0,0,0,2.91-1.71v-3.41a4,4,0,0,0-2.91-1.25A3.21,3.21,0,0,0,1291.35,172.66Z"/><path class="cls-2" d="M1309.27,171.59v5.13h-1.08v-4.85a2.16,2.16,0,0,0-2.27-2.43,5,5,0,0,0-3.36,1.3v6h-1.08v-8h1.08v1.23a5.9,5.9,0,0,1,3.74-1.39A2.78,2.78,0,0,1,1309.27,171.59Z"/><path class="cls-2" d="M1317.8,169.4l-.38.68a5.58,5.58,0,0,0-2.78-.78c-1.05,0-2,.43-2,1.43,0,.63.37.94,2,1.37,2.07.55,3.4.81,3.4,2.53,0,1.53-1.44,2.26-3.17,2.25a6.66,6.66,0,0,1-3.6-1l.41-.65a6,6,0,0,0,3.18.91c1.15,0,2.17-.42,2.17-1.41,0-1.19-.85-1.29-2.63-1.76-1.94-.52-2.76-1-2.76-2.15,0-1.58,1.37-2.26,3-2.26A6.16,6.16,0,0,1,1317.8,169.4Z"/><path class="cls-2" d="M1321.09,176.3a.67.67,0,1,1-.66-.58A.62.62,0,0,1,1321.09,176.3Z"/></g><g id="_27_plus" class="svg-showtip" data-name="27_plus"><circle class="cls-3" cx="1047.54" cy="62.49" r="25"/><line class="cls-4" x1="1032.93" y1="62.49" x2="1062.16" y2="62.49"/><line class="cls-4" x1="1047.54" y1="77.11" x2="1047.54" y2="47.88"/></g></svg>