<svg id="_22_1640x750" data-name="22_1640x750" xmlns="http://www.w3.org/2000/svg" viewBox="0 0 1640 790"><defs><style>.cls-1{fill:#fff;stroke-width:2px;}.cls-1,.cls-3,.cls-4{stroke:#fff;stroke-miterlimit:10;}.cls-2{fill:#231f20;}.cls-3{fill:#06a7e0;stroke-width:1.33px;opacity:0.9;}.cls-4{fill:none;stroke-width:4.67px;}</style></defs><title>07_1640x790</title><g id="_31_tooltip" class="svg-tooltip" data-name="31_tooltip"><path id="tooltip" class="cls-1" d="M845.2,435h371.74l23,20,24-20h39.53a3.26,3.26,0,0,0,3.26-3.26V334.3a3.26,3.26,0,0,0-3.26-3.26H845.2a3.27,3.27,0,0,0-3.26,3.26v97.43A3.27,3.27,0,0,0,845.2,435Z"/><path class="cls-2" d="M878.3,376.1l-4.86-11.21h1.37l4.25,9.88,4.26-9.88h1.37l-4.88,11.21Z"/><path class="cls-2" d="M892.3,370.93v5.17h-1.08v-1a5.52,5.52,0,0,1-3.57,1.18,2.58,2.58,0,0,1-2.81-2.58c0-1.56,1.21-2.36,3.14-2.37h3.24V371c0-1.55-1-2.23-2.48-2.23a4.86,4.86,0,0,0-2.92,1l-.35-.7a6.14,6.14,0,0,1,3.52-1.13C890.89,367.93,892.3,368.83,892.3,370.93Zm-3.95.87c-1.53,0-2.45.6-2.45,1.78a2,2,0,0,0,2.17,2,5,5,0,0,0,3.15-1V371.8Z"/><path class="cls-2" d="M899.92,368.82a5.21,5.21,0,0,0-3.77,1.69v5.59h-1.07v-8h1.07v1.53a5.32,5.32,0,0,1,3.77-1.69Z"/><path class="cls-2" d="M903.15,365.86a.64.64,0,1,1-.64-.57A.6.6,0,0,1,903.15,365.86ZM902,376.1v-8h1.07v8Z"/><path class="cls-2" d="M913.83,372.1v.35H906.7a3.19,3.19,0,0,0,3.21,3,3.86,3.86,0,0,0,2.71-1.1l.59.52a4.8,4.8,0,0,1-3.38,1.38,4.17,4.17,0,0,1-4.17-4.16,4.11,4.11,0,0,1,4.08-4.16A3.93,3.93,0,0,1,913.83,372.1Zm-7.12-.21h6.11a3,3,0,0,0-3.06-3.17A3.12,3.12,0,0,0,906.71,371.89Z"/><path class="cls-2" d="M920.39,368.1v.84h-2.61v4.38a1.92,1.92,0,0,0,2,2.05,2.35,2.35,0,0,0,1.15-.3l.18.75a3.83,3.83,0,0,1-1.69.44,2.59,2.59,0,0,1-2.67-2.77v-4.55h-1.48v-.84h1.48v-2.38h1.08v2.38Z"/><path class="cls-2" d="M926.84,376.92c-.81,1.91-1.79,2.45-3,2.46a4.58,4.58,0,0,1-1.57-.32l.31-.73a2.82,2.82,0,0,0,1.16.23c.81,0,1.45-.42,2.09-1.81l.18-.4-3.66-8.25h1.14l3,6.9,2.9-6.9h1.12Z"/><path class="cls-2" d="M944.7,372.1a4.35,4.35,0,1,1-4.34-4.16A4.26,4.26,0,0,1,944.7,372.1Zm-7.63,0a3.28,3.28,0,1,0,3.28-3.24A3.27,3.27,0,0,0,937.07,372.1Z"/><path class="cls-2" d="M951.66,365l-.16.69a2.72,2.72,0,0,0-.92-.17,1.89,1.89,0,0,0-1.93,2v.57h2.7v.84h-2.7v7.16h-1.08v-7.16h-1.38v-.84h1.38v-.6a2.59,2.59,0,0,1,2.73-2.77A4.19,4.19,0,0,1,951.66,365Z"/><path class="cls-2" d="M964.75,369.44l-.82.49a3.24,3.24,0,1,0,.09,4.24l.82.47a4.28,4.28,0,0,1-3.38,1.62,4.16,4.16,0,1,1,0-8.32A4.3,4.3,0,0,1,964.75,369.44Z"/><path class="cls-2" d="M975.55,372.1a4.35,4.35,0,1,1-4.35-4.16A4.26,4.26,0,0,1,975.55,372.1Zm-7.63,0a3.28,3.28,0,1,0,3.28-3.24A3.27,3.27,0,0,0,967.92,372.1Z"/><path class="cls-2" d="M985.05,369.36a5.47,5.47,0,0,1,3.69-1.42,2.74,2.74,0,0,1,2.9,3v5.13h-1.08v-4.84a2.14,2.14,0,0,0-2.2-2.44,4.69,4.69,0,0,0-3.14,1.21,4.68,4.68,0,0,1,.17,1.31v4.76h-1.07v-4.84a2.14,2.14,0,0,0-2.21-2.44,4.25,4.25,0,0,0-3,1.22v6.06h-1.08v-8h1.08v1.22a4.93,4.93,0,0,1,3.39-1.38A2.64,2.64,0,0,1,985.05,369.36Z"/><path class="cls-2" d="M998.86,365l-.16.69a2.72,2.72,0,0,0-.92-.17,1.89,1.89,0,0,0-1.93,2v.57h2.7v.84h-2.7v7.16h-1.08v-7.16h-1.38v-.84h1.38v-.6a2.59,2.59,0,0,1,2.73-2.77A4.19,4.19,0,0,1,998.86,365Z"/><path class="cls-2" d="M1008.56,372.1a4.35,4.35,0,1,1-4.35-4.16A4.26,4.26,0,0,1,1008.56,372.1Zm-7.64,0a3.29,3.29,0,1,0,3.28-3.24A3.27,3.27,0,0,0,1000.92,372.1Z"/><path class="cls-2" d="M1015.93,368.82a5.22,5.22,0,0,0-3.78,1.69v5.59h-1.07v-8h1.07v1.53a5.34,5.34,0,0,1,3.78-1.69Z"/><path class="cls-2" d="M1021.89,368.1v.84h-2.6v4.38a1.91,1.91,0,0,0,2,2.05,2.41,2.41,0,0,0,1.15-.3l.18.75a3.84,3.84,0,0,1-1.7.44,2.59,2.59,0,0,1-2.67-2.77v-4.55h-1.47v-.84h1.47v-2.38h1.08v2.38Z"/><path class="cls-2" d="M1031.55,370.93v5.17h-1.08v-1a5.55,5.55,0,0,1-3.58,1.18,2.57,2.57,0,0,1-2.8-2.58c0-1.56,1.21-2.36,3.14-2.37h3.24V371c0-1.55-1-2.23-2.48-2.23a4.86,4.86,0,0,0-2.92,1l-.35-.7a6.14,6.14,0,0,1,3.52-1.13C1030.14,367.93,1031.55,368.83,1031.55,370.93Zm-4,.87c-1.53,0-2.45.6-2.45,1.78a2,2,0,0,0,2.17,2,5,5,0,0,0,3.15-1V371.8Z"/><path class="cls-2" d="M1035.4,369.27a4.09,4.09,0,1,1,3,7,4,4,0,0,1-3-1.34v1.18h-1.08V364.89h1.08Zm0,.91V374a3.3,3.3,0,0,0,2.63,1.33,3.24,3.24,0,1,0-2.63-5.16Z"/><path class="cls-2" d="M1045,376.1V364.89h1.07V376.1Z"/><path class="cls-2" d="M1056.62,372.1v.35h-7.13a3.18,3.18,0,0,0,3.2,3,3.88,3.88,0,0,0,2.72-1.1l.59.52a4.82,4.82,0,0,1-3.39,1.38,4.17,4.17,0,0,1-4.17-4.16,4.12,4.12,0,0,1,4.09-4.16A3.93,3.93,0,0,1,1056.62,372.1Zm-7.13-.21h6.11a3,3,0,0,0-3-3.17A3.12,3.12,0,0,0,1049.49,371.89Z"/><path class="cls-2" d="M1070,370.93v5.17h-1.08v-1a5.52,5.52,0,0,1-3.57,1.18,2.58,2.58,0,0,1-2.81-2.58c0-1.56,1.21-2.36,3.14-2.37h3.24V371c0-1.55-1-2.23-2.48-2.23a4.86,4.86,0,0,0-2.92,1l-.35-.7a6.14,6.14,0,0,1,3.52-1.13C1068.57,367.93,1070,368.83,1070,370.93Zm-4,.87c-1.53,0-2.45.6-2.45,1.78a2,2,0,0,0,2.17,2,5,5,0,0,0,3.15-1V371.8Z"/><path class="cls-2" d="M1080.54,371v5.13h-1.08v-4.84a2.17,2.17,0,0,0-2.27-2.44,5,5,0,0,0-3.36,1.3v6h-1.08v-8h1.08v1.22a5.89,5.89,0,0,1,3.74-1.38A2.77,2.77,0,0,1,1080.54,371Z"/><path class="cls-2" d="M1091,376.1h-1.08v-1.18a4,4,0,0,1-3,1.34,4.16,4.16,0,1,1,3-7v-4.38H1091Zm-7-4a3.27,3.27,0,0,0,5.9,1.91v-3.83a3.27,3.27,0,0,0-5.9,1.92Z"/><path class="cls-2" d="M1102,368.1v.84h-2.6v4.38a1.91,1.91,0,0,0,1.95,2.05,2.42,2.42,0,0,0,1.16-.3l.18.75a3.84,3.84,0,0,1-1.7.44,2.59,2.59,0,0,1-2.67-2.77v-4.55h-1.47v-.84h1.47v-2.38h1.08v2.38Z"/><path class="cls-2" d="M1106.46,365.86a.64.64,0,1,1-.64-.57A.6.6,0,0,1,1106.46,365.86Zm-1.17,10.24v-8h1.07v8Z"/><path class="cls-2" d="M1116.36,369.36a5.47,5.47,0,0,1,3.69-1.42,2.74,2.74,0,0,1,2.9,3v5.13h-1.08v-4.84a2.14,2.14,0,0,0-2.2-2.44,4.74,4.74,0,0,0-3.15,1.21,4.32,4.32,0,0,1,.18,1.31v4.76h-1.08v-4.84a2.14,2.14,0,0,0-2.2-2.44,4.25,4.25,0,0,0-3,1.22v6.06h-1.08v-8h1.08v1.22a4.91,4.91,0,0,1,3.39-1.38A2.64,2.64,0,0,1,1116.36,369.36Z"/><path class="cls-2" d="M1133.49,372.1v.35h-7.12a3.17,3.17,0,0,0,3.2,3,3.86,3.86,0,0,0,2.71-1.1l.59.52a4.8,4.8,0,0,1-3.38,1.38,4.17,4.17,0,0,1-4.17-4.16,4.12,4.12,0,0,1,4.09-4.16A3.93,3.93,0,0,1,1133.49,372.1Zm-7.12-.21h6.11a3,3,0,0,0-3-3.17A3.12,3.12,0,0,0,1126.37,371.89Z"/><path class="cls-2" d="M1136,376.1V364.89h1.08V376.1Z"/><path class="cls-2" d="M1147.65,372.1v.35h-7.12a3.17,3.17,0,0,0,3.2,3,3.86,3.86,0,0,0,2.71-1.1l.59.52a4.8,4.8,0,0,1-3.38,1.38,4.17,4.17,0,0,1-4.17-4.16,4.12,4.12,0,0,1,4.09-4.16A3.93,3.93,0,0,1,1147.65,372.1Zm-7.12-.21h6.11a3,3,0,0,0-3.05-3.17A3.12,3.12,0,0,0,1140.53,371.89Z"/><path class="cls-2" d="M1155.84,368.78l-.38.68a5.58,5.58,0,0,0-2.78-.78c-1.06,0-2,.43-2,1.43,0,.63.38.94,2,1.37,2.07.55,3.4.82,3.4,2.54,0,1.52-1.44,2.25-3.18,2.24a6.62,6.62,0,0,1-3.59-1l.4-.65a6,6,0,0,0,3.19.91c1.15,0,2.17-.41,2.17-1.41,0-1.19-.85-1.28-2.64-1.76-1.94-.52-2.75-1-2.75-2.15,0-1.58,1.36-2.25,3-2.25A6.08,6.08,0,0,1,1155.84,368.78Z"/><path class="cls-2" d="M1164.32,368.78l-.38.68a5.58,5.58,0,0,0-2.78-.78c-1.06,0-2,.43-2,1.43,0,.63.38.94,2,1.37,2.07.55,3.4.82,3.4,2.54,0,1.52-1.44,2.25-3.17,2.24a6.63,6.63,0,0,1-3.6-1l.4-.65a6,6,0,0,0,3.19.91c1.15,0,2.17-.41,2.17-1.41,0-1.19-.85-1.28-2.64-1.76s-2.75-1-2.75-2.15c0-1.58,1.36-2.25,3-2.25A6.08,6.08,0,0,1,1164.32,368.78Z"/><path class="cls-2" d="M1176.8,368.78l-.38.68a5.58,5.58,0,0,0-2.78-.78c-1.06,0-2,.43-2,1.43,0,.63.38.94,2,1.37,2.07.55,3.4.82,3.4,2.54,0,1.52-1.44,2.25-3.17,2.24a6.63,6.63,0,0,1-3.6-1l.4-.65a6,6,0,0,0,3.19.91c1.15,0,2.17-.41,2.17-1.41,0-1.19-.85-1.28-2.63-1.76-1.94-.52-2.76-1-2.76-2.15,0-1.58,1.36-2.25,3-2.25A6.08,6.08,0,0,1,1176.8,368.78Z"/><path class="cls-2" d="M1187.29,372.1v.35h-7.13a3.18,3.18,0,0,0,3.2,3,3.88,3.88,0,0,0,2.72-1.1l.59.52a4.82,4.82,0,0,1-3.39,1.38,4.17,4.17,0,0,1-4.17-4.16,4.12,4.12,0,0,1,4.09-4.16A3.93,3.93,0,0,1,1187.29,372.1Zm-7.12-.21h6.1a3,3,0,0,0-3-3.17A3.12,3.12,0,0,0,1180.17,371.89Z"/><path class="cls-2" d="M1196.66,370.93v5.17h-1.08v-1a5.55,5.55,0,0,1-3.58,1.18,2.58,2.58,0,0,1-2.81-2.58c0-1.56,1.21-2.36,3.14-2.37h3.25V371c0-1.55-1-2.23-2.49-2.23a4.86,4.86,0,0,0-2.92,1l-.35-.7a6.15,6.15,0,0,1,3.53-1.13C1195.25,367.93,1196.66,368.83,1196.66,370.93Zm-4,.87c-1.53,0-2.44.6-2.44,1.78a2,2,0,0,0,2.16,2,5,5,0,0,0,3.16-1V371.8Z"/><path class="cls-2" d="M1203.55,368.1v.84H1201v4.38a1.92,1.92,0,0,0,2,2.05,2.38,2.38,0,0,0,1.15-.3l.18.75a3.84,3.84,0,0,1-1.7.44,2.59,2.59,0,0,1-2.67-2.77v-4.55h-1.47v-.84h1.47v-2.38H1201v2.38Z"/><path class="cls-2" d="M1208,365.86a.6.6,0,0,1-.64.57.57.57,0,1,1,0-1.14A.6.6,0,0,1,1208,365.86Zm-1.17,10.24v-8h1.08v8Z"/><path class="cls-2" d="M1218.71,371v5.13h-1.08v-4.84a2.17,2.17,0,0,0-2.26-2.44,5,5,0,0,0-3.36,1.3v6h-1.08v-8H1212v1.22a5.85,5.85,0,0,1,3.74-1.38A2.77,2.77,0,0,1,1218.71,371Z"/><path class="cls-2" d="M1228.29,369.22V368.1h1.07v7.2c0,2.8-1.77,4.1-4.18,4.09a6.48,6.48,0,0,1-3.68-1.15l.35-.7a5.59,5.59,0,0,0,3.14,1,3,3,0,0,0,3.3-3.26v-.83a4,4,0,0,1-3.26,1.63,3.93,3.93,0,0,1-3.93-4.06,4,4,0,0,1,3.93-4.11A4.78,4.78,0,0,1,1228.29,369.22Zm-6.12,2.82a3.2,3.2,0,0,0,3.21,3.18,3.33,3.33,0,0,0,2.91-1.71V370.1a4,4,0,0,0-2.91-1.24A3.2,3.2,0,0,0,1222.17,372Z"/><path class="cls-2" d="M881.18,393.93v5.17H880.1v-1a5.53,5.53,0,0,1-3.58,1.18,2.57,2.57,0,0,1-2.8-2.58c0-1.56,1.21-2.36,3.14-2.37h3.24V394c0-1.55-1-2.23-2.48-2.23a4.86,4.86,0,0,0-2.92,1l-.35-.7a6.14,6.14,0,0,1,3.52-1.13C879.77,390.93,881.18,391.83,881.18,393.93Zm-3.95.87c-1.53,0-2.45.6-2.45,1.78a2,2,0,0,0,2.17,2,5,5,0,0,0,3.15-1V394.8Z"/><path class="cls-2" d="M888.8,391.82a5.21,5.21,0,0,0-3.77,1.69v5.59H884v-8H885v1.53a5.32,5.32,0,0,1,3.77-1.69Z"/><path class="cls-2" d="M895.49,391.82a5.21,5.21,0,0,0-3.77,1.69v5.59h-1.08v-8h1.08v1.53a5.32,5.32,0,0,1,3.77-1.69Z"/><path class="cls-2" d="M904,393.93v5.17H903v-1a5.55,5.55,0,0,1-3.58,1.18,2.58,2.58,0,0,1-2.81-2.58c0-1.56,1.22-2.36,3.15-2.37H903V394c0-1.55-1-2.23-2.49-2.23a4.86,4.86,0,0,0-2.91,1l-.35-.7a6.1,6.1,0,0,1,3.52-1.13C902.62,390.93,904,391.83,904,393.93Zm-4,.87c-1.52,0-2.44.6-2.44,1.78a2,2,0,0,0,2.16,2,5,5,0,0,0,3.16-1V394.8Z"/><path class="cls-2" d="M914.58,394v5.13h-1.07v-4.84a2.17,2.17,0,0,0-2.27-2.44,5,5,0,0,0-3.36,1.3v6H906.8v-8h1.08v1.22a5.87,5.87,0,0,1,3.74-1.38A2.77,2.77,0,0,1,914.58,394Z"/><path class="cls-2" d="M924.16,392.22V391.1h1.08v7.2c0,2.8-1.78,4.1-4.18,4.09a6.49,6.49,0,0,1-3.69-1.15l.35-.7a5.59,5.59,0,0,0,3.14,1,3,3,0,0,0,3.3-3.26v-.83a4,4,0,0,1-3.25,1.63A3.93,3.93,0,0,1,917,395a4,4,0,0,1,3.94-4.11A4.76,4.76,0,0,1,924.16,392.22ZM918,395a3.2,3.2,0,0,0,3.21,3.18,3.32,3.32,0,0,0,2.91-1.71V393.1a4,4,0,0,0-2.91-1.24A3.2,3.2,0,0,0,918,395Z"/><path class="cls-2" d="M935.94,395.1v.35h-7.12a3.17,3.17,0,0,0,3.2,3,3.86,3.86,0,0,0,2.71-1.1l.59.52a4.8,4.8,0,0,1-3.38,1.38,4.17,4.17,0,0,1-4.17-4.16,4.11,4.11,0,0,1,4.08-4.16A3.93,3.93,0,0,1,935.94,395.1Zm-7.12-.21h6.11a3,3,0,0,0-3.06-3.17A3.12,3.12,0,0,0,928.82,394.89Z"/><path class="cls-2" d="M945.35,392.36a5.51,5.51,0,0,1,3.69-1.42,2.74,2.74,0,0,1,2.9,3v5.13h-1.08v-4.84a2.14,2.14,0,0,0-2.2-2.44,4.71,4.71,0,0,0-3.14,1.21,4.66,4.66,0,0,1,.18,1.31v4.76h-1.08v-4.84a2.14,2.14,0,0,0-2.21-2.44,4.27,4.27,0,0,0-3,1.22v6.06h-1.08v-8h1.08v1.22a4.93,4.93,0,0,1,3.39-1.38A2.64,2.64,0,0,1,945.35,392.36Z"/><path class="cls-2" d="M962.49,395.1v.35h-7.13a3.18,3.18,0,0,0,3.2,3,3.88,3.88,0,0,0,2.72-1.1l.58.52a4.8,4.8,0,0,1-3.38,1.38,4.17,4.17,0,0,1-4.17-4.16,4.12,4.12,0,0,1,4.09-4.16A3.94,3.94,0,0,1,962.49,395.1Zm-7.13-.21h6.11a3,3,0,0,0-3.05-3.17A3.12,3.12,0,0,0,955.36,394.89Z"/><path class="cls-2" d="M972.69,394v5.13h-1.08v-4.84a2.16,2.16,0,0,0-2.26-2.44,5,5,0,0,0-3.36,1.3v6h-1.08v-8H966v1.22a5.89,5.89,0,0,1,3.74-1.38A2.77,2.77,0,0,1,972.69,394Z"/><path class="cls-2" d="M979.6,391.1v.84H977v4.38a1.91,1.91,0,0,0,2,2.05,2.35,2.35,0,0,0,1.15-.3l.19.75a3.84,3.84,0,0,1-1.7.44,2.59,2.59,0,0,1-2.67-2.77v-4.55h-1.48v-.84h1.48v-2.38H977v2.38Z"/><path class="cls-2" d="M988.43,391.78l-.38.68a5.58,5.58,0,0,0-2.78-.78c-1.06,0-2,.43-2,1.43,0,.63.37.94,2,1.37,2.07.55,3.4.82,3.4,2.54,0,1.52-1.44,2.25-3.18,2.24a6.62,6.62,0,0,1-3.59-1l.4-.65a6,6,0,0,0,3.19.91c1.15,0,2.17-.41,2.17-1.41,0-1.19-.85-1.28-2.64-1.76s-2.75-1-2.75-2.15c0-1.58,1.36-2.25,3-2.25A6.08,6.08,0,0,1,988.43,391.78Z"/><path class="cls-2" d="M999.6,388l-.17.69a2.66,2.66,0,0,0-.91-.17,1.9,1.9,0,0,0-1.94,2v.57h2.7v.84h-2.7v7.16H995.5v-7.16h-1.38v-.84h1.38v-.6a2.59,2.59,0,0,1,2.73-2.77A4.25,4.25,0,0,1,999.6,388Z"/><path class="cls-2" d="M1009.29,395.1a4.35,4.35,0,1,1-4.35-4.16A4.26,4.26,0,0,1,1009.29,395.1Zm-7.63,0a3.28,3.28,0,1,0,3.28-3.24A3.27,3.27,0,0,0,1001.66,395.1Z"/><path class="cls-2" d="M1016.66,391.82a5.19,5.19,0,0,0-3.77,1.69v5.59h-1.08v-8h1.08v1.53a5.32,5.32,0,0,1,3.77-1.69Z"/><path class="cls-2" d="M1030.13,399.1h-1.08v-1.18a4,4,0,0,1-3,1.34,4.16,4.16,0,1,1,3-7v-4.38h1.08Zm-7-4a3.27,3.27,0,0,0,5.9,1.91v-3.83a3.27,3.27,0,0,0-5.9,1.92Z"/><path class="cls-2" d="M1034.44,388.86a.64.64,0,1,1-.64-.57A.6.6,0,0,1,1034.44,388.86Zm-1.17,10.24v-8h1.08v8Z"/><path class="cls-2" d="M1041.8,388l-.16.69a2.72,2.72,0,0,0-.92-.17,1.89,1.89,0,0,0-1.93,2v.57h5.29v-.6a2.59,2.59,0,0,1,2.73-2.77,4.14,4.14,0,0,1,1.36.24l-.16.69a2.71,2.71,0,0,0-.91-.17,1.9,1.9,0,0,0-1.94,2v.57h2.7v.84h-2.7v7.16h-1.08v-7.16h-5.29v7.16h-1.08v-7.16h-1.38v-.84h1.38v-.6a2.58,2.58,0,0,1,2.72-2.77A4.2,4.2,0,0,1,1041.8,388Z"/><path class="cls-2" d="M1057.35,395.1v.35h-7.13a3.18,3.18,0,0,0,3.21,3,3.88,3.88,0,0,0,2.71-1.1l.59.52a4.82,4.82,0,0,1-3.39,1.38,4.17,4.17,0,0,1-4.17-4.16,4.12,4.12,0,0,1,4.09-4.16A3.93,3.93,0,0,1,1057.35,395.1Zm-7.12-.21h6.11a3,3,0,0,0-3.06-3.17A3.12,3.12,0,0,0,1050.23,394.89Z"/><path class="cls-2" d="M1064.62,391.82a5.21,5.21,0,0,0-3.77,1.69v5.59h-1.07v-8h1.07v1.53a5.34,5.34,0,0,1,3.77-1.69Z"/><path class="cls-2" d="M1073.89,395.1v.35h-7.12a3.17,3.17,0,0,0,3.2,3,3.86,3.86,0,0,0,2.71-1.1l.59.52a4.8,4.8,0,0,1-3.38,1.38,4.17,4.17,0,0,1-4.17-4.16,4.11,4.11,0,0,1,4.08-4.16A3.93,3.93,0,0,1,1073.89,395.1Zm-7.12-.21h6.11a3,3,0,0,0-3.06-3.17A3.12,3.12,0,0,0,1066.77,394.89Z"/><path class="cls-2" d="M1084.1,394v5.13H1083v-4.84a2.17,2.17,0,0,0-2.26-2.44,5,5,0,0,0-3.36,1.3v6h-1.08v-8h1.08v1.22a5.85,5.85,0,0,1,3.74-1.38A2.77,2.77,0,0,1,1084.1,394Z"/><path class="cls-2" d="M1091,391.1v.84h-2.61v4.38a1.92,1.92,0,0,0,2,2.05,2.38,2.38,0,0,0,1.15-.3l.18.75a3.83,3.83,0,0,1-1.69.44,2.58,2.58,0,0,1-2.67-2.77v-4.55h-1.48v-.84h1.48v-2.38h1.07v2.38Z"/><path class="cls-2" d="M1103.84,391.78l-.39.68a5.54,5.54,0,0,0-2.77-.78c-1.06,0-2,.43-2,1.43,0,.63.37.94,2,1.37,2.07.55,3.4.82,3.4,2.54,0,1.52-1.43,2.25-3.17,2.24a6.62,6.62,0,0,1-3.59-1l.4-.65a6,6,0,0,0,3.19.91c1.15,0,2.17-.41,2.17-1.41,0-1.19-.85-1.28-2.64-1.76-1.94-.52-2.76-1-2.76-2.15,0-1.58,1.37-2.25,3-2.25A6.11,6.11,0,0,1,1103.84,391.78Z"/><path class="cls-2" d="M1114.84,395.1a4.35,4.35,0,1,1-4.34-4.16A4.26,4.26,0,0,1,1114.84,395.1Zm-7.63,0a3.28,3.28,0,1,0,3.28-3.24A3.27,3.27,0,0,0,1107.21,395.1Z"/><path class="cls-2" d="M1124.52,392.44l-.82.49a3.24,3.24,0,1,0,.09,4.24l.82.47a4.28,4.28,0,0,1-3.38,1.62,4.16,4.16,0,1,1,0-8.32A4.3,4.3,0,0,1,1124.52,392.44Z"/><path class="cls-2" d="M1128.43,388.86a.65.65,0,1,1-.65-.57A.61.61,0,0,1,1128.43,388.86Zm-1.18,10.24v-8h1.08v8Z"/><path class="cls-2" d="M1138.28,393.93v5.17h-1.08v-1a5.55,5.55,0,0,1-3.58,1.18,2.57,2.57,0,0,1-2.8-2.58c0-1.56,1.21-2.36,3.14-2.37h3.24V394c0-1.55-1-2.23-2.48-2.23a4.86,4.86,0,0,0-2.92,1l-.35-.7a6.14,6.14,0,0,1,3.52-1.13C1136.87,390.93,1138.28,391.83,1138.28,393.93Zm-4,.87c-1.53,0-2.45.6-2.45,1.78a2,2,0,0,0,2.17,2,5,5,0,0,0,3.15-1V394.8Z"/><path class="cls-2" d="M1141.16,399.1V387.89h1.08V399.1Z"/><path class="cls-2" d="M1154.78,391.78l-.38.68a5.58,5.58,0,0,0-2.78-.78c-1.06,0-2,.43-2,1.43,0,.63.37.94,2,1.37,2.07.55,3.4.82,3.4,2.54,0,1.52-1.44,2.25-3.18,2.24a6.62,6.62,0,0,1-3.59-1l.4-.65a6,6,0,0,0,3.19.91c1.15,0,2.17-.41,2.17-1.41,0-1.19-.85-1.28-2.64-1.76-1.94-.52-2.75-1-2.75-2.15,0-1.58,1.36-2.25,3-2.25A6.08,6.08,0,0,1,1154.78,391.78Z"/><path class="cls-2" d="M1158.89,388.86a.65.65,0,1,1-.64-.57A.61.61,0,0,1,1158.89,388.86Zm-1.18,10.24v-8h1.08v8Z"/><path class="cls-2" d="M1165.93,391.1v.84h-2.6v4.38a1.92,1.92,0,0,0,2,2.05,2.41,2.41,0,0,0,1.15-.3l.18.75a3.83,3.83,0,0,1-1.69.44,2.59,2.59,0,0,1-2.68-2.77v-4.55h-1.47v-.84h1.47v-2.38h1.08v2.38Z"/><path class="cls-2" d="M1170,395.94a2.16,2.16,0,0,0,2.26,2.43,5,5,0,0,0,3.36-1.3v-6h1.08v8h-1.08v-1.23a5.81,5.81,0,0,1-3.74,1.39,2.77,2.77,0,0,1-3-3V391.1H1170Z"/><path class="cls-2" d="M1186.38,393.93v5.17h-1.08v-1a5.55,5.55,0,0,1-3.58,1.18,2.58,2.58,0,0,1-2.81-2.58c0-1.56,1.22-2.36,3.15-2.37h3.24V394c0-1.55-1-2.23-2.49-2.23a4.89,4.89,0,0,0-2.92,1l-.35-.7a6.15,6.15,0,0,1,3.53-1.13C1185,390.93,1186.38,391.83,1186.38,393.93Zm-4,.87c-1.52,0-2.44.6-2.44,1.78a2,2,0,0,0,2.16,2,5,5,0,0,0,3.16-1V394.8Z"/><path class="cls-2" d="M1193.28,391.1v.84h-2.6v4.38a1.91,1.91,0,0,0,2,2.05,2.35,2.35,0,0,0,1.15-.3l.18.75a3.83,3.83,0,0,1-1.69.44,2.59,2.59,0,0,1-2.67-2.77v-4.55h-1.48v-.84h1.48v-2.38h1.08v2.38Z"/><path class="cls-2" d="M1197.74,388.86a.65.65,0,1,1-.64-.57A.61.61,0,0,1,1197.74,388.86Zm-1.18,10.24v-8h1.08v8Z"/><path class="cls-2" d="M1208.94,395.1a4.35,4.35,0,1,1-4.35-4.16A4.26,4.26,0,0,1,1208.94,395.1Zm-7.64,0a3.28,3.28,0,1,0,3.28-3.24A3.27,3.27,0,0,0,1201.3,395.1Z"/><path class="cls-2" d="M1219.24,394v5.13h-1.08v-4.84a2.17,2.17,0,0,0-2.27-2.44,5,5,0,0,0-3.36,1.3v6h-1.08v-8h1.08v1.22a5.89,5.89,0,0,1,3.74-1.38A2.77,2.77,0,0,1,1219.24,394Z"/><path class="cls-2" d="M1227.77,391.78l-.38.68a5.58,5.58,0,0,0-2.78-.78c-1.06,0-2,.43-2,1.43,0,.63.38.94,2,1.37,2.07.55,3.4.82,3.4,2.54,0,1.52-1.44,2.25-3.17,2.24a6.63,6.63,0,0,1-3.6-1l.41-.65a5.9,5.9,0,0,0,3.18.91c1.15,0,2.17-.41,2.17-1.41,0-1.19-.85-1.28-2.63-1.76-2-.52-2.76-1-2.76-2.15,0-1.58,1.36-2.25,3-2.25A6.06,6.06,0,0,1,1227.77,391.78Z"/><path class="cls-2" d="M1231.05,398.69a.66.66,0,1,1-.65-.59A.62.62,0,0,1,1231.05,398.69Z"/></g><g id="_31_plus" class="svg-showtip" data-name="31_plus"><circle class="cls-3" cx="1240.98" cy="509.78" r="25"/><line class="cls-4" x1="1226.36" y1="509.78" x2="1255.59" y2="509.78"/><line class="cls-4" x1="1240.98" y1="524.4" x2="1240.98" y2="495.17"/></g><g id="_30_tooltip" class="svg-tooltip" data-name="30_tooltip"><path id="tooltip-2" data-name="tooltip" class="cls-1" d="M708.52,671H336.78l-23,20-24-20H250.25a3.27,3.27,0,0,1-3.26-3.26V570.3a3.27,3.27,0,0,1,3.26-3.26H708.52a3.26,3.26,0,0,1,3.26,3.26v97.43A3.26,3.26,0,0,1,708.52,671Z"/><path class="cls-2" d="M289.46,607.14c0,3.36-2,5.12-4.88,5.12s-4.87-1.76-4.87-5.12v-6.25h1.15v6.25c0,2.66,1.53,4.06,3.72,4.06s3.72-1.4,3.72-4.06v-6.25h1.16Z"/><path class="cls-2" d="M298.17,604.78l-.38.68a5.55,5.55,0,0,0-2.78-.78c-1.05,0-1.95.43-1.95,1.43,0,.63.37.94,2,1.37,2.07.55,3.4.82,3.4,2.54,0,1.52-1.44,2.25-3.17,2.24a6.68,6.68,0,0,1-3.6-1l.41-.65a5.93,5.93,0,0,0,3.18.91c1.16,0,2.17-.41,2.17-1.41,0-1.19-.85-1.28-2.63-1.76-1.94-.52-2.76-1-2.76-2.15,0-1.58,1.37-2.25,3-2.25A6,6,0,0,1,298.17,604.78Z"/><path class="cls-2" d="M308.66,608.1v.35h-7.13a3.19,3.19,0,0,0,3.21,3,3.86,3.86,0,0,0,2.71-1.1l.59.52a4.8,4.8,0,0,1-3.38,1.38,4.17,4.17,0,0,1-4.18-4.16,4.12,4.12,0,0,1,4.09-4.16A3.93,3.93,0,0,1,308.66,608.1Zm-7.12-.21h6.11a3,3,0,0,0-3.06-3.17A3.12,3.12,0,0,0,301.54,607.89Z"/><path class="cls-2" d="M322.25,605.44l-.82.49a3.24,3.24,0,1,0,.09,4.24l.82.47a4.28,4.28,0,0,1-3.38,1.62,4.16,4.16,0,1,1,0-8.32A4.3,4.3,0,0,1,322.25,605.44Z"/><path class="cls-2" d="M331.71,606.93v5.17h-1.08v-1a5.55,5.55,0,0,1-3.58,1.18,2.58,2.58,0,0,1-2.81-2.58c0-1.56,1.22-2.36,3.15-2.37h3.24V607c0-1.55-1-2.23-2.49-2.23a4.86,4.86,0,0,0-2.92,1l-.35-.7a6.15,6.15,0,0,1,3.53-1.13C330.3,603.93,331.71,604.83,331.71,606.93Zm-4,.87c-1.52,0-2.44.6-2.44,1.78a2,2,0,0,0,2.16,2,5,5,0,0,0,3.16-1V607.8Z"/><path class="cls-2" d="M339.33,604.82a5.19,5.19,0,0,0-3.77,1.69v5.59h-1.08v-8h1.08v1.53a5.32,5.32,0,0,1,3.77-1.69Z"/><path class="cls-2" d="M349.29,608.1a4,4,0,0,1-4,4.16,4,4,0,0,1-3-1.34v4.3h-1.08V604.1h1.08v1.17a4,4,0,0,1,7,2.83Zm-7-1.92V610a3.24,3.24,0,1,0,0-3.83Z"/><path class="cls-2" d="M359.62,608.1v.35h-7.13a3.19,3.19,0,0,0,3.21,3,3.86,3.86,0,0,0,2.71-1.1l.59.52a4.82,4.82,0,0,1-3.39,1.38,4.17,4.17,0,0,1-4.17-4.16,4.12,4.12,0,0,1,4.09-4.16A3.93,3.93,0,0,1,359.62,608.1Zm-7.12-.21h6.11a3,3,0,0,0-3.06-3.17A3.12,3.12,0,0,0,352.5,607.89Z"/><path class="cls-2" d="M366.18,604.1v.84h-2.61v4.38a1.92,1.92,0,0,0,2,2,2.38,2.38,0,0,0,1.15-.3l.18.75a3.83,3.83,0,0,1-1.69.44,2.59,2.59,0,0,1-2.68-2.77v-4.55H361v-.84h1.47v-2.38h1.08v2.38Z"/><path class="cls-2" d="M380.88,612.1H379.8v-1.18a4,4,0,0,1-3,1.34,4.16,4.16,0,1,1,3-7v-4.38h1.08Zm-7-4a3.27,3.27,0,0,0,5.9,1.91v-3.83a3.27,3.27,0,0,0-5.9,1.92Z"/><path class="cls-2" d="M391.57,608.1v.35h-7.13a3.19,3.19,0,0,0,3.21,3,3.86,3.86,0,0,0,2.71-1.1l.59.52a4.8,4.8,0,0,1-3.38,1.38,4.17,4.17,0,0,1-4.18-4.16,4.12,4.12,0,0,1,4.09-4.16A3.93,3.93,0,0,1,391.57,608.1Zm-7.12-.21h6.11a3,3,0,0,0-3.06-3.17A3.12,3.12,0,0,0,384.45,607.89Z"/><path class="cls-2" d="M399.75,604.78l-.38.68a5.55,5.55,0,0,0-2.78-.78c-1,0-1.95.43-1.95,1.43,0,.63.37.94,2,1.37,2.07.55,3.4.82,3.4,2.54,0,1.52-1.44,2.25-3.17,2.24a6.68,6.68,0,0,1-3.6-1l.41-.65a6,6,0,0,0,3.19.91c1.15,0,2.17-.41,2.17-1.41,0-1.19-.86-1.28-2.64-1.76-1.94-.52-2.76-1-2.76-2.15,0-1.58,1.37-2.25,3-2.25A6,6,0,0,1,399.75,604.78Z"/><path class="cls-2" d="M403.86,601.86a.6.6,0,0,1-.64.57.57.57,0,1,1,0-1.14A.6.6,0,0,1,403.86,601.86Zm-1.17,10.24v-8h1.08v8Z"/><path class="cls-2" d="M413.58,605.22V604.1h1.08v7.2c0,2.8-1.78,4.1-4.18,4.09a6.49,6.49,0,0,1-3.69-1.15l.35-.7a5.59,5.59,0,0,0,3.14,1,3,3,0,0,0,3.3-3.26v-.83a4,4,0,0,1-3.25,1.63,3.93,3.93,0,0,1-3.94-4.06,4,4,0,0,1,3.94-4.11A4.76,4.76,0,0,1,413.58,605.22ZM407.46,608a3.2,3.2,0,0,0,3.21,3.18,3.32,3.32,0,0,0,2.91-1.71V606.1a4,4,0,0,0-2.91-1.24A3.2,3.2,0,0,0,407.46,608Z"/><path class="cls-2" d="M425.38,607v5.13H424.3v-4.84a2.17,2.17,0,0,0-2.27-2.44,5,5,0,0,0-3.35,1.3v6H417.6v-8h1.08v1.22a5.85,5.85,0,0,1,3.73-1.38A2.77,2.77,0,0,1,425.38,607Z"/><path class="cls-2" d="M433.91,604.78l-.38.68a5.55,5.55,0,0,0-2.78-.78c-1.05,0-1.95.43-1.95,1.43,0,.63.37.94,2,1.37,2.07.55,3.4.82,3.4,2.54,0,1.52-1.44,2.25-3.17,2.24a6.68,6.68,0,0,1-3.6-1l.41-.65a5.94,5.94,0,0,0,3.19.91c1.15,0,2.17-.41,2.17-1.41,0-1.19-.86-1.28-2.64-1.76-1.94-.52-2.76-1-2.76-2.15,0-1.58,1.37-2.25,3-2.25A6,6,0,0,1,433.91,604.78Z"/><path class="cls-2" d="M444.77,604.1v.84h-2.61v4.38a1.92,1.92,0,0,0,2,2,2.38,2.38,0,0,0,1.15-.3l.18.75a3.83,3.83,0,0,1-1.69.44,2.59,2.59,0,0,1-2.68-2.77v-4.55h-1.47v-.84h1.47v-2.38h1.08v2.38Z"/><path class="cls-2" d="M455.43,608.1a4.35,4.35,0,1,1-4.34-4.16A4.26,4.26,0,0,1,455.43,608.1Zm-7.63,0a3.28,3.28,0,1,0,3.28-3.24A3.27,3.27,0,0,0,447.8,608.1Z"/><path class="cls-2" d="M463.11,605.32a5.85,5.85,0,0,1,3.74-1.38,2.77,2.77,0,0,1,3,3v5.13h-1.08v-4.84a2.17,2.17,0,0,0-2.26-2.44,5,5,0,0,0-3.36,1.3v6H462V600.89h1.08Z"/><path class="cls-2" d="M480.35,608.1v.35h-7.12a3.17,3.17,0,0,0,3.2,3,3.86,3.86,0,0,0,2.71-1.1l.59.52a4.8,4.8,0,0,1-3.38,1.38,4.17,4.17,0,0,1-4.17-4.16,4.12,4.12,0,0,1,4.09-4.16A3.93,3.93,0,0,1,480.35,608.1Zm-7.12-.21h6.11a3,3,0,0,0-3.06-3.17A3.12,3.12,0,0,0,473.23,607.89Z"/><path class="cls-2" d="M482.88,612.1V600.89H484V612.1Z"/><path class="cls-2" d="M494.87,608.1a4,4,0,0,1-4,4.16,4,4,0,0,1-3-1.34v4.3h-1.08V604.1h1.08v1.17a4,4,0,0,1,7,2.83Zm-7-1.92V610a3.24,3.24,0,1,0,0-3.83Z"/><path class="cls-2" d="M509.2,608.1v.35h-7.13a3.19,3.19,0,0,0,3.21,3,3.86,3.86,0,0,0,2.71-1.1l.59.52a4.8,4.8,0,0,1-3.38,1.38A4.17,4.17,0,0,1,501,608.1a4.11,4.11,0,0,1,4.08-4.16A3.93,3.93,0,0,1,509.2,608.1Zm-7.12-.21h6.11a3,3,0,0,0-3.06-3.17A3.12,3.12,0,0,0,502.08,607.89Z"/><path class="cls-2" d="M519.41,607v5.13h-1.08v-4.84a2.17,2.17,0,0,0-2.27-2.44,5,5,0,0,0-3.35,1.3v6h-1.08v-8h1.08v1.22a5.85,5.85,0,0,1,3.74-1.38A2.77,2.77,0,0,1,519.41,607Z"/><path class="cls-2" d="M523.35,605.32a5.85,5.85,0,0,1,3.74-1.38,2.77,2.77,0,0,1,3,3v5.13H529v-4.84a2.17,2.17,0,0,0-2.27-2.44,5,5,0,0,0-3.35,1.3v6h-1.08V600.89h1.08Z"/><path class="cls-2" d="M539.77,606.93v5.17h-1.08v-1a5.55,5.55,0,0,1-3.58,1.18,2.58,2.58,0,0,1-2.81-2.58c0-1.56,1.22-2.36,3.15-2.37h3.24V607c0-1.55-1-2.23-2.49-2.23a4.89,4.89,0,0,0-2.92,1l-.35-.7a6.15,6.15,0,0,1,3.53-1.13C538.36,603.93,539.77,604.83,539.77,606.93Zm-4,.87c-1.52,0-2.44.6-2.44,1.78a2,2,0,0,0,2.16,2,5,5,0,0,0,3.16-1V607.8Z"/><path class="cls-2" d="M550.32,607v5.13h-1.08v-4.84a2.17,2.17,0,0,0-2.26-2.44,5,5,0,0,0-3.36,1.3v6h-1.08v-8h1.08v1.22a5.85,5.85,0,0,1,3.74-1.38A2.77,2.77,0,0,1,550.32,607Z"/><path class="cls-2" d="M560.26,605.44l-.82.49a3.24,3.24,0,1,0,.09,4.24l.82.47a4.28,4.28,0,0,1-3.38,1.62,4.16,4.16,0,1,1,0-8.32A4.3,4.3,0,0,1,560.26,605.44Z"/><path class="cls-2" d="M570.54,608.1v.35h-7.12a3.17,3.17,0,0,0,3.2,3,3.86,3.86,0,0,0,2.71-1.1l.59.52a4.8,4.8,0,0,1-3.38,1.38,4.17,4.17,0,0,1-4.17-4.16,4.12,4.12,0,0,1,4.09-4.16A3.93,3.93,0,0,1,570.54,608.1Zm-7.12-.21h6.11a3,3,0,0,0-3-3.17A3.12,3.12,0,0,0,563.42,607.89Z"/><path class="cls-2" d="M581.1,604.1v.84h-2.6v4.38a1.91,1.91,0,0,0,2,2,2.35,2.35,0,0,0,1.15-.3l.18.75a3.83,3.83,0,0,1-1.69.44,2.59,2.59,0,0,1-2.67-2.77v-4.55h-1.48v-.84h1.48v-2.38h1.08v2.38Z"/><path class="cls-2" d="M585.33,605.32a5.85,5.85,0,0,1,3.74-1.38,2.77,2.77,0,0,1,3,3v5.13H591v-4.84a2.17,2.17,0,0,0-2.26-2.44,5,5,0,0,0-3.36,1.3v6h-1.08V600.89h1.08Z"/><path class="cls-2" d="M602.58,608.1v.35h-7.13a3.18,3.18,0,0,0,3.2,3,3.9,3.9,0,0,0,2.72-1.1l.58.52a4.8,4.8,0,0,1-3.38,1.38,4.17,4.17,0,0,1-4.17-4.16,4.12,4.12,0,0,1,4.09-4.16A3.94,3.94,0,0,1,602.58,608.1Zm-7.13-.21h6.11a3,3,0,0,0-3-3.17A3.12,3.12,0,0,0,595.45,607.89Z"/><path class="cls-2" d="M614.76,604.78l-.38.68a5.58,5.58,0,0,0-2.78-.78c-1.06,0-2,.43-2,1.43,0,.63.38.94,2,1.37,2.07.55,3.4.82,3.4,2.54,0,1.52-1.44,2.25-3.18,2.24a6.62,6.62,0,0,1-3.59-1l.4-.65a6,6,0,0,0,3.19.91c1.15,0,2.17-.41,2.17-1.41,0-1.19-.85-1.28-2.64-1.76s-2.75-1-2.75-2.15c0-1.58,1.36-2.25,3-2.25A6.08,6.08,0,0,1,614.76,604.78Z"/><path class="cls-2" d="M625.61,608.1a4,4,0,0,1-4,4.16,4,4,0,0,1-3-1.34v4.3h-1.08V604.1h1.08v1.17a4,4,0,0,1,7,2.83Zm-7-1.92V610a3.24,3.24,0,1,0,0-3.83Z"/><path class="cls-2" d="M635.05,606.93v5.17H634v-1a5.55,5.55,0,0,1-3.58,1.18,2.58,2.58,0,0,1-2.81-2.58c0-1.56,1.21-2.36,3.14-2.37H634V607c0-1.55-1-2.23-2.49-2.23a4.86,4.86,0,0,0-2.92,1l-.35-.7a6.15,6.15,0,0,1,3.53-1.13C633.64,603.93,635.05,604.83,635.05,606.93Zm-4,.87c-1.53,0-2.44.6-2.44,1.78a2,2,0,0,0,2.16,2,5,5,0,0,0,3.16-1V607.8Z"/><path class="cls-2" d="M645,605.44l-.82.49a3.24,3.24,0,1,0,.09,4.24l.82.47a4.29,4.29,0,0,1-3.38,1.62,4.16,4.16,0,1,1,0-8.32A4.3,4.3,0,0,1,645,605.44Z"/><path class="cls-2" d="M655.26,608.1v.35h-7.13a3.19,3.19,0,0,0,3.21,3,3.86,3.86,0,0,0,2.71-1.1l.59.52a4.8,4.8,0,0,1-3.38,1.38,4.17,4.17,0,0,1-4.17-4.16,4.11,4.11,0,0,1,4.08-4.16A3.93,3.93,0,0,1,655.26,608.1Zm-7.12-.21h6.11a3,3,0,0,0-3.06-3.17A3.12,3.12,0,0,0,648.14,607.89Z"/><path class="cls-2" d="M286.24,629.93v5.17h-1.08v-1a5.55,5.55,0,0,1-3.58,1.18,2.58,2.58,0,0,1-2.81-2.58c0-1.56,1.21-2.36,3.14-2.37h3.25V630c0-1.55-1-2.23-2.49-2.23a4.86,4.86,0,0,0-2.92,1l-.35-.7a6.15,6.15,0,0,1,3.53-1.13C284.83,626.93,286.24,627.83,286.24,629.93Zm-4,.87c-1.53,0-2.44.6-2.44,1.78a2,2,0,0,0,2.16,2,5,5,0,0,0,3.16-1V630.8Z"/><path class="cls-2" d="M296.79,630v5.13h-1.08v-4.84a2.17,2.17,0,0,0-2.27-2.44,5,5,0,0,0-3.35,1.3v6H289v-8h1.08v1.22a5.85,5.85,0,0,1,3.73-1.38A2.77,2.77,0,0,1,296.79,630Z"/><path class="cls-2" d="M307.2,635.1h-1.08v-1.18a4,4,0,0,1-3,1.34,4.16,4.16,0,1,1,3-7v-4.38h1.08Zm-7-4a3.27,3.27,0,0,0,5.9,1.91v-3.83a3.27,3.27,0,0,0-5.9,1.92Z"/><path class="cls-2" d="M315.51,624.86a.6.6,0,0,1-.64.57.57.57,0,1,1,0-1.14A.6.6,0,0,1,315.51,624.86Zm-1.17,10.24v-8h1.08v8Z"/><path class="cls-2" d="M326.21,630v5.13h-1.08v-4.84a2.17,2.17,0,0,0-2.26-2.44,5,5,0,0,0-3.36,1.3v6h-1.08v-8h1.08v1.22a5.85,5.85,0,0,1,3.74-1.38A2.77,2.77,0,0,1,326.21,630Z"/><path class="cls-2" d="M333.14,623.89h3.4V635.1h-1.08V624.66h-2.19a2.72,2.72,0,0,0-.92-.17,1.89,1.89,0,0,0-1.93,2v.57h2.7v.84h-2.7v7.16h-1.08v-7.16H328v-.84h1.38v-.6a2.59,2.59,0,0,1,2.73-2.77A3.91,3.91,0,0,1,333.14,623.89Z"/><path class="cls-2" d="M340.27,631.94a2.16,2.16,0,0,0,2.26,2.43,5,5,0,0,0,3.36-1.3v-6H347v8h-1.08v-1.23a5.81,5.81,0,0,1-3.74,1.39,2.77,2.77,0,0,1-3-3V627.1h1.08Z"/><path class="cls-2" d="M357.52,631.1v.35h-7.13a3.19,3.19,0,0,0,3.21,3,3.86,3.86,0,0,0,2.71-1.1l.59.52a4.8,4.8,0,0,1-3.38,1.38,4.17,4.17,0,0,1-4.17-4.16,4.11,4.11,0,0,1,4.08-4.16A3.93,3.93,0,0,1,357.52,631.1Zm-7.12-.21h6.11a3,3,0,0,0-3.06-3.17A3.12,3.12,0,0,0,350.4,630.89Z"/><path class="cls-2" d="M367.73,630v5.13h-1.08v-4.84a2.17,2.17,0,0,0-2.26-2.44,5,5,0,0,0-3.36,1.3v6H360v-8H361v1.22a5.85,5.85,0,0,1,3.74-1.38A2.77,2.77,0,0,1,367.73,630Z"/><path class="cls-2" d="M377.67,628.44l-.82.49a3.24,3.24,0,1,0,.09,4.24l.82.47a4.28,4.28,0,0,1-3.38,1.62,4.16,4.16,0,1,1,0-8.32A4.3,4.3,0,0,1,377.67,628.44Z"/><path class="cls-2" d="M388,631.1v.35h-7.12a3.17,3.17,0,0,0,3.2,3,3.86,3.86,0,0,0,2.71-1.1l.59.52a4.8,4.8,0,0,1-3.38,1.38,4.17,4.17,0,0,1-4.17-4.16,4.12,4.12,0,0,1,4.09-4.16A3.93,3.93,0,0,1,388,631.1Zm-7.12-.21h6.11a3,3,0,0,0-3.06-3.17A3.12,3.12,0,0,0,380.83,630.89Z"/><path class="cls-2" d="M401.67,635.1l-2.18-6.49-2.17,6.49h-1.19l-2.82-8h1.08l2.38,6.85L399,627.1H400l2.26,6.85,2.38-6.85h1.08l-2.82,8Z"/><path class="cls-2" d="M414.18,629.93v5.17H413.1v-1a5.52,5.52,0,0,1-3.57,1.18,2.58,2.58,0,0,1-2.81-2.58c0-1.56,1.21-2.36,3.14-2.37h3.24V630c0-1.55-1-2.23-2.48-2.23a4.86,4.86,0,0,0-2.92,1l-.35-.7a6.14,6.14,0,0,1,3.52-1.13C412.77,626.93,414.18,627.83,414.18,629.93Zm-3.95.87c-1.53,0-2.45.6-2.45,1.78a2,2,0,0,0,2.17,2,5,5,0,0,0,3.15-1V630.8Z"/><path class="cls-2" d="M420.3,635.92c-.81,1.91-1.78,2.45-2.95,2.46a4.47,4.47,0,0,1-1.56-.32l.31-.73a2.76,2.76,0,0,0,1.16.23c.81,0,1.44-.42,2.09-1.81l.18-.4-3.67-8.25H417l3,6.9,2.89-6.9H424Z"/><path class="cls-2" d="M430.33,624l-.17.69a2.66,2.66,0,0,0-.91-.17,1.9,1.9,0,0,0-1.94,2v.57h6.23v8h-1.07v-7.16h-5.16v7.16h-1.08v-7.16h-1.38v-.84h1.38v-.6a2.59,2.59,0,0,1,2.73-2.77A4.2,4.2,0,0,1,430.33,624Z"/><path class="cls-2" d="M444.34,630v5.13h-1.08v-4.84a2.17,2.17,0,0,0-2.27-2.44,5,5,0,0,0-3.36,1.3v6h-1.07v-8h1.07v1.22a5.89,5.89,0,0,1,3.74-1.38A2.77,2.77,0,0,1,444.34,630Z"/><path class="cls-2" d="M454.75,635.1h-1.08v-1.18a4,4,0,0,1-3,1.34,4.16,4.16,0,1,1,3-7v-4.38h1.08Zm-7-4a3.27,3.27,0,0,0,5.9,1.91v-3.83a3.27,3.27,0,0,0-5.9,1.92Z"/><path class="cls-2" d="M459.06,624.86a.64.64,0,1,1-.64-.57A.6.6,0,0,1,459.06,624.86Zm-1.17,10.24v-8H459v8Z"/><path class="cls-2" d="M469.76,630v5.13h-1.08v-4.84a2.17,2.17,0,0,0-2.27-2.44,5,5,0,0,0-3.35,1.3v6H462v-8h1.08v1.22a5.85,5.85,0,0,1,3.74-1.38A2.77,2.77,0,0,1,469.76,630Z"/><path class="cls-2" d="M479.33,628.22V627.1h1.08v7.2c0,2.8-1.78,4.1-4.18,4.09a6.54,6.54,0,0,1-3.69-1.15l.36-.7a5.56,5.56,0,0,0,3.14,1,3,3,0,0,0,3.29-3.26v-.83a4,4,0,0,1-3.25,1.63,3.92,3.92,0,0,1-3.93-4.06,4,4,0,0,1,3.93-4.11A4.76,4.76,0,0,1,479.33,628.22ZM473.21,631a3.2,3.2,0,0,0,3.22,3.18,3.3,3.3,0,0,0,2.9-1.71V629.1a4,4,0,0,0-2.9-1.24A3.2,3.2,0,0,0,473.21,631Z"/><path class="cls-2" d="M483.92,634.69a.66.66,0,1,1-.66-.59A.63.63,0,0,1,483.92,634.69Z"/></g><g id="_30_plus" class="svg-showtip" data-name="30_plus"><circle class="cls-3" cx="312.76" cy="745.78" r="25"/><line class="cls-4" x1="298.14" y1="745.78" x2="327.37" y2="745.78"/><line class="cls-4" x1="312.76" y1="760.4" x2="312.76" y2="731.17"/></g><g id="_29_tooltip" class="svg-tooltip" data-name="29_tooltip"><path id="tooltip-3" data-name="tooltip" class="cls-1" d="M1310.53,157H938.79l-23,20-24-20H852.26a3.26,3.26,0,0,1-3.26-3.26V77.31a3.27,3.27,0,0,1,3.26-3.26h458.27a3.27,3.27,0,0,1,3.26,3.26v76.42A3.27,3.27,0,0,1,1310.53,157Z"/><path class="cls-2" d="M889.74,108.9l-.5.89a8.22,8.22,0,0,0-4-1.08c-1.49,0-2.76.6-2.76,2,0,.89.53,1.33,2.89,2,2.87.76,4.68,1.11,4.68,3.44,0,2.09-2,3.13-4.35,3.13a9.17,9.17,0,0,1-5-1.39l.54-.87a8.79,8.79,0,0,0,4.53,1.26c1.6,0,3-.62,3-2,0-1.66-1.18-1.8-3.79-2.49s-3.81-1.32-3.81-2.91c0-2.19,1.89-3.12,4.11-3.13A8.49,8.49,0,0,1,889.74,108.9Z"/><path class="cls-2" d="M900.69,115.08a4,4,0,0,1-4,4.17,4,4,0,0,1-3-1.34v4.3h-1.08V111.08h1.08v1.18a4,4,0,0,1,7,2.82Zm-7-1.91V117a3.25,3.25,0,1,0,2.63-5.14A3.29,3.29,0,0,0,893.72,113.17Z"/><path class="cls-2" d="M910.13,113.91v5.18h-1.08v-1a5.5,5.5,0,0,1-3.58,1.19,2.58,2.58,0,0,1-2.81-2.59c0-1.55,1.21-2.36,3.15-2.36h3.24V114c0-1.54-1-2.23-2.49-2.22a4.86,4.86,0,0,0-2.92,1l-.35-.7a6.23,6.23,0,0,1,3.53-1.14C908.72,110.92,910.13,111.81,910.13,113.91Zm-4,.87c-1.53,0-2.44.6-2.44,1.79a2,2,0,0,0,2.16,2,5,5,0,0,0,3.16-1v-2.79Z"/><path class="cls-2" d="M920.06,112.43l-.82.48a3.24,3.24,0,1,0,.09,4.24l.82.48a4.31,4.31,0,0,1-3.38,1.62,4.17,4.17,0,1,1,0-8.33A4.31,4.31,0,0,1,920.06,112.43Z"/><path class="cls-2" d="M930.34,115.08v.36h-7.12a3.16,3.16,0,0,0,3.2,3,3.82,3.82,0,0,0,2.71-1.1l.59.53a4.84,4.84,0,0,1-3.38,1.38,4.17,4.17,0,0,1-4.17-4.17,4.12,4.12,0,0,1,4.09-4.16A3.94,3.94,0,0,1,930.34,115.08Zm-7.12-.21h6.11a3,3,0,0,0-3.06-3.16A3.11,3.11,0,0,0,923.22,114.87Z"/><path class="cls-2" d="M938.53,111.77l-.38.68a5.58,5.58,0,0,0-2.78-.78c-1.06,0-2,.43-2,1.43,0,.63.37.93,2,1.36,2.08.56,3.41.82,3.41,2.54,0,1.53-1.44,2.26-3.18,2.25a6.62,6.62,0,0,1-3.59-1l.4-.65a6,6,0,0,0,3.19.91c1.15,0,2.17-.42,2.17-1.41,0-1.19-.85-1.29-2.64-1.76s-2.75-1-2.75-2.15c0-1.58,1.36-2.26,3-2.26A6.21,6.21,0,0,1,938.53,111.77Z"/><path class="cls-2" d="M949.38,111.08v.84h-2.6v4.39a1.91,1.91,0,0,0,2,2,2.36,2.36,0,0,0,1.15-.31l.18.76a3.83,3.83,0,0,1-1.69.44,2.59,2.59,0,0,1-2.67-2.78v-4.55h-1.48v-.84h1.48v-2.37h1.08v2.37Z"/><path class="cls-2" d="M953.61,112.31a5.88,5.88,0,0,1,3.74-1.39,2.77,2.77,0,0,1,3,3v5.13h-1.08v-4.85a2.15,2.15,0,0,0-2.26-2.43,5,5,0,0,0-3.36,1.3v6h-1.08V107.88h1.08Z"/><path class="cls-2" d="M970,113.91v5.18H969v-1a5.5,5.5,0,0,1-3.58,1.19,2.58,2.58,0,0,1-2.81-2.59c0-1.55,1.22-2.36,3.15-2.36H969V114c0-1.54-1-2.23-2.48-2.22a4.86,4.86,0,0,0-2.92,1l-.35-.7a6.18,6.18,0,0,1,3.52-1.14C968.62,110.92,970,111.81,970,113.91Zm-4,.87c-1.52,0-2.44.6-2.44,1.79a2,2,0,0,0,2.17,2,4.94,4.94,0,0,0,3.15-1v-2.79Z"/><path class="cls-2" d="M976.93,111.08v.84h-2.6v4.39a1.91,1.91,0,0,0,2,2,2.42,2.42,0,0,0,1.15-.31l.18.76a3.84,3.84,0,0,1-1.7.44,2.59,2.59,0,0,1-2.67-2.78v-4.55h-1.48v-.84h1.48v-2.37h1.08v2.37Z"/><path class="cls-2" d="M990.94,113.91v5.18h-1.08v-1a5.48,5.48,0,0,1-3.58,1.19,2.57,2.57,0,0,1-2.8-2.59c0-1.55,1.21-2.36,3.14-2.36h3.24V114c0-1.54-1-2.23-2.48-2.22a4.86,4.86,0,0,0-2.92,1l-.35-.7a6.23,6.23,0,0,1,3.52-1.14C989.53,110.92,990.94,111.81,990.94,113.91Zm-4,.87c-1.53,0-2.45.6-2.45,1.79a2,2,0,0,0,2.17,2,4.94,4.94,0,0,0,3.15-1v-2.79Z"/><path class="cls-2" d="M998.56,111.81a5.24,5.24,0,0,0-3.77,1.68v5.6h-1.07v-8h1.07v1.54a5.31,5.31,0,0,1,3.77-1.7Z"/><path class="cls-2" d="M1007.83,115.08v.36h-7.13a3.17,3.17,0,0,0,3.21,3,3.82,3.82,0,0,0,2.71-1.1l.59.53a4.84,4.84,0,0,1-3.38,1.38,4.17,4.17,0,0,1-4.17-4.17,4.12,4.12,0,0,1,4.08-4.16A3.94,3.94,0,0,1,1007.83,115.08Zm-7.12-.21h6.11a3,3,0,0,0-3.06-3.16A3.11,3.11,0,0,0,1000.71,114.87Z"/><path class="cls-2" d="M1020,111.77l-.38.68a5.61,5.61,0,0,0-2.79-.78c-1.05,0-2,.43-2,1.43,0,.63.37.93,2,1.36,2.07.56,3.41.82,3.41,2.54,0,1.53-1.44,2.26-3.18,2.25a6.62,6.62,0,0,1-3.59-1l.4-.65a6,6,0,0,0,3.19.91c1.15,0,2.17-.42,2.17-1.41,0-1.19-.85-1.29-2.64-1.76s-2.76-1-2.76-2.15c0-1.58,1.37-2.26,3-2.26A6.21,6.21,0,0,1,1020,111.77Z"/><path class="cls-2" d="M1030.5,115.08v.36h-7.12a3.16,3.16,0,0,0,3.2,3,3.82,3.82,0,0,0,2.71-1.1l.59.53a4.84,4.84,0,0,1-3.38,1.38,4.17,4.17,0,0,1-4.17-4.17,4.12,4.12,0,0,1,4.09-4.16A3.94,3.94,0,0,1,1030.5,115.08Zm-7.12-.21h6.11a3,3,0,0,0-3.06-3.16A3.11,3.11,0,0,0,1023.38,114.87Z"/><path class="cls-2" d="M1041.06,115.08a4,4,0,0,1-4,4.17,4,4,0,0,1-3-1.34v4.3H1033V111.08h1.08v1.18a4,4,0,0,1,3-1.34A4,4,0,0,1,1041.06,115.08Zm-7-1.91V117a3.25,3.25,0,1,0,2.63-5.14A3.28,3.28,0,0,0,1034.09,113.17Z"/><path class="cls-2" d="M1050.5,113.91v5.18h-1.08v-1a5.52,5.52,0,0,1-3.58,1.19,2.58,2.58,0,0,1-2.81-2.59c0-1.55,1.21-2.36,3.14-2.36h3.25V114c0-1.54-1-2.23-2.49-2.22a4.86,4.86,0,0,0-2.92,1l-.35-.7a6.23,6.23,0,0,1,3.52-1.14C1049.09,110.92,1050.5,111.81,1050.5,113.91Zm-4,.87c-1.53,0-2.44.6-2.44,1.79a2,2,0,0,0,2.16,2,5,5,0,0,0,3.16-1v-2.79Z"/><path class="cls-2" d="M1058.12,111.81a5.21,5.21,0,0,0-3.77,1.68v5.6h-1.08v-8h1.08v1.54a5.27,5.27,0,0,1,3.77-1.7Z"/><path class="cls-2" d="M1066.66,113.91v5.18h-1.08v-1a5.52,5.52,0,0,1-3.58,1.19,2.58,2.58,0,0,1-2.81-2.59c0-1.55,1.21-2.36,3.14-2.36h3.25V114c0-1.54-1-2.23-2.49-2.22a4.86,4.86,0,0,0-2.92,1l-.35-.7a6.23,6.23,0,0,1,3.53-1.14C1065.25,110.92,1066.66,111.81,1066.66,113.91Zm-4,.87c-1.53,0-2.44.6-2.44,1.79a2,2,0,0,0,2.16,2,5,5,0,0,0,3.16-1v-2.79Z"/><path class="cls-2" d="M1073.56,111.08v.84H1071v4.39a1.92,1.92,0,0,0,2,2,2.39,2.39,0,0,0,1.15-.31l.18.76a3.83,3.83,0,0,1-1.69.44,2.59,2.59,0,0,1-2.68-2.78v-4.55h-1.47v-.84h1.47v-2.37H1071v2.37Z"/><path class="cls-2" d="M1083.7,115.08v.36h-7.12a3.16,3.16,0,0,0,3.2,3,3.82,3.82,0,0,0,2.71-1.1l.59.53a4.84,4.84,0,0,1-3.38,1.38,4.17,4.17,0,0,1-4.17-4.17,4.12,4.12,0,0,1,4.09-4.16A3.94,3.94,0,0,1,1083.7,115.08Zm-7.12-.21h6.11a3,3,0,0,0-3-3.16A3.11,3.11,0,0,0,1076.58,114.87Z"/><path class="cls-2" d="M1097.07,113.91v5.18H1096v-1a5.5,5.5,0,0,1-3.58,1.19,2.58,2.58,0,0,1-2.81-2.59c0-1.55,1.22-2.36,3.15-2.36H1096V114c0-1.54-1-2.23-2.48-2.22a4.86,4.86,0,0,0-2.92,1l-.35-.7a6.18,6.18,0,0,1,3.52-1.14C1095.66,110.92,1097.07,111.81,1097.07,113.91Zm-4,.87c-1.52,0-2.44.6-2.44,1.79a2,2,0,0,0,2.17,2,4.94,4.94,0,0,0,3.15-1v-2.79Z"/><path class="cls-2" d="M1107.62,114v5.13h-1.07v-4.85a2.16,2.16,0,0,0-2.27-2.43,5,5,0,0,0-3.36,1.3v6h-1.08v-8h1.08v1.23a5.9,5.9,0,0,1,3.74-1.39A2.77,2.77,0,0,1,1107.62,114Z"/><path class="cls-2" d="M1118,119.09H1117v-1.18a4,4,0,0,1-3,1.34,4.17,4.17,0,1,1,3-7v-4.38H1118Zm-7-4A3.27,3.27,0,0,0,1117,117v-3.82a3.29,3.29,0,0,0-2.63-1.32A3.25,3.25,0,0,0,1111.06,115.08Z"/><path class="cls-2" d="M1127.4,119.09l-3.51-8H1125l3,6.91,3-6.91h1.16l-3.52,8Z"/><path class="cls-2" d="M1135.48,108.85a.6.6,0,0,1-.64.56.57.57,0,1,1,.64-.56Zm-1.17,10.24v-8h1.08v8Z"/><path class="cls-2" d="M1144.16,111.77l-.38.68a5.58,5.58,0,0,0-2.78-.78c-1.06,0-2,.43-2,1.43,0,.63.37.93,2,1.36,2.08.56,3.41.82,3.41,2.54,0,1.53-1.44,2.26-3.18,2.25a6.62,6.62,0,0,1-3.59-1l.4-.65a6,6,0,0,0,3.19.91c1.15,0,2.17-.42,2.17-1.41,0-1.19-.85-1.29-2.64-1.76-1.94-.52-2.75-1-2.75-2.15,0-1.58,1.36-2.26,3-2.26A6.18,6.18,0,0,1,1144.16,111.77Z"/><path class="cls-2" d="M1147.82,115.93a2.16,2.16,0,0,0,2.27,2.43,5,5,0,0,0,3.36-1.3v-6h1.07v8h-1.07v-1.23a5.9,5.9,0,0,1-3.74,1.39,2.78,2.78,0,0,1-3-3v-5.13h1.08Z"/><path class="cls-2" d="M1164.25,113.91v5.18h-1.08v-1a5.5,5.5,0,0,1-3.58,1.19,2.57,2.57,0,0,1-2.8-2.59c0-1.55,1.21-2.36,3.14-2.36h3.24V114c0-1.54-1-2.23-2.48-2.22a4.86,4.86,0,0,0-2.92,1l-.35-.7a6.23,6.23,0,0,1,3.52-1.14C1162.84,110.92,1164.25,111.81,1164.25,113.91Zm-4,.87c-1.53,0-2.45.6-2.45,1.79a2,2,0,0,0,2.17,2,4.94,4.94,0,0,0,3.15-1v-2.79Z"/><path class="cls-2" d="M1167.13,119.08v-11.2h1.08v11.2Z"/><path class="cls-2" d="M1171.1,119.08v-11.2h1.07v11.2Z"/><path class="cls-2" d="M1178.4,119.9c-.81,1.92-1.78,2.46-3,2.47a4.47,4.47,0,0,1-1.56-.32l.31-.73a2.74,2.74,0,0,0,1.16.22c.81,0,1.44-.42,2.09-1.81l.18-.39-3.67-8.26h1.14l3,6.91,2.89-6.91h1.13Z"/><path class="cls-2" d="M1195.14,112.43l-.81.48a3.24,3.24,0,1,0,.09,4.24l.82.48a4.32,4.32,0,0,1-3.38,1.62,4.17,4.17,0,1,1,0-8.33A4.29,4.29,0,0,1,1195.14,112.43Z"/><path class="cls-2" d="M1206,115.08a4.35,4.35,0,1,1-4.35-4.16A4.27,4.27,0,0,1,1206,115.08Zm-7.64,0a3.28,3.28,0,1,0,3.28-3.23A3.27,3.27,0,0,0,1198.31,115.08Z"/><path class="cls-2" d="M1216.25,114v5.13h-1.08v-4.85a2.16,2.16,0,0,0-2.27-2.43,5,5,0,0,0-3.36,1.3v6h-1.08v-8h1.08v1.23a5.9,5.9,0,0,1,3.74-1.39A2.78,2.78,0,0,1,1216.25,114Z"/><path class="cls-2" d="M1226.81,114v5.13h-1.08v-4.85a2.16,2.16,0,0,0-2.27-2.43,5,5,0,0,0-3.36,1.3v6H1219v-8h1.08v1.23a5.9,5.9,0,0,1,3.74-1.39A2.78,2.78,0,0,1,1226.81,114Z"/><path class="cls-2" d="M1237.35,115.08v.36h-7.13a3.16,3.16,0,0,0,3.2,3,3.84,3.84,0,0,0,2.72-1.1l.59.53a4.86,4.86,0,0,1-3.39,1.38,4.17,4.17,0,0,1-.08-8.33A3.94,3.94,0,0,1,1237.35,115.08Zm-7.13-.21h6.11a3,3,0,0,0-3-3.16A3.11,3.11,0,0,0,1230.22,114.87Z"/><path class="cls-2" d="M1246.93,112.43l-.81.48a3.24,3.24,0,1,0,.09,4.24l.82.48a4.32,4.32,0,0,1-3.38,1.62,4.17,4.17,0,1,1,0-8.33A4.28,4.28,0,0,1,1246.93,112.43Z"/><path class="cls-2" d="M1253.58,111.08v.84H1251v4.39a1.91,1.91,0,0,0,2,2,2.42,2.42,0,0,0,1.15-.31l.18.76a3.84,3.84,0,0,1-1.7.44,2.59,2.59,0,0,1-2.67-2.78v-4.55h-1.47v-.84h1.47v-2.37H1251v2.37Z"/><path class="cls-2" d="M1263.73,115.08v.36h-7.13a3.17,3.17,0,0,0,3.21,3,3.82,3.82,0,0,0,2.71-1.1l.59.53a4.84,4.84,0,0,1-3.38,1.38,4.17,4.17,0,0,1-4.17-4.17,4.12,4.12,0,0,1,4.08-4.16A3.94,3.94,0,0,1,1263.73,115.08Zm-7.12-.21h6.11a3,3,0,0,0-3.06-3.16A3.11,3.11,0,0,0,1256.61,114.87Z"/><path class="cls-2" d="M1273.79,119.09h-1.08v-1.18a4,4,0,0,1-3,1.34,4.17,4.17,0,0,1,0-8.33,4,4,0,0,1,3,1.34v-4.38h1.08Zm-7-4a3.27,3.27,0,0,0,5.9,1.91v-3.82a3.27,3.27,0,0,0-5.9,1.91Z"/><path class="cls-2" d="M1277.28,118.67a.66.66,0,0,1-1.32,0,.63.63,0,0,1,.66-.58A.62.62,0,0,1,1277.28,118.67Z"/></g><g id="_29_plus" class="svg-showtip" data-name="29_plus"><circle class="cls-3" cx="915.54" cy="220.57" r="25"/><line class="cls-4" x1="900.93" y1="220.57" x2="930.16" y2="220.57"/><line class="cls-4" x1="915.54" y1="235.18" x2="915.54" y2="205.95"/></g></svg>