<svg id="_23_1640x750" data-name="23_1640x750" xmlns="http://www.w3.org/2000/svg" viewBox="0 0 1640 790"><defs><style>.cls-1{fill:#fff;stroke-width:2px;}.cls-1,.cls-3,.cls-4{stroke:#fff;stroke-miterlimit:10;}.cls-2{fill:#231f20;}.cls-3{fill:#06a7e0;stroke-width:1.33px;opacity:0.9;}.cls-4{fill:none;stroke-width:4.67px;}</style></defs><title>08_1640x790</title><g id="_32_tooltip" class="svg-tooltip" data-name="32_tooltip"><path id="tooltip" class="cls-1" d="M725.2,324.52h371.74l23,20,24-20h39.53a3.26,3.26,0,0,0,3.26-3.26V203.81a3.27,3.27,0,0,0-3.26-3.26H725.2a3.27,3.27,0,0,0-3.26,3.26V321.26A3.27,3.27,0,0,0,725.2,324.52Z"/><path class="cls-2" d="M758.5,232.74v10.2h-1.16v-10.2h-3.89v-1h8.95v1Z"/><path class="cls-2" d="M765.68,236.17a5.81,5.81,0,0,1,3.74-1.39,2.77,2.77,0,0,1,3,3v5.12H771.3V238.1a2.16,2.16,0,0,0-2.27-2.43,5,5,0,0,0-3.35,1.3v6H764.6v-11.2h1.08Z"/><path class="cls-2" d="M782.92,238.94v.36h-7.13a3.17,3.17,0,0,0,3.21,3,3.82,3.82,0,0,0,2.71-1.1l.59.53a4.83,4.83,0,0,1-3.38,1.37,4.16,4.16,0,0,1-.08-8.32A3.94,3.94,0,0,1,782.92,238.94Zm-7.12-.21h6.11a3,3,0,0,0-3.06-3.16A3.11,3.11,0,0,0,775.8,238.73Z"/><path class="cls-2" d="M801.53,242.94v-9.72l-5.1,8.58h-.51l-5.1-8.58v9.72h-1.14v-11.2h1.55l4.94,8.28,4.94-8.28h1.55v11.2Z"/><path class="cls-2" d="M812.87,237.77v5.17h-1.08v-1a5.55,5.55,0,0,1-3.58,1.18,2.58,2.58,0,0,1-2.81-2.58c0-1.55,1.21-2.36,3.14-2.36h3.25v-.3c0-1.54-1-2.23-2.49-2.23a4.94,4.94,0,0,0-2.92,1l-.35-.7a6.23,6.23,0,0,1,3.53-1.14C811.46,234.78,812.87,235.67,812.87,237.77Zm-4,.87c-1.53,0-2.44.6-2.44,1.79a2,2,0,0,0,2.16,2,5,5,0,0,0,3.16-1v-2.79Z"/><path class="cls-2" d="M820.49,235.67a5.22,5.22,0,0,0-3.77,1.68v5.59h-1.08v-8h1.08v1.54a5.27,5.27,0,0,1,3.77-1.7Z"/><path class="cls-2" d="M828.48,234.94h1.31l-3,3,3.3,5h-1.19L826,238.72l-2.53,2.34v1.88H822.4v-11.2h1.08v8Z"/><path class="cls-2" d="M839.27,238.94v.36h-7.12a3.16,3.16,0,0,0,3.2,3,3.82,3.82,0,0,0,2.71-1.1l.59.53a4.83,4.83,0,0,1-3.38,1.37,4.16,4.16,0,0,1-.08-8.32A3.94,3.94,0,0,1,839.27,238.94Zm-7.12-.21h6.11a3,3,0,0,0-3.06-3.16A3.11,3.11,0,0,0,832.15,238.73Z"/><path class="cls-2" d="M845.83,234.94v.84h-2.6v4.39a1.91,1.91,0,0,0,1.95,2.05,2.36,2.36,0,0,0,1.15-.31l.19.76a3.76,3.76,0,0,1-1.7.43,2.58,2.58,0,0,1-2.67-2.77v-4.55h-1.48v-.84h1.48v-2.37h1.08v2.37Z"/><path class="cls-2" d="M858.29,232.71a.65.65,0,1,1-.64-.57A.61.61,0,0,1,858.29,232.71Zm-1.18,10.23v-8h1.08v8Z"/><path class="cls-2" d="M867,235.63l-.38.68a5.58,5.58,0,0,0-2.78-.78c-1,0-1.95.43-1.95,1.43,0,.63.37.94,2,1.36,2.07.56,3.4.82,3.4,2.54,0,1.53-1.44,2.26-3.17,2.24a6.65,6.65,0,0,1-3.6-1l.41-.65a6.08,6.08,0,0,0,3.18.91c1.15,0,2.17-.42,2.17-1.41,0-1.19-.85-1.29-2.63-1.76-1.94-.52-2.76-1-2.76-2.15,0-1.58,1.36-2.26,3-2.26A6.06,6.06,0,0,1,867,235.63Z"/><path class="cls-2" d="M881.45,238.94v.36h-7.13a3.17,3.17,0,0,0,3.2,3,3.82,3.82,0,0,0,2.72-1.1l.59.53a4.85,4.85,0,0,1-3.39,1.37,4.16,4.16,0,0,1-.08-8.32A3.94,3.94,0,0,1,881.45,238.94Zm-7.12-.21h6.1a3,3,0,0,0-3-3.16A3.11,3.11,0,0,0,874.33,238.73Z"/><path class="cls-2" d="M890.43,236.11v-1.17h1.08v11.13h-1.08v-4.3a4,4,0,0,1-7-2.83,4,4,0,0,1,7-2.83Zm-5.9,2.83a3.27,3.27,0,0,0,5.9,1.91V237a3.27,3.27,0,0,0-5.9,1.91Z"/><path class="cls-2" d="M895.38,239.78a2.17,2.17,0,0,0,2.26,2.44,5,5,0,0,0,3.36-1.3v-6h1.08v8H901v-1.22a5.85,5.85,0,0,1-3.74,1.38,2.77,2.77,0,0,1-3-3v-5.13h1.08Z"/><path class="cls-2" d="M906.25,232.71a.6.6,0,0,1-.64.56.57.57,0,1,1,.64-.56Zm-1.17,10.23v-8h1.08v8Z"/><path class="cls-2" d="M917.3,238.94a4,4,0,0,1-7,2.83v4.3h-1.08V234.94h1.08v1.17a4,4,0,0,1,7,2.83Zm-7-1.91v3.82A3.25,3.25,0,1,0,913,235.7,3.3,3.3,0,0,0,910.33,237Z"/><path class="cls-2" d="M928,238.94a4,4,0,0,1-7,2.83v4.3h-1.08V234.94H921v1.17a4,4,0,0,1,7,2.83ZM921,237v3.82a3.24,3.24,0,1,0,0-3.82Z"/><path class="cls-2" d="M938.31,238.94v.36h-7.13a3.17,3.17,0,0,0,3.21,3,3.82,3.82,0,0,0,2.71-1.1l.59.53a4.83,4.83,0,0,1-3.38,1.37,4.16,4.16,0,0,1-.09-8.32A3.94,3.94,0,0,1,938.31,238.94Zm-7.12-.21h6.11a3,3,0,0,0-3.06-3.16A3.11,3.11,0,0,0,931.19,238.73Z"/><path class="cls-2" d="M948.37,242.94h-1.08v-1.17a4,4,0,0,1-7-2.83,4,4,0,0,1,7-2.83v-4.37h1.08Zm-7-4a3.27,3.27,0,0,0,5.9,1.91V237a3.27,3.27,0,0,0-5.9,1.91Z"/><path class="cls-2" d="M962.58,242.94l-2.17-6.48-2.17,6.48H957l-2.82-8h1.08l2.38,6.85,2.27-6.85h.92l2.27,6.85,2.38-6.85h1.08l-2.82,8Z"/><path class="cls-2" d="M969.82,232.71a.61.61,0,0,1-.64.56.57.57,0,1,1,0-1.13A.61.61,0,0,1,969.82,232.71Zm-1.18,10.23v-8h1.08v8Z"/><path class="cls-2" d="M976.86,234.94v.84h-2.6v4.39a1.92,1.92,0,0,0,2,2.05,2.39,2.39,0,0,0,1.15-.31l.18.76a3.7,3.7,0,0,1-1.7.43,2.58,2.58,0,0,1-2.67-2.77v-4.55h-1.47v-.84h1.47v-2.37h1.08v2.37Z"/><path class="cls-2" d="M981.1,236.17a5.8,5.8,0,0,1,3.73-1.39,2.78,2.78,0,0,1,3,3v5.12h-1.08V238.1a2.16,2.16,0,0,0-2.27-2.43,5,5,0,0,0-3.35,1.3v6H980v-11.2h1.08Z"/><path class="cls-2" d="M1000.33,235.63l-.38.68a5.55,5.55,0,0,0-2.78-.78c-1,0-1.95.43-1.95,1.43,0,.63.37.94,2,1.36,2.07.56,3.4.82,3.4,2.54,0,1.53-1.44,2.26-3.17,2.24a6.68,6.68,0,0,1-3.6-1l.41-.65a6.11,6.11,0,0,0,3.19.91c1.15,0,2.17-.42,2.17-1.41,0-1.19-.86-1.29-2.64-1.76-1.94-.52-2.76-1-2.76-2.15,0-1.58,1.37-2.26,3-2.26A6.05,6.05,0,0,1,1000.33,235.63Z"/><path class="cls-2" d="M1004.21,236.17a5.85,5.85,0,0,1,3.74-1.39,2.78,2.78,0,0,1,3,3v5.12h-1.08V238.1a2.16,2.16,0,0,0-2.27-2.43,5,5,0,0,0-3.36,1.3v6h-1.07v-11.2h1.07Z"/><path class="cls-2" d="M1021.46,238.94v.36h-7.13a3.17,3.17,0,0,0,3.21,3,3.82,3.82,0,0,0,2.71-1.1l.59.53a4.85,4.85,0,0,1-3.39,1.37,4.16,4.16,0,0,1-.08-8.32A3.94,3.94,0,0,1,1021.46,238.94Zm-7.12-.21h6.11a3,3,0,0,0-3.06-3.16A3.11,3.11,0,0,0,1014.34,238.73Z"/><path class="cls-2" d="M1024,242.94v-11.2h1.08v11.2Z"/><path class="cls-2" d="M1030.3,242.94l-3.52-8h1.15l3,6.91,3-6.91h1.15l-3.52,8Z"/><path class="cls-2" d="M1038.38,232.71a.61.61,0,0,1-.64.56.57.57,0,1,1,0-1.13A.61.61,0,0,1,1038.38,232.71Zm-1.18,10.23v-8h1.08v8Z"/><path class="cls-2" d="M1049.08,237.82v5.12H1048V238.1a2.16,2.16,0,0,0-2.27-2.43,5,5,0,0,0-3.36,1.3v6h-1.08v-8h1.08v1.23a5.85,5.85,0,0,1,3.74-1.39A2.78,2.78,0,0,1,1049.08,237.82Z"/><path class="cls-2" d="M1058.65,236.06v-1.12h1.08v7.21c0,2.79-1.78,4.09-4.18,4.09a6.57,6.57,0,0,1-3.69-1.15l.35-.7a5.51,5.51,0,0,0,3.15,1,3,3,0,0,0,3.29-3.25v-.83a4,4,0,0,1-3.25,1.62,3.92,3.92,0,0,1-3.93-4.05,4,4,0,0,1,3.93-4.11A4.75,4.75,0,0,1,1058.65,236.06Zm-6.12,2.83a3.2,3.2,0,0,0,3.22,3.18,3.32,3.32,0,0,0,2.9-1.71v-3.42a4,4,0,0,0-2.9-1.24A3.21,3.21,0,0,0,1052.53,238.89Z"/><path class="cls-2" d="M1073.61,237.77v5.17h-1.08v-1a5.55,5.55,0,0,1-3.58,1.18,2.57,2.57,0,0,1-2.8-2.58c0-1.55,1.21-2.36,3.14-2.36h3.24v-.3c0-1.54-1-2.23-2.48-2.23a4.94,4.94,0,0,0-2.92,1l-.35-.7a6.18,6.18,0,0,1,3.52-1.14C1072.2,234.78,1073.61,235.67,1073.61,237.77Zm-3.95.87c-1.53,0-2.45.6-2.45,1.79a2,2,0,0,0,2.17,2,4.94,4.94,0,0,0,3.15-1v-2.79Z"/><path class="cls-2" d="M1084.17,237.82v5.12h-1.08V238.1a2.16,2.16,0,0,0-2.27-2.43,5,5,0,0,0-3.36,1.3v6h-1.08v-8h1.08v1.23a5.85,5.85,0,0,1,3.74-1.39A2.78,2.78,0,0,1,1084.17,237.82Z"/><path class="cls-2" d="M1094.58,242.94h-1.08v-1.17a4.16,4.16,0,1,1,0-5.66v-4.37h1.08Zm-7-4a3.27,3.27,0,0,0,5.9,1.91V237a3.3,3.3,0,0,0-2.63-1.33A3.26,3.26,0,0,0,1087.6,238.94Z"/><path class="cls-2" d="M1108.44,237.77v5.17h-1.08v-1a5.55,5.55,0,0,1-3.58,1.18,2.57,2.57,0,0,1-2.8-2.58c0-1.55,1.21-2.36,3.14-2.36h3.24v-.3c0-1.54-1-2.23-2.48-2.23a4.94,4.94,0,0,0-2.92,1l-.35-.7a6.23,6.23,0,0,1,3.52-1.14C1107,234.78,1108.44,235.67,1108.44,237.77Zm-4,.87c-1.53,0-2.45.6-2.45,1.79a2,2,0,0,0,2.17,2,4.94,4.94,0,0,0,3.15-1v-2.79Z"/><path class="cls-2" d="M1119,237.82v5.12h-1.08V238.1a2.16,2.16,0,0,0-2.27-2.43,5,5,0,0,0-3.36,1.3v6h-1.08v-8h1.08v1.23a5.85,5.85,0,0,1,3.74-1.39A2.78,2.78,0,0,1,1119,237.82Z"/><path class="cls-2" d="M762.53,261.94a4.35,4.35,0,1,1-4.35-4.16A4.25,4.25,0,0,1,762.53,261.94Zm-7.64,0a3.29,3.29,0,1,0,3.29-3.24A3.26,3.26,0,0,0,754.89,261.94Z"/><path class="cls-2" d="M769.49,254.81l-.17.7a2.62,2.62,0,0,0-.91-.17,1.9,1.9,0,0,0-1.94,2v.57h5.3v-.59a2.58,2.58,0,0,1,2.72-2.77,4.47,4.47,0,0,1,1.37.23l-.17.7a2.62,2.62,0,0,0-.91-.17,1.89,1.89,0,0,0-1.93,2v.57h2.69v.84h-2.69v7.16h-1.08v-7.16h-5.3v7.16H765.4v-7.16H764v-.84h1.38v-.59a2.58,2.58,0,0,1,2.72-2.77A4.47,4.47,0,0,1,769.49,254.81Z"/><path class="cls-2" d="M785,261.94v.36h-7.12a3.16,3.16,0,0,0,3.2,3,3.86,3.86,0,0,0,2.72-1.1l.58.53A4.83,4.83,0,0,1,781,266.1a4.16,4.16,0,0,1-.08-8.32A3.94,3.94,0,0,1,785,261.94Zm-7.12-.21H784a3,3,0,0,0-3-3.16A3.11,3.11,0,0,0,777.91,261.73Z"/><path class="cls-2" d="M792.31,258.67a5.22,5.22,0,0,0-3.77,1.68v5.59h-1.08v-8h1.08v1.54a5.29,5.29,0,0,1,3.77-1.7Z"/><path class="cls-2" d="M795.53,255.71a.6.6,0,0,1-.64.56.57.57,0,1,1,.64-.56Zm-1.17,10.23v-8h1.08v8Z"/><path class="cls-2" d="M806.23,260.82v5.12h-1.07V261.1a2.16,2.16,0,0,0-2.27-2.43,5,5,0,0,0-3.36,1.3v6h-1.08v-8h1.08v1.23a5.85,5.85,0,0,1,3.74-1.39A2.77,2.77,0,0,1,806.23,260.82Z"/><path class="cls-2" d="M815.81,259.06v-1.12h1.08v7.21c0,2.79-1.78,4.09-4.18,4.09a6.57,6.57,0,0,1-3.69-1.15l.35-.7a5.5,5.5,0,0,0,3.14,1,3,3,0,0,0,3.3-3.25v-.83a4,4,0,0,1-3.25,1.62,3.92,3.92,0,0,1-3.94-4.05,4,4,0,0,1,3.94-4.11A4.75,4.75,0,0,1,815.81,259.06Zm-6.12,2.83a3.2,3.2,0,0,0,3.21,3.18,3.32,3.32,0,0,0,2.91-1.71v-3.42a4,4,0,0,0-2.91-1.24A3.2,3.2,0,0,0,809.69,261.89Z"/><path class="cls-2" d="M828,257.94v.84h-2.61v4.39a1.92,1.92,0,0,0,2,2.05,2.36,2.36,0,0,0,1.15-.31l.18.76a3.69,3.69,0,0,1-1.69.43,2.58,2.58,0,0,1-2.68-2.77v-4.55H822.8v-.84h1.47v-2.37h1.08v2.37Z"/><path class="cls-2" d="M837.62,260.77v5.17h-1.08v-1A5.55,5.55,0,0,1,833,266.1a2.58,2.58,0,0,1-2.81-2.58c0-1.55,1.21-2.36,3.14-2.36h3.25v-.3c0-1.54-1-2.23-2.49-2.23a4.94,4.94,0,0,0-2.92,1l-.35-.7a6.23,6.23,0,0,1,3.53-1.14C836.21,257.78,837.62,258.67,837.62,260.77Zm-4,.87c-1.53,0-2.44.6-2.44,1.79a2,2,0,0,0,2.16,2,5,5,0,0,0,3.16-1v-2.79Z"/><path class="cls-2" d="M841.47,259.11a4.16,4.16,0,1,1,0,5.66v1.17h-1.08v-11.2h1.08Zm0,.92v3.82a3.24,3.24,0,1,0,0-3.82Z"/><path class="cls-2" d="M851.05,265.94v-11.2h1.08v11.2Z"/><path class="cls-2" d="M862.68,261.94v.36h-7.13a3.17,3.17,0,0,0,3.21,3,3.82,3.82,0,0,0,2.71-1.1l.59.53a4.85,4.85,0,0,1-3.38,1.37,4.16,4.16,0,0,1-.09-8.32A3.94,3.94,0,0,1,862.68,261.94Zm-7.12-.21h6.11a3,3,0,0,0-3.06-3.16A3.11,3.11,0,0,0,855.56,261.73Z"/><path class="cls-2" d="M877.39,261.94a4.35,4.35,0,1,1-4.35-4.16A4.25,4.25,0,0,1,877.39,261.94Zm-7.63,0A3.28,3.28,0,1,0,873,258.7,3.26,3.26,0,0,0,869.76,261.94Z"/><path class="cls-2" d="M884.35,254.81l-.17.7a2.62,2.62,0,0,0-.91-.17,1.89,1.89,0,0,0-1.93,2v.57H884v.84h-2.69v7.16h-1.08v-7.16h-1.38v-.84h1.38v-.59a2.58,2.58,0,0,1,2.72-2.77A4.47,4.47,0,0,1,884.35,254.81Z"/><path class="cls-2" d="M894.72,254.81l-.17.7a2.62,2.62,0,0,0-.91-.17,1.89,1.89,0,0,0-1.94,2v.57h2.7v.84h-2.7v7.16h-1.07v-7.16h-1.38v-.84h1.38v-.59a2.58,2.58,0,0,1,2.72-2.77A4.47,4.47,0,0,1,894.72,254.81Z"/><path class="cls-2" d="M904.41,261.94a4.35,4.35,0,1,1-4.34-4.16A4.25,4.25,0,0,1,904.41,261.94Zm-7.63,0a3.28,3.28,0,1,0,3.28-3.24A3.26,3.26,0,0,0,896.78,261.94Z"/><path class="cls-2" d="M915.21,261.94a4.35,4.35,0,1,1-4.34-4.16A4.25,4.25,0,0,1,915.21,261.94Zm-7.63,0a3.28,3.28,0,1,0,3.28-3.24A3.26,3.26,0,0,0,907.58,261.94Z"/><path class="cls-2" d="M925.36,265.94h-1.07v-1.17a4.16,4.16,0,1,1,0-5.66v-4.37h1.07Zm-7-4a3.28,3.28,0,0,0,5.91,1.91V260a3.28,3.28,0,0,0-5.91,1.91Z"/><path class="cls-2" d="M939.23,260.77v5.17h-1.08v-1a5.55,5.55,0,0,1-3.58,1.18,2.57,2.57,0,0,1-2.8-2.58c0-1.55,1.21-2.36,3.14-2.36h3.24v-.3c0-1.54-1-2.23-2.48-2.23a4.94,4.94,0,0,0-2.92,1l-.35-.7a6.18,6.18,0,0,1,3.52-1.14C937.82,257.78,939.23,258.67,939.23,260.77Zm-4,.87c-1.52,0-2.44.6-2.44,1.79a2,2,0,0,0,2.17,2,4.94,4.94,0,0,0,3.15-1v-2.79Z"/><path class="cls-2" d="M949.78,260.82v5.12H948.7V261.1a2.15,2.15,0,0,0-2.26-2.43,5,5,0,0,0-3.36,1.3v6H942v-8h1.08v1.23a5.85,5.85,0,0,1,3.74-1.39A2.77,2.77,0,0,1,949.78,260.82Z"/><path class="cls-2" d="M960.2,265.94h-1.08v-1.17a4.16,4.16,0,1,1,0-5.66v-4.37h1.08Zm-7-4a3.27,3.27,0,0,0,5.9,1.91V260a3.3,3.3,0,0,0-2.63-1.33A3.26,3.26,0,0,0,953.22,261.94Z"/><path class="cls-2" d="M968.2,259.11a4.16,4.16,0,1,1,0,5.66v1.17h-1.08v-11.2h1.08Zm0,.92v3.82a3.25,3.25,0,1,0,2.63-5.15A3.3,3.3,0,0,0,968.2,260Z"/><path class="cls-2" d="M985.45,261.94v.36h-7.13a3.16,3.16,0,0,0,3.2,3,3.86,3.86,0,0,0,2.72-1.1l.58.53a4.81,4.81,0,0,1-3.38,1.37,4.16,4.16,0,0,1-.08-8.32A3.94,3.94,0,0,1,985.45,261.94Zm-7.13-.21h6.11a3,3,0,0,0-3-3.16A3.11,3.11,0,0,0,978.32,261.73Z"/><path class="cls-2" d="M990.17,265.94l-3.52-8h1.16l3,6.91,3-6.91H995l-3.51,8Z"/><path class="cls-2" d="M1004.23,261.94v.36H997.1a3.17,3.17,0,0,0,3.21,3,3.83,3.83,0,0,0,2.71-1.1l.59.53a4.85,4.85,0,0,1-3.39,1.37,4.16,4.16,0,0,1-.08-8.32A3.94,3.94,0,0,1,1004.23,261.94Zm-7.12-.21h6.11a3,3,0,0,0-3.06-3.16A3.11,3.11,0,0,0,997.11,261.73Z"/><path class="cls-2" d="M1011.51,258.67a5.21,5.21,0,0,0-3.77,1.68v5.59h-1.08v-8h1.08v1.54a5.27,5.27,0,0,1,3.77-1.7Z"/><path class="cls-2" d="M1020.05,260.77v5.17H1019v-1a5.57,5.57,0,0,1-3.58,1.18,2.57,2.57,0,0,1-2.81-2.58c0-1.55,1.21-2.36,3.14-2.36H1019v-.3c0-1.54-1-2.23-2.49-2.23a4.94,4.94,0,0,0-2.92,1l-.35-.7a6.23,6.23,0,0,1,3.53-1.14C1018.64,257.78,1020.05,258.67,1020.05,260.77Zm-4,.87c-1.53,0-2.44.6-2.44,1.79a2,2,0,0,0,2.16,2,5,5,0,0,0,3.16-1v-2.79Z"/><path class="cls-2" d="M1029.61,259.06v-1.12h1.08v7.21c0,2.79-1.78,4.09-4.18,4.09a6.57,6.57,0,0,1-3.69-1.15l.36-.7a5.45,5.45,0,0,0,3.14,1,3,3,0,0,0,3.29-3.25v-.83a4,4,0,0,1-3.25,1.62,3.92,3.92,0,0,1-3.93-4.05,4,4,0,0,1,3.93-4.11A4.75,4.75,0,0,1,1029.61,259.06Zm-6.12,2.83a3.2,3.2,0,0,0,3.22,3.18,3.3,3.3,0,0,0,2.9-1.71v-3.42a4,4,0,0,0-2.9-1.24A3.21,3.21,0,0,0,1023.49,261.89Z"/><path class="cls-2" d="M1041.4,261.94v.36h-7.13a3.16,3.16,0,0,0,3.2,3,3.84,3.84,0,0,0,2.72-1.1l.58.53a4.81,4.81,0,0,1-3.38,1.37,4.16,4.16,0,0,1-.08-8.32A3.94,3.94,0,0,1,1041.4,261.94Zm-7.13-.21h6.11a3,3,0,0,0-3.05-3.16A3.11,3.11,0,0,0,1034.27,261.73Z"/><path class="cls-2" d="M1049.21,255.71a.64.64,0,1,1-.64-.57A.6.6,0,0,1,1049.21,255.71ZM1048,265.94v-8h1.08v8Z"/><path class="cls-2" d="M1056.26,257.94v.84h-2.61v4.39a1.92,1.92,0,0,0,2,2.05,2.39,2.39,0,0,0,1.15-.31l.18.76a3.69,3.69,0,0,1-1.69.43,2.58,2.58,0,0,1-2.68-2.77v-4.55h-1.47v-.84h1.47v-2.37h1.08v2.37Z"/><path class="cls-2" d="M1066.4,261.94v.36h-7.12a3.16,3.16,0,0,0,3.2,3,3.82,3.82,0,0,0,2.71-1.1l.59.53a4.83,4.83,0,0,1-3.38,1.37,4.16,4.16,0,0,1-.08-8.32A3.94,3.94,0,0,1,1066.4,261.94Zm-7.12-.21h6.11a3,3,0,0,0-3.05-3.16A3.11,3.11,0,0,0,1059.28,261.73Z"/><path class="cls-2" d="M1075.81,259.2a5.56,5.56,0,0,1,3.69-1.42,2.74,2.74,0,0,1,2.9,3v5.12h-1.07V261.1a2.14,2.14,0,0,0-2.21-2.43,4.75,4.75,0,0,0-3.14,1.2,4.71,4.71,0,0,1,.18,1.31v4.76h-1.08V261.1a2.14,2.14,0,0,0-2.21-2.43,4.22,4.22,0,0,0-3,1.22v6.05h-1.08v-8h1.08v1.22a5,5,0,0,1,3.39-1.38A2.63,2.63,0,0,1,1075.81,259.2Z"/><path class="cls-2" d="M1090.94,258.63l-.38.68a5.58,5.58,0,0,0-2.78-.78c-1.06,0-2,.43-2,1.43,0,.63.37.94,2,1.36,2.07.56,3.4.82,3.4,2.54,0,1.53-1.44,2.26-3.18,2.24a6.62,6.62,0,0,1-3.59-1l.4-.65a6.14,6.14,0,0,0,3.19.91c1.15,0,2.17-.42,2.17-1.41,0-1.19-.85-1.29-2.64-1.76-1.94-.52-2.75-1-2.75-2.15,0-1.58,1.36-2.26,3-2.26A6.09,6.09,0,0,1,1090.94,258.63Z"/><path class="cls-2" d="M1102.1,254.81l-.16.7a2.66,2.66,0,0,0-.91-.17,1.89,1.89,0,0,0-1.94,2v.57h2.7v.84h-2.7v7.16H1098v-7.16h-1.38v-.84H1098v-.59a2.59,2.59,0,0,1,2.73-2.77A4.41,4.41,0,0,1,1102.1,254.81Z"/><path class="cls-2" d="M1111.8,261.94a4.35,4.35,0,1,1-4.35-4.16A4.25,4.25,0,0,1,1111.8,261.94Zm-7.63,0a3.28,3.28,0,1,0,3.28-3.24A3.26,3.26,0,0,0,1104.17,261.94Z"/><path class="cls-2" d="M1119.17,258.67a5.22,5.22,0,0,0-3.77,1.68v5.59h-1.08v-8h1.08v1.54a5.29,5.29,0,0,1,3.77-1.7Z"/><path class="cls-2" d="M764.16,279.1l-.76.8a4.94,4.94,0,0,0-3.31-1.26,4.71,4.71,0,0,0-4.76,4.7A4.66,4.66,0,0,0,760,288a5.48,5.48,0,0,0,3.53-1.25v-2.7h-3.47v-.86h4.58v4.18A7,7,0,0,1,760,289.1a5.76,5.76,0,1,1,.06-11.52A6.19,6.19,0,0,1,764.16,279.1Z"/><path class="cls-2" d="M768.8,285.78a2.17,2.17,0,0,0,2.27,2.44,5,5,0,0,0,3.36-1.3v-6h1.08v8h-1.08v-1.22a5.89,5.89,0,0,1-3.74,1.38,2.77,2.77,0,0,1-3-3v-5.13h1.07Z"/><path class="cls-2" d="M786.06,284.94v.36h-7.13a3.16,3.16,0,0,0,3.2,3,3.84,3.84,0,0,0,2.72-1.1l.59.53a4.85,4.85,0,0,1-3.39,1.37,4.16,4.16,0,0,1-.08-8.32A3.94,3.94,0,0,1,786.06,284.94Zm-7.13-.21H785a3,3,0,0,0-3-3.16A3.12,3.12,0,0,0,778.93,284.73Z"/><path class="cls-2" d="M794.24,281.63l-.38.68a5.55,5.55,0,0,0-2.78-.78c-1.05,0-2,.43-2,1.43,0,.63.37.94,2,1.36,2.07.56,3.4.82,3.4,2.54,0,1.53-1.44,2.26-3.17,2.24a6.68,6.68,0,0,1-3.6-1l.41-.65a6.11,6.11,0,0,0,3.19.91c1.15,0,2.17-.42,2.17-1.41,0-1.19-.86-1.29-2.64-1.76-1.94-.52-2.76-1-2.76-2.15,0-1.58,1.37-2.26,3-2.26A6.05,6.05,0,0,1,794.24,281.63Z"/><path class="cls-2" d="M801.1,280.94v.84h-2.61v4.39a1.92,1.92,0,0,0,2,2.05,2.39,2.39,0,0,0,1.15-.31l.18.76a3.69,3.69,0,0,1-1.69.43,2.58,2.58,0,0,1-2.68-2.77v-4.55h-1.47v-.84h1.47v-2.37h1.08v2.37Z"/><path class="cls-2" d="M809.92,281.63l-.38.68a5.55,5.55,0,0,0-2.78-.78c-1,0-2,.43-2,1.43,0,.63.37.94,2,1.36,2.07.56,3.4.82,3.4,2.54,0,1.53-1.44,2.26-3.17,2.24a6.68,6.68,0,0,1-3.6-1l.41-.65a6.11,6.11,0,0,0,3.19.91c1.15,0,2.17-.42,2.17-1.41,0-1.19-.86-1.29-2.64-1.76-1.94-.52-2.76-1-2.76-2.15,0-1.58,1.37-2.26,3-2.26A6.05,6.05,0,0,1,809.92,281.63Z"/><path class="cls-2" d="M820.77,280.94v.84h-2.6v4.39a1.92,1.92,0,0,0,2,2.05,2.39,2.39,0,0,0,1.15-.31l.18.76a3.69,3.69,0,0,1-1.69.43,2.58,2.58,0,0,1-2.68-2.77v-4.55h-1.47v-.84h1.47v-2.37h1.08v2.37Z"/><path class="cls-2" d="M831.44,284.94a4.35,4.35,0,1,1-4.34-4.16A4.25,4.25,0,0,1,831.44,284.94Zm-7.63,0a3.28,3.28,0,1,0,3.28-3.24A3.26,3.26,0,0,0,823.81,284.94Z"/><path class="cls-2" d="M844.76,282.06v-1.12h1.07v7.21c0,2.79-1.78,4.09-4.18,4.09a6.56,6.56,0,0,1-3.68-1.15l.35-.7a5.5,5.5,0,0,0,3.14,1,3,3,0,0,0,3.3-3.25v-.83a4,4,0,0,1-3.26,1.62,3.92,3.92,0,0,1-3.93-4.05,4,4,0,0,1,3.93-4.11A4.79,4.79,0,0,1,844.76,282.06Zm-6.12,2.83a3.2,3.2,0,0,0,3.21,3.18,3.33,3.33,0,0,0,2.91-1.71v-3.42a4,4,0,0,0-2.91-1.24A3.2,3.2,0,0,0,838.64,284.89Z"/><path class="cls-2" d="M853.62,281.67a5.24,5.24,0,0,0-3.77,1.68v5.59h-1.07v-8h1.07v1.54a5.31,5.31,0,0,1,3.77-1.7Z"/><path class="cls-2" d="M862.16,283.77v5.17h-1.08v-1a5.52,5.52,0,0,1-3.57,1.18,2.57,2.57,0,0,1-2.81-2.58c0-1.55,1.21-2.36,3.14-2.36h3.24v-.3c0-1.54-1-2.23-2.48-2.23a4.94,4.94,0,0,0-2.92,1l-.35-.7a6.23,6.23,0,0,1,3.52-1.14C860.75,280.78,862.16,281.67,862.16,283.77Zm-3.95.87c-1.53,0-2.45.6-2.45,1.79a2,2,0,0,0,2.17,2,4.94,4.94,0,0,0,3.15-1v-2.79Z"/><path class="cls-2" d="M866,282.11a4.16,4.16,0,1,1,0,5.66v1.17h-1.08v-11.2H866Zm0,.92v3.82a3.24,3.24,0,1,0,0-3.82Z"/><path class="cls-2" d="M887.78,284.94a4.35,4.35,0,1,1-4.35-4.16A4.25,4.25,0,0,1,887.78,284.94Zm-7.64,0a3.28,3.28,0,1,0,3.28-3.24A3.26,3.26,0,0,0,880.14,284.94Z"/><path class="cls-2" d="M898.08,283.82v5.12H897V284.1a2.16,2.16,0,0,0-2.27-2.43,5,5,0,0,0-3.36,1.3v6h-1.08v-8h1.08v1.23a5.85,5.85,0,0,1,3.74-1.39A2.78,2.78,0,0,1,898.08,283.82Z"/><path class="cls-2" d="M909,280.94v.84h-2.6v4.39a1.91,1.91,0,0,0,2,2.05,2.42,2.42,0,0,0,1.15-.31l.18.76a3.7,3.7,0,0,1-1.7.43,2.58,2.58,0,0,1-2.67-2.77v-4.55h-1.47v-.84h1.47v-2.37h1.08v2.37Z"/><path class="cls-2" d="M913.21,282.17a5.85,5.85,0,0,1,3.74-1.39,2.78,2.78,0,0,1,3,3v5.12h-1.08V284.1a2.16,2.16,0,0,0-2.27-2.43,5,5,0,0,0-3.36,1.3v6h-1.08v-11.2h1.08Z"/><path class="cls-2" d="M930.46,284.94v.36h-7.13a3.16,3.16,0,0,0,3.2,3,3.84,3.84,0,0,0,2.72-1.1l.59.53a4.85,4.85,0,0,1-3.39,1.37,4.16,4.16,0,0,1-.08-8.32A3.94,3.94,0,0,1,930.46,284.94Zm-7.12-.21h6.1a3,3,0,0,0-3.05-3.16A3.11,3.11,0,0,0,923.34,284.73Z"/><path class="cls-2" d="M943.68,282.06v-1.12h1.08v7.21c0,2.79-1.78,4.09-4.18,4.09a6.57,6.57,0,0,1-3.69-1.15l.35-.7a5.51,5.51,0,0,0,3.15,1,3,3,0,0,0,3.29-3.25v-.83a4,4,0,0,1-3.25,1.62,3.92,3.92,0,0,1-3.93-4.05,4,4,0,0,1,3.93-4.11A4.75,4.75,0,0,1,943.68,282.06Zm-6.12,2.83a3.2,3.2,0,0,0,3.21,3.18,3.32,3.32,0,0,0,2.91-1.71v-3.42a4,4,0,0,0-2.91-1.24A3.2,3.2,0,0,0,937.56,284.89Z"/><path class="cls-2" d="M956,284.94a4.35,4.35,0,1,1-4.34-4.16A4.25,4.25,0,0,1,956,284.94Zm-7.63,0a3.28,3.28,0,1,0,3.28-3.24A3.26,3.26,0,0,0,948.35,284.94Z"/><path class="cls-2" d="M959.06,288.53a.66.66,0,0,1-1.31,0,.66.66,0,0,1,1.31,0Z"/></g><g id="_32_plus" class="svg-showtip" data-name="32_plus"><circle class="cls-3" cx="1120.98" cy="399.31" r="25"/><line class="cls-4" x1="1106.36" y1="399.31" x2="1135.59" y2="399.31"/><line class="cls-4" x1="1120.98" y1="413.93" x2="1120.98" y2="384.7"/></g></svg>