<svg id="_24_1640x750" data-name="24_1640x750" xmlns="http://www.w3.org/2000/svg" viewBox="0 0 1640 790"><defs><style>.cls-1{fill:#fff;stroke-width:2px;}.cls-1,.cls-3,.cls-4{stroke:#fff;stroke-miterlimit:10;}.cls-2{fill:#231f20;}.cls-3{fill:#06a7e0;stroke-width:1.33px;opacity:0.9;}.cls-4{fill:none;stroke-width:4.67px;}</style></defs><title>10_1640x790</title><g id="_33_tooltip" class="svg-tooltip" data-name="33_tooltip"><path id="tooltip" class="cls-1" d="M423.2,615.51H794.94l23,20,24-20h39.53a3.27,3.27,0,0,0,3.26-3.26V475.78a3.27,3.27,0,0,0-3.26-3.26H423.2a3.27,3.27,0,0,0-3.26,3.26V612.25A3.27,3.27,0,0,0,423.2,615.51Z"/><path class="cls-2" d="M462.79,513.12l-3.12-9.49-3.13,9.49h-1.25l-3.84-11.21h1.28l3.23,9.5,3.1-9.5h1.21l3.1,9.5,3.23-9.5h1.28L464,513.12Z"/><path class="cls-2" d="M476.49,509.12v.35h-7.13a3.19,3.19,0,0,0,3.21,3,3.83,3.83,0,0,0,2.71-1.11l.59.53a4.8,4.8,0,0,1-3.38,1.38,4.17,4.17,0,0,1-4.17-4.16A4.11,4.11,0,0,1,472.4,505,3.93,3.93,0,0,1,476.49,509.12Zm-7.12-.21h6.11a3,3,0,0,0-3.06-3.17A3.12,3.12,0,0,0,469.37,508.91Z"/><path class="cls-2" d="M490.68,509.12v.35h-7.12a3.17,3.17,0,0,0,3.2,3,3.83,3.83,0,0,0,2.71-1.11l.59.53a4.8,4.8,0,0,1-3.38,1.38,4.17,4.17,0,0,1-4.17-4.16A4.12,4.12,0,0,1,486.6,505,3.93,3.93,0,0,1,490.68,509.12Zm-7.12-.21h6.11a3,3,0,0,0-3.06-3.17A3.12,3.12,0,0,0,483.56,508.91Z"/><path class="cls-2" d="M500.89,508v5.13h-1.08v-4.85a2.16,2.16,0,0,0-2.26-2.43,5,5,0,0,0-3.36,1.3v6h-1.08v-8h1.08v1.23a5.85,5.85,0,0,1,3.74-1.38A2.77,2.77,0,0,1,500.89,508Z"/><path class="cls-2" d="M507.54,505a4.31,4.31,0,0,1,3.29,1.51L510,507a3.23,3.23,0,1,0,.09,4.23l.82.48a4.28,4.28,0,0,1-3.38,1.62,4.16,4.16,0,1,1,0-8.32Z"/><path class="cls-2" d="M521.63,509.12a4.35,4.35,0,1,1-4.35-4.16A4.26,4.26,0,0,1,521.63,509.12Zm-7.63,0a3.28,3.28,0,1,0,3.28-3.24A3.26,3.26,0,0,0,514,509.12Z"/><path class="cls-2" d="M525.09,510a2.16,2.16,0,0,0,2.27,2.43,5,5,0,0,0,3.35-1.3v-6h1.08v8h-1.08v-1.23a5.8,5.8,0,0,1-3.73,1.39,2.78,2.78,0,0,1-3-3v-5.13h1.08Z"/><path class="cls-2" d="M539.43,505.84a5.22,5.22,0,0,0-3.77,1.68v5.6h-1.08v-8h1.08v1.54a5.32,5.32,0,0,1,3.77-1.69Z"/><path class="cls-2" d="M548,508v5.17h-1.08v-1a5.5,5.5,0,0,1-3.58,1.19,2.58,2.58,0,0,1-2.81-2.59c0-1.55,1.22-2.35,3.15-2.36h3.24V508c0-1.55-1-2.23-2.49-2.23a4.86,4.86,0,0,0-2.92,1l-.35-.7a6.15,6.15,0,0,1,3.53-1.13C546.56,505,548,505.85,548,508Zm-4,.87c-1.52,0-2.44.6-2.44,1.78a2,2,0,0,0,2.16,2,5,5,0,0,0,3.16-1v-2.79Z"/><path class="cls-2" d="M557.54,506.24v-1.12h1.07v7.2c0,2.8-1.78,4.1-4.18,4.09a6.48,6.48,0,0,1-3.68-1.15l.35-.7a5.59,5.59,0,0,0,3.14,1,3,3,0,0,0,3.29-3.26v-.83a4,4,0,0,1-3.25,1.63,3.93,3.93,0,0,1-3.93-4.06,4,4,0,0,1,3.93-4.11A4.78,4.78,0,0,1,557.54,506.24Zm-6.12,2.82a3.19,3.19,0,0,0,3.21,3.18,3.3,3.3,0,0,0,2.9-1.71v-3.41a4,4,0,0,0-2.9-1.24A3.19,3.19,0,0,0,551.42,509.06Z"/><path class="cls-2" d="M569.32,509.12v.35h-7.13a3.18,3.18,0,0,0,3.21,3,3.84,3.84,0,0,0,2.71-1.11l.59.53a4.82,4.82,0,0,1-3.39,1.38,4.17,4.17,0,0,1-4.17-4.16,4.12,4.12,0,0,1,4.09-4.16A3.93,3.93,0,0,1,569.32,509.12Zm-7.12-.21h6.11a3,3,0,0,0-3.06-3.17A3.12,3.12,0,0,0,562.2,508.91Z"/><path class="cls-2" d="M583.38,513.12H582.3v-1.18a4,4,0,0,1-3,1.34,4.16,4.16,0,1,1,3-7v-4.38h1.08Zm-7-4a3.27,3.27,0,0,0,5.9,1.9V507.2a3.27,3.27,0,0,0-5.9,1.92Z"/><path class="cls-2" d="M594.07,509.12v.35h-7.13a3.19,3.19,0,0,0,3.21,3,3.83,3.83,0,0,0,2.71-1.11l.59.53a4.8,4.8,0,0,1-3.38,1.38,4.17,4.17,0,0,1-4.18-4.16A4.12,4.12,0,0,1,590,505,3.93,3.93,0,0,1,594.07,509.12Zm-7.12-.21h6.11a3,3,0,0,0-3.06-3.17A3.12,3.12,0,0,0,587,508.91Z"/><path class="cls-2" d="M602.26,505.8l-.39.68a5.54,5.54,0,0,0-2.77-.78c-1.06,0-2,.43-2,1.43,0,.63.37.94,2,1.37,2.07.55,3.4.82,3.4,2.54,0,1.52-1.43,2.25-3.17,2.24a6.62,6.62,0,0,1-3.59-1l.4-.65a6,6,0,0,0,3.19.91c1.15,0,2.17-.41,2.17-1.41,0-1.19-.85-1.28-2.64-1.76s-2.76-1-2.76-2.15c0-1.58,1.37-2.25,3-2.25A6.11,6.11,0,0,1,602.26,505.8Z"/><path class="cls-2" d="M606.36,502.88a.6.6,0,0,1-.64.56.57.57,0,1,1,.64-.56Zm-1.17,10.24v-8h1.08v8Z"/><path class="cls-2" d="M616.08,506.24v-1.12h1.08v7.2c0,2.8-1.78,4.1-4.18,4.09a6.49,6.49,0,0,1-3.69-1.15l.35-.7a5.59,5.59,0,0,0,3.14,1,3,3,0,0,0,3.3-3.26v-.83a4,4,0,0,1-3.25,1.63,3.93,3.93,0,0,1-3.94-4.06,4,4,0,0,1,3.94-4.11A4.76,4.76,0,0,1,616.08,506.24ZM610,509.06a3.2,3.2,0,0,0,3.21,3.18,3.32,3.32,0,0,0,2.91-1.71v-3.41a4,4,0,0,0-2.91-1.24A3.2,3.2,0,0,0,610,509.06Z"/><path class="cls-2" d="M627.88,508v5.13H626.8v-4.85a2.16,2.16,0,0,0-2.27-2.43,5,5,0,0,0-3.35,1.3v6H620.1v-8h1.08v1.23a5.85,5.85,0,0,1,3.74-1.38A2.77,2.77,0,0,1,627.88,508Z"/><path class="cls-2" d="M638.42,509.12v.35h-7.13a3.19,3.19,0,0,0,3.21,3,3.83,3.83,0,0,0,2.71-1.11l.59.53a4.8,4.8,0,0,1-3.38,1.38,4.17,4.17,0,0,1-4.17-4.16,4.12,4.12,0,0,1,4.09-4.16A3.93,3.93,0,0,1,638.42,509.12Zm-7.12-.21h6.11a3,3,0,0,0-3.06-3.17A3.12,3.12,0,0,0,631.3,508.91Z"/><path class="cls-2" d="M645.7,505.84a5.22,5.22,0,0,0-3.77,1.68v5.6h-1.08v-8h1.08v1.54A5.32,5.32,0,0,1,645.7,505Z"/><path class="cls-2" d="M653.29,505.8l-.38.68a5.55,5.55,0,0,0-2.78-.78c-1,0-2,.43-2,1.43,0,.63.37.94,2,1.37,2.07.55,3.4.82,3.4,2.54,0,1.52-1.44,2.25-3.17,2.24a6.68,6.68,0,0,1-3.6-1l.41-.65a6,6,0,0,0,3.19.91c1.15,0,2.17-.41,2.17-1.41,0-1.19-.86-1.28-2.64-1.76-1.94-.52-2.76-1-2.76-2.15,0-1.58,1.37-2.25,3-2.25A6,6,0,0,1,653.29,505.8Z"/><path class="cls-2" d="M664.15,505.11V506h-2.61v4.39a1.92,1.92,0,0,0,2,2.05,2.38,2.38,0,0,0,1.15-.3l.18.75a3.83,3.83,0,0,1-1.69.44,2.59,2.59,0,0,1-2.68-2.77V506H659v-.84h1.47v-2.37h1.08v2.37Z"/><path class="cls-2" d="M674.81,509.12a4.35,4.35,0,1,1-4.34-4.16A4.26,4.26,0,0,1,674.81,509.12Zm-7.63,0a3.28,3.28,0,1,0,3.28-3.24A3.26,3.26,0,0,0,667.18,509.12Z"/><path class="cls-2" d="M689,513.12h-1.08v-1.18a4,4,0,0,1-3,1.34,4.16,4.16,0,1,1,3-7v-4.38H689Zm-7-4a3.27,3.27,0,0,0,5.9,1.9V507.2a3.27,3.27,0,0,0-5.9,1.92Z"/><path class="cls-2" d="M693.27,502.88a.6.6,0,0,1-.64.56.57.57,0,1,1,.64-.56Zm-1.17,10.24v-8h1.08v8Z"/><path class="cls-2" d="M702,505.8l-.38.68a5.58,5.58,0,0,0-2.78-.78c-1.06,0-2,.43-2,1.43,0,.63.38.94,2,1.37,2.07.55,3.4.82,3.4,2.54,0,1.52-1.44,2.25-3.17,2.24a6.63,6.63,0,0,1-3.6-1l.4-.65a6,6,0,0,0,3.19.91c1.15,0,2.17-.41,2.17-1.41,0-1.19-.85-1.28-2.63-1.76-2-.52-2.76-1-2.76-2.15,0-1.58,1.36-2.25,3-2.25A6.08,6.08,0,0,1,702,505.8Z"/><path class="cls-2" d="M708.54,505a4.3,4.3,0,0,1,3.29,1.51L711,507a3.23,3.23,0,1,0,.09,4.23l.82.48a4.3,4.3,0,0,1-3.39,1.62,4.16,4.16,0,1,1,0-8.32Z"/><path class="cls-2" d="M722.64,509.12a4.35,4.35,0,1,1-4.35-4.16A4.26,4.26,0,0,1,722.64,509.12Zm-7.64,0a3.28,3.28,0,1,0,3.28-3.24A3.26,3.26,0,0,0,715,509.12Z"/><path class="cls-2" d="M727.13,513.12l-3.52-8h1.16l3,6.91,3-6.91H732l-3.51,8Z"/><path class="cls-2" d="M741.19,509.12v.35h-7.13a3.19,3.19,0,0,0,3.21,3,3.83,3.83,0,0,0,2.71-1.11l.59.53a4.82,4.82,0,0,1-3.39,1.38,4.17,4.17,0,0,1-4.17-4.16A4.12,4.12,0,0,1,737.1,505,3.93,3.93,0,0,1,741.19,509.12Zm-7.12-.21h6.11a3,3,0,0,0-3.06-3.17A3.12,3.12,0,0,0,734.07,508.91Z"/><path class="cls-2" d="M748.47,505.84a5.26,5.26,0,0,0-3.78,1.68v5.6h-1.07v-8h1.07v1.54a5.36,5.36,0,0,1,3.78-1.69Z"/><path class="cls-2" d="M755.69,502.88a.64.64,0,1,1-.64-.57A.6.6,0,0,1,755.69,502.88Zm-1.17,10.24v-8h1.07v8Z"/><path class="cls-2" d="M766.39,508v5.13h-1.08v-4.85a2.16,2.16,0,0,0-2.27-2.43,5,5,0,0,0-3.35,1.3v6h-1.08v-8h1.08v1.23a5.85,5.85,0,0,1,3.74-1.38A2.77,2.77,0,0,1,766.39,508Z"/><path class="cls-2" d="M777,508v5.13h-1.08v-4.85a2.16,2.16,0,0,0-2.27-2.43,5,5,0,0,0-3.35,1.3v6h-1.08v-8h1.08v1.23A5.85,5.85,0,0,1,774,505,2.77,2.77,0,0,1,777,508Z"/><path class="cls-2" d="M788,509.12a4.35,4.35,0,1,1-4.35-4.16A4.26,4.26,0,0,1,788,509.12Zm-7.64,0a3.29,3.29,0,1,0,3.29-3.24A3.26,3.26,0,0,0,780.37,509.12Z"/><path class="cls-2" d="M792.5,513.12l-3.51-8h1.15l3,6.91,3-6.91h1.16l-3.52,8Z"/><path class="cls-2" d="M805.8,508v5.17h-1.08v-1a5.48,5.48,0,0,1-3.58,1.19,2.57,2.57,0,0,1-2.8-2.59c0-1.55,1.21-2.35,3.14-2.36h3.24V508c0-1.55-1-2.23-2.48-2.23a4.86,4.86,0,0,0-2.92,1l-.35-.7a6.14,6.14,0,0,1,3.52-1.13C804.39,505,805.8,505.85,805.8,508Zm-3.95.87c-1.53,0-2.45.6-2.45,1.78a2,2,0,0,0,2.17,2,5,5,0,0,0,3.15-1v-2.79Z"/><path class="cls-2" d="M812.7,505.11V506h-2.6v4.39a1.91,1.91,0,0,0,2,2.05,2.41,2.41,0,0,0,1.15-.3l.18.75a3.84,3.84,0,0,1-1.7.44,2.59,2.59,0,0,1-2.67-2.77V506h-1.47v-.84H809v-2.37h1.08v2.37Z"/><path class="cls-2" d="M817.16,502.88a.64.64,0,1,1-.64-.57A.6.6,0,0,1,817.16,502.88ZM816,513.12v-8h1.07v8Z"/><path class="cls-2" d="M822.52,513.12l-3.52-8h1.16l3,6.91,3-6.91h1.15l-3.51,8Z"/><path class="cls-2" d="M836.58,509.12v.35h-7.13a3.18,3.18,0,0,0,3.2,3,3.85,3.85,0,0,0,2.72-1.11l.59.53a4.82,4.82,0,0,1-3.39,1.38,4.17,4.17,0,0,1-4.17-4.16,4.12,4.12,0,0,1,4.09-4.16A3.93,3.93,0,0,1,836.58,509.12Zm-7.13-.21h6.11a3,3,0,0,0-3-3.17A3.13,3.13,0,0,0,829.45,508.91Z"/><path class="cls-2" d="M458,528.8l-.38.68a5.55,5.55,0,0,0-2.78-.78c-1,0-1.95.43-1.95,1.43,0,.63.37.94,2,1.37,2.07.55,3.4.82,3.4,2.54,0,1.52-1.44,2.25-3.17,2.24a6.68,6.68,0,0,1-3.6-1l.41-.65a6,6,0,0,0,3.19.91c1.15,0,2.17-.41,2.17-1.41,0-1.19-.86-1.28-2.64-1.76-1.94-.52-2.76-1-2.76-2.15,0-1.58,1.37-2.25,3-2.25A6,6,0,0,1,458,528.8Z"/><path class="cls-2" d="M469,532.12a4.35,4.35,0,1,1-4.35-4.16A4.26,4.26,0,0,1,469,532.12Zm-7.64,0a3.29,3.29,0,1,0,3.29-3.24A3.26,3.26,0,0,0,461.37,532.12Z"/><path class="cls-2" d="M471.63,536.12V524.91h1.08v11.21Z"/><path class="cls-2" d="M476.44,533a2.16,2.16,0,0,0,2.26,2.43,5,5,0,0,0,3.36-1.3v-6h1.08v8h-1.08v-1.23a5.81,5.81,0,0,1-3.74,1.39,2.77,2.77,0,0,1-3-3v-5.13h1.08Z"/><path class="cls-2" d="M490.05,528.11V529h-2.6v4.39a1.92,1.92,0,0,0,2,2,2.38,2.38,0,0,0,1.15-.3l.18.75a3.84,3.84,0,0,1-1.7.44,2.59,2.59,0,0,1-2.67-2.77V529H484.9v-.84h1.47v-2.37h1.08v2.37Z"/><path class="cls-2" d="M494.51,525.88a.6.6,0,0,1-.64.56.57.57,0,1,1,.64-.56Zm-1.17,10.24v-8h1.08v8Z"/><path class="cls-2" d="M505.71,532.12a4.35,4.35,0,1,1-4.34-4.16A4.26,4.26,0,0,1,505.71,532.12Zm-7.63,0a3.28,3.28,0,1,0,3.28-3.24A3.26,3.26,0,0,0,498.08,532.12Z"/><path class="cls-2" d="M516,531v5.13h-1.08v-4.85a2.16,2.16,0,0,0-2.26-2.43,5,5,0,0,0-3.36,1.3v6h-1.08v-8h1.08v1.23a5.85,5.85,0,0,1,3.74-1.38A2.77,2.77,0,0,1,516,531Z"/><path class="cls-2" d="M524.55,528.8l-.38.68a5.58,5.58,0,0,0-2.78-.78c-1.06,0-2,.43-2,1.43,0,.63.37.94,2,1.37,2.07.55,3.41.82,3.41,2.54,0,1.52-1.44,2.25-3.18,2.24a6.62,6.62,0,0,1-3.59-1l.4-.65a6,6,0,0,0,3.19.91c1.15,0,2.17-.41,2.17-1.41,0-1.19-.85-1.28-2.64-1.76s-2.75-1-2.75-2.15c0-1.58,1.36-2.25,3-2.25A6.11,6.11,0,0,1,524.55,528.8Z"/><path class="cls-2" d="M535.71,525l-.16.69a2.72,2.72,0,0,0-.92-.17,1.89,1.89,0,0,0-1.93,2v.56h2.7V529h-2.7v7.17h-1.08V529h-1.38v-.84h1.38v-.59a2.59,2.59,0,0,1,2.73-2.77A4.19,4.19,0,0,1,535.71,525Z"/><path class="cls-2" d="M545.41,532.12a4.35,4.35,0,1,1-4.35-4.16A4.26,4.26,0,0,1,545.41,532.12Zm-7.64,0a3.29,3.29,0,1,0,3.29-3.24A3.26,3.26,0,0,0,537.77,532.12Z"/><path class="cls-2" d="M552.77,528.84a5.2,5.2,0,0,0-3.76,1.68v5.6h-1.08v-8H549v1.54a5.3,5.3,0,0,1,3.76-1.69Z"/><path class="cls-2" d="M564.37,528.8l-.38.68a5.58,5.58,0,0,0-2.78-.78c-1.06,0-2,.43-2,1.43,0,.63.37.94,2,1.37,2.07.55,3.4.82,3.4,2.54,0,1.52-1.44,2.25-3.17,2.24a6.63,6.63,0,0,1-3.6-1l.4-.65a6,6,0,0,0,3.19.91c1.15,0,2.17-.41,2.17-1.41,0-1.19-.85-1.28-2.63-1.76-1.94-.52-2.76-1-2.76-2.15,0-1.58,1.36-2.25,3-2.25A6.08,6.08,0,0,1,564.37,528.8Z"/><path class="cls-2" d="M575.22,532.12a4,4,0,0,1-4,4.16,4,4,0,0,1-3-1.34v4.3h-1.08V528.11h1.08v1.18a4,4,0,0,1,7,2.83Zm-7-1.92V534a3.23,3.23,0,1,0,0-3.82Z"/><path class="cls-2" d="M584.66,531v5.17h-1.08v-1a5.5,5.5,0,0,1-3.58,1.19,2.58,2.58,0,0,1-2.81-2.59c0-1.55,1.22-2.35,3.15-2.36h3.24V531c0-1.55-1-2.23-2.49-2.23a4.86,4.86,0,0,0-2.92,1l-.35-.7a6.15,6.15,0,0,1,3.53-1.13C583.25,528,584.66,528.85,584.66,531Zm-4,.87c-1.52,0-2.44.6-2.44,1.78a2,2,0,0,0,2.16,2,5,5,0,0,0,3.16-1v-2.79Z"/><path class="cls-2" d="M591.56,528.11V529H589v4.39a1.92,1.92,0,0,0,2,2,2.38,2.38,0,0,0,1.15-.3l.18.75a3.83,3.83,0,0,1-1.69.44,2.59,2.59,0,0,1-2.67-2.77V529H586.4v-.84h1.48v-2.37H589v2.37Z"/><path class="cls-2" d="M596,525.88a.65.65,0,1,1-.65-.57A.61.61,0,0,1,596,525.88Zm-1.18,10.24v-8h1.08v8Z"/><path class="cls-2" d="M605.87,531v5.17h-1.08v-1a5.48,5.48,0,0,1-3.58,1.19,2.57,2.57,0,0,1-2.8-2.59c0-1.55,1.21-2.35,3.14-2.36h3.24V531c0-1.55-1-2.23-2.48-2.23a4.86,4.86,0,0,0-2.92,1l-.35-.7a6.14,6.14,0,0,1,3.52-1.13C604.46,528,605.87,528.85,605.87,531Zm-4,.87c-1.53,0-2.45.6-2.45,1.78a2,2,0,0,0,2.17,2,5,5,0,0,0,3.15-1v-2.79Z"/><path class="cls-2" d="M608.75,536.12V524.91h1.08v11.21Z"/><path class="cls-2" d="M620.74,528.11V529h-2.6v4.39a1.91,1.91,0,0,0,2,2,2.41,2.41,0,0,0,1.15-.3l.18.75a3.84,3.84,0,0,1-1.7.44,2.59,2.59,0,0,1-2.67-2.77V529h-1.48v-.84h1.48v-2.37h1.08v2.37Z"/><path class="cls-2" d="M628.66,528.84a5.24,5.24,0,0,0-3.77,1.68v5.6h-1.08v-8h1.08v1.54a5.32,5.32,0,0,1,3.77-1.69Z"/><path class="cls-2" d="M637.2,531v5.17h-1.08v-1a5.5,5.5,0,0,1-3.58,1.19,2.58,2.58,0,0,1-2.81-2.59c0-1.55,1.22-2.35,3.15-2.36h3.24V531c0-1.55-1-2.23-2.49-2.23a4.86,4.86,0,0,0-2.91,1l-.35-.7a6.1,6.1,0,0,1,3.52-1.13C635.79,528,637.2,528.85,637.2,531Zm-4,.87c-1.52,0-2.44.6-2.44,1.78a2,2,0,0,0,2.16,2,5,5,0,0,0,3.16-1v-2.79Z"/><path class="cls-2" d="M647.76,531v5.13h-1.08v-4.85a2.16,2.16,0,0,0-2.27-2.43,5,5,0,0,0-3.36,1.3v6H640v-8h1.08v1.23a5.89,5.89,0,0,1,3.74-1.38A2.77,2.77,0,0,1,647.76,531Z"/><path class="cls-2" d="M656.29,528.8l-.38.68a5.58,5.58,0,0,0-2.78-.78c-1.06,0-2,.43-2,1.43,0,.63.37.94,2,1.37,2.07.55,3.4.82,3.4,2.54,0,1.52-1.44,2.25-3.18,2.24a6.62,6.62,0,0,1-3.59-1l.4-.65a6,6,0,0,0,3.19.91c1.15,0,2.17-.41,2.17-1.41,0-1.19-.85-1.28-2.64-1.76s-2.75-1-2.75-2.15c0-1.58,1.36-2.25,3-2.25A6.08,6.08,0,0,1,656.29,528.8Z"/><path class="cls-2" d="M660.4,525.88a.65.65,0,1,1-.64-.57A.61.61,0,0,1,660.4,525.88Zm-1.18,10.24v-8h1.08v8Z"/><path class="cls-2" d="M667.44,528.11V529h-2.6v4.39a1.92,1.92,0,0,0,2,2,2.38,2.38,0,0,0,1.15-.3l.18.75a3.84,3.84,0,0,1-1.7.44,2.59,2.59,0,0,1-2.67-2.77V529h-1.47v-.84h1.47v-2.37h1.08v2.37Z"/><path class="cls-2" d="M671.9,525.88a.64.64,0,1,1-.64-.57A.6.6,0,0,1,671.9,525.88Zm-1.17,10.24v-8h1.08v8Z"/><path class="cls-2" d="M683.1,532.12a4.35,4.35,0,1,1-4.34-4.16A4.26,4.26,0,0,1,683.1,532.12Zm-7.63,0a3.28,3.28,0,1,0,3.28-3.24A3.26,3.26,0,0,0,675.47,532.12Z"/><path class="cls-2" d="M693.4,531v5.13h-1.08v-4.85a2.16,2.16,0,0,0-2.26-2.43,5,5,0,0,0-3.36,1.3v6h-1.08v-8h1.08v1.23a5.85,5.85,0,0,1,3.74-1.38A2.77,2.77,0,0,1,693.4,531Z"/><path class="cls-2" d="M701.94,528.8l-.38.68a5.58,5.58,0,0,0-2.78-.78c-1.06,0-2,.43-2,1.43,0,.63.37.94,2,1.37,2.07.55,3.41.82,3.41,2.54,0,1.52-1.44,2.25-3.18,2.24a6.62,6.62,0,0,1-3.59-1l.4-.65a6,6,0,0,0,3.19.91c1.15,0,2.17-.41,2.17-1.41,0-1.19-.85-1.28-2.64-1.76s-2.75-1-2.75-2.15c0-1.58,1.36-2.25,3-2.25A6.11,6.11,0,0,1,701.94,528.8Z"/><path class="cls-2" d="M705.22,535.71a.67.67,0,0,1-1.32,0,.66.66,0,0,1,1.32,0Z"/><path class="cls-2" d="M715.65,525.91v10.21h-1.16V525.91H710.6v-1h8.95v1Z"/><path class="cls-2" d="M724.92,528.84a5.21,5.21,0,0,0-3.77,1.68v5.6h-1.08v-8h1.08v1.54a5.3,5.3,0,0,1,3.77-1.69Z"/><path class="cls-2" d="M733.45,531v5.17h-1.08v-1a5.48,5.48,0,0,1-3.57,1.19,2.58,2.58,0,0,1-2.81-2.59c0-1.55,1.21-2.35,3.14-2.36h3.24V531c0-1.55-1-2.23-2.48-2.23a4.86,4.86,0,0,0-2.92,1l-.35-.7a6.14,6.14,0,0,1,3.52-1.13C732,528,733.45,528.85,733.45,531Zm-4,.87c-1.53,0-2.45.6-2.45,1.78a2,2,0,0,0,2.17,2,5,5,0,0,0,3.15-1v-2.79Z"/><path class="cls-2" d="M744,531v5.13h-1.08v-4.85a2.16,2.16,0,0,0-2.27-2.43,5,5,0,0,0-3.35,1.3v6h-1.08v-8h1.08v1.23A5.85,5.85,0,0,1,741,528,2.77,2.77,0,0,1,744,531Z"/><path class="cls-2" d="M752.54,528.8l-.38.68a5.58,5.58,0,0,0-2.78-.78c-1,0-2,.43-2,1.43,0,.63.37.94,2,1.37,2.07.55,3.4.82,3.4,2.54,0,1.52-1.44,2.25-3.17,2.24a6.68,6.68,0,0,1-3.6-1l.41-.65a6,6,0,0,0,3.18.91c1.15,0,2.17-.41,2.17-1.41,0-1.19-.85-1.28-2.63-1.76-1.94-.52-2.76-1-2.76-2.15,0-1.58,1.37-2.25,3-2.25A6,6,0,0,1,752.54,528.8Z"/><path class="cls-2" d="M756.65,525.88a.64.64,0,1,1-.64-.57A.6.6,0,0,1,756.65,525.88Zm-1.17,10.24v-8h1.08v8Z"/><path class="cls-2" d="M763.7,528.11V529h-2.6v4.39a1.91,1.91,0,0,0,1.95,2,2.35,2.35,0,0,0,1.15-.3l.18.75a3.83,3.83,0,0,1-1.69.44,2.59,2.59,0,0,1-2.67-2.77V529h-1.48v-.84H760v-2.37h1.08v2.37Z"/><path class="cls-2" d="M768.16,525.88a.65.65,0,1,1-.64-.57A.61.61,0,0,1,768.16,525.88ZM767,536.12v-8h1.08v8Z"/><path class="cls-2" d="M779.36,532.12A4.35,4.35,0,1,1,775,528,4.26,4.26,0,0,1,779.36,532.12Zm-7.64,0a3.28,3.28,0,1,0,3.28-3.24A3.26,3.26,0,0,0,771.72,532.12Z"/><path class="cls-2" d="M789.66,531v5.13h-1.08v-4.85a2.16,2.16,0,0,0-2.27-2.43,5,5,0,0,0-3.36,1.3v6h-1.08v-8H783v1.23a5.89,5.89,0,0,1,3.74-1.38A2.77,2.77,0,0,1,789.66,531Z"/><path class="cls-2" d="M798.19,528.8l-.38.68a5.58,5.58,0,0,0-2.78-.78c-1.06,0-1.95.43-1.95,1.43,0,.63.37.94,2,1.37,2.07.55,3.4.82,3.4,2.54,0,1.52-1.44,2.25-3.17,2.24a6.63,6.63,0,0,1-3.6-1l.41-.65a6,6,0,0,0,3.18.91c1.15,0,2.17-.41,2.17-1.41,0-1.19-.85-1.28-2.63-1.76-1.94-.52-2.76-1-2.76-2.15,0-1.58,1.37-2.25,3-2.25A6.06,6.06,0,0,1,798.19,528.8Z"/><path class="cls-2" d="M809.35,525l-.16.69a2.66,2.66,0,0,0-.91-.17,1.9,1.9,0,0,0-1.94,2v.56H809V529h-2.7v7.17h-1.08V529h-1.38v-.84h1.38v-.59a2.59,2.59,0,0,1,2.73-2.77A4.14,4.14,0,0,1,809.35,525Z"/><path class="cls-2" d="M816.13,528.84a5.22,5.22,0,0,0-3.77,1.68v5.6h-1.08v-8h1.08v1.54a5.32,5.32,0,0,1,3.77-1.69Z"/><path class="cls-2" d="M825.92,532.12a4.35,4.35,0,1,1-4.35-4.16A4.26,4.26,0,0,1,825.92,532.12Zm-7.64,0a3.28,3.28,0,1,0,3.28-3.24A3.26,3.26,0,0,0,818.28,532.12Z"/><path class="cls-2" d="M835.42,529.37a5.51,5.51,0,0,1,3.69-1.41,2.74,2.74,0,0,1,2.9,3v5.13h-1.08v-4.84a2.14,2.14,0,0,0-2.2-2.44,4.74,4.74,0,0,0-3.15,1.21,4.32,4.32,0,0,1,.18,1.31v4.76h-1.08v-4.85a2.14,2.14,0,0,0-2.2-2.43,4.29,4.29,0,0,0-3,1.22v6.06h-1.08v-8h1.08v1.23a4.93,4.93,0,0,1,3.4-1.38A2.66,2.66,0,0,1,835.42,529.37Z"/><path class="cls-2" d="M459.88,559.12H458.8v-1.18a4,4,0,0,1-3,1.34,4.16,4.16,0,1,1,3-7v-4.38h1.08Zm-7-4a3.27,3.27,0,0,0,5.9,1.9V553.2a3.27,3.27,0,0,0-5.9,1.92Z"/><path class="cls-2" d="M469.75,554v5.17h-1.08v-1a5.5,5.5,0,0,1-3.58,1.19,2.58,2.58,0,0,1-2.81-2.59c0-1.55,1.21-2.35,3.15-2.36h3.24V554c0-1.55-1-2.23-2.49-2.23a4.86,4.86,0,0,0-2.92,1l-.35-.7a6.15,6.15,0,0,1,3.53-1.13C468.34,551,469.75,551.85,469.75,554Zm-4,.87c-1.52,0-2.44.6-2.44,1.78a2,2,0,0,0,2.16,2,5,5,0,0,0,3.16-1v-2.79Z"/><path class="cls-2" d="M475.86,559.94c-.81,1.91-1.78,2.45-2.95,2.46a4.52,4.52,0,0,1-1.56-.32l.31-.73a2.92,2.92,0,0,0,1.16.23c.81,0,1.45-.42,2.09-1.82l.18-.39-3.67-8.26h1.14l3,6.91,2.9-6.9h1.12Z"/><path class="cls-2" d="M485.57,551.11V552H483v4.39a1.92,1.92,0,0,0,2,2,2.38,2.38,0,0,0,1.15-.3l.18.75a3.84,3.84,0,0,1-1.7.44,2.59,2.59,0,0,1-2.67-2.77V552h-1.47v-.84h1.47v-2.37H483v2.37Z"/><path class="cls-2" d="M490,548.88a.64.64,0,1,1-.64-.57A.6.6,0,0,1,490,548.88Zm-1.17,10.24v-8h1.07v8Z"/><path class="cls-2" d="M499.93,552.37a5.55,5.55,0,0,1,3.69-1.41,2.74,2.74,0,0,1,2.9,3v5.13h-1.08v-4.84a2.14,2.14,0,0,0-2.2-2.44,4.71,4.71,0,0,0-3.14,1.21,4.66,4.66,0,0,1,.18,1.31v4.76H499.2v-4.85a2.14,2.14,0,0,0-2.21-2.43,4.27,4.27,0,0,0-3,1.22v6.06H493v-8H494v1.23a4.93,4.93,0,0,1,3.39-1.38A2.65,2.65,0,0,1,499.93,552.37Z"/><path class="cls-2" d="M517.07,555.12v.35h-7.13a3.18,3.18,0,0,0,3.2,3,3.85,3.85,0,0,0,2.72-1.11l.58.53a4.8,4.8,0,0,1-3.38,1.38,4.17,4.17,0,0,1-4.17-4.16A4.12,4.12,0,0,1,513,551,3.94,3.94,0,0,1,517.07,555.12Zm-7.13-.21h6.11a3,3,0,0,0-3-3.17A3.12,3.12,0,0,0,509.94,554.91Z"/><path class="cls-2" d="M527.62,551.11V552H525v4.39a1.91,1.91,0,0,0,2,2,2.35,2.35,0,0,0,1.15-.3l.19.75a3.87,3.87,0,0,1-1.7.44,2.59,2.59,0,0,1-2.67-2.77V552h-1.48v-.84h1.48v-2.37H525v2.37Z"/><path class="cls-2" d="M538.29,555.12a4.35,4.35,0,1,1-4.35-4.16A4.26,4.26,0,0,1,538.29,555.12Zm-7.64,0a3.28,3.28,0,1,0,3.28-3.24A3.26,3.26,0,0,0,530.65,555.12Z"/><path class="cls-2" d="M552.57,555.12v.35h-7.13a3.18,3.18,0,0,0,3.2,3,3.85,3.85,0,0,0,2.72-1.11l.59.53a4.82,4.82,0,0,1-3.39,1.38,4.17,4.17,0,0,1-4.17-4.16,4.12,4.12,0,0,1,4.09-4.16A3.93,3.93,0,0,1,552.57,555.12Zm-7.13-.21h6.11a3,3,0,0,0-3-3.17A3.13,3.13,0,0,0,545.44,554.91Z"/><path class="cls-2" d="M557.29,559.12l-3.51-8h1.15l3,6.91,3-6.91h1.16l-3.52,8Z"/><path class="cls-2" d="M571.35,555.12v.35h-7.12a3.17,3.17,0,0,0,3.2,3,3.83,3.83,0,0,0,2.71-1.11l.59.53a4.8,4.8,0,0,1-3.38,1.38,4.17,4.17,0,0,1-4.17-4.16,4.12,4.12,0,0,1,4.09-4.16A3.93,3.93,0,0,1,571.35,555.12Zm-7.12-.21h6.11a3,3,0,0,0-3.06-3.17A3.12,3.12,0,0,0,564.23,554.91Z"/><path class="cls-2" d="M581.56,554v5.13h-1.08v-4.85a2.16,2.16,0,0,0-2.26-2.43,5,5,0,0,0-3.36,1.3v6h-1.08v-8h1.08v1.23A5.85,5.85,0,0,1,578.6,551,2.77,2.77,0,0,1,581.56,554Z"/><path class="cls-2" d="M585.73,548.88a.65.65,0,1,1-.64-.57A.61.61,0,0,1,585.73,548.88Zm-1.18,10.24v-8h1.08v8Z"/><path class="cls-2" d="M596.43,554v5.13h-1.08v-4.85a2.16,2.16,0,0,0-2.27-2.43,5,5,0,0,0-3.36,1.3v6h-1.08v-8h1.08v1.23a5.89,5.89,0,0,1,3.74-1.38A2.77,2.77,0,0,1,596.43,554Z"/><path class="cls-2" d="M606,552.24v-1.12h1.08v7.2c0,2.8-1.78,4.1-4.18,4.09a6.49,6.49,0,0,1-3.69-1.15l.35-.7a5.59,5.59,0,0,0,3.14,1,3,3,0,0,0,3.3-3.26v-.83a4,4,0,0,1-3.25,1.63,3.93,3.93,0,0,1-3.94-4.06,4,4,0,0,1,3.94-4.11A4.76,4.76,0,0,1,606,552.24Zm-6.12,2.82a3.2,3.2,0,0,0,3.21,3.18,3.32,3.32,0,0,0,2.91-1.71v-3.41a4,4,0,0,0-2.91-1.24A3.2,3.2,0,0,0,599.88,555.06Z"/><path class="cls-2" d="M619.77,551.8l-.38.68a5.55,5.55,0,0,0-2.78-.78c-1.05,0-2,.43-2,1.43,0,.63.37.94,2,1.37,2.07.55,3.4.82,3.4,2.54,0,1.52-1.44,2.25-3.17,2.24a6.68,6.68,0,0,1-3.6-1l.41-.65a6,6,0,0,0,3.19.91c1.15,0,2.17-.41,2.17-1.41,0-1.19-.86-1.28-2.64-1.76-1.94-.52-2.76-1-2.76-2.15,0-1.58,1.37-2.25,3-2.25A6,6,0,0,1,619.77,551.8Z"/><path class="cls-2" d="M623.66,552.34A5.85,5.85,0,0,1,627.4,551a2.77,2.77,0,0,1,3,3v5.13h-1.08v-4.85a2.16,2.16,0,0,0-2.26-2.43,5,5,0,0,0-3.36,1.3v6h-1.08V547.91h1.08Z"/><path class="cls-2" d="M641.42,555.12a4.35,4.35,0,1,1-4.34-4.16A4.26,4.26,0,0,1,641.42,555.12Zm-7.63,0a3.28,3.28,0,1,0,3.28-3.24A3.26,3.26,0,0,0,633.79,555.12Z"/><path class="cls-2" d="M644.88,556a2.16,2.16,0,0,0,2.27,2.43,5,5,0,0,0,3.35-1.3v-6h1.08v8H650.5v-1.23a5.8,5.8,0,0,1-3.73,1.39,2.78,2.78,0,0,1-3-3v-5.13h1.08Z"/><path class="cls-2" d="M654.47,559.12V547.91h1.08v11.21Z"/><path class="cls-2" d="M666,559.12h-1.08v-1.18a4,4,0,0,1-3,1.34,4.16,4.16,0,1,1,3-7v-4.38H666Zm-7-4a3.27,3.27,0,0,0,5.9,1.9V553.2a3.27,3.27,0,0,0-5.9,1.92Z"/><path class="cls-2" d="M674,552.29a4.09,4.09,0,1,1,3,7,4,4,0,0,1-3-1.34v1.18H672.9V547.91H674Zm0,.91V557a3.23,3.23,0,1,0,0-3.82Z"/><path class="cls-2" d="M691.22,555.12v.35H684.1a3.17,3.17,0,0,0,3.2,3,3.83,3.83,0,0,0,2.71-1.11l.59.53a4.8,4.8,0,0,1-3.38,1.38,4.17,4.17,0,0,1-4.17-4.16,4.11,4.11,0,0,1,4.08-4.16A3.93,3.93,0,0,1,691.22,555.12Zm-7.12-.21h6.11a3,3,0,0,0-3.06-3.17A3.12,3.12,0,0,0,684.1,554.91Z"/><path class="cls-2" d="M698.73,552.29a4.09,4.09,0,1,1,3,7,4,4,0,0,1-3-1.34v1.18h-1.08V547.91h1.08Zm0,.91V557a3.23,3.23,0,1,0,0-3.82Z"/><path class="cls-2" d="M716.49,555.12a4.35,4.35,0,1,1-4.34-4.16A4.26,4.26,0,0,1,716.49,555.12Zm-7.63,0a3.28,3.28,0,1,0,3.28-3.24A3.26,3.26,0,0,0,708.86,555.12Z"/><path class="cls-2" d="M723.14,551.11V552h-2.61v4.39a1.92,1.92,0,0,0,2,2,2.38,2.38,0,0,0,1.15-.3l.18.75a3.83,3.83,0,0,1-1.69.44,2.59,2.59,0,0,1-2.68-2.77V552H718v-.84h1.47v-2.37h1.08v2.37Z"/><path class="cls-2" d="M727.37,552.34a5.85,5.85,0,0,1,3.74-1.38,2.77,2.77,0,0,1,3,3v5.13H733v-4.85a2.16,2.16,0,0,0-2.26-2.43,5,5,0,0,0-3.36,1.3v6h-1.08V547.91h1.08Z"/><path class="cls-2" d="M745.29,548l-.17.69a2.62,2.62,0,0,0-.91-.17,1.89,1.89,0,0,0-1.93,2v.56H745V552h-2.7v7.17H741.2V552h-1.38v-.84h1.38v-.59a2.58,2.58,0,0,1,2.72-2.77A4.2,4.2,0,0,1,745.29,548Z"/><path class="cls-2" d="M748.16,556a2.16,2.16,0,0,0,2.27,2.43,5,5,0,0,0,3.35-1.3v-6h1.08v8h-1.08v-1.23a5.81,5.81,0,0,1-3.74,1.39,2.77,2.77,0,0,1-3-3v-5.13h1.08Z"/><path class="cls-2" d="M765.43,554v5.13h-1.08v-4.85a2.16,2.16,0,0,0-2.26-2.43,5,5,0,0,0-3.36,1.3v6h-1.08v-8h1.08v1.23a5.85,5.85,0,0,1,3.74-1.38A2.77,2.77,0,0,1,765.43,554Z"/><path class="cls-2" d="M772.08,551a4.31,4.31,0,0,1,3.29,1.51l-.82.49a3.23,3.23,0,1,0,.09,4.23l.82.48a4.29,4.29,0,0,1-3.38,1.62,4.16,4.16,0,1,1,0-8.32Z"/><path class="cls-2" d="M782,551.11V552h-2.61v4.39a1.92,1.92,0,0,0,2,2,2.38,2.38,0,0,0,1.15-.3l.18.75a3.83,3.83,0,0,1-1.69.44,2.59,2.59,0,0,1-2.68-2.77V552h-1.47v-.84h1.47v-2.37h1.08v2.37Z"/><path class="cls-2" d="M786.47,548.88a.6.6,0,0,1-.64.56.57.57,0,1,1,.64-.56Zm-1.17,10.24v-8h1.08v8Z"/><path class="cls-2" d="M797.67,555.12a4.35,4.35,0,1,1-4.34-4.16A4.26,4.26,0,0,1,797.67,555.12Zm-7.63,0a3.28,3.28,0,1,0,3.28-3.24A3.26,3.26,0,0,0,790,555.12Z"/><path class="cls-2" d="M808,554v5.13h-1.08v-4.85a2.16,2.16,0,0,0-2.26-2.43,5,5,0,0,0-3.36,1.3v6h-1.08v-8h1.08v1.23A5.89,5.89,0,0,1,805,551,2.77,2.77,0,0,1,808,554Z"/><path class="cls-2" d="M817.69,554v5.17h-1.08v-1a5.5,5.5,0,0,1-3.58,1.19,2.58,2.58,0,0,1-2.81-2.59c0-1.55,1.22-2.35,3.15-2.36h3.24V554c0-1.55-1-2.23-2.49-2.23a4.86,4.86,0,0,0-2.91,1l-.35-.7a6.1,6.1,0,0,1,3.52-1.13C816.28,551,817.69,551.85,817.69,554Zm-4,.87c-1.52,0-2.44.6-2.44,1.78a2,2,0,0,0,2.16,2,5,5,0,0,0,3.16-1v-2.79Z"/><path class="cls-2" d="M820.57,559.12V547.91h1.07v11.21Z"/><path class="cls-2" d="M459.19,577v5.17h-1.08v-1a5.5,5.5,0,0,1-3.58,1.19,2.58,2.58,0,0,1-2.81-2.59c0-1.55,1.21-2.35,3.14-2.36h3.25V577c0-1.55-1-2.23-2.49-2.23a4.86,4.86,0,0,0-2.92,1l-.35-.7a6.15,6.15,0,0,1,3.53-1.13C457.78,574,459.19,574.85,459.19,577Zm-4,.87c-1.53,0-2.44.6-2.44,1.78a2,2,0,0,0,2.16,2,5,5,0,0,0,3.16-1v-2.79Z"/><path class="cls-2" d="M469.74,577v5.13h-1.08v-4.85a2.16,2.16,0,0,0-2.27-2.43,5,5,0,0,0-3.35,1.3v6H462v-8H463v1.23a5.85,5.85,0,0,1,3.73-1.38A2.77,2.77,0,0,1,469.74,577Z"/><path class="cls-2" d="M480.15,582.12h-1.08v-1.18a4,4,0,0,1-3,1.34,4.16,4.16,0,1,1,3-7v-4.38h1.08Zm-7-4a3.27,3.27,0,0,0,5.9,1.9V576.2a3.27,3.27,0,0,0-5.9,1.92Z"/><path class="cls-2" d="M494.84,578.12v.35h-7.13a3.19,3.19,0,0,0,3.21,3,3.83,3.83,0,0,0,2.71-1.11l.59.53a4.8,4.8,0,0,1-3.38,1.38,4.17,4.17,0,0,1-4.17-4.16,4.12,4.12,0,0,1,4.09-4.16A3.93,3.93,0,0,1,494.84,578.12Zm-7.12-.21h6.11a3,3,0,0,0-3.06-3.17A3.12,3.12,0,0,0,487.72,577.91Z"/><path class="cls-2" d="M497.37,582.12V570.91h1.08v11.21Z"/><path class="cls-2" d="M509,578.12v.35h-7.13a3.19,3.19,0,0,0,3.21,3,3.83,3.83,0,0,0,2.71-1.11l.59.53a4.8,4.8,0,0,1-3.38,1.38,4.17,4.17,0,0,1-4.17-4.16,4.12,4.12,0,0,1,4.09-4.16A3.93,3.93,0,0,1,509,578.12Zm-7.12-.21H508a3,3,0,0,0-3.06-3.17A3.12,3.12,0,0,0,501.88,577.91Z"/><path class="cls-2" d="M518.23,575.24v-1.12h1.07v7.2c0,2.8-1.78,4.1-4.18,4.09a6.48,6.48,0,0,1-3.68-1.15l.35-.7a5.59,5.59,0,0,0,3.14,1,3,3,0,0,0,3.3-3.26v-.83a4,4,0,0,1-3.26,1.63,3.93,3.93,0,0,1-3.93-4.06A4,4,0,0,1,515,574,4.8,4.8,0,0,1,518.23,575.24Zm-6.12,2.82a3.2,3.2,0,0,0,3.21,3.18,3.33,3.33,0,0,0,2.91-1.71v-3.41a4,4,0,0,0-2.91-1.24A3.2,3.2,0,0,0,512.11,578.06Z"/><path class="cls-2" d="M529.19,577v5.17h-1.08v-1a5.5,5.5,0,0,1-3.58,1.19,2.58,2.58,0,0,1-2.81-2.59c0-1.55,1.21-2.35,3.14-2.36h3.25V577c0-1.55-1-2.23-2.49-2.23a4.86,4.86,0,0,0-2.92,1l-.35-.7a6.15,6.15,0,0,1,3.53-1.13C527.78,574,529.19,574.85,529.19,577Zm-4,.87c-1.53,0-2.44.6-2.44,1.78a2,2,0,0,0,2.16,2,5,5,0,0,0,3.16-1v-2.79Z"/><path class="cls-2" d="M539.74,577v5.13h-1.08v-4.85a2.16,2.16,0,0,0-2.27-2.43,5,5,0,0,0-3.35,1.3v6H532v-8H533v1.23a5.85,5.85,0,0,1,3.73-1.38A2.77,2.77,0,0,1,539.74,577Z"/><path class="cls-2" d="M546.65,574.11V575H544v4.39a1.92,1.92,0,0,0,2,2,2.38,2.38,0,0,0,1.15-.3l.18.75a3.83,3.83,0,0,1-1.69.44,2.59,2.59,0,0,1-2.68-2.77V575h-1.47v-.84H543v-2.37H544v2.37Z"/><path class="cls-2" d="M550.28,581.71a.67.67,0,0,1-1.32,0,.66.66,0,0,1,1.32,0Z"/></g><g id="_33_plus" class="svg-showtip" data-name="33_plus"><circle class="cls-3" cx="818.98" cy="690.3" r="25"/><line class="cls-4" x1="804.36" y1="690.3" x2="833.59" y2="690.3"/><line class="cls-4" x1="818.98" y1="704.91" x2="818.98" y2="675.68"/></g></svg>